<svg width="24" height="24" viewBox="0 0 24 24" fill="none" xmlns="http://www.w3.org/2000/svg">
<path fill-rule="evenodd" clip-rule="evenodd" d="M23 7.85981C23 7.97027 22.9105 8.05981 22.8 8.05981H1.2C1.08954 8.05981 1 7.97027 1 7.85981V6.25981C1 6.14936 1.08954 6.05981 1.2 6.05981H22.8C22.9105 6.05981 23 6.14936 23 6.25981V7.85981Z" fill="black" fill-opacity="0.85"/>
<path fill-rule="evenodd" clip-rule="evenodd" d="M15 12.8598C15 12.9703 14.9105 13.0598 14.8 13.0598H1.2C1.08954 13.0598 1 12.9703 1 12.8598V11.2598C1 11.1494 1.08954 11.0598 1.2 11.0598H14.8C14.9105 11.0598 15 11.1494 15 11.2598V12.8598Z" fill="black" fill-opacity="0.85"/>
<path fill-rule="evenodd" clip-rule="evenodd" d="M9 17.7402C9 17.8506 8.91046 17.9402 8.8 17.9402H1.2C1.08954 17.9402 1 17.8506 1 17.7402V16.1402C1 16.0297 1.08954 15.9402 1.2 15.9402H8.8C8.91046 15.9402 9 16.0297 9 16.1402V17.7402Z" fill="black" fill-opacity="0.85"/>
</svg>
