<?xml version="1.0" encoding="UTF-8"?>
<svg width="400px" height="351px" viewBox="0 0 400 351" version="1.1" xmlns="http://www.w3.org/2000/svg" xmlns:xlink="http://www.w3.org/1999/xlink">
    <title>Undraw-FileTransfer</title>
    <defs>
        <linearGradient x1="50.0015421%" y1="100.002232%" x2="50.0015421%" y2="0%" id="linearGradient-1">
            <stop stop-color="#808080" stop-opacity="0.25" offset="0%"></stop>
            <stop stop-color="#808080" stop-opacity="0.12" offset="54%"></stop>
            <stop stop-color="#808080" stop-opacity="0.1" offset="100%"></stop>
        </linearGradient>
        <linearGradient x1="50.0015421%" y1="100%" x2="50.0015421%" y2="0%" id="linearGradient-2">
            <stop stop-color="#808080" stop-opacity="0.25" offset="0%"></stop>
            <stop stop-color="#808080" stop-opacity="0.12" offset="54%"></stop>
            <stop stop-color="#808080" stop-opacity="0.1" offset="100%"></stop>
        </linearGradient>
        <linearGradient x1="49.9984579%" y1="100%" x2="49.9984579%" y2="0%" id="linearGradient-3">
            <stop stop-color="#808080" stop-opacity="0.25" offset="0%"></stop>
            <stop stop-color="#808080" stop-opacity="0.12" offset="54%"></stop>
            <stop stop-color="#808080" stop-opacity="0.1" offset="100%"></stop>
        </linearGradient>
    </defs>
    <g id="01.-UI-Transition" stroke="none" stroke-width="1" fill="none" fill-rule="evenodd">
        <g id="_Mining-Configuration00" transform="translate(-630.000000, -346.000000)">
            <g id="undraw_transfer_files_6tns" transform="translate(630.000000, 346.000000)">
                <g id="Group" opacity="0.5" transform="translate(250.800915, 145.257180)" fill="url(#linearGradient-1)" fill-rule="nonzero">
                    <rect id="Rectangle" x="0.375286041" y="0.348250653" width="148.389016" height="205.275431"></rect>
                </g>
                <rect id="Rectangle" fill="#FFFFFF" fill-rule="nonzero" x="253.066362" y="147.117572" width="144.613272" height="200.739008"></rect>
                <g id="Group" opacity="0.5" transform="translate(237.070938, 137.925587)" fill="url(#linearGradient-1)" fill-rule="nonzero">
                    <rect id="Rectangle" x="0.402745995" y="0.307010444" width="148.389016" height="205.275431"></rect>
                </g>
                <rect id="Rectangle" fill="#F5F5F5" fill-rule="nonzero" x="239.363844" y="139.744739" width="144.613272" height="200.739008"></rect>
                <g id="Group" opacity="0.5" transform="translate(224.256293, 131.052219)" fill="url(#linearGradient-2)" fill-rule="nonzero">
                    <rect id="Rectangle" x="0.329519451" y="0.426148825" width="148.389016" height="205.275431"></rect>
                </g>
                <rect id="Rectangle" fill="#FFFFFF" fill-rule="nonzero" x="226.475973" y="132.990509" width="144.613272" height="200.739008"></rect>
                <rect id="Rectangle" fill="#1890FF" fill-rule="nonzero" x="239.775744" y="166.495888" width="40.0915332" height="3.68412533"></rect>
                <rect id="Rectangle" fill="#E0E0E0" fill-rule="nonzero" x="239.775744" y="179.399491" width="117.816934" height="3.68412533"></rect>
                <rect id="Rectangle" fill="#E0E0E0" fill-rule="nonzero" x="239.775744" y="192.298512" width="91.6338673" height="3.68412533"></rect>
                <rect id="Rectangle" fill="#E0E0E0" fill-rule="nonzero" x="239.775744" y="205.202115" width="108.201373" height="3.68412533"></rect>
                <rect id="Rectangle" fill="#E0E0E0" fill-rule="nonzero" x="252.256293" y="218.105718" width="95.7254005" height="3.68412533"></rect>
                <rect id="Rectangle" fill="#3AD29F" fill-rule="nonzero" opacity="0.3" x="261.459954" y="231.004739" width="75.4782609" height="3.68412533"></rect>
                <rect id="Rectangle" fill="#E0E0E0" fill-rule="nonzero" x="252.256293" y="243.908342" width="93.8855835" height="3.68412533"></rect>
                <rect id="Rectangle" fill="#E0E0E0" fill-rule="nonzero" x="239.775744" y="256.807363" width="117.816934" height="3.68412533"></rect>
                <rect id="Rectangle" fill="#E0E0E0" fill-rule="nonzero" x="239.775744" y="269.710966" width="117.816934" height="3.68412533"></rect>
                <rect id="Rectangle" fill="#E0E0E0" fill-rule="nonzero" x="239.775744" y="282.614569" width="117.816934" height="3.68412533"></rect>
                <rect id="Rectangle" fill="#E0E0E0" fill-rule="nonzero" x="239.775744" y="295.51359" width="117.816934" height="3.68412533"></rect>
                <g id="Group" opacity="0.5" fill="url(#linearGradient-3)" fill-rule="nonzero">
                    <rect id="Rectangle" x="0" y="0" width="148.389016" height="205.275431"></rect>
                </g>
                <rect id="Rectangle" fill="#FFFFFF" fill-rule="nonzero" x="1.89016018" y="1.51214099" width="144.613272" height="200.739008"></rect>
                <rect id="Rectangle" fill="#E0E0E0" fill-rule="nonzero" x="26.8466819" y="73.7237467" width="96.5446224" height="3.68412533"></rect>
                <rect id="Rectangle" fill="#E0E0E0" fill-rule="nonzero" x="27.6659039" y="86.6273499" width="95.7254005" height="3.68412533"></rect>
                <rect id="Rectangle" fill="#E0E0E0" fill-rule="nonzero" x="36.8695652" y="99.530953" width="75.4782609" height="3.68412533"></rect>
                <rect id="Rectangle" fill="#E0E0E0" fill-rule="nonzero" x="27.6659039" y="112.429974" width="93.8855835" height="3.68412533"></rect>
                <rect id="Rectangle" fill="#E0E0E0" fill-rule="nonzero" x="26.8466819" y="125.333577" width="95.7254005" height="3.68412533"></rect>
                <rect id="Rectangle" fill="#E0E0E0" fill-rule="nonzero" x="26.8466819" y="138.232598" width="95.7254005" height="3.68412533"></rect>
                <rect id="Rectangle" fill="#E0E0E0" fill-rule="nonzero" x="26.8466819" y="151.136201" width="95.7254005" height="3.68412533"></rect>
                <rect id="Rectangle" fill="#E0E0E0" fill-rule="nonzero" x="26.8466819" y="164.039804" width="95.7254005" height="3.68412533"></rect>
                <rect id="Rectangle" fill="#1890FF" fill-rule="nonzero" x="28.173913" y="30.1053525" width="25.771167" height="22.1184987"></rect>
                <rect id="Rectangle" fill="#E0E0E0" fill-rule="nonzero" x="72.3524027" y="33.7894778" width="47.8627002" height="3.68412533"></rect>
                <rect id="Rectangle" fill="#3AD29F" fill-rule="nonzero" opacity="0.3" x="72.3524027" y="46.6930809" width="47.8627002" height="3.68412533"></rect>
                <g id="Group" opacity="0.3" transform="translate(167.505721, 46.280679)" stroke="#3AD29F" stroke-width="3">
                    <line x1="0.0686498856" y1="0.412402089" x2="2.81464531" y2="0.412402089" id="Path"></line>
                    <line x1="8.16475973" y1="0.412402089" x2="112.462243" y2="0.412402089" id="Path" stroke-dasharray="11.69"></line>
                    <polyline id="Path" points="115.139588 0.412402089 117.885584 0.412402089 117.885584 3.16174935"></polyline>
                    <line x1="117.885584" y1="9.0270235" x2="117.885584" y2="64.7700392" id="Path" stroke-dasharray="12.8"></line>
                    <line x1="117.885584" y1="67.7026762" x2="117.885584" y2="70.4520235" id="Path"></line>
                </g>
                <g id="Group" opacity="0.3" transform="translate(91.533181, 221.780679)" stroke="#3AD29F" stroke-width="3">
                    <line x1="118.379863" y1="70.0487859" x2="115.633867" y2="70.0487859" id="Path"></line>
                    <line x1="110.283753" y1="70.0487859" x2="5.98627002" y2="70.0487859" id="Path" stroke-dasharray="11.69"></line>
                    <polyline id="Path" points="3.30892449 70.0487859 0.562929062 70.0487859 0.562929062 67.2994386"></polyline>
                    <line x1="0.562929062" y1="61.4295822" x2="0.562929062" y2="5.69114883" id="Path" stroke-dasharray="12.8"></line>
                    <line x1="0.562929062" y1="2.75851175" x2="0.562929062" y2="0.00916449086" id="Path"></line>
                </g>
                <path d="M235.217391,76.1294256 C234.442125,75.7807784 234.049133,74.9072714 234.302059,74.0949086 C234.321628,74.0339511 234.333918,73.970888 234.338673,73.9070366 L234.338673,73.9070366 C234.362662,73.5346236 234.139277,73.1907261 233.789544,73.0616644 C233.439812,72.9326027 233.046947,73.0490852 232.823799,73.3480026 L232.823799,73.3480026 C232.786981,73.3992363 232.756262,73.4545979 232.732265,73.5129634 C232.384043,74.2891765 231.511601,74.6826481 230.700229,74.4294125 C230.639346,74.4098203 230.576359,74.3975153 230.512586,74.3927546 L230.512586,74.3927546 C230.140627,74.3687359 229.797149,74.5923941 229.668244,74.9425532 C229.53934,75.2927124 229.65568,75.6860574 229.954233,75.9094778 L229.954233,75.9094778 C230.005405,75.9463407 230.060699,75.9770972 230.118993,76.0011227 C230.89426,76.3497699 231.287252,77.2232769 231.034325,78.0356397 C231.014757,78.0965972 231.002467,78.1596603 230.997712,78.2235117 L230.997712,78.2235117 C230.973722,78.5959247 231.197108,78.9398223 231.54684,79.0688839 C231.896572,79.1979456 232.289438,79.0814632 232.512586,78.7825457 L232.512586,78.7825457 C232.549404,78.731312 232.580123,78.6759504 232.604119,78.6175849 C232.952341,77.8413718 233.824783,77.4479002 234.636156,77.7011358 C234.697039,77.720728 234.760025,77.733033 234.823799,77.7377937 L234.823799,77.7377937 C235.195758,77.7618124 235.539236,77.5381542 235.66814,77.1879951 C235.797044,76.8378359 235.680704,76.4444909 235.382151,76.2210705 L235.382151,76.2210705 C235.33098,76.1842076 235.275686,76.1534511 235.217391,76.1294256 Z" id="Path" fill="#1890FF" fill-rule="nonzero" opacity="0.3"></path>
                <path d="M176.265446,117.887428 C174.605901,117.166563 173.755478,115.309548 174.292906,113.580117 C174.334263,113.452289 174.360378,113.320013 174.370709,113.186044 L174.370709,113.186044 C174.427198,112.395666 173.954446,111.663264 173.211502,111.390165 C172.468559,111.117066 171.634782,111.369199 171.167048,112.008407 L171.167048,112.008407 C171.088022,112.116353 171.021968,112.233242 170.970252,112.356658 C170.251128,114.009295 168.40821,114.858939 166.686499,114.331606 C166.558826,114.290199 166.426712,114.264051 166.292906,114.253708 L166.292906,114.253708 C165.503492,114.19715 164.771982,114.670479 164.499216,115.41433 C164.22645,116.15818 164.478276,116.992974 165.116705,117.461279 L165.116705,117.461279 C165.224519,117.540402 165.341265,117.606536 165.464531,117.658316 C167.115153,118.378318 167.963761,120.223485 167.437071,121.947298 C167.395714,122.075126 167.369599,122.207402 167.359268,122.341371 L167.359268,122.341371 C167.302779,123.131749 167.775531,123.864151 168.518475,124.13725 C169.261418,124.41035 170.095195,124.158216 170.562929,123.519008 L170.562929,123.519008 C170.641955,123.411062 170.708009,123.294173 170.759725,123.170757 C171.478849,121.51812 173.321767,120.668476 175.043478,121.195809 C175.171151,121.237216 175.303265,121.263364 175.437071,121.273708 L175.437071,121.273708 C176.226486,121.330265 176.957995,120.856936 177.230761,120.113085 C177.503527,119.369235 177.251701,118.534441 176.613272,118.066136 L176.613272,118.066136 C176.504569,117.993392 176.387857,117.933427 176.265446,117.887428 Z" id="Path" fill="#1890FF" fill-rule="nonzero" opacity="0.3"></path>
                <path d="M212.425629,238.033903 C210.661596,238.392472 208.909446,237.369466 208.352403,235.655718 C208.313567,235.527652 208.259803,235.404612 208.19222,235.289138 L208.19222,235.289138 C207.78356,234.61851 206.983745,234.295909 206.224891,234.495629 C205.466038,234.695348 204.928056,235.370038 204.901602,236.155183 L204.901602,236.155183 C204.898124,236.289046 204.910413,236.422854 204.938215,236.553838 C205.296347,238.320025 204.274588,240.074313 202.562929,240.632037 C202.43502,240.670919 202.312129,240.72475 202.196796,240.792415 L202.196796,240.792415 C201.526985,241.201573 201.204778,242.002365 201.404254,242.762145 C201.60373,243.521925 202.277598,244.060563 203.061785,244.08705 L203.061785,244.08705 C203.195485,244.090531 203.32913,244.078227 203.459954,244.050392 C205.223988,243.691823 206.976138,244.714829 207.533181,246.428577 C207.572016,246.556643 207.625781,246.679683 207.693364,246.795157 L207.693364,246.795157 C208.102023,247.465785 208.901839,247.788386 209.660692,247.588666 C210.419546,247.388947 210.957528,246.714257 210.983982,245.929112 L210.983982,245.929112 C210.987459,245.795249 210.97517,245.661441 210.947368,245.530457 C210.589236,243.76427 211.610996,242.009982 213.322654,241.452258 C213.450564,241.413376 213.573455,241.359545 213.688787,241.29188 L213.688787,241.29188 C214.358598,240.882722 214.680805,240.08193 214.481329,239.32215 C214.281853,238.562371 213.607986,238.023732 212.823799,237.997245 L212.823799,237.997245 C212.690098,237.993764 212.556454,238.006068 212.425629,238.033903 Z" id="Path" fill="#1890FF" fill-rule="nonzero" opacity="0.3"></path>
                <path d="M140.022883,261.710366 C139.247617,261.361718 138.854625,260.488211 139.107551,259.675849 C139.12712,259.614891 139.13941,259.551828 139.144165,259.487977 L139.144165,259.487977 C139.168154,259.115564 138.944769,258.771666 138.595036,258.642604 C138.245304,258.513543 137.852439,258.630025 137.629291,258.928943 L137.629291,258.928943 C137.592473,258.980176 137.561754,259.035538 137.537757,259.093903 C137.189535,259.870116 136.317093,260.263588 135.505721,260.010352 C135.444838,259.99076 135.381851,259.978455 135.318078,259.973695 L135.318078,259.973695 C134.946119,259.949676 134.602641,260.173334 134.473736,260.523493 C134.344832,260.873652 134.461172,261.266997 134.759725,261.490418 L134.759725,261.490418 C134.810897,261.527281 134.866191,261.558037 134.924485,261.582063 C135.699752,261.93071 136.092744,262.804217 135.839817,263.61658 C135.820249,263.677537 135.807959,263.7406 135.803204,263.804452 L135.803204,263.804452 C135.779214,264.176865 136.0026,264.520762 136.352332,264.649824 C136.702064,264.778886 137.09493,264.662403 137.318078,264.363486 L137.318078,264.363486 C137.354896,264.312252 137.385615,264.25689 137.409611,264.198525 C137.757833,263.422312 138.630275,263.02884 139.441648,263.282076 C139.502531,263.301668 139.565517,263.313973 139.629291,263.318734 L139.629291,263.318734 C140.00125,263.342752 140.344728,263.119094 140.473632,262.768935 C140.602536,262.418776 140.486196,262.025431 140.187643,261.80201 L140.187643,261.80201 C140.136472,261.765148 140.081178,261.734391 140.022883,261.710366 L140.022883,261.710366 Z" id="Path" fill="#1890FF" fill-rule="nonzero" opacity="0.3"></path>
            </g>
        </g>
    </g>
</svg>