<?xml version="1.0" encoding="UTF-8"?>
<svg width="20px" height="20px" viewBox="0 0 24 24" version="1.1" xmlns="http://www.w3.org/2000/svg" xmlns:xlink="http://www.w3.org/1999/xlink">
    <defs>
        <path d="M5.0045,13.0004 L10.0015,13.0254 C10.5515,13.0284 10.9965,13.4744 10.9965,14.0244 L10.9965,14.0244 L11.0005,18.9994 C11.0005,19.5514 10.5525,20.0004 10.0005,20.0004 L10.0005,20.0004 L9.88374672,19.9936686 C9.38592347,19.9358745 9.0005,19.5130429 9.0005,19.0014 L9.0005,19.0014 L8.9985,16.4164 L5.7075,19.7074 C5.5115,19.9024 5.2555,20.0004 5.0005,20.0004 C4.7445,20.0004 4.4885,19.9024 4.2935,19.7074 C3.9025,19.3164 3.9025,18.6834 4.2935,18.2934 L4.2935,18.2934 L7.5725,15.0134 L4.9955,15.0004 C4.4425,14.9974 3.9975,14.5464 4.0005,13.9954 C4.0025,13.4444 4.4505,13.0004 5.0005,13.0004 L5.0005,13.0004 L5.0045,13.0004 Z M14.0005,4 C14.5505,4 14.9975,4.444 15.0005,4.995 L15.0005,4.995 L15.0125,7.573 L18.2925,4.293 C18.6835,3.902 19.3165,3.902 19.7075,4.293 C20.0975,4.684 20.0975,5.316 19.7075,5.707 L19.7075,5.707 L16.4155,8.999 L19.0005,9 C19.5525,9 20.0005,9.448 20.0005,10.001 C19.9995,10.553 19.5515,11 19.0005,11 L19.0005,11 L18.9995,11 L14.0245,10.997 C13.4745,10.997 13.0275,10.552 13.0245,10.002 L13.0245,10.002 L13.0004849,5.005 C12.9975,4.453 13.4425,4.003 13.9955,4 L13.9955,4 Z" id="path-1"></path>
    </defs>
    <g id="27)-Icon/collapse" stroke="white" stroke-width="1" fill="white" fill-rule="evenodd">
        <mask id="mask-2" fill="white">
            <use xlink:href="#path-1"></use>
        </mask>
        <use id="🎨-Icon-Сolor" fill="#fff" xlink:href="#path-1"></use>
    </g>
</svg>