<svg width="526" height="91" viewBox="0 0 526 91" fill="none" xmlns="http://www.w3.org/2000/svg">
<path d="M86.9549 68.717C101.795 67.7426 116.825 67.5923 131.721 67.8523C135.637 67.9207 139.553 67.9891 143.469 68.0574C144.415 68.0739 145.361 68.0904 146.307 68.107C148.662 68.1481 144.092 66.5937 143.59 66.4134C141.24 65.5704 139.964 64.4754 138.278 62.9066C138.149 62.7857 142.464 66.2921 144.094 67.2453C145.822 68.2559 147.96 68.1311 145.999 70.022C144.508 71.4597 143.103 72.0853 141.278 72.9575" stroke="#262626" stroke-width="2" stroke-linecap="round" stroke-linejoin="round"/>
<path d="M148.131 59.1846C148.101 60.8777 149.212 62.9578 149.557 64.6317C149.991 66.7358 149.598 69.2306 149.561 71.3795C149.549 72.0679 149.576 74.4454 150.67 74.0798C155.192 72.5696 160.892 72.4855 165.67 72.5041C173.365 72.5341 181.017 71.6875 188.749 71.8225C192.957 71.896 197.165 71.9694 201.374 72.0429C211.293 72.216 221.18 72.9308 231.117 73.1043C232.788 73.1334 234.615 73.4349 233.645 71.2205C232.084 67.6578 232.429 62.4268 232.496 58.6088C232.557 55.0886 226.029 56.9915 223.636 57.1287C214.378 57.6596 205.048 58.0092 195.779 57.8474C180.055 57.573 164.434 57.3003 148.716 57.0259" stroke="#262626" stroke-width="2" stroke-linecap="round" stroke-linejoin="round"/>
<path d="M232.015 66.5401C234.428 64.2539 237.679 62.7029 240.334 60.6557C246.011 56.2782 252.04 52.3894 257.955 48.3072C263.493 44.4852 269.197 39.4088 275.793 37.4549C282.188 35.5606 289.546 36.0912 296.037 37.0023C296.512 37.069 298.268 37.7858 297.702 37.4791C296.595 36.8795 295.231 36.2928 294.205 35.6271C293.065 34.8877 292.43 33.3933 291.212 32.769C289.394 31.8379 292.064 34.2796 292.58 34.554C295.144 35.9185 297.374 38.9278 300.157 39.7607C302.128 40.3504 294.669 44.7058 293.188 45.0418" stroke="#262626" stroke-width="2" stroke-linecap="round" stroke-linejoin="round"/>
<path d="M235.979 68.6099C241.803 69.6525 247.018 73.9 252.904 75.1071C259.024 76.3622 265.601 77.1828 271.827 77.2915C277.155 77.3845 282.444 76.9014 287.801 76.9949C289.272 77.0206 296.038 78.6966 292.989 75.3912C291.773 74.0726 286.877 72.7184 290.537 74.1656C293.549 75.3563 299.849 76.2782 295.152 79.1692C294.309 79.6879 292.084 80.881 291.836 81.9565C291.767 82.2574 291.217 84.1835 291.231 83.3845" stroke="#262626" stroke-width="2" stroke-linecap="round" stroke-linejoin="round"/>
<path d="M300.643 31.1351C300.555 36.1741 303.784 40.4763 303.695 45.5965C303.674 46.8131 303.752 46.2155 303.577 45.3573C303.038 42.7276 303.394 40.1167 303.164 37.4641C302.879 34.1857 302.103 30.7194 302.36 27.4296C302.462 26.1236 330.612 27.3891 334.175 27.4513C345.662 27.6518 357.03 26.5568 368.456 26.4488C371.75 26.4176 374.942 26.0283 378.252 26.0861C382.284 26.1565 381.094 27.965 381.031 31.5896C380.982 34.3899 380.856 37.1239 381.314 39.8955C381.44 40.656 381.622 41.9393 381.266 42.6814C380.817 43.6162 381.219 43.8568 381.108 44.6946C381.04 45.2086 376.932 45.2714 376.693 45.2698C369.011 45.2166 361.313 44.7656 353.632 44.9858C349.025 45.1179 344.501 46.2544 339.905 46.2285C334.807 46.1998 329.711 45.981 324.613 45.9616C319.451 45.942 313.551 45.8596 308.449 46.6282C307.352 46.7935 304.192 47.1554 303.686 46.13" stroke="#262626" stroke-width="2" stroke-linecap="round" stroke-linejoin="round"/>
<path d="M301.002 73.0657C300.951 75.9855 301.964 78.9417 302.363 81.8211C302.538 83.0853 302.401 85.4453 303.007 86.5671C303.323 87.1529 312.284 86.5338 313.06 86.5274C327.31 86.4099 341.42 85.9463 355.701 86.1956C358.653 86.2471 361.546 85.7442 364.55 85.7966C367.536 85.8488 370.891 86.3033 373.817 85.6817C376.161 85.1838 378.735 85.4908 381.117 85.5324C382.522 85.5569 381.076 81.131 380.881 79.9942C380.468 77.583 379.44 75.8353 379.483 73.3288C379.524 71.0147 379.25 71.1111 376.979 71.0714C362.477 70.8183 347.946 72.2249 333.421 71.9713C322.097 71.7737 311.166 71.5829 299.941 71.387" stroke="#262626" stroke-width="2" stroke-linecap="round" stroke-linejoin="round"/>
<path d="M380.544 37.5328C393.751 37.7634 406.93 36.8742 420.141 37.1048C422.246 37.1416 424.352 37.1783 426.457 37.215C429.861 37.2745 424.422 35.1798 423.167 34.3596C423.008 34.2552 419.546 32.3227 419.703 32.9312C420.191 34.8259 425.588 36.1866 427.121 37.1023C428.843 38.1316 423.442 43.2054 422.129 43.8548" stroke="#262626" stroke-width="2" stroke-linecap="round" stroke-linejoin="round"/>
<path d="M381.811 79.522C385.092 77.917 390.556 78.761 394.144 78.5873C399.183 78.3433 404.143 78.2335 409.202 78.3218C412.202 78.3741 415.201 78.4265 418.201 78.4788C420.487 78.5187 422.967 79.7524 425.245 79.1301C425.584 79.0375 423.709 78.0309 423.564 77.8887C422.67 77.0133 421.822 75.9608 420.75 75.291C419.709 74.64 420.795 74.7511 421.421 75.1784C423.534 76.6198 425.538 78.2303 427.669 79.6387C430.656 81.6123 426.889 81.5798 425.653 83.6439C425.165 84.4578 423.829 87.0598 423.86 85.2909" stroke="#262626" stroke-width="2" stroke-linecap="round" stroke-linejoin="round"/>
<path d="M434.973 42.0787L432.218 28.0285L438.752 26.1422L475.746 26.788L512.732 27.9337L512.478 42.4314L434.973 42.0787Z" fill="#62B5E5"/>
<path d="M431.713 28.2728C431.976 30.9794 433.465 33.5206 433.73 36.2567C433.881 37.8116 433.663 39.9246 434.647 41.1597C435.289 41.9653 434.721 42.236 436.212 42.0114C440.74 41.3292 445.44 41.7603 450.005 41.84C456.216 41.9484 462.441 41.9456 468.649 42.1654C481.53 42.6216 494.533 42.0873 507.587 42.3152C508.684 42.3343 512.919 43.0924 512.946 41.5844C513.003 38.2987 513.605 35.1206 513.663 31.8229C513.709 29.2027 513.868 27.8627 510.7 27.5613C508.584 27.36 506.524 27.9889 504.405 27.9519C500.326 27.8807 496.247 27.8095 492.168 27.7383C478.713 27.5034 465.273 26.7389 451.852 26.5047C448.464 26.4455 444.646 25.9434 441.311 26.5856C439.373 26.9587 436.422 27.2952 434.465 27.261" stroke="#262626" stroke-width="2" stroke-linecap="round" stroke-linejoin="round"/>
<path d="M442.89 38.2162L443.015 31.0786L443.845 31.0931L443.733 37.4788L446.882 37.5338L446.869 38.2856L442.89 38.2162ZM452.628 35.7051C452.612 36.5774 452.381 37.2554 451.933 37.7392C451.485 38.2197 450.874 38.4532 450.099 38.4397C449.621 38.4314 449.198 38.3117 448.831 38.0806C448.464 37.8495 448.183 37.5223 447.988 37.099C447.794 36.6756 447.702 36.1823 447.711 35.6193C447.727 34.747 447.957 34.0722 448.401 33.5949C448.846 33.1143 449.456 32.8807 450.23 32.8943C450.979 32.9073 451.568 33.1667 451.999 33.6723C452.433 34.178 452.643 34.8556 452.628 35.7051ZM448.551 35.6339C448.539 36.3174 448.667 36.8406 448.934 37.2034C449.201 37.5662 449.6 37.7522 450.131 37.7614C450.661 37.7707 451.066 37.6003 451.346 37.2503C451.629 36.8972 451.776 36.3772 451.788 35.6904C451.8 35.0102 451.671 34.4919 451.4 34.1356C451.133 33.776 450.731 33.5916 450.194 33.5822C449.663 33.573 449.26 33.7401 448.984 34.0836C448.707 34.4272 448.563 34.9439 448.551 35.6339ZM458.376 38.4865L457.449 35.3302C457.391 35.1371 457.283 34.699 457.126 34.0158L457.087 34.0151C456.946 34.5824 456.825 35.0198 456.722 35.3273L455.657 38.439L454.719 38.4227L453.353 33.0465L454.202 33.0613C454.524 34.4115 454.768 35.4397 454.935 36.1458C455.105 36.852 455.201 37.3274 455.222 37.572L455.262 37.5726C455.301 37.3877 455.362 37.1495 455.445 36.858C455.531 36.5632 455.606 36.3301 455.667 36.1586L456.702 33.1049L457.581 33.1202L458.484 36.2078C458.657 36.7708 458.772 37.2432 458.831 37.6252L458.87 37.6258C458.885 37.5089 458.922 37.3289 458.982 37.0857C459.044 36.8426 459.407 35.5353 460.071 33.1637L460.91 33.1784L459.338 38.5033L458.376 38.4865ZM464.047 38.6832C463.256 38.6694 462.636 38.4176 462.185 37.9279C461.738 37.4382 461.522 36.7654 461.537 35.9094C461.552 35.0469 461.775 34.3655 462.207 33.8652C462.642 33.3649 463.218 33.121 463.934 33.1335C464.605 33.1452 465.131 33.3758 465.514 33.8252C465.897 34.2714 466.082 34.8558 466.069 35.5783L466.061 36.091L462.375 36.0266C462.38 36.6551 462.529 37.1346 462.823 37.4653C463.12 37.7961 463.542 37.9662 464.089 37.9758C464.665 37.9858 465.237 37.8754 465.804 37.6443L465.791 38.3669C465.503 38.4856 465.229 38.5687 464.971 38.6163C464.717 38.6672 464.408 38.6895 464.047 38.6832ZM463.912 33.8119C463.483 33.8044 463.137 33.9384 462.875 34.2138C462.616 34.4893 462.46 34.874 462.406 35.3679L465.203 35.4167C465.212 34.9057 465.105 34.5132 464.882 34.239C464.659 33.9617 464.336 33.8193 463.912 33.8119ZM469.939 33.2383C470.177 33.2424 470.389 33.2657 470.578 33.308L470.452 34.0579C470.232 34.0052 470.037 33.9774 469.868 33.9745C469.435 33.9669 469.061 34.1362 468.745 34.4823C468.433 34.8285 468.273 35.2636 468.263 35.7876L468.213 38.6582L467.403 38.6441L467.496 33.2933L468.165 33.305L468.241 34.2977L468.28 34.2984C468.484 33.9536 468.728 33.6892 469.011 33.5053C469.295 33.3215 469.604 33.2324 469.939 33.2383ZM474.328 31.6252L476.345 31.6604C477.292 31.6769 477.974 31.8305 478.392 32.121C478.811 32.4115 479.014 32.8628 479.004 33.4747C478.996 33.8978 478.871 34.2456 478.629 34.5181C478.39 34.7874 478.043 34.9588 477.59 35.0322L477.589 35.0811C478.669 35.2855 479.201 35.8645 479.185 36.8182C479.173 37.4561 478.948 37.9503 478.509 38.3007C478.073 38.6513 477.468 38.8198 476.693 38.8062L474.204 38.7628L474.328 31.6252ZM475.105 34.6959L476.472 34.7197C477.058 34.7299 477.481 34.6462 477.741 34.4684C478.001 34.2874 478.135 33.9788 478.143 33.5426C478.15 33.1423 478.012 32.8518 477.728 32.671C477.445 32.487 476.991 32.3896 476.366 32.3786L475.146 32.3573L475.105 34.6959ZM475.093 35.3989L475.046 38.0694L476.535 38.0954C477.111 38.1054 477.546 38.0023 477.839 37.786C478.136 37.5666 478.289 37.2193 478.297 36.7441C478.305 36.3014 478.161 35.9733 477.865 35.7598C477.572 35.5463 477.122 35.4343 476.513 35.4237L475.093 35.3989ZM485.23 36.2742C485.215 37.1464 484.983 37.8245 484.535 38.3083C484.087 38.7888 483.476 39.0223 482.702 39.0088C482.223 39.0004 481.8 38.8807 481.433 38.6497C481.066 38.4186 480.785 38.0914 480.591 37.668C480.396 37.2446 480.304 36.7514 480.314 36.1884C480.329 35.3161 480.559 34.6413 481.004 34.164C481.448 33.6834 482.058 33.4498 482.833 33.4633C483.581 33.4764 484.171 33.7358 484.601 34.2414C485.035 34.7471 485.245 35.4247 485.23 36.2742ZM481.154 36.203C481.142 36.8865 481.269 37.4096 481.536 37.7724C481.804 38.1352 482.202 38.3213 482.733 38.3305C483.263 38.3398 483.669 38.1694 483.948 37.8194C484.231 37.4662 484.378 36.9463 484.39 36.2595C484.402 35.5793 484.273 35.061 484.003 34.7047C483.735 34.3451 483.333 34.1607 482.796 34.1513C482.266 34.142 481.862 34.3092 481.586 34.6527C481.31 34.9963 481.166 35.513 481.154 36.203ZM487.464 33.6419L487.403 37.113C487.396 37.5491 487.489 37.8763 487.684 38.0946C487.879 38.3129 488.188 38.4257 488.611 38.4331C489.171 38.4429 489.582 38.297 489.844 37.9956C490.11 37.6942 490.249 37.1969 490.261 36.5036L490.31 33.6915L491.121 33.7057L491.027 39.0564L490.358 39.0448L490.254 38.3251L490.21 38.3243C490.039 38.585 489.805 38.7828 489.506 38.9176C489.211 39.0524 488.874 39.1165 488.497 39.1099C487.846 39.0986 487.36 38.9355 487.04 38.6206C486.723 38.3058 486.571 37.8082 486.583 37.128L486.644 33.6275L487.464 33.6419ZM496.412 39.1504L496.473 35.689C496.48 35.2529 496.387 34.9257 496.192 34.7074C495.997 34.4892 495.688 34.3763 495.265 34.3689C494.705 34.3592 494.292 34.5034 494.027 34.8015C493.761 35.0996 493.622 35.597 493.61 36.2935L493.561 39.1007L492.751 39.0865L492.844 33.7358L493.503 33.7473L493.622 34.4819L493.661 34.4826C493.832 34.2218 494.068 34.0225 494.37 33.8845C494.672 33.7433 495.007 33.6759 495.375 33.6823C496.019 33.6935 496.501 33.8582 496.821 34.1763C497.141 34.4912 497.295 34.9904 497.284 35.6739L497.223 39.1646L496.412 39.1504ZM502.547 38.5396L502.503 38.5389C502.119 39.0759 501.555 39.3379 500.809 39.3249C500.109 39.3126 499.568 39.0639 499.186 38.5786C498.807 38.0934 498.625 37.4098 498.641 36.5278C498.656 35.6458 498.864 34.9641 499.263 34.4827C499.662 34.0013 500.209 33.7667 500.906 33.7788C501.632 33.7915 502.184 34.0648 502.562 34.5989L502.625 34.6L502.598 34.2137L502.585 33.8374L502.623 31.66L503.433 31.6742L503.301 39.2707L502.642 39.2592L502.547 38.5396ZM500.924 38.648C501.477 38.6577 501.88 38.515 502.132 38.2198C502.388 37.9215 502.522 37.4371 502.534 36.7667L502.537 36.5958C502.55 35.8374 502.433 35.295 502.184 34.9683C501.939 34.6385 501.54 34.4687 500.987 34.459C500.512 34.4508 500.144 34.6299 499.884 34.9965C499.627 35.3599 499.492 35.8785 499.48 36.5522C499.468 37.2357 499.585 37.7538 499.829 38.1064C500.074 38.459 500.439 38.6396 500.924 38.648Z" fill="black" fill-opacity="0.85"/>
<path d="M436.722 85.1155L433.967 71.0653L440.483 70.1789L477.478 70.8246L514.463 71.9703L514.236 84.9683L475.234 84.7876L436.722 85.1155Z" fill="#62B5E5"/>
<path d="M434.012 73.8466C433.984 75.446 434.786 77.8582 435.283 79.3813C435.759 80.8418 435.321 82.8904 436.323 84.1789C438.313 86.7373 442.749 86.1384 445.557 86.1874C451.669 86.294 458.086 85.738 464.172 85.1928C469.863 84.6829 475.689 85.13 481.401 85.2297C485.648 85.3038 489.834 84.8491 494.108 84.9237C498.26 84.9961 502.412 85.0686 506.564 85.1411C508.085 85.1676 513.508 86.119 514.647 85.1649C514.99 84.8772 514.3 80.6655 514.311 79.9984C514.349 77.8627 514.98 74.9809 514.405 72.9041C513.863 70.949 501.343 71.3273 499.786 71.3002C492.951 71.1809 486.115 71.0615 479.28 70.9422C469.096 70.7645 458.998 71.116 448.831 70.9385C444.66 70.8657 436.754 69.442 432.964 71.1894" stroke="#262626" stroke-width="2" stroke-linecap="round" stroke-linejoin="round"/>
<path d="M441.14 81.1918L441.264 74.0542L442.094 74.0687L441.983 80.4544L445.132 80.5094L445.119 81.2612L441.14 81.1918ZM450.877 78.6807C450.862 79.5529 450.631 80.231 450.183 80.7148C449.735 81.1953 449.123 81.4288 448.349 81.4153C447.87 81.4069 447.448 81.2872 447.08 81.0562C446.713 80.8251 446.433 80.4979 446.238 80.0745C446.044 79.6512 445.951 79.1579 445.961 78.5949C445.976 77.7226 446.206 77.0478 446.651 76.5705C447.096 76.0899 447.705 75.8563 448.48 75.8699C449.228 75.8829 449.818 76.1423 450.249 76.6479C450.683 77.1536 450.892 77.8312 450.877 78.6807ZM446.801 78.6095C446.789 79.293 446.917 79.8162 447.184 80.1789C447.451 80.5417 447.85 80.7278 448.38 80.737C448.911 80.7463 449.316 80.5759 449.595 80.2259C449.878 79.8727 450.026 79.3528 450.038 78.666C450.05 77.9858 449.92 77.4675 449.65 77.1112C449.383 76.7516 448.98 76.5672 448.443 76.5578C447.913 76.5485 447.51 76.7157 447.233 77.0592C446.957 77.4028 446.813 77.9195 446.801 78.6095ZM456.626 81.4621L455.699 78.3058C455.641 78.1127 455.533 77.6745 455.375 76.9913L455.336 76.9907C455.196 77.558 455.075 77.9954 454.972 78.3029L453.906 81.4146L452.969 81.3983L451.603 76.022L452.452 76.0369C452.774 77.3871 453.018 78.4153 453.185 79.1214C453.355 79.8276 453.45 80.303 453.472 80.5475L453.511 80.5482C453.55 80.3633 453.611 80.1251 453.695 79.8335C453.781 79.5388 453.855 79.3057 453.917 79.1342L454.952 76.0805L455.831 76.0958L456.734 79.1834C456.906 79.7464 457.022 80.2188 457.08 80.6008L457.119 80.6014C457.134 80.4845 457.172 80.3045 457.231 80.0613C457.294 79.8182 457.657 78.5109 458.32 76.1393L459.16 76.154L457.587 81.4789L456.626 81.4621ZM462.297 81.6588C461.506 81.6449 460.885 81.3932 460.435 80.9035C459.988 80.4138 459.771 79.741 459.786 78.885C459.801 78.0225 460.025 77.3411 460.457 76.8408C460.892 76.3405 461.468 76.0966 462.184 76.1091C462.854 76.1208 463.381 76.3513 463.764 76.8008C464.147 77.247 464.332 77.8314 464.319 78.5539L464.31 79.0665L460.624 79.0022C460.63 79.6306 460.779 80.1102 461.073 80.4409C461.37 80.7717 461.792 80.9418 462.339 80.9514C462.915 80.9614 463.486 80.8509 464.054 80.6199L464.041 81.3425C463.752 81.4611 463.479 81.5443 463.221 81.5919C462.966 81.6428 462.658 81.6651 462.297 81.6588ZM462.162 76.7875C461.733 76.78 461.387 76.914 461.125 77.1894C460.866 77.4648 460.71 77.8495 460.655 78.3435L463.453 78.3923C463.462 77.8813 463.355 77.4888 463.131 77.2146C462.908 76.9373 462.585 76.7949 462.162 76.7875ZM468.189 76.2139C468.426 76.218 468.639 76.2413 468.827 76.2836L468.702 77.0335C468.481 76.9808 468.287 76.953 468.117 76.95C467.684 76.9425 467.31 77.1118 466.995 77.4579C466.683 77.804 466.522 78.2391 466.513 78.7631L466.463 81.6338L465.653 81.6197L465.746 76.2689L466.415 76.2806L466.49 77.2733L466.529 77.2739C466.734 76.9292 466.978 76.6648 467.261 76.4809C467.544 76.297 467.853 76.208 468.189 76.2139ZM472.578 74.6008L474.594 74.636C475.541 74.6525 476.224 74.806 476.642 75.0966C477.06 75.3871 477.264 75.8384 477.253 76.4502C477.246 76.8734 477.121 77.2212 476.879 77.4937C476.64 77.763 476.293 77.9344 475.839 78.0078L475.838 78.0566C476.919 78.2611 477.451 78.8401 477.434 79.7937C477.423 80.4317 477.198 80.9259 476.759 81.2763C476.323 81.6268 475.718 81.7953 474.943 81.7818L472.453 81.7384L472.578 74.6008ZM473.355 77.6714L474.721 77.6953C475.307 77.7055 475.73 77.6218 475.991 77.444C476.251 77.2629 476.385 76.9544 476.393 76.5182C476.4 76.1179 476.261 75.8274 475.978 75.6466C475.695 75.4626 475.241 75.3651 474.616 75.3542L473.395 75.3329L473.355 77.6714ZM473.342 78.3745L473.296 81.045L474.785 81.0709C475.361 81.081 475.796 80.9779 476.089 80.7616C476.386 80.5422 476.538 80.1948 476.547 79.7197C476.555 79.277 476.41 78.9489 476.115 78.7354C475.822 78.5219 475.372 78.4099 474.763 78.3993L473.342 78.3745ZM483.48 79.2498C483.465 80.122 483.233 80.8001 482.785 81.2838C482.337 81.7644 481.726 81.9979 480.951 81.9844C480.473 81.976 480.05 81.8563 479.683 81.6253C479.316 81.3942 479.035 81.067 478.841 80.6436C478.646 80.2202 478.554 79.727 478.564 79.1639C478.579 78.2917 478.809 77.6169 479.253 77.1395C479.698 76.6589 480.308 76.4254 481.082 76.4389C481.831 76.452 482.42 76.7114 482.851 77.217C483.285 77.7227 483.495 78.4003 483.48 79.2498ZM479.403 79.1786C479.391 79.8621 479.519 80.3852 479.786 80.748C480.053 81.1108 480.452 81.2968 480.983 81.3061C481.513 81.3154 481.918 81.145 482.198 80.795C482.481 80.4418 482.628 79.9218 482.64 79.2351C482.652 78.5549 482.523 78.0366 482.252 77.6802C481.985 77.3207 481.583 77.1363 481.046 77.1269C480.515 77.1176 480.112 77.2848 479.836 77.6283C479.56 77.9718 479.415 78.4886 479.403 79.1786ZM485.714 76.6174L485.653 80.0886C485.645 80.5247 485.739 80.8519 485.934 81.0702C486.129 81.2885 486.438 81.4013 486.861 81.4087C487.42 81.4185 487.832 81.2726 488.094 80.9712C488.36 80.6698 488.499 80.1725 488.511 79.4792L488.56 76.6671L489.37 76.6813L489.277 82.032L488.608 82.0203L488.503 81.3006L488.46 81.2999C488.289 81.5606 488.054 81.7584 487.756 81.8931C487.46 82.028 487.124 82.0921 486.746 82.0855C486.095 82.0742 485.61 81.911 485.29 81.5962C484.973 81.2813 484.82 80.7838 484.832 80.1036L484.893 76.6031L485.714 76.6174ZM494.662 82.126L494.722 78.6646C494.73 78.2285 494.636 77.9013 494.442 77.683C494.247 77.4647 493.938 77.3519 493.515 77.3445C492.955 77.3348 492.542 77.4789 492.276 77.7771C492.011 78.0752 491.872 78.5726 491.86 79.2691L491.811 82.0762L491 82.0621L491.094 76.7114L491.753 76.7229L491.872 77.4575L491.911 77.4582C492.081 77.1974 492.318 76.9981 492.62 76.8601C492.922 76.7188 493.257 76.6514 493.624 76.6579C494.269 76.6691 494.751 76.8338 495.071 77.1519C495.391 77.4668 495.545 77.966 495.533 78.6495L495.472 82.1402L494.662 82.126ZM500.796 81.5152L500.753 81.5144C500.369 82.0515 499.804 82.3134 499.059 82.3004C498.359 82.2882 497.818 82.0395 497.436 81.5542C497.057 81.069 496.875 80.3854 496.891 79.5034C496.906 78.6214 497.113 77.9396 497.512 77.4583C497.911 76.9769 498.459 76.7422 499.156 76.7544C499.881 76.7671 500.433 77.0404 500.812 77.5744L500.875 77.5756L500.848 77.1893L500.835 76.813L500.873 74.6356L501.683 74.6498L501.55 82.2463L500.891 82.2348L500.796 81.5152ZM499.173 81.6236C499.727 81.6333 500.13 81.4905 500.382 81.1954C500.638 80.8971 500.772 80.4127 500.783 79.7423L500.786 79.5714C500.8 78.813 500.682 78.2705 500.434 77.9439C500.189 77.614 499.79 77.4443 499.237 77.4346C498.761 77.4263 498.394 77.6055 498.133 77.9721C497.876 78.3355 497.742 78.8541 497.73 79.5278C497.718 80.2113 497.834 80.7294 498.079 81.082C498.324 81.4346 498.688 81.6152 499.173 81.6236Z" fill="black" fill-opacity="0.85"/>
<path d="M1.84928 74.0244L2.12852 58.0269L7.1103 59.114L44.1047 59.7597L87.6155 59.519L87.3363 75.5166L1.84928 74.0244Z" fill="#9DD4CF"/>
<path d="M1.93497 74.2779C1.95776 72.9724 2.03495 71.6533 2.00371 70.3454C2.00225 70.4252 2.00083 70.505 1.99944 70.5848L1.93497 74.2779Z" fill="#9DD4CF"/>
<path d="M1.12115 58.44C1.2609 62.2007 1.79286 66.0038 1.98313 69.7841C2.05818 71.2752 1.96103 72.7854 1.93497 74.2779C1.91349 75.509 1.97795 71.8159 1.99944 70.5848C2.05063 67.6518 2.14252 64.7163 2.15308 61.7829C2.1555 61.1085 1.34573 58.1309 1.98231 57.6854C2.87622 57.0599 9.35888 58.6445 10.5046 58.727C16.905 59.1877 23.2774 59.3809 29.6923 59.4929C44.1399 59.7451 58.6215 59.9979 73.0479 60.2497C76.6242 60.3121 80.0656 60.1164 83.6235 59.9109C86.4122 59.7498 88.207 58.9744 87.4553 62.4714C86.7763 65.6304 86.8389 69.9853 87.663 73.1268C88.5204 76.3952 86.42 75.4448 83.4441 75.3928C69.1879 75.144 54.9902 74.8962 40.7545 74.6477C27.8389 74.4222 14.9372 74.7512 1.93068 74.5242" stroke="#262626" stroke-width="2" stroke-linecap="round" stroke-linejoin="round"/>
<path d="M20.5252 62.7096L20.4446 67.328C20.4304 68.1417 20.1735 68.777 19.6739 69.2338C19.1743 69.6907 18.4949 69.9116 17.6356 69.8966C16.7764 69.8816 16.1149 69.6356 15.6511 69.1587C15.1906 68.6819 14.9675 68.0333 14.9819 67.2131L15.0621 62.6142L15.8921 62.6287L15.8108 67.2862C15.8004 67.8818 15.9551 68.342 16.2751 68.6666C16.595 68.9912 17.0706 69.1591 17.702 69.1701C18.3042 69.1806 18.7707 69.0292 19.1018 68.7159C19.4329 68.3994 19.6036 67.9417 19.6141 67.3428L19.6952 62.6951L20.5252 62.7096ZM24.6609 70.0192C24.3127 70.0131 23.9948 69.9441 23.7074 69.8121C23.4232 69.6769 23.1858 69.4742 22.9952 69.2039L22.9366 69.2029C22.9702 69.516 22.9846 69.8125 22.9797 70.0924L22.9413 72.2942L22.1308 72.2801L22.2662 64.5274L22.9253 64.5389L23.0248 65.2731L23.0638 65.2738C23.2772 64.9845 23.5234 64.7772 23.8023 64.6519C24.0812 64.5265 24.3997 64.4669 24.7577 64.4732C25.4673 64.4856 26.0098 64.7376 26.3854 65.2292C26.7643 65.721 26.946 66.4046 26.9308 67.2801C26.9154 68.1589 26.7066 68.8389 26.3042 69.3202C25.9052 69.7984 25.3574 70.0314 24.6609 70.0192ZM24.6285 65.1595C24.0818 65.15 23.6837 65.2944 23.4343 65.5928C23.1849 65.8913 23.0512 66.3708 23.0331 67.0314L23.03 67.212C23.0169 67.9638 23.1328 68.5047 23.3777 68.8345C23.6227 69.1611 24.0218 69.3292 24.5751 69.3389C25.0373 69.347 25.4018 69.1661 25.6687 68.7964C25.9389 68.4267 26.0797 67.9131 26.0912 67.2557C26.1029 66.5885 25.98 66.0752 25.7225 65.7158C25.4684 65.3532 25.1037 65.1678 24.6285 65.1595ZM30.7928 70.1262C30.4446 70.1202 30.1267 70.0511 29.8392 69.9191C29.5551 69.784 29.3177 69.5812 29.1271 69.3109L29.0685 69.3099C29.1021 69.623 29.1165 69.9196 29.1116 70.1995L29.0732 72.4013L28.2627 72.3871L28.3981 64.6344L29.0571 64.6459L29.1566 65.3802L29.1957 65.3809C29.4091 65.0916 29.6553 64.8842 29.9342 64.7589C30.2131 64.6335 30.5316 64.574 30.8896 64.5802C31.5991 64.5926 32.1417 64.8446 32.5173 65.3363C32.8961 65.828 33.0779 66.5116 33.0626 67.3871C33.0473 68.2659 32.8385 68.9459 32.4361 69.4273C32.0371 69.9054 31.4893 70.1384 30.7928 70.1262ZM30.7604 65.2665C30.2136 65.257 29.8155 65.4014 29.5662 65.6999C29.3168 65.9983 29.1831 66.4778 29.165 67.1384L29.1619 67.319C29.1487 68.0709 29.2646 68.6117 29.5096 68.9416C29.7546 69.2682 30.1537 69.4363 30.707 69.4459C31.1692 69.454 31.5337 69.2732 31.8006 68.9034C32.0708 68.5337 32.2116 68.0202 32.2231 67.3627C32.2347 66.6955 32.1118 66.1822 31.8544 65.8228C31.6003 65.4603 31.2356 65.2748 30.7604 65.2665ZM36.6952 70.2293C35.9043 70.2155 35.2836 69.9637 34.8331 69.474C34.3859 68.9844 34.1697 68.3115 34.1847 67.4555C34.1997 66.593 34.4232 65.9116 34.8552 65.4113C35.2904 64.911 35.8661 64.6671 36.5821 64.6796C37.2526 64.6913 37.7792 64.9219 38.1621 65.3713C38.545 65.8175 38.7301 66.4019 38.7175 67.1244L38.7085 67.6371L35.0226 67.5727C35.0279 68.2012 35.1774 68.6807 35.4712 69.0114C35.7682 69.3422 36.1901 69.5123 36.7369 69.5219C37.313 69.5319 37.8846 69.4215 38.4519 69.1904L38.4393 69.913C38.1507 70.0317 37.8774 70.1148 37.6194 70.1624C37.3646 70.2133 37.0565 70.2356 36.6952 70.2293ZM36.5605 65.358C36.1309 65.3505 35.7851 65.4845 35.523 65.7599C35.2643 66.0354 35.1078 66.4201 35.0536 66.914L37.851 66.9628C37.86 66.4518 37.7529 66.0593 37.5298 65.7852C37.3067 65.5078 36.9836 65.3654 36.5605 65.358ZM42.587 64.7844C42.8246 64.7885 43.0375 64.8118 43.2256 64.8541L43.1002 65.604C42.8797 65.5513 42.6848 65.5235 42.5156 65.5206C42.0827 65.513 41.7086 65.6823 41.3933 66.0284C41.0812 66.3746 40.9206 66.8097 40.9114 67.3337L40.8613 70.2043L40.0509 70.1902L40.1443 64.8394L40.8132 64.8511L40.8886 65.8438L40.9277 65.8445C41.1323 65.4997 41.3762 65.2353 41.6594 65.0515C41.9426 64.8676 42.2518 64.7785 42.587 64.7844ZM46.9762 63.1713L48.9925 63.2065C49.9396 63.223 50.6223 63.3766 51.0405 63.6671C51.4586 63.9577 51.6624 64.4089 51.6517 65.0208C51.6443 65.4439 51.5194 65.7917 51.277 66.0642C51.0379 66.3335 50.6914 66.5049 50.2376 66.5783L50.2367 66.6272C51.3173 66.8316 51.8493 67.4106 51.8326 68.3643C51.8215 69.0022 51.5964 69.4964 51.1572 69.8468C50.7214 70.1974 50.1161 70.3659 49.3415 70.3523L46.8516 70.3089L46.9762 63.1713ZM47.7528 66.242L49.1198 66.2658C49.7057 66.276 50.1287 66.1923 50.389 66.0145C50.6494 65.8335 50.7834 65.5249 50.791 65.0888C50.798 64.6884 50.6598 64.3979 50.3765 64.2171C50.0932 64.0331 49.6391 63.9357 49.0142 63.9248L47.7936 63.9035L47.7528 66.242ZM47.7406 66.945L47.6939 69.6155L49.183 69.6415C49.7591 69.6515 50.1939 69.5484 50.4874 69.3321C50.7842 69.1127 50.9368 68.7654 50.9451 68.2902C50.9528 67.8475 50.8088 67.5194 50.513 67.3059C50.2205 67.0924 49.7699 66.9804 49.1612 66.9698L47.7406 66.945ZM57.8782 67.8203C57.863 68.6925 57.6314 69.3706 57.1834 69.8544C56.7355 70.3349 56.1242 70.5684 55.3496 70.5549C54.8712 70.5465 54.4484 70.4268 54.0813 70.1958C53.7142 69.9647 53.4334 69.6375 53.2389 69.2141C53.0444 68.7908 52.9521 68.2975 52.9619 67.7345C52.9772 66.8622 53.2071 66.1874 53.6517 65.7101C54.0963 65.2295 54.706 64.9959 55.4806 65.0095C56.2292 65.0225 56.8188 65.2819 57.2495 65.7875C57.6835 66.2932 57.893 66.9708 57.8782 67.8203ZM53.8017 67.7491C53.7897 68.4326 53.9173 68.9558 54.1845 69.3185C54.4516 69.6813 54.8505 69.8674 55.381 69.8766C55.9115 69.8859 56.3166 69.7155 56.5961 69.3655C56.879 69.0123 57.0265 68.4924 57.0385 67.8056C57.0503 67.1254 56.921 66.6071 56.6505 66.2508C56.3833 65.8912 55.9812 65.7068 55.4442 65.6974C54.9136 65.6881 54.5103 65.8553 54.2341 66.1988C53.9578 66.5424 53.8137 67.0591 53.8017 67.7491ZM60.112 65.188L60.0514 68.6591C60.0438 69.0952 60.1374 69.4225 60.3321 69.6407C60.5269 69.859 60.8359 69.9718 61.259 69.9792C61.8188 69.989 62.2299 69.8432 62.4924 69.5417C62.7581 69.2403 62.897 68.743 62.9091 68.0497L62.9582 65.2376L63.7686 65.2518L63.6752 70.6025L63.0064 70.5909L62.9018 69.8712L62.8578 69.8704C62.6872 70.1311 62.4526 70.3289 62.154 70.4637C61.8586 70.5985 61.5222 70.6626 61.1446 70.656C60.4937 70.6447 60.0082 70.4816 59.6881 70.1667C59.3713 69.8519 59.2188 69.3543 59.2307 68.6741L59.2918 65.1736L60.112 65.188ZM69.0602 70.6965L69.1206 67.2351C69.1282 66.799 69.0346 66.4718 68.8398 66.2535C68.645 66.0353 68.3361 65.9224 67.913 65.915C67.3532 65.9053 66.9404 66.0495 66.6748 66.3476C66.4091 66.6457 66.2702 67.1431 66.258 67.8396L66.209 70.6468L65.3986 70.6326L65.492 65.2819L66.1511 65.2934L66.2701 66.028L66.3092 66.0287C66.4798 65.7679 66.716 65.5686 67.018 65.4306C67.32 65.2894 67.6548 65.222 68.0226 65.2284C68.6671 65.2396 69.1493 65.4043 69.4693 65.7224C69.7894 66.0373 69.9434 66.5365 69.9315 67.22L69.8706 70.7107L69.0602 70.6965ZM75.1948 70.0857L75.1509 70.085C74.7671 70.622 74.2025 70.884 73.4572 70.871C72.7574 70.8587 72.2165 70.61 71.8342 70.1247C71.4553 69.6395 71.2735 68.9559 71.2889 68.0739C71.3043 67.1919 71.5115 66.5102 71.9106 66.0288C72.3097 65.5474 72.8575 65.3128 73.554 65.3249C74.2798 65.3376 74.8318 65.6109 75.2099 66.145L75.2733 66.1461L75.2459 65.7598L75.2329 65.3835L75.2709 63.2061L76.0814 63.2203L75.9488 70.8168L75.2897 70.8053L75.1948 70.0857ZM73.5716 70.1941C74.1249 70.2038 74.5278 70.0611 74.7804 69.766C75.0363 69.4676 75.1701 68.9832 75.1818 68.3128L75.1848 68.1419C75.198 67.3836 75.0805 66.8411 74.8323 66.5144C74.5873 66.1846 74.1882 66.0148 73.6349 66.0052C73.1597 65.9969 72.792 66.176 72.5316 66.5426C72.2746 66.906 72.1402 67.4246 72.1284 68.0983C72.1165 68.7818 72.2328 69.2999 72.4773 69.6525C72.7219 70.0051 73.0866 70.1857 73.5716 70.1941Z" fill="black" fill-opacity="0.85"/>
<path d="M109.481 62.5511C108.707 62.5376 108.11 62.2895 107.692 61.8068C107.278 61.321 107.078 60.642 107.093 59.7697C107.109 58.8747 107.336 58.1868 107.774 57.7061C108.215 57.2254 108.835 56.9921 109.632 57.006C109.889 57.0105 110.146 57.0426 110.402 57.1024C110.658 57.1623 110.859 57.2309 111.004 57.3083L110.743 57.9923C110.565 57.9176 110.371 57.8556 110.16 57.8063C109.949 57.7538 109.763 57.7261 109.6 57.7233C108.513 57.7043 107.957 58.3881 107.933 59.7746C107.922 60.4321 108.045 60.9388 108.302 61.2949C108.563 61.6511 108.954 61.8337 109.474 61.8428C109.92 61.8506 110.379 61.7626 110.851 61.5787L110.839 62.2964C110.477 62.4757 110.025 62.5606 109.481 62.5511ZM115.4 62.5567L115.252 61.7923L115.213 61.7916C114.941 62.1222 114.67 62.3454 114.401 62.4611C114.135 62.5737 113.804 62.6265 113.407 62.6196C112.876 62.6103 112.462 62.4664 112.164 62.1877C111.869 61.9091 111.726 61.5175 111.735 61.013C111.754 59.9325 112.628 59.3812 114.357 59.3593L115.266 59.3459L115.272 59.0139C115.279 58.594 115.193 58.2832 115.014 58.0815C114.839 57.8766 114.553 57.7707 114.156 57.7638C113.71 57.756 113.203 57.8839 112.635 58.1474L112.397 57.5231C112.663 57.3845 112.953 57.2772 113.267 57.2013C113.584 57.1254 113.9 57.0903 114.216 57.0958C114.854 57.1069 115.323 57.2567 115.624 57.5452C115.929 57.8338 116.075 58.2905 116.064 58.9154L116.001 62.5672L115.4 62.5567ZM113.579 61.9536C114.084 61.9624 114.482 61.8309 114.773 61.5593C115.068 61.2877 115.219 60.9029 115.228 60.4049L115.236 59.9216L114.425 59.9416C113.78 59.9532 113.313 60.046 113.024 60.22C112.737 60.3908 112.591 60.6633 112.585 61.0376C112.579 61.3305 112.663 61.555 112.836 61.7111C113.013 61.8672 113.26 61.948 113.579 61.9536ZM118.486 62.6106L117.675 62.5964L117.808 54.9999L118.618 55.0141L118.486 62.6106ZM121.015 62.6547L120.204 62.6406L120.337 55.0441L121.147 55.0582L121.015 62.6547ZM126.21 61.2852C126.202 61.7832 126.009 62.164 125.634 62.4277C125.258 62.6913 124.735 62.8173 124.064 62.8056C123.355 62.7932 122.803 62.6713 122.41 62.4398L122.423 61.6879C122.678 61.8226 122.951 61.9299 123.243 62.0099C123.538 62.0899 123.822 62.1323 124.095 62.1371C124.519 62.1445 124.845 62.0835 125.075 61.954C125.306 61.8213 125.423 61.6166 125.428 61.3399C125.432 61.1316 125.343 60.9527 125.164 60.803C124.987 60.6502 124.639 60.4683 124.118 60.2573C123.624 60.0631 123.272 59.8958 123.063 59.7554C122.857 59.6119 122.703 59.4513 122.602 59.2737C122.504 59.0962 122.458 58.8854 122.462 58.6413C122.469 58.2051 122.653 57.8649 123.012 57.6204C123.371 57.3728 123.86 57.2543 124.478 57.2651C125.054 57.2752 125.615 57.4022 126.161 57.6461L125.862 58.3002C125.329 58.0695 124.844 57.9503 124.408 57.9427C124.024 57.936 123.733 57.9912 123.536 58.1082C123.338 58.2252 123.238 58.3895 123.234 58.601C123.232 58.7442 123.265 58.8669 123.335 58.9691C123.408 59.0713 123.525 59.1694 123.687 59.2633C123.848 59.3573 124.158 59.4946 124.617 59.6751C125.248 59.9173 125.672 60.1575 125.889 60.3957C126.109 60.6339 126.216 60.9305 126.21 61.2852Z" fill="black" fill-opacity="0.85"/>
<path d="M256.001 34.0516C255.226 34.038 254.63 33.79 254.212 33.3073C253.797 32.8215 253.597 32.1425 253.612 31.2702C253.628 30.3752 253.855 29.6873 254.293 29.2066C254.734 28.7259 255.354 28.4926 256.151 28.5065C256.408 28.511 256.665 28.5431 256.921 28.6029C257.177 28.6627 257.378 28.7314 257.523 28.8088L257.262 29.4928C257.084 29.4181 256.89 29.3561 256.679 29.3068C256.469 29.2543 256.282 29.2266 256.119 29.2238C255.032 29.2048 254.476 29.8886 254.452 31.2751C254.441 31.9325 254.564 32.4393 254.821 32.7954C255.082 33.1516 255.473 33.3342 255.993 33.3433C256.439 33.3511 256.898 33.2631 257.37 33.0792L257.358 33.7969C256.997 33.9762 256.544 34.0611 256.001 34.0516ZM261.919 34.0572L261.772 33.2928L261.733 33.2921C261.46 33.6227 261.189 33.8459 260.92 33.9616C260.654 34.0742 260.323 34.127 259.926 34.1201C259.395 34.1108 258.981 33.9668 258.683 33.6882C258.389 33.4095 258.246 33.018 258.254 32.5135C258.273 31.4329 259.147 30.8817 260.876 30.8598L261.785 30.8464L261.791 30.5144C261.798 30.0945 261.712 29.7837 261.534 29.582C261.358 29.3771 261.072 29.2712 260.675 29.2642C260.229 29.2565 259.722 29.3844 259.154 29.6479L258.916 29.0236C259.182 28.8849 259.472 28.7777 259.786 28.7018C260.103 28.6259 260.42 28.5907 260.735 28.5963C261.373 28.6074 261.843 28.7572 262.144 29.0457C262.448 29.3343 262.595 29.791 262.584 30.4159L262.52 34.0677L261.919 34.0572ZM260.099 33.454C260.603 33.4629 261.001 33.3314 261.292 33.0598C261.587 32.7882 261.738 32.4034 261.747 31.9054L261.755 31.4221L260.944 31.4421C260.3 31.4537 259.832 31.5464 259.543 31.7204C259.257 31.8913 259.11 32.1638 259.104 32.5381C259.099 32.831 259.183 33.0555 259.356 33.2116C259.532 33.3676 259.78 33.4485 260.099 33.454ZM265.005 34.1111L264.194 34.0969L264.327 26.5004L265.137 26.5146L265.005 34.1111ZM267.534 34.1552L266.723 34.1411L266.856 26.5446L267.666 26.5587L267.534 34.1552ZM272.729 32.7857C272.721 33.2837 272.528 33.6645 272.153 33.9282C271.777 34.1918 271.254 34.3178 270.583 34.3061C269.874 34.2937 269.323 34.1718 268.929 33.9403L268.942 33.1884C269.197 33.3231 269.471 33.4304 269.762 33.5104C270.057 33.5904 270.341 33.6328 270.615 33.6376C271.038 33.645 271.364 33.5839 271.595 33.4545C271.825 33.3218 271.942 33.1171 271.947 32.8404C271.951 32.6321 271.863 32.4531 271.683 32.3035C271.507 32.1507 271.158 31.9688 270.638 31.7578C270.143 31.5636 269.791 31.3963 269.582 31.2559C269.376 31.1123 269.222 30.9518 269.121 30.7742C269.024 30.5967 268.977 30.3859 268.981 30.1418C268.989 29.7056 269.172 29.3654 269.531 29.1209C269.89 28.8733 270.379 28.7548 270.998 28.7656C271.574 28.7757 272.135 28.9027 272.681 29.1466L272.381 29.8007C271.848 29.57 271.363 29.4508 270.927 29.4432C270.543 29.4365 270.252 29.4917 270.055 29.6087C269.858 29.7257 269.757 29.89 269.753 30.1015C269.751 30.2447 269.784 30.3674 269.854 30.4696C269.927 30.5718 270.045 30.6698 270.206 30.7638C270.367 30.8578 270.677 30.9951 271.136 31.1756C271.767 31.4178 272.191 31.658 272.408 31.8962C272.628 32.1344 272.736 32.4309 272.729 32.7857Z" fill="black" fill-opacity="0.85"/>
<path d="M394.223 31.3655L393.296 28.2092C393.238 28.0161 393.13 27.578 392.973 26.8948L392.934 26.8941C392.793 27.4614 392.672 27.8988 392.569 28.2063L391.504 31.3181L390.566 31.3017L389.2 25.9255L390.049 25.9403C390.371 27.2905 390.615 28.3187 390.782 29.0249C390.952 29.7311 391.048 30.2064 391.069 30.451L391.108 30.4517C391.148 30.2668 391.209 30.0286 391.292 29.737C391.378 29.4422 391.452 29.2091 391.514 29.0376L392.549 25.9839L393.428 25.9993L394.331 29.0868C394.504 29.6498 394.619 30.1223 394.677 30.5042L394.716 30.5049C394.732 30.3879 394.769 30.2079 394.828 29.9648C394.891 29.7217 395.254 28.4143 395.918 26.0427L396.757 26.0574L395.185 31.3823L394.223 31.3655ZM400.172 26.0193C400.409 26.0235 400.622 26.0467 400.81 26.0891L400.685 26.839C400.464 26.7863 400.269 26.7585 400.1 26.7555C399.667 26.7479 399.293 26.9172 398.978 27.2633C398.666 27.6095 398.505 28.0446 398.496 28.5686L398.446 31.4393L397.635 31.4251L397.729 26.0744L398.398 26.086L398.473 27.0787L398.512 27.0794C398.717 26.7346 398.961 26.4703 399.244 26.2864C399.527 26.1025 399.836 26.0135 400.172 26.0193ZM402.527 31.5105L401.717 31.4964L401.81 26.1456L402.621 26.1597L402.527 31.5105ZM401.767 24.6944C401.77 24.5089 401.818 24.3746 401.911 24.2916C402.004 24.2053 402.118 24.1634 402.255 24.1658C402.385 24.168 402.497 24.2139 402.59 24.3035C402.682 24.393 402.727 24.5289 402.724 24.7111C402.721 24.8934 402.671 25.0293 402.575 25.1188C402.479 25.205 402.366 25.247 402.236 25.2447C402.1 25.2423 401.986 25.1964 401.897 25.1069C401.807 25.0142 401.764 24.8767 401.767 24.6944ZM405.984 30.9995C406.127 31.002 406.266 30.9946 406.399 30.9774C406.533 30.957 406.639 30.936 406.718 30.9146L406.707 31.5346C406.619 31.5754 406.488 31.6073 406.315 31.6303C406.145 31.6567 405.992 31.6686 405.855 31.6663C404.82 31.6482 404.312 31.094 404.331 30.0037L404.387 26.8206L403.62 26.8072L403.627 26.4166L404.399 26.0931L404.761 24.9567L405.23 24.9649L405.208 26.2049L406.761 26.232L406.75 26.8618L405.197 26.8347L405.142 29.9836C405.137 30.3059 405.209 30.5545 405.359 30.7297C405.509 30.9049 405.717 30.9948 405.984 30.9995ZM410.039 31.7393C409.248 31.7255 408.627 31.4737 408.177 30.984C407.73 30.4944 407.514 29.8215 407.529 28.9656C407.544 28.1031 407.767 27.4216 408.199 26.9213C408.634 26.421 409.21 26.1771 409.926 26.1896C410.596 26.2013 411.123 26.4319 411.506 26.8813C411.889 27.3275 412.074 27.9119 412.061 28.6345L412.052 29.1471L408.366 29.0827C408.372 29.7112 408.521 30.1908 408.815 30.5214C409.112 30.8522 409.534 31.0224 410.081 31.0319C410.657 31.042 411.228 30.9315 411.796 30.7005L411.783 31.423C411.495 31.5417 411.221 31.6248 410.963 31.6724C410.708 31.7233 410.4 31.7456 410.039 31.7393ZM409.904 26.868C409.475 26.8605 409.129 26.9945 408.867 27.2699C408.608 27.5454 408.452 27.9301 408.397 28.424L411.195 28.4728C411.204 27.9618 411.097 27.5693 410.874 27.2952C410.651 27.0178 410.327 26.8754 409.904 26.868ZM416.872 30.3007C416.863 30.7987 416.671 31.1795 416.295 31.4432C415.919 31.7068 415.396 31.8328 414.726 31.8211C414.016 31.8087 413.465 31.6868 413.072 31.4553L413.085 30.7034C413.34 30.8381 413.613 30.9454 413.905 31.0254C414.2 31.1054 414.484 31.1478 414.757 31.1526C415.18 31.16 415.507 31.0989 415.737 30.9695C415.967 30.8367 416.085 30.6321 416.09 30.3554C416.093 30.1471 416.005 29.9681 415.825 29.8185C415.649 29.6657 415.301 29.4838 414.78 29.2728C414.285 29.0786 413.933 28.9113 413.724 28.7709C413.518 28.6273 413.365 28.4668 413.264 28.2892C413.166 28.1117 413.119 27.9009 413.123 27.6568C413.131 27.2206 413.314 26.8803 413.674 26.6359C414.033 26.3882 414.522 26.2698 415.14 26.2806C415.716 26.2907 416.277 26.4177 416.823 26.6616L416.524 27.3156C415.99 27.085 415.506 26.9658 415.07 26.9582C414.686 26.9515 414.395 27.0066 414.197 27.1237C414 27.2407 413.899 27.405 413.896 27.6165C413.893 27.7597 413.927 27.8824 413.997 27.9845C414.07 28.0867 414.187 28.1848 414.348 28.2788C414.509 28.3728 414.819 28.51 415.279 28.6906C415.909 28.9328 416.333 29.173 416.55 29.4112C416.771 29.6494 416.878 29.9459 416.872 30.3007Z" fill="black" fill-opacity="0.85"/>
<path d="M392.748 66.896C392.986 66.9002 393.199 66.9234 393.387 66.9658L393.261 67.7156C393.041 67.663 392.846 67.6351 392.677 67.6322C392.244 67.6246 391.87 67.7939 391.554 68.14C391.242 68.4862 391.082 68.9213 391.072 69.4453L391.022 72.3159L390.212 72.3018L390.305 66.9511L390.974 66.9627L391.05 67.9554L391.089 67.9561C391.293 67.6113 391.537 67.347 391.82 67.1631C392.104 66.9792 392.413 66.8902 392.748 66.896ZM396.552 72.5101C395.761 72.4963 395.14 72.2446 394.69 71.7549C394.243 71.2652 394.027 70.5924 394.041 69.7364C394.057 68.8739 394.28 68.1925 394.712 67.6921C395.147 67.1918 395.723 66.9479 396.439 66.9604C397.109 66.9721 397.636 67.2027 398.019 67.6522C398.402 68.0984 398.587 68.6828 398.574 69.4053L398.565 69.9179L394.879 69.8536C394.885 70.482 395.034 70.9616 395.328 71.2923C395.625 71.6231 396.047 71.7932 396.594 71.8027C397.17 71.8128 397.741 71.7023 398.309 71.4713L398.296 72.1938C398.008 72.3125 397.734 72.3957 397.476 72.4432C397.221 72.4941 396.913 72.5164 396.552 72.5101ZM396.417 67.6389C395.988 67.6314 395.642 67.7653 395.38 68.0408C395.121 68.3162 394.965 68.7009 394.91 69.1948L397.708 69.2437C397.717 68.7327 397.61 68.3401 397.387 68.066C397.164 67.7886 396.84 67.6463 396.417 67.6389ZM403.198 72.5285L403.05 71.7641L403.011 71.7634C402.739 72.094 402.468 72.3171 402.199 72.4329C401.933 72.5455 401.602 72.5983 401.205 72.5913C400.674 72.5821 400.26 72.4381 399.962 72.1594C399.667 71.8808 399.524 71.4893 399.533 70.9848C399.552 69.9042 400.426 69.353 402.155 69.3311L403.064 69.3176L403.07 68.9857C403.077 68.5658 402.991 68.255 402.812 68.0533C402.637 67.8484 402.351 67.7424 401.954 67.7355C401.508 67.7277 401.001 67.8556 400.433 68.1192L400.195 67.4948C400.461 67.3562 400.751 67.249 401.065 67.173C401.382 67.0972 401.698 67.062 402.014 67.0675C402.652 67.0787 403.121 67.2285 403.422 67.517C403.727 67.8055 403.873 68.2623 403.862 68.8872L403.799 72.539L403.198 72.5285ZM401.377 71.9253C401.882 71.9341 402.28 71.8027 402.571 71.531C402.866 71.2595 403.017 70.8747 403.026 70.3767L403.034 69.8934L402.223 69.9134C401.578 69.9249 401.111 70.0177 400.822 70.1917C400.535 70.3625 400.389 70.6351 400.383 71.0094C400.377 71.3023 400.461 71.5268 400.634 71.6828C400.811 71.8389 401.058 71.9198 401.377 71.9253ZM409.128 71.9141L409.084 71.9133C408.7 72.4503 408.136 72.7123 407.39 72.6993C406.69 72.6871 406.149 72.4384 405.767 71.9531C405.388 71.4679 405.207 70.7843 405.222 69.9023C405.237 69.0202 405.445 68.3385 405.844 67.8571C406.243 67.3757 406.791 67.1411 407.487 67.1533C408.213 67.166 408.765 67.4393 409.143 67.9733L409.206 67.9744L409.179 67.5882L409.166 67.2119L409.204 65.0345L410.014 65.0486L409.882 72.6451L409.223 72.6336L409.128 71.9141ZM407.505 72.0225C408.058 72.0322 408.461 71.8894 408.713 71.5943C408.969 71.296 409.103 70.8116 409.115 70.1411L409.118 69.9703C409.131 69.2119 409.014 68.6694 408.765 68.3428C408.52 68.0129 408.121 67.8432 407.568 67.8335C407.093 67.8252 406.725 68.0044 406.465 68.371C406.208 68.7344 406.073 69.253 406.061 69.9267C406.05 70.6102 406.166 71.1282 406.41 71.4809C406.655 71.8335 407.02 72.014 407.505 72.0225ZM415.082 71.2757C415.074 71.7737 414.881 72.1545 414.506 72.4182C414.13 72.6818 413.607 72.8078 412.936 72.7961C412.227 72.7837 411.675 72.6618 411.282 72.4303L411.295 71.6784C411.55 71.8131 411.823 71.9205 412.115 72.0004C412.41 72.0805 412.694 72.1229 412.967 72.1276C413.391 72.135 413.717 72.074 413.947 71.9445C414.178 71.8118 414.295 71.6071 414.3 71.3304C414.304 71.1221 414.216 70.9432 414.036 70.7935C413.859 70.6407 413.511 70.4588 412.991 70.2479C412.496 70.0536 412.144 69.8863 411.935 69.746C411.729 69.6024 411.575 69.4418 411.474 69.2642C411.376 69.0867 411.33 68.8759 411.334 68.6318C411.342 68.1957 411.525 67.8554 411.884 67.611C412.243 67.3633 412.732 67.2448 413.35 67.2556C413.926 67.2657 414.488 67.3927 415.033 67.6366L414.734 68.2907C414.201 68.06 413.716 67.9408 413.28 67.9332C412.896 67.9265 412.605 67.9817 412.408 68.0987C412.21 68.2157 412.11 68.38 412.106 68.5915C412.104 68.7348 412.137 68.8574 412.207 68.9596C412.28 69.0618 412.397 69.1599 412.559 69.2538C412.72 69.3478 413.03 69.4851 413.489 69.6656C414.12 69.9078 414.544 70.148 414.761 70.3862C414.981 70.6245 415.088 70.921 415.082 71.2757Z" fill="black" fill-opacity="0.85"/>
<path d="M256.372 70.0633C255.598 70.0498 255.001 69.8017 254.583 69.3191C254.168 68.8332 253.969 68.1542 253.984 67.2819C253.999 66.3869 254.226 65.699 254.665 65.2183C255.106 64.7376 255.725 64.5043 256.523 64.5182C256.78 64.5227 257.036 64.5548 257.293 64.6146C257.549 64.6745 257.749 64.7431 257.895 64.8205L257.634 65.5045C257.456 65.4298 257.262 65.3678 257.051 65.3185C256.84 65.266 256.653 65.2384 256.491 65.2355C255.404 65.2165 254.848 65.9003 254.824 67.2868C254.812 67.9443 254.935 68.451 255.193 68.8072C255.454 69.1633 255.844 69.346 256.365 69.355C256.811 69.3628 257.27 69.2748 257.742 69.0909L257.729 69.8086C257.368 69.9879 256.916 70.0728 256.372 70.0633ZM262.291 70.0689L262.143 69.3045L262.104 69.3038C261.831 69.6344 261.561 69.8576 261.292 69.9733C261.026 70.0859 260.694 70.1387 260.297 70.1318C259.767 70.1225 259.353 69.9786 259.055 69.6999C258.76 69.4213 258.617 69.0297 258.626 68.5252C258.645 67.4447 259.519 66.8934 261.248 66.8715L262.157 66.8581L262.162 66.5261C262.17 66.1062 262.084 65.7955 261.905 65.5937C261.73 65.3888 261.443 65.2829 261.046 65.276C260.6 65.2682 260.094 65.3961 259.526 65.6596L259.288 65.0353C259.554 64.8967 259.844 64.7894 260.158 64.7135C260.475 64.6376 260.791 64.6025 261.107 64.608C261.745 64.6191 262.214 64.7689 262.515 65.0574C262.819 65.346 262.966 65.8027 262.955 66.4276L262.891 70.0794L262.291 70.0689ZM260.47 69.4658C260.975 69.4746 261.373 69.3431 261.664 69.0715C261.958 68.7999 262.11 68.4151 262.119 67.9171L262.127 67.4338L261.316 67.4539C260.671 67.4654 260.204 67.5582 259.914 67.7322C259.628 67.903 259.482 68.1755 259.475 68.5498C259.47 68.8427 259.554 69.0672 259.727 69.2233C259.904 69.3794 260.151 69.4602 260.47 69.4658ZM265.376 70.1228L264.566 70.1086L264.699 62.5121L265.509 62.5263L265.376 70.1228ZM267.905 70.1669L267.095 70.1528L267.228 62.5563L268.038 62.5704L267.905 70.1669ZM273.101 68.7974C273.092 69.2954 272.9 69.6762 272.524 69.9399C272.149 70.2035 271.625 70.3295 270.955 70.3178C270.245 70.3054 269.694 70.1835 269.301 69.952L269.314 69.2001C269.569 69.3348 269.842 69.4421 270.134 69.5221C270.429 69.6021 270.713 69.6445 270.986 69.6493C271.409 69.6567 271.736 69.5957 271.966 69.4662C272.196 69.3335 272.314 69.1288 272.319 68.8521C272.322 68.6438 272.234 68.4649 272.055 68.3152C271.878 68.1624 271.53 67.9805 271.009 67.7696C270.514 67.5753 270.163 67.408 269.953 67.2677C269.747 67.1241 269.594 66.9635 269.493 66.7859C269.395 66.6084 269.348 66.3976 269.353 66.1535C269.36 65.7174 269.544 65.3771 269.903 65.1327C270.262 64.885 270.751 64.7665 271.369 64.7773C271.945 64.7874 272.506 64.9144 273.052 65.1583L272.753 65.8124C272.219 65.5817 271.735 65.4625 271.299 65.4549C270.915 65.4482 270.624 65.5034 270.426 65.6204C270.229 65.7374 270.129 65.9017 270.125 66.1132C270.122 66.2565 270.156 66.3791 270.226 66.4813C270.299 66.5835 270.416 66.6816 270.577 66.7755C270.738 66.8695 271.049 67.0068 271.508 67.1873C272.138 67.4295 272.562 67.6697 272.78 67.9079C273 68.1462 273.107 68.4427 273.101 68.7974Z" fill="black" fill-opacity="0.85"/>
<path opacity="0.8" d="M481.694 24.7465C468.331 22.8926 454.129 20.6014 440.631 22.7629C436.184 23.4749 428.829 23.9027 426.775 28.8739C425.277 32.4992 424.739 37.6096 428.137 40.5043C432.658 44.3563 438.655 45.6956 444.37 46.5444C453.211 47.8573 462.414 48.9848 471.36 48.9717C482.945 48.9547 494.36 47.1212 505.877 46.0344C509.728 45.671 513.625 45.3031 517.064 43.3979C519.578 42.0053 519.268 41.3867 519.862 38.9569C521.039 34.1361 515.698 31.3109 512.154 29.0601C506.128 25.2333 499.608 22.3248 492.502 21.4327C488.997 20.9927 485.694 20.8415 482.187 21.0663C479.819 21.2181 477.239 21.0486 475.036 21.9475" stroke="#1890FF" stroke-width="4" stroke-linecap="round"/>
<path d="M416.635 10.06C416.345 9.71467 416.042 9.416 415.725 9.164C415.417 8.90267 415.09 8.688 414.745 8.52V7.918C415.435 7.56333 416.065 7.04533 416.635 6.364H417.713C417.61 6.63467 417.489 6.89133 417.349 7.134C417.218 7.36733 417.078 7.59133 416.929 7.806V8.632C417.078 8.828 417.218 9.04733 417.349 9.29C417.489 9.52333 417.61 9.78 417.713 10.06H416.635ZM416.845 8.786L416.859 7.638H424.545V8.786H416.845ZM433.002 10.0742C433.002 11.0312 432.672 11.7809 432.011 12.3232C431.355 12.8656 430.448 13.1367 429.29 13.1367C428.333 13.1367 427.54 12.9658 426.911 12.624V11.0928C427.7 11.5348 428.497 11.7559 429.304 11.7559C429.928 11.7559 430.42 11.6237 430.78 11.3594C431.141 11.0905 431.321 10.7191 431.321 10.2451C431.321 9.93066 431.227 9.65267 431.04 9.41113C430.853 9.16504 430.461 8.85286 429.864 8.47461C429.386 8.16927 429.033 7.89128 428.805 7.64062C428.577 7.38997 428.402 7.11654 428.279 6.82031C428.16 6.51953 428.101 6.18913 428.101 5.8291C428.101 5.24577 428.24 4.72852 428.518 4.27734C428.8 3.82617 429.197 3.47754 429.707 3.23145C430.222 2.98535 430.801 2.8623 431.444 2.8623C432.378 2.8623 433.246 3.07194 434.048 3.49121L433.46 4.79688C432.726 4.44141 432.054 4.26367 431.444 4.26367C430.947 4.26367 430.548 4.39811 430.247 4.66699C429.947 4.93132 429.796 5.27767 429.796 5.70605C429.796 5.92025 429.83 6.10938 429.899 6.27344C429.967 6.43294 430.072 6.58333 430.213 6.72461C430.359 6.86133 430.667 7.0778 431.136 7.37402C431.842 7.81608 432.33 8.24447 432.599 8.65918C432.868 9.06934 433.002 9.54102 433.002 10.0742ZM436.988 11.8379C437.297 11.8379 437.641 11.7673 438.02 11.626V12.8428C437.86 12.9202 437.644 12.9886 437.37 13.0479C437.097 13.1071 436.823 13.1367 436.55 13.1367C435.301 13.1367 434.677 12.5739 434.677 11.4482C434.677 11.1885 434.713 10.89 434.786 10.5527L435.613 6.65625H434.506L434.65 5.9043L435.948 5.34375L436.83 3.75781H437.828L437.473 5.43945H439.38L439.113 6.65625H437.22L436.386 10.5664C436.327 10.8171 436.297 11.0267 436.297 11.1953C436.297 11.3913 436.354 11.5485 436.468 11.667C436.582 11.7809 436.755 11.8379 436.988 11.8379ZM441.745 13.1367C441.103 13.1367 440.595 12.9066 440.221 12.4463C439.847 11.9814 439.66 11.3298 439.66 10.4912C439.66 9.57064 439.818 8.70931 440.132 7.90723C440.451 7.10514 440.889 6.47168 441.445 6.00684C442.001 5.53743 442.611 5.30273 443.277 5.30273C443.719 5.30273 444.099 5.40755 444.418 5.61719C444.737 5.82227 444.986 6.12305 445.163 6.51953H445.232L445.655 5.43945H446.886L445.273 13H444.029L444.172 11.7969H444.131C443.411 12.6901 442.616 13.1367 441.745 13.1367ZM442.333 11.8379C442.707 11.8379 443.074 11.6624 443.434 11.3115C443.794 10.9561 444.09 10.4821 444.322 9.88965C444.555 9.2972 444.671 8.65007 444.671 7.94824C444.671 7.5472 444.564 7.22591 444.35 6.98438C444.136 6.73828 443.855 6.61523 443.509 6.61523C443.122 6.61523 442.757 6.79069 442.415 7.1416C442.073 7.49251 441.8 7.97103 441.595 8.57715C441.39 9.17871 441.287 9.80306 441.287 10.4502C441.287 10.915 441.378 11.2637 441.561 11.4961C441.748 11.724 442.005 11.8379 442.333 11.8379ZM452.573 5.30273C452.856 5.30273 453.102 5.33008 453.312 5.38477L452.963 6.88184C452.717 6.81803 452.485 6.78613 452.266 6.78613C451.692 6.78613 451.179 7.04362 450.728 7.55859C450.277 8.07357 449.962 8.74805 449.784 9.58203L449.06 13H447.447L449.06 5.43945H450.318L450.174 6.84082H450.236C450.614 6.29395 450.992 5.90202 451.37 5.66504C451.749 5.4235 452.15 5.30273 452.573 5.30273ZM455.95 11.8379C456.26 11.8379 456.604 11.7673 456.983 11.626V12.8428C456.823 12.9202 456.607 12.9886 456.333 13.0479C456.06 13.1071 455.786 13.1367 455.513 13.1367C454.264 13.1367 453.64 12.5739 453.64 11.4482C453.64 11.1885 453.676 10.89 453.749 10.5527L454.576 6.65625H453.469L453.613 5.9043L454.911 5.34375L455.793 3.75781H456.791L456.436 5.43945H458.343L458.076 6.65625H456.183L455.349 10.5664C455.29 10.8171 455.26 11.0267 455.26 11.1953C455.26 11.3913 455.317 11.5485 455.431 11.667C455.545 11.7809 455.718 11.8379 455.95 11.8379ZM461.098 16.3633C460.688 16.3633 460.348 16.3109 460.079 16.2061V14.9072C460.371 14.9984 460.631 15.0439 460.859 15.0439C461.469 15.0439 461.873 14.5768 462.069 13.6426L463.552 6.65625H462.328L462.472 5.93164L463.798 5.41211L463.942 4.7832C464.142 3.88086 464.447 3.24056 464.858 2.8623C465.272 2.47949 465.858 2.28809 466.614 2.28809C467.139 2.28809 467.619 2.38607 468.057 2.58203L467.64 3.78516C467.303 3.65755 466.993 3.59375 466.71 3.59375C466.396 3.59375 466.143 3.69173 465.951 3.8877C465.765 4.08366 465.621 4.40495 465.521 4.85156L465.398 5.43945H466.963L466.71 6.65625H465.145L463.62 13.8545C463.438 14.7158 463.14 15.3493 462.725 15.7549C462.31 16.1605 461.768 16.3633 461.098 16.3633ZM471.864 5.30273C472.147 5.30273 472.393 5.33008 472.603 5.38477L472.254 6.88184C472.008 6.81803 471.776 6.78613 471.557 6.78613C470.983 6.78613 470.47 7.04362 470.019 7.55859C469.568 8.07357 469.253 8.74805 469.075 9.58203L468.351 13H466.738L468.351 5.43945H469.609L469.465 6.84082H469.527C469.905 6.29395 470.283 5.90202 470.661 5.66504C471.04 5.4235 471.441 5.30273 471.864 5.30273ZM477.887 8.20117C477.887 7.71354 477.775 7.33301 477.552 7.05957C477.329 6.78158 477.01 6.64258 476.595 6.64258C476.171 6.64258 475.791 6.80664 475.453 7.13477C475.121 7.45833 474.861 7.90039 474.674 8.46094C474.492 9.01693 474.401 9.61165 474.401 10.2451C474.401 10.751 474.512 11.1383 474.736 11.4072C474.963 11.6761 475.298 11.8105 475.74 11.8105C476.151 11.8105 476.52 11.6556 476.848 11.3457C477.176 11.0358 477.431 10.6029 477.613 10.0469C477.796 9.48633 477.887 8.87109 477.887 8.20117ZM479.507 8.26953C479.507 9.1901 479.341 10.0286 479.008 10.7852C478.675 11.5371 478.217 12.1159 477.634 12.5215C477.055 12.9225 476.388 13.123 475.631 13.123C474.756 13.123 474.061 12.8633 473.546 12.3438C473.031 11.8197 472.774 11.1087 472.774 10.2109C472.774 9.30404 472.935 8.47233 473.259 7.71582C473.587 6.95931 474.045 6.37142 474.633 5.95215C475.221 5.52832 475.9 5.31641 476.67 5.31641C477.559 5.31641 478.254 5.58073 478.755 6.10938C479.256 6.63802 479.507 7.35807 479.507 8.26953ZM485.673 5.30273C486.676 5.30273 487.254 5.83822 487.409 6.90918H487.464C487.806 6.38053 488.193 5.98177 488.626 5.71289C489.064 5.43945 489.517 5.30273 489.987 5.30273C490.593 5.30273 491.053 5.47819 491.367 5.8291C491.686 6.17546 491.846 6.66536 491.846 7.29883C491.846 7.59049 491.796 8.00293 491.696 8.53613L490.738 13H489.132L490.11 8.40625C490.196 7.97331 490.239 7.67025 490.239 7.49707C490.239 6.90918 489.964 6.61523 489.412 6.61523C488.92 6.61523 488.46 6.89779 488.031 7.46289C487.608 8.02799 487.298 8.77767 487.102 9.71191L486.411 13H484.805L485.782 8.40625C485.86 8.03255 485.899 7.74316 485.899 7.53809C485.899 6.92285 485.632 6.61523 485.099 6.61523C484.598 6.61523 484.133 6.90462 483.704 7.4834C483.28 8.06217 482.966 8.83236 482.761 9.79395L482.091 13H480.478L482.091 5.43945H483.349L483.205 6.84082H483.267C483.941 5.81543 484.743 5.30273 485.673 5.30273ZM501.033 13L502.004 8.40625C502.086 7.99609 502.127 7.70671 502.127 7.53809C502.127 6.92285 501.833 6.61523 501.245 6.61523C500.735 6.61523 500.256 6.90007 499.81 7.46973C499.368 8.03939 499.044 8.81868 498.839 9.80762L498.169 13H496.556L498.812 2.36328H500.418L500.029 4.1543C499.905 4.72852 499.739 5.39616 499.53 6.15723L499.4 6.66992H499.454C499.837 6.18685 500.22 5.83822 500.603 5.62402C500.99 5.40983 501.396 5.30273 501.82 5.30273C502.439 5.30273 502.913 5.48047 503.241 5.83594C503.574 6.18685 503.74 6.69043 503.74 7.34668C503.74 7.69303 503.688 8.08952 503.583 8.53613L502.633 13H501.033ZM509.031 6.5332C508.594 6.5332 508.182 6.72917 507.794 7.12109C507.411 7.51302 507.136 8.03027 506.967 8.67285H507.165C508.022 8.67285 508.692 8.55208 509.175 8.31055C509.658 8.06445 509.9 7.7181 509.9 7.27148C509.9 7.03906 509.827 6.85905 509.681 6.73145C509.535 6.59928 509.319 6.5332 509.031 6.5332ZM507.992 13.1367C507.095 13.1367 506.393 12.8838 505.887 12.3779C505.386 11.8721 505.135 11.1657 505.135 10.2588C505.135 9.35645 505.31 8.5179 505.661 7.74316C506.017 6.96387 506.495 6.3623 507.097 5.93848C507.703 5.51465 508.38 5.30273 509.127 5.30273C509.861 5.30273 510.431 5.46908 510.836 5.80176C511.246 6.12988 511.451 6.59701 511.451 7.20312C511.451 8.03255 511.071 8.68197 510.31 9.15137C509.553 9.61621 508.473 9.84863 507.07 9.84863H506.776L506.762 10.0605V10.2588C506.762 10.7646 506.89 11.1611 507.145 11.4482C507.405 11.7354 507.79 11.8789 508.3 11.8789C508.628 11.8789 508.954 11.8356 509.278 11.749C509.601 11.6624 509.984 11.5143 510.426 11.3047V12.583C509.988 12.7835 509.585 12.9248 509.216 13.0068C508.851 13.0934 508.444 13.1367 507.992 13.1367ZM517.296 5.30273C517.579 5.30273 517.825 5.33008 518.034 5.38477L517.686 6.88184C517.44 6.81803 517.207 6.78613 516.988 6.78613C516.414 6.78613 515.902 7.04362 515.45 7.55859C514.999 8.07357 514.685 8.74805 514.507 9.58203L513.782 13H512.169L513.782 5.43945H515.04L514.897 6.84082H514.958C515.336 6.29395 515.715 5.90202 516.093 5.66504C516.471 5.4235 516.872 5.30273 517.296 5.30273ZM522.102 6.5332C521.664 6.5332 521.252 6.72917 520.864 7.12109C520.482 7.51302 520.206 8.03027 520.037 8.67285H520.236C521.092 8.67285 521.762 8.55208 522.245 8.31055C522.728 8.06445 522.97 7.7181 522.97 7.27148C522.97 7.03906 522.897 6.85905 522.751 6.73145C522.605 6.59928 522.389 6.5332 522.102 6.5332ZM521.063 13.1367C520.165 13.1367 519.463 12.8838 518.957 12.3779C518.456 11.8721 518.205 11.1657 518.205 10.2588C518.205 9.35645 518.381 8.5179 518.732 7.74316C519.087 6.96387 519.566 6.3623 520.167 5.93848C520.773 5.51465 521.45 5.30273 522.197 5.30273C522.931 5.30273 523.501 5.46908 523.906 5.80176C524.317 6.12988 524.522 6.59701 524.522 7.20312C524.522 8.03255 524.141 8.68197 523.38 9.15137C522.624 9.61621 521.544 9.84863 520.14 9.84863H519.846L519.832 10.0605V10.2588C519.832 10.7646 519.96 11.1611 520.215 11.4482C520.475 11.7354 520.86 11.8789 521.37 11.8789C521.698 11.8789 522.024 11.8356 522.348 11.749C522.671 11.6624 523.054 11.5143 523.496 11.3047V12.583C523.059 12.7835 522.655 12.9248 522.286 13.0068C521.922 13.0934 521.514 13.1367 521.063 13.1367Z" fill="#1890FF"/>
</svg>
