<?xml version="1.0" encoding="UTF-8"?>
<svg width="109px" height="18px" viewBox="0 0 109 18" version="1.1" xmlns="http://www.w3.org/2000/svg" xmlns:xlink="http://www.w3.org/1999/xlink">
    <title>Group</title>
    <g id="Symbols" stroke="none" stroke-width="1" fill="none" fill-rule="evenodd">
        <g id="1.-General/Header/v1" transform="translate(-20.000000, -15.000000)">
            <g id="Group" transform="translate(20.000000, 15.000000)">
                <g fill="#FFFFFE" id="Combined-Shape-Copy-2">
                    <path d="M23.7530892,-7.10542736e-14 C18.4907128,2.26570531 16.0966586,5.3598824 16.2425533,8.46334413 C16.3288254,10.4566338 17.7518399,12.0432354 20.5342881,12.1660572 C23.7360925,12.0432354 29.1906871,6.45669567 31.800092,6.6119876 C34.5411156,6.45669567 36.8910316,8.74758513 38.2376942,9.52126214 C40.0557381,10.7979225 42.7772975,9.5526096 42.7976624,6.8764671 C42.7772975,3.73854403 38.3078667,3.73854403 38.2376942,3.70271306 C38.9063803,3.35991332 43.4111215,2.49236269 44.9435298,3.70271306 C46.508738,4.90743607 46.8600778,7.89132394 42.2611955,11.6370982 C38.060693,15.6680166 33.7325044,15.1400178 31.800092,13.4884547 C29.5782202,11.5161051 27.7844451,11.6289996 26.7036569,12.1660572 C25.3886254,12.686734 9.26848426,24.3139967 9.26848426,13.2239752 C9.26848426,2.03817952 23.8058308,-7.10542736e-14 23.7530892,-7.10542736e-14 Z M5.37042035,4.86486486 C1.74782219,9.81257831 2.50315563,14.1002032 2.54724227,14.1002032 C-4.26956225,8.45699419 4.74071245,5.0486443 4.85711525,5.12873168 L5.37042035,4.86486486 Z"></path>
                </g>
                <path d="M64.8027344,14 L64.8027344,9.13964844 C64.8027344,8.05501302 64.7639974,6.89290365 64.6865234,5.65332031 L64.6865234,5.65332031 L64.7412109,5.65332031 L67.6396484,14 L69.0820312,14 L72.0830078,5.66699219 L72.1376953,5.66699219 C72.1194661,5.83561198 72.097819,6.3186849 72.0727539,7.11621094 C72.0476888,7.91373698 72.0351562,8.5608724 72.0351562,9.05761719 L72.0351562,14 L73.6074219,14 L73.6074219,4.00585938 L71.296875,4.00585938 L68.4394531,11.9560547 L68.3984375,11.9560547 L65.6230469,4.00585938 L63.3193359,4.00585938 L63.3193359,14 L64.8027344,14 Z M76.8818359,5.31835938 C77.164388,5.31835938 77.3842773,5.23974609 77.5415039,5.08251953 C77.6987305,4.92529297 77.7773438,4.70996094 77.7773438,4.43652344 C77.7773438,4.14941406 77.6987305,3.92838542 77.5415039,3.7734375 C77.3842773,3.61848958 77.164388,3.54101562 76.8818359,3.54101562 C76.5901693,3.54101562 76.3657227,3.61848958 76.2084961,3.7734375 C76.0512695,3.92838542 75.9726562,4.14941406 75.9726562,4.43652344 C75.9726562,4.70996094 76.0512695,4.92529297 76.2084961,5.08251953 C76.3657227,5.23974609 76.5901693,5.31835938 76.8818359,5.31835938 Z M77.6748047,14 L77.6748047,6.43945312 L76.0683594,6.43945312 L76.0683594,14 L77.6748047,14 Z M81.578125,14 L81.578125,10.2333984 C81.578125,9.29003906 81.7353516,8.61783854 82.0498047,8.21679688 C82.3642578,7.81575521 82.8610026,7.61523438 83.5400391,7.61523438 C84.0504557,7.61523438 84.4230143,7.75878906 84.6577148,8.04589844 C84.8924154,8.33300781 85.0097656,8.76822917 85.0097656,9.3515625 L85.0097656,9.3515625 L85.0097656,14 L86.6230469,14 L86.6230469,9.07128906 C86.6230469,7.22558594 85.7161458,6.30273438 83.9023438,6.30273438 C83.3919271,6.30273438 82.9270833,6.40071615 82.5078125,6.59667969 C82.0885417,6.79264323 81.764974,7.07063802 81.5371094,7.43066406 L81.5371094,7.43066406 L81.4550781,7.43066406 L81.2294922,6.43945312 L79.9716797,6.43945312 L79.9716797,14 L81.578125,14 Z M89.671875,5.31835938 C89.9544271,5.31835938 90.1743164,5.23974609 90.331543,5.08251953 C90.4887695,4.92529297 90.5673828,4.70996094 90.5673828,4.43652344 C90.5673828,4.14941406 90.4887695,3.92838542 90.331543,3.7734375 C90.1743164,3.61848958 89.9544271,3.54101562 89.671875,3.54101562 C89.3802083,3.54101562 89.1557617,3.61848958 88.9985352,3.7734375 C88.8413086,3.92838542 88.7626953,4.14941406 88.7626953,4.43652344 C88.7626953,4.70996094 88.8413086,4.92529297 88.9985352,5.08251953 C89.1557617,5.23974609 89.3802083,5.31835938 89.671875,5.31835938 Z M90.4648438,14 L90.4648438,6.43945312 L88.8583984,6.43945312 L88.8583984,14 L90.4648438,14 Z M94.3681641,14 L94.3681641,10.2333984 C94.3681641,9.29003906 94.5253906,8.61783854 94.8398438,8.21679688 C95.1542969,7.81575521 95.6510417,7.61523438 96.3300781,7.61523438 C96.8404948,7.61523438 97.2130534,7.75878906 97.4477539,8.04589844 C97.6824544,8.33300781 97.7998047,8.76822917 97.7998047,9.3515625 L97.7998047,9.3515625 L97.7998047,14 L99.4130859,14 L99.4130859,9.07128906 C99.4130859,7.22558594 98.5061849,6.30273438 96.6923828,6.30273438 C96.1819661,6.30273438 95.7171224,6.40071615 95.2978516,6.59667969 C94.8785807,6.79264323 94.555013,7.07063802 94.3271484,7.43066406 L94.3271484,7.43066406 L94.2451172,7.43066406 L94.0195312,6.43945312 L92.7617188,6.43945312 L92.7617188,14 L94.3681641,14 Z M103.829102,17.3632812 C105.164388,17.3632812 106.185221,17.1308594 106.891602,16.6660156 C107.597982,16.2011719 107.951172,15.5403646 107.951172,14.6835938 C107.951172,14.0136719 107.734701,13.5009766 107.301758,13.1455078 C106.868815,12.7900391 106.235352,12.6123047 105.401367,12.6123047 L105.401367,12.6123047 L104.082031,12.6123047 C103.649089,12.6123047 103.351725,12.5690104 103.189941,12.4824219 C103.028158,12.3958333 102.947266,12.2659505 102.947266,12.0927734 C102.947266,11.8056641 103.120443,11.555013 103.466797,11.3408203 C103.66276,11.3772786 103.88151,11.3955078 104.123047,11.3955078 C105.066406,11.3955078 105.806966,11.1722005 106.344727,10.7255859 C106.882487,10.2789714 107.151367,9.66601562 107.151367,8.88671875 C107.151367,8.62695312 107.11263,8.38085938 107.035156,8.1484375 C106.957682,7.91601562 106.859701,7.72005208 106.741211,7.56054688 L106.741211,7.56054688 L108.033203,7.32128906 L108.033203,6.43945312 L105.415039,6.43945312 C105.296549,6.40755208 105.119954,6.37679036 104.885254,6.34716797 C104.650553,6.31754557 104.426107,6.30273438 104.211914,6.30273438 C103.254883,6.30273438 102.517741,6.52832031 102.000488,6.97949219 C101.483236,7.43066406 101.224609,8.06640625 101.224609,8.88671875 C101.224609,9.39713542 101.346517,9.84261068 101.590332,10.2231445 C101.834147,10.6036784 102.152018,10.8782552 102.543945,11.046875 C102.229492,11.2382812 101.992513,11.4319661 101.833008,11.6279297 C101.673503,11.8238932 101.59375,12.063151 101.59375,12.3457031 C101.59375,12.5690104 101.663249,12.7820638 101.802246,12.9848633 C101.941243,13.1876628 102.117839,13.3346354 102.332031,13.4257812 C101.803385,13.5488281 101.39209,13.7687174 101.098145,14.0854492 C100.804199,14.402181 100.657227,14.7929688 100.657227,15.2578125 C100.657227,15.9322917 100.928385,16.4518229 101.470703,16.8164062 C102.013021,17.1809896 102.799154,17.3632812 103.829102,17.3632812 Z M104.198242,10.3632812 C103.742513,10.3632812 103.392741,10.2356771 103.148926,9.98046875 C102.905111,9.72526042 102.783203,9.36067708 102.783203,8.88671875 C102.783203,8.38085938 102.902832,7.99576823 103.14209,7.73144531 C103.381348,7.4671224 103.733398,7.33496094 104.198242,7.33496094 C104.667643,7.33496094 105.017415,7.46826172 105.247559,7.73486328 C105.477702,8.00146484 105.592773,8.38085938 105.592773,8.87304688 C105.592773,9.86653646 105.12793,10.3632812 104.198242,10.3632812 Z M103.876953,16.2558594 C103.311849,16.2558594 102.87321,16.1624349 102.561035,15.9755859 C102.248861,15.788737 102.092773,15.5221354 102.092773,15.1757812 C102.092773,14.8066406 102.228353,14.5138346 102.499512,14.2973633 C102.770671,14.0808919 103.136393,13.9726562 103.59668,13.9726562 L103.59668,13.9726562 L104.813477,13.9726562 C105.451497,13.9726562 105.887858,14.0421549 106.122559,14.1811523 C106.357259,14.3201497 106.474609,14.5537109 106.474609,14.8818359 C106.474609,15.2965495 106.260417,15.6292318 105.832031,15.8798828 C105.403646,16.1305339 104.751953,16.2558594 103.876953,16.2558594 Z" id="Mining" fill="#FFFFFF" fill-rule="nonzero"></path>
            </g>
        </g>
    </g>
</svg>