<?xml version="1.0" encoding="UTF-8"?>
<svg width="332px" height="242px" viewBox="0 0 332 242" version="1.1" xmlns="http://www.w3.org/2000/svg" xmlns:xlink="http://www.w3.org/1999/xlink">
    <title>Processing</title>
    <g id="Symbols" stroke="none" stroke-width="1" fill="none" fill-rule="evenodd">
        <g id="Card/Title/Info" transform="translate(-24.000000, -163.000000)" fill-rule="nonzero">
            <g id="Processing" transform="translate(24.000000, 163.000000)">
                <path d="M321.757447,224.149139 C313.566768,230.938583 301.911449,233.748472 290.639595,235.523139 L288.742452,235.812194 C276.969402,237.566694 265.065167,238.501083 253.120567,239.069111 C246.729483,239.378333 240.338399,239.596806 233.947315,239.79175 L228.938723,239.939639 C222.435515,240.132343 215.919973,240.321685 209.392097,240.507667 C203.001013,240.689167 196.609929,240.859463 190.218845,241.018556 C182.033772,241.217981 173.8487,241.383796 165.663627,241.516 C159.272543,241.616833 152.881459,241.686296 146.490375,241.724389 C138.30306,241.771444 130.117987,241.755759 121.935157,241.677333 C115.539588,241.612352 109.148504,241.500315 102.761905,241.341222 C94.5723472,241.130593 86.3872746,240.822491 78.2066869,240.416917 C72.6542925,240.145787 67.1052617,239.819759 61.5595947,239.438833 C75.7455589,240.462852 74.9035056,240.403472 59.0334347,239.260694 C35.2283283,237.546528 38.2148042,226.678664 35.252841,224.149139 C32.2908778,221.619614 19.6230598,220.111629 16.1593516,217.668917 C10.0003647,213.279306 4.91440729,207.921694 2.22678825,201.565833 C-1.9845998,191.596778 0.24218845,180.390833 5.05232016,170.643611 C9.86245187,160.896389 17.0843769,152.097 23.3308207,142.917806 C25.160689,140.228917 26.8963728,137.439194 28.5109625,134.578889 C38.6021479,116.640639 43.6073759,95.8824167 33.0284498,78.5962222 C31.6320926,76.3922693 30.1243107,74.260805 28.5109625,72.2101111 C25.9309828,68.849 23.3072746,65.4878889 21.5345897,61.7671389 C17.4005674,53.1089167 18.2885917,43.3717778 19.795542,34.122 C21.8137791,21.8236944 24.9758025,7.07394195 38.907497,1.37171479 C52.8391914,-4.33051238 87.174387,9.90183333 108.745978,18.271 C130.317568,26.6401667 152.915096,34.2934167 176.632746,35.1168889 C181.727667,35.2911062 186.82854,35.1057846 191.897345,34.5623056 C198.654699,33.8684445 205.320202,32.4658575 211.783708,30.3777222 C221.118055,27.3056667 229.611469,22.6841389 235.908369,16.2610556 C249.413739,2.53091667 274.79307,1.49233333 293.091753,9.78419444 C310.552867,17.69625 321.844904,34.4413056 321.010699,51.1661944 C320.062128,69.7833889 306.109382,85.0898889 293.32385,100.789639 C291.773171,102.692028 290.242675,104.601139 288.752543,106.523694 C287.920581,107.597009 287.104316,108.672565 286.303749,109.750361 C284.901074,111.65275 283.545491,113.565222 282.267275,115.501222 C275.734914,125.426583 271.116515,137.348444 275.61382,148.063667 C278.136616,154.06325 282.950111,158.641083 288.752543,162.637444 C301.753354,171.588083 319.698845,177.611194 327.771793,190.141417 C334.727984,200.940667 332.151368,215.517806 321.757447,224.149139 Z" id="Path" fill="#1890FF" opacity="0.1"></path>
                <g id="undraw_data_processing_yrrv">
                    <ellipse id="Oval" fill="#E6E6E6" cx="13.2987932" cy="37.2164473" rx="4.58495364" ry="4.58138603"></ellipse>
                    <ellipse id="Oval" fill="#E6E6E6" cx="27.0536507" cy="37.2164473" rx="4.58495364" ry="4.58138603"></ellipse>
                    <ellipse id="Oval" fill="#E6E6E6" cx="40.8085082" cy="37.2164473" rx="4.58495364" ry="4.58138603"></ellipse>
                    <ellipse id="Oval" fill="#E6E6E6" cx="54.5633658" cy="37.2164473" rx="4.58495364" ry="4.58138603"></ellipse>
                    <ellipse id="Oval" fill="#E6E6E6" cx="68.3182233" cy="37.2164473" rx="4.58495364" ry="4.58138603"></ellipse>
                    <ellipse id="Oval" fill="#E6E6E6" cx="82.0730809" cy="37.2164473" rx="4.58495364" ry="4.58138603"></ellipse>
                    <ellipse id="Oval" fill="#E6E6E6" cx="95.8279384" cy="37.2164473" rx="4.58495364" ry="4.58138603"></ellipse>
                    <path d="M106.422872,42.7955153 L2.70385913,42.7955153 C1.67388778,42.7943058 0.839232867,41.9603004 0.838022492,40.9311305 L0.838022492,33.5018111 C0.839231018,32.4726405 1.67388701,31.6386339 2.70385913,31.6374263 L106.422872,31.6374263 C107.452844,31.6386358 108.287499,32.4726412 108.288709,33.5018111 L108.288709,40.9311305 C108.287497,41.9602996 107.452843,42.794304 106.422872,42.7955153 L106.422872,42.7955153 Z M2.70385913,32.3831796 C2.08585461,32.3838606 1.58435647,32.8842942 1.58435647,33.5018179 L1.58435647,40.9311305 C1.58435647,41.5486528 2.08585593,42.0490844 2.70385913,42.0497587 L106.422872,42.0497587 C107.040875,42.0490844 107.542372,41.5486523 107.542372,40.9311305 L107.542372,33.5018111 C107.542372,32.884288 107.040876,32.3838539 106.422872,32.3831796 L2.70385913,32.3831796 Z" id="Shape" fill="#E6E6E6"></path>
                    <path d="M24.9003801,1.07120292 C25.4921601,1.07187898 25.9717238,1.55106954 25.9724004,2.14238903 L25.9724004,25.355103 C25.9717238,25.9464225 25.4921601,26.425613 24.9003801,26.4262891 L2.14408426,26.4262891 C1.55230429,26.425613 1.07274058,25.9464225 1.07206399,25.355103 L1.07206399,2.14240583 C1.07274058,1.55108634 1.55230429,1.07189579 2.14408426,1.07120292 L24.9003801,1.07120292 M24.9003801,9.55285234e-15 L2.14408426,9.55285234e-15 C0.959944792,9.55285234e-15 1.00911854e-05,0.959204569 1.00911854e-05,2.14242264 L1.00911854e-05,25.355103 C1.00911854e-05,26.538321 0.959944792,27.4975088 2.14408426,27.4975088 L24.9003801,27.4975088 C26.0845188,27.4975088 27.0444543,26.5383203 27.0444543,25.355103 L27.0444543,2.14240583 C27.0444543,0.959188533 26.0845188,9.55285234e-15 24.9003801,9.55285234e-15 L24.9003801,9.55285234e-15 Z" id="Shape" fill="#E6E6E6"></path>
                    <path d="M21.3508897,7.17282291 L6.1680588,7.17282291 C5.97577724,7.17399174 5.79759474,7.07216691 5.70111175,6.90596947 C5.60462875,6.73977204 5.60462875,6.53466741 5.70111175,6.36846997 C5.79759474,6.20227253 5.97577724,6.1004477 6.1680588,6.10161654 L21.3508897,6.10161654 C21.5431713,6.1004477 21.7213538,6.20227253 21.8178368,6.36846997 C21.9143198,6.53466741 21.9143198,6.73977204 21.8178368,6.90596947 C21.7213538,7.07216691 21.5431713,7.17399174 21.3508897,7.17282291 L21.3508897,7.17282291 Z" id="Path" fill="#1890FF"></path>
                    <path d="M21.3508897,10.9657091 L6.1680588,10.9657091 C5.97577724,10.9668779 5.79759474,10.8650531 5.70111175,10.6988556 C5.60462875,10.5326582 5.60462875,10.3275536 5.70111175,10.1613561 C5.79759474,9.9951587 5.97577724,9.89333387 6.1680588,9.89450271 L21.3508897,9.89450271 C21.5431713,9.89333387 21.7213538,9.9951587 21.8178368,10.1613561 C21.9143198,10.3275536 21.9143198,10.5326582 21.8178368,10.6988556 C21.7213538,10.8650531 21.5431713,10.9668779 21.3508897,10.9657091 Z" id="Path" fill="#1890FF"></path>
                    <path d="M21.3508897,14.7583331 L6.1680588,14.7583331 C5.97577724,14.7595019 5.79759474,14.6576771 5.70111175,14.4914796 C5.60462875,14.3252822 5.60462875,14.1201776 5.70111175,13.9539801 C5.79759474,13.7877827 5.97577724,13.6859579 6.1680588,13.6871267 L21.3508897,13.6871267 C21.5431713,13.6859579 21.7213538,13.7877827 21.8178368,13.9539801 C21.9143198,14.1201776 21.9143198,14.3252822 21.8178368,14.4914796 C21.7213538,14.6576771 21.5431713,14.7595019 21.3508897,14.7583331 Z" id="Path" fill="#1890FF"></path>
                    <path d="M21.3508897,18.5512159 L6.1680588,18.5512159 C5.97577724,18.5523847 5.79759474,18.4505599 5.70111175,18.2843624 C5.60462875,18.118165 5.60462875,17.9130604 5.70111175,17.7468629 C5.79759474,17.5806655 5.97577724,17.4788407 6.1680588,17.4800095 L21.3508897,17.4800095 C21.5431713,17.4788407 21.7213538,17.5806655 21.8178368,17.7468629 C21.9143198,17.9130604 21.9143198,18.118165 21.8178368,18.2843624 C21.7213538,18.4505599 21.5431713,18.5523847 21.3508897,18.5512159 Z" id="Path" fill="#1890FF"></path>
                    <path d="M21.3508897,22.3440953 L6.1680588,22.3440953 C5.87202301,22.3440953 5.63203858,22.1042976 5.63203858,21.8084921 C5.63203858,21.5126867 5.87202301,21.272889 6.1680588,21.272889 L21.3508897,21.272889 C21.6469255,21.272889 21.8869099,21.5126867 21.8869099,21.8084921 C21.8869099,22.1042976 21.6469255,22.3440953 21.3508897,22.3440953 L21.3508897,22.3440953 Z" id="Path" fill="#1890FF"></path>
                    <path d="M102.623087,1.07120292 C103.214867,1.07187898 103.694431,1.55106954 103.695107,2.14238903 L103.695107,25.355103 C103.694431,25.9464225 103.214867,26.425613 102.623087,26.4262891 L79.8667912,26.4262891 C79.2750112,26.425613 78.7954475,25.9464225 78.7947709,25.355103 L78.7947709,2.14240583 C78.7954475,1.55108634 79.2750112,1.07189579 79.8667912,1.07120292 L102.623087,1.07120292 M102.623087,9.55285234e-15 L79.8667912,9.55285234e-15 C78.6826517,9.55285234e-15 77.722717,0.959204569 77.722717,2.14242264 L77.722717,25.355103 C77.722717,26.538321 78.6826517,27.4975088 79.8667912,27.4975088 L102.623087,27.4975088 C103.807227,27.4975088 104.767161,26.538321 104.767161,25.355103 L104.767161,2.14240583 C104.767161,0.959187764 103.807227,9.55285234e-15 102.623087,9.55285234e-15 L102.623087,9.55285234e-15 Z" id="Shape" fill="#E6E6E6"></path>
                    <path d="M99.0736,7.17282291 L83.8907792,7.17282291 C83.6984976,7.17399174 83.5203151,7.07216691 83.4238322,6.90596947 C83.3273492,6.73977204 83.3273492,6.53466741 83.4238322,6.36846997 C83.5203151,6.20227253 83.6984976,6.1004477 83.8907792,6.10161654 L99.0736135,6.10161654 C99.3683601,6.10343389 99.6063446,6.34269694 99.6063446,6.63721972 C99.6063446,6.93174251 99.3683601,7.17100555 99.0736135,7.17282291 L99.0736,7.17282291 Z" id="Path" fill="#1890FF"></path>
                    <path d="M99.0736,10.9657091 L83.8907792,10.9657091 C83.6984976,10.9668779 83.5203151,10.8650531 83.4238322,10.6988556 C83.3273492,10.5326582 83.3273492,10.3275536 83.4238322,10.1613561 C83.5203151,9.9951587 83.6984976,9.89333387 83.8907792,9.89450271 L99.0736135,9.89450271 C99.3683601,9.89632006 99.6063446,10.1355831 99.6063446,10.4301059 C99.6063446,10.7246287 99.3683601,10.9638917 99.0736135,10.9657091 L99.0736,10.9657091 Z" id="Path" fill="#1890FF"></path>
                    <path d="M99.0736,14.7583331 L83.8907792,14.7583331 C83.6984976,14.7595019 83.5203151,14.6576771 83.4238322,14.4914796 C83.3273492,14.3252822 83.3273492,14.1201776 83.4238322,13.9539801 C83.5203151,13.7877827 83.6984976,13.6859579 83.8907792,13.6871267 L99.0736135,13.6871267 C99.3683601,13.6889441 99.6063446,13.9282071 99.6063446,14.2227299 C99.6063446,14.5172527 99.3683601,14.7565157 99.0736135,14.7583331 L99.0736,14.7583331 Z" id="Path" fill="#1890FF"></path>
                    <path d="M99.0736,18.5512159 L83.8907792,18.5512159 C83.6984976,18.5523847 83.5203151,18.4505599 83.4238322,18.2843624 C83.3273492,18.118165 83.3273492,17.9130604 83.4238322,17.7468629 C83.5203151,17.5806655 83.6984976,17.4788407 83.8907792,17.4800095 L99.0736135,17.4800095 C99.3683601,17.4818269 99.6063446,17.7210899 99.6063446,18.0156127 C99.6063446,18.3101355 99.3683601,18.5493985 99.0736135,18.5512159 L99.0736,18.5512159 Z" id="Path" fill="#1890FF"></path>
                    <path d="M99.0736,22.3440953 L83.8907792,22.3440953 C83.5947434,22.3440953 83.354759,22.1042976 83.354759,21.8084921 C83.354759,21.5126867 83.5947434,21.272889 83.8907792,21.272889 L99.0736135,21.272889 C99.3696493,21.272889 99.6096337,21.5126867 99.6096337,21.8084921 C99.6096337,22.1042976 99.3696493,22.3440953 99.0736135,22.3440953 L99.0736,22.3440953 Z" id="Path" fill="#1890FF"></path>
                    <path d="M179.968283,45.7038646 C180.560063,45.7045406 181.039626,46.1837312 181.040303,46.7750507 L181.040303,69.9877411 C181.039625,70.5790598 180.560062,71.0582493 179.968283,71.0589272 L157.211987,71.0589272 C156.620208,71.0582493 156.140645,70.5790598 156.139967,69.9877411 L156.139967,46.7750675 C156.140643,46.183748 156.620207,45.7045574 157.211987,45.7038646 L179.968283,45.7038646 M179.968283,44.6326616 L157.211987,44.6326616 C156.027847,44.6326616 155.067913,45.591883 155.067913,46.7751011 L155.067913,69.9877915 C155.067913,71.1710096 156.027847,72.1301973 157.211987,72.1301973 L179.968283,72.1301973 C181.152421,72.1301973 182.112357,71.1710088 182.112357,69.9877915 L182.112357,46.7750675 C182.112357,45.5918494 181.152422,44.6326616 179.968283,44.6326616 L179.968283,44.6326616 Z" id="Shape" fill="#1890FF"></path>
                    <path d="M176.418796,51.8054845 L161.235961,51.8054845 C161.04368,51.8066534 160.865497,51.7048285 160.769014,51.5386311 C160.672531,51.3724337 160.672531,51.167329 160.769014,51.0011316 C160.865497,50.8349342 161.04368,50.7331093 161.235961,50.7342782 L176.418796,50.7342782 C176.713542,50.7360955 176.951527,50.9753586 176.951527,51.2698814 C176.951527,51.5644041 176.713542,51.8036672 176.418796,51.8054845 Z" id="Path" fill="#1890FF"></path>
                    <path d="M176.418796,55.5983606 L161.235961,55.5983606 C160.939926,55.5983606 160.699941,55.3585629 160.699941,55.0627574 C160.699941,54.766952 160.939926,54.5271543 161.235961,54.5271543 L176.418796,54.5271543 C176.714832,54.5271543 176.954816,54.766952 176.954816,55.0627574 C176.954816,55.3585629 176.714832,55.5983606 176.418796,55.5983606 Z" id="Path" fill="#1890FF"></path>
                    <path d="M176.418796,59.3909913 L161.235961,59.3909913 C161.043824,59.3919465 160.865868,59.2900739 160.76952,59.1239657 C160.673172,58.9578575 160.673172,58.7529256 160.76952,58.5868174 C160.865868,58.4207091 161.043824,58.3188366 161.235961,58.3197917 L176.418796,58.3197917 C176.713542,58.3216057 176.951527,58.5608687 176.951527,58.8553915 C176.951527,59.1499143 176.713542,59.3891774 176.418796,59.3909913 L176.418796,59.3909913 Z" id="Path" fill="#1890FF"></path>
                    <path d="M176.418796,63.1838775 L161.235961,63.1838775 C161.04368,63.1850464 160.865497,63.0832215 160.769014,62.9170241 C160.672531,62.7508266 160.672531,62.545722 160.769014,62.3795246 C160.865497,62.2133271 161.04368,62.1115023 161.235961,62.1126711 L176.418796,62.1126711 C176.713542,62.1144885 176.951527,62.3537515 176.951527,62.6482743 C176.951527,62.9427971 176.713542,63.1820602 176.418796,63.1838775 Z" id="Path" fill="#1890FF"></path>
                    <path d="M176.418796,66.9767603 L161.235961,66.9767603 C161.04368,66.9779292 160.865497,66.8761043 160.769014,66.7099069 C160.672531,66.5437095 160.672531,66.3386048 160.769014,66.1724074 C160.865497,66.00621 161.04368,65.9043851 161.235961,65.905554 L176.418796,65.905554 C176.713542,65.9073713 176.951527,66.1466344 176.951527,66.4411571 C176.951527,66.7356799 176.713542,66.974943 176.418796,66.9767603 Z" id="Path" fill="#1890FF"></path>
                    <path d="M64.0595211,27.4975021 L40.7073778,27.4975021 C39.3924839,27.4959593 38.3269363,26.4312423 38.3253904,25.1173716 L38.3253904,8.42061856 C38.3268213,7.10665771 39.3923939,6.04179856 40.7073778,6.04022589 L64.0595211,6.04022589 C65.3745982,6.04167629 66.4403174,7.10656469 66.4417708,8.42061856 L66.4417708,25.1173716 C66.440195,26.4313323 65.3745052,27.4960741 64.0595211,27.4975021 L64.0595211,27.4975021 Z M40.7073778,7.11142881 C39.9841823,7.11232356 39.39818,7.69798571 39.3974275,8.42061856 L39.3974275,25.1173716 C39.3982025,25.8399527 39.984234,26.4255267 40.7073778,26.4262992 L64.0595211,26.4262992 C64.7827154,26.4255473 65.368833,25.840003 65.3697303,25.1173716 L65.3697303,8.42061856 C65.3688555,7.69793541 64.782767,7.11230295 64.0595211,7.11142881 L40.7073778,7.11142881 Z" id="Shape" fill="#E6E6E6"></path>
                    <path d="M59.9750062,13.5117205 L44.7921618,13.5117205 C44.4974152,13.5099031 44.2594306,13.2706401 44.2594306,12.9761173 C44.2594306,12.6815945 44.4974152,12.4423315 44.7921618,12.4405141 L59.9750062,12.4405141 C60.1672877,12.4393453 60.3454702,12.5411701 60.4419532,12.7073676 C60.5384362,12.873565 60.5384362,13.0786696 60.4419532,13.2448671 C60.3454702,13.4110645 60.1672877,13.5128893 59.9750062,13.5117205 L59.9750062,13.5117205 Z" id="Path" fill="#1890FF"></path>
                    <path d="M59.9750062,17.3046067 L44.7921618,17.3046067 C44.4974152,17.3027893 44.2594306,17.0635263 44.2594306,16.7690035 C44.2594306,16.4744807 44.4974152,16.2352176 44.7921618,16.2334003 L59.9750062,16.2334003 C60.1672877,16.2322315 60.3454702,16.3340563 60.4419532,16.5002537 C60.5384362,16.6664512 60.5384362,16.8715558 60.4419532,17.0377532 C60.3454702,17.2039507 60.1672877,17.3057755 59.9750062,17.3046067 L59.9750062,17.3046067 Z" id="Path" fill="#1890FF"></path>
                    <path d="M59.9750062,21.0972307 L44.7921618,21.0972307 C44.4974152,21.0954133 44.2594306,20.8561503 44.2594306,20.5616275 C44.2594306,20.2671047 44.4974152,20.0278416 44.7921618,20.0260243 L59.9750062,20.0260243 C60.1672877,20.0248555 60.3454702,20.1266803 60.4419532,20.2928777 C60.5384362,20.4590752 60.5384362,20.6641798 60.4419532,20.8303772 C60.3454702,20.9965747 60.1672877,21.0983995 59.9750062,21.0972307 Z" id="Path" fill="#1890FF"></path>
                    <path d="M141.545795,36.7496898 L119.117715,30.2505949 C117.855282,29.8831673 117.128682,28.56403 117.493431,27.3017207 L122.147513,11.2656781 C122.515141,10.0041104 123.835367,9.27794479 125.098754,9.64240261 L147.526834,16.1414975 C148.789465,16.5088892 149.516182,17.828236 149.151296,19.0906943 L144.497214,35.1267403 C144.129446,36.3882667 142.809141,37.1142863 141.545795,36.7496898 L141.545795,36.7496898 Z M124.800166,10.6712186 C124.105339,10.4708075 123.379278,10.870206 123.17713,11.5640339 L118.523055,27.6000798 C118.322385,28.2942836 118.722003,29.0197837 119.416316,29.2217823 L141.844393,35.7208738 C142.539181,35.9214216 143.265321,35.5221683 143.467611,34.8283812 L148.121692,18.7923386 C148.322292,18.098009 147.922637,17.3724382 147.228256,17.1703101 L124.800166,10.6712186 Z" id="Shape" fill="#E6E6E6"></path>
                    <path d="M141.52132,22.1805705 L126.939288,17.9550656 C126.655528,17.8722311 126.492453,17.5754775 126.574791,17.2917745 C126.657129,17.0080715 126.95379,16.8445373 127.237877,16.9262497 L141.819902,21.1517579 C142.104222,21.2341475 142.267867,21.531245 142.185413,21.8153438 C142.102959,22.0994425 141.80563,22.2629601 141.52131,22.1805705 L141.52132,22.1805705 Z" id="Path" fill="#1890FF"></path>
                    <path d="M140.464087,25.8233696 L125.882052,21.5978614 C125.698129,21.5445653 125.556633,21.3972723 125.510863,21.2114664 C125.465093,21.0256605 125.522004,20.8295699 125.660157,20.6970601 C125.79831,20.5645503 125.996717,20.5157527 126.18064,20.5690488 L140.762682,24.7945537 C141.046442,24.8773882 141.209517,25.1741418 141.127179,25.4578448 C141.044842,25.7415478 140.74818,25.905082 140.464094,25.8233696 L140.464087,25.8233696 Z" id="Path" fill="#1890FF"></path>
                    <path d="M139.406924,29.4659133 L124.824889,25.2404084 C124.541129,25.1575738 124.378054,24.8608203 124.460392,24.5771173 C124.542729,24.2934143 124.839391,24.1298801 125.123477,24.2115925 L139.705513,28.4371007 C139.889435,28.4903968 140.030932,28.6376897 140.076701,28.8234957 C140.122471,29.0093016 140.06556,29.2053922 139.927407,29.337902 C139.789254,29.4704118 139.590847,29.5192094 139.406924,29.4659133 Z" id="Path" fill="#1890FF"></path>
                    <rect id="Rectangle" fill="#E6E6E6" x="52.5097827" y="204.280045" width="235.229737" height="1.00833333"></rect>
                    <polygon id="Path" fill="#E6E6E6" points="189.088632 202.703569 150.836648 202.703569 152.133366 185.860369 187.791915 185.860369"></polygon>
                    <rect id="Rectangle" fill="#E6E6E6" x="148.891667" y="200.760309" width="42.7901345" height="3.88699056"></rect>
                    <path d="M243.224451,77.3485374 L97.0248405,77.3485374 C94.8764469,77.3485374 93.1348298,79.0887994 93.1348298,81.2355213 L93.1348298,81.2355213 L93.1348298,170.312263 L247.114469,170.312263 L247.114469,81.2355213 C247.114469,80.20463 246.704632,79.2159609 245.975114,78.48701 C245.245597,77.7580592 244.256159,77.3485374 243.224465,77.3485374 L243.224451,77.3485374 Z" id="Path" fill="#3F3D56"></path>
                    <path d="M93.1348298,170.312263 L93.1348298,184.888457 C93.1348298,185.919349 93.5446691,186.908018 94.2741877,187.636969 C95.0037064,188.365919 95.9931458,188.775438 97.0248405,188.775438 L243.224451,188.775438 C245.372845,188.775438 247.114469,187.03518 247.114469,184.888457 L247.114469,184.888457 L247.114469,170.312263 L93.1348298,170.312263 Z" id="Path" fill="#E6E6E6"></path>
                    <rect id="Rectangle" fill="#E6E6E6" x="100.914851" y="85.4464221" width="138.743762" height="77.7397069"></rect>
                    <ellipse id="Oval" fill="#3F3D56" cx="170.286736" cy="179.381898" rx="3.89001406" ry="3.88698719"></ellipse>
                    <ellipse id="Oval" fill="#FFFFFF" cx="105.240929" cy="87.9923226" rx="1" ry="1"></ellipse>
                    <ellipse id="Oval" fill="#FFFFFF" cx="108.043046" cy="87.9923226" rx="1" ry="1"></ellipse>
                    <ellipse id="Oval" fill="#FFFFFF" cx="110.84516" cy="87.9923226" rx="1" ry="1"></ellipse>
                    <rect id="Rectangle" fill="#FFFFFF" x="104.502702" y="90.498841" width="131.157182" height="65.2885985"></rect>
                    <path d="M113.221146,100.42959 C112.965173,100.42959 112.757483,100.637118 112.757483,100.892892 L112.757483,124.311696 C112.757483,124.567469 112.965174,124.774995 113.221146,124.774995 L140.287152,124.774995 C140.543124,124.774995 140.750815,124.567469 140.750815,124.311696 L140.750815,100.892892 C140.750815,100.637118 140.543125,100.42959 140.287152,100.42959 L113.221146,100.42959 Z" id="Path" fill="#E6E6E6"></path>
                    <path d="M156.679088,100.504919 C156.423059,100.504919 156.21526,100.712391 156.21526,100.968221 L156.21526,124.311696 C156.21526,124.567525 156.42306,124.774995 156.679088,124.774995 L183.658882,124.774995 C183.914797,124.77468 184.12238,124.567412 184.12238,124.311696 L184.12238,100.968221 C184.12238,100.712504 183.914798,100.505234 183.658882,100.504919 L156.679088,100.504919 Z" id="Path" fill="#E6E6E6"></path>
                    <path d="M199.681269,100.26022 C199.425352,100.260535 199.217771,100.467805 199.217771,100.723522 L199.217771,124.311696 C199.217771,124.567413 199.425353,124.774682 199.681269,124.774995 L226.941597,124.774995 C227.197513,124.774682 227.405095,124.567413 227.405095,124.311696 L227.405095,100.723522 C227.405095,100.467805 227.197514,100.260535 226.941597,100.26022 L199.681269,100.26022 Z" id="Path" fill="#E6E6E6"></path>
                    <path d="M113.715998,136.367225 C113.187271,136.368215 112.759178,136.796777 112.759178,137.325093 C112.759178,137.853409 113.187271,138.281971 113.715998,138.282961 L139.163391,138.282961 C139.692117,138.281971 140.12021,137.853409 140.12021,137.325093 C140.12021,136.796777 139.692117,136.368215 139.163391,136.367225 L113.715998,136.367225 Z" id="Path" fill="#E6E6E6"></path>
                    <path d="M113.715998,140.92343 C113.187226,140.924419 112.759097,141.353018 112.759097,141.881378 C112.759097,142.409739 113.187226,142.838337 113.715998,142.839327 L125.173529,142.839327 C125.702301,142.838337 126.13043,142.409739 126.13043,141.881378 C126.13043,141.353018 125.702301,140.924419 125.173529,140.92343 L113.715998,140.92343 Z" id="Path" fill="#1890FF"></path>
                    <path d="M157.640903,136.367225 C157.112176,136.368215 156.684083,136.796777 156.684083,137.325093 C156.684083,137.853409 157.112176,138.281971 157.640903,138.282961 L183.088299,138.282961 C183.617026,138.281971 184.045119,137.853409 184.045119,137.325093 C184.045119,136.796777 183.617026,136.368215 183.088299,136.367225 L157.640903,136.367225 Z" id="Path" fill="#E6E6E6"></path>
                    <path d="M157.640903,140.92343 C157.112131,140.924419 156.684002,141.353018 156.684002,141.881378 C156.684002,142.409739 157.112131,142.838337 157.640903,142.839327 L169.098603,142.839327 C169.627374,142.838337 170.055503,142.409739 170.055503,141.881378 C170.055503,141.353018 169.627374,140.924419 169.098603,140.92343 L157.640903,140.92343 Z" id="Path" fill="#1890FF"></path>
                    <path d="M200.468001,136.367225 C199.939274,136.368215 199.511181,136.796777 199.511181,137.325093 C199.511181,137.853409 199.939274,138.281971 200.468001,138.282961 L225.915394,138.282961 C226.444121,138.281971 226.872214,137.853409 226.872214,137.325093 C226.872214,136.796777 226.444121,136.368215 225.915394,136.367225 L200.468001,136.367225 Z" id="Path" fill="#E6E6E6"></path>
                    <path d="M113.715998,131.66167 C113.187271,131.662659 112.759178,132.091221 112.759178,132.619538 C112.759178,133.147854 113.187271,133.576416 113.715998,133.577405 L139.163391,133.577405 C139.692117,133.576416 140.12021,133.147854 140.12021,132.619538 C140.12021,132.091221 139.692117,131.662659 139.163391,131.66167 L113.715998,131.66167 Z" id="Path" fill="#E6E6E6"></path>
                    <path d="M157.640903,131.66167 C157.112176,131.662659 156.684083,132.091221 156.684083,132.619538 C156.684083,133.147854 157.112176,133.576416 157.640903,133.577405 L183.088299,133.577405 C183.617026,133.576416 184.045119,133.147854 184.045119,132.619538 C184.045119,132.091221 183.617026,131.662659 183.088299,131.66167 L157.640903,131.66167 Z" id="Path" fill="#E6E6E6"></path>
                    <path d="M200.468001,131.66167 C199.939274,131.662659 199.511181,132.091221 199.511181,132.619538 C199.511181,133.147854 199.939274,133.576416 200.468001,133.577405 L225.915394,133.577405 C226.444121,133.576416 226.872214,133.147854 226.872214,132.619538 C226.872214,132.091221 226.444121,131.662659 225.915394,131.66167 L200.468001,131.66167 Z" id="Path" fill="#E6E6E6"></path>
                    <path d="M200.468001,140.92343 C199.93923,140.924419 199.511101,141.353018 199.511101,141.881378 C199.511101,142.409739 199.93923,142.838337 200.468001,142.839327 L211.925385,142.839327 C212.454156,142.838337 212.882286,142.409739 212.882286,141.881378 C212.882286,141.353018 212.454156,140.924419 211.925385,140.92343 L200.468001,140.92343 Z" id="Path" fill="#1890FF"></path>
                </g>
            </g>
        </g>
    </g>
</svg>