<?xml version="1.0" encoding="UTF-8"?>
<svg width="139px" height="26px" viewBox="0 0 139 26" version="1.1" xmlns="http://www.w3.org/2000/svg" xmlns:xlink="http://www.w3.org/1999/xlink">
    <title>Deloitte</title>
    <g id="Client-Screens" stroke="none" stroke-width="1" fill="none" fill-rule="evenodd">
        <g id="1.1-Login" transform="translate(-43.000000, -33.000000)" fill-rule="nonzero">
            <g id="Group-5" transform="translate(43.000000, 33.000000)">
                <path d="M130.725581,22.2638278 C130.725581,20.2336333 132.365487,18.5864944 134.384309,18.5864944 C136.404232,18.5864944 138.04202,20.2336333 138.04202,22.2638278 C138.04202,24.2940223 136.404232,25.9400972 134.384309,25.9400972 C132.365487,25.9400972 130.725581,24.2940223 130.725581,22.2638278" id="path3356" fill="#86BC24"></path>
                <path d="M14.0420617,12.5251679 C14.0420617,10.1959772 13.594291,8.46797101 12.6986649,7.34221327 C11.8019379,6.21751957 10.4436352,5.65570474 8.61748961,5.65570474 L6.67489148,5.65570474 L6.67489148,19.8989875 L8.16124964,19.8989875 C10.1896415,19.8989875 11.6759997,19.2946109 12.6224414,18.0816016 C13.5677822,16.8707204 14.0420617,15.0182212 14.0420617,12.5251679 M20.9699305,12.282566 C20.9699305,16.5259704 19.8350473,19.7957753 17.565281,22.0909165 C15.2955147,24.3871218 12.1047145,25.5352245 7.9917794,25.5352245 L-8.85814e-15,25.5352245 L-8.85814e-15,0.107783323 L8.54973539,0.107783323 C12.5154745,0.107783323 15.5771182,1.15160974 17.7346666,3.23819852 C19.8911986,5.32585134 20.9699305,8.33922178 20.9699305,12.282566" id="path3360" fill="#FFFFFF"></path>
                <polygon id="path3362" fill="#FFFFFF" points="43.1073508 25.5349095 49.4666771 25.5349095 49.4666771 0.00106404323 43.1073508 0.00106404323"></polygon>
                <path d="M58.4004095,16.0106585 C58.4004095,17.6386447 58.6121414,18.8803831 59.034589,19.7337458 C59.4580528,20.5881725 60.1672701,21.0148539 61.1645275,21.0148539 C62.1511983,21.0148539 62.8488974,20.5881725 63.2554227,19.7337458 C63.661948,18.8803831 63.8641096,17.6386447 63.8641096,16.0106585 C63.8641096,14.3911847 63.6587296,13.1696631 63.2469534,12.3450296 C62.8340761,11.518268 62.1300251,11.1043552 61.1317514,11.1043552 C60.1556672,11.1043552 59.4580528,11.5161399 59.034589,12.3354532 C58.6121414,13.1558305 58.4004095,14.3805443 58.4004095,16.0106585 M70.3367548,16.0106585 C70.3367548,19.1123446 69.5279388,21.5319789 67.9060722,23.2663693 C66.2853066,25.0018239 64.0165566,25.8700831 61.0999916,25.8700831 C58.3030128,25.8700831 56.0766092,24.9826711 54.4240838,23.207847 C52.7694411,21.4330229 51.9425856,19.0346694 51.9425856,16.0106585 C51.9425856,12.9185489 52.7525025,10.5159393 54.3743691,8.80282967 C55.996151,7.08972007 58.270152,6.23316526 61.1984046,6.23316526 C63.0076963,6.23316526 64.6083897,6.63005339 65.9952339,7.4227656 C67.3830943,8.21547781 68.4545426,9.35081194 69.2072073,10.829832 C69.9609729,12.306724 70.3367548,14.0347303 70.3367548,16.0106585" id="path3366" fill="#FFFFFF"></path>
                <polygon id="path3370" fill="#FFFFFF" points="72.8622932 25.5350117 79.2227205 25.5350117 79.2227205 15.7628386 79.2227205 6.56844103 72.8622932 6.56844103"></polygon>
                <polygon id="path3372" fill="#FFFFFF" points="72.8620392 4.27426167 79.2224664 4.27426167 79.2224664 1.66934739e-15 72.8620392 1.66934739e-15"></polygon>
                <path d="M92.1085564,20.6973434 C92.9671717,20.6973434 93.989837,20.4781505 95.1829041,20.0429568 L95.1829041,24.8151907 C94.3253897,25.1939901 93.5102218,25.4653211 92.7352829,25.6259916 C91.9603441,25.7887902 91.0509131,25.8696575 90.010293,25.8696575 C87.8749341,25.8696575 86.3357277,25.3301876 85.3903022,24.2533759 C84.4491961,23.1765641 83.9770339,21.5230409 83.9770339,19.2917423 L83.9770339,11.4731526 L81.749614,11.4731526 L81.749614,6.57004135 L83.9770339,6.57004135 L83.9770339,1.72651655 L90.3861595,0.606079026 L90.3861595,6.57004135 L94.4439596,6.57004135 L94.4439596,11.4731526 L90.3861595,11.4731526 L90.3861595,18.8554845 C90.3861595,20.0833904 90.9609693,20.6973434 92.1085564,20.6973434" id="path3376" fill="#FFFFFF"></path>
                <path d="M106.828923,20.6973434 C107.687538,20.6973434 108.710203,20.4781505 109.90327,20.0429568 L109.90327,24.8151907 C109.046857,25.1939901 108.230588,25.4653211 107.455649,25.6259916 C106.679694,25.7887902 105.773481,25.8696575 104.730659,25.8696575 C102.595385,25.8696575 101.056094,25.3301876 100.112786,24.2533759 C99.1695622,23.1765641 98.6974,21.5230409 98.6974,19.2917423 L98.6974,11.4731526 L96.4688791,11.4731526 L96.4688791,6.57004135 L98.6974,6.57004135 L98.6974,1.65309757 L105.105425,0.606079026 L105.105425,6.57004135 L109.165427,6.57004135 L109.165427,11.4731526 L105.105425,11.4731526 L105.105425,18.8554845 C105.105425,20.0833904 105.680319,20.6973434 106.828923,20.6973434" id="path3380" fill="#FFFFFF"></path>
                <path d="M117.928588,13.7000844 C118.015398,12.6615782 118.310806,11.9007873 118.814644,11.4145195 C119.320768,10.9293158 119.945377,10.686714 120.692791,10.686714 C121.507959,10.686714 122.155858,10.959109 122.63649,11.5081553 C123.120255,12.0540095 123.372216,12.7850072 123.392373,13.7000844 L117.928588,13.7000844 L117.928588,13.7000844 Z M126.897553,8.46924786 C125.385787,6.97958734 123.240942,6.23369303 120.466237,6.23369303 C117.549588,6.23369303 115.305229,7.09024783 113.732061,8.80335744 C112.159909,10.516467 111.373367,12.9744069 111.373367,16.177177 C111.373367,19.2788631 112.223513,21.6708323 113.919486,23.3498925 C115.616475,25.0289527 117.999476,25.8695469 121.068572,25.8695469 C122.542227,25.8695469 123.810501,25.7684628 124.873395,25.5673586 C125.929938,25.3683825 126.952603,25.0087359 127.944609,24.4894828 L126.967424,20.2152211 C126.246519,20.5110251 125.560508,20.7387304 124.912608,20.8887605 C123.976753,21.1068893 122.949853,21.2164858 121.831824,21.2164858 C120.605981,21.2164858 119.638366,20.9153616 118.929064,20.3131131 C118.219762,19.7098006 117.841778,18.8777188 117.798415,17.8179317 L129.166303,17.8179317 L129.166303,14.9056454 C129.166303,12.1040195 128.410335,9.95784435 126.897553,8.46924786" id="path3384" fill="#FFFFFF"></path>
                <path d="M29.4104969,13.7000844 C29.497307,12.6615782 29.7927154,11.9007873 30.2965527,11.4145195 C30.8015757,10.9293158 31.4272012,10.686714 32.1757159,10.686714 C32.9887665,10.686714 33.6366662,10.959109 34.1183987,11.5081553 C34.6021638,12.0540095 34.8530238,12.7850072 34.875298,13.7000844 L29.4104969,13.7000844 L29.4104969,13.7000844 Z M38.3804778,8.46924786 C36.8676955,6.97958734 34.7238674,6.23369303 31.9481464,6.23369303 C29.0303957,6.23369303 26.7871383,7.09024783 25.2149863,8.80335744 C23.6429191,10.516467 22.8552763,12.9744069 22.8552763,16.177177 C22.8552763,19.2788631 23.7043213,21.6708323 25.4024114,23.3498925 C27.0983842,25.0289527 29.4813847,25.8695469 32.5504814,25.8695469 C34.0241357,25.8695469 35.2924099,25.7684628 36.3553042,25.5673586 C37.4118466,25.3683825 38.4345118,25.0087359 39.4275346,24.4894828 L38.449333,20.2152211 C37.7283435,20.5110251 37.042332,20.7387304 36.3955333,20.8887605 C35.4575609,21.1068893 34.431762,21.2164858 33.3137327,21.2164858 C32.0889058,21.2164858 31.1202746,20.9153616 30.4109726,20.3131131 C29.7005696,19.7098006 29.3236868,18.8777188 29.2803241,17.8179317 L40.6482115,17.8179317 L40.6482115,14.9056454 C40.6482115,12.1040195 39.8922438,9.95784435 38.3804778,8.46924786" id="path3388" fill="#FFFFFF"></path>
            </g>
        </g>
    </g>
</svg>