<?xml version="1.0" encoding="UTF-8"?>
<svg width="183px" height="107px" viewBox="0 0 183 107" version="1.1" xmlns="http://www.w3.org/2000/svg" xmlns:xlink="http://www.w3.org/1999/xlink">
    <title>Mining vertical white</title>
    <g id="Login-(review-needed)" stroke="none" stroke-width="1" fill="none" fill-rule="evenodd">
        <g id="1.1-Login-V2-Copy-12" transform="translate(-269.000000, -459.000000)">
            <g id="Logo/iW-Logo/Mining/vertical-white" transform="translate(269.000000, 459.000000)">
                <path d="M89.0948905,0 C66.8986129,9.70047976 56.8006864,22.9480111 57.4160584,36.2352941 C57.7799469,44.769443 63.7821068,51.5623815 75.5182482,52.0882353 C81.6568625,51.8492108 89.7587178,46.7770093 97.8043865,41.3772543 L99.4121728,40.294271 C99.5905995,40.1737509 99.7689319,40.0532174 99.947148,39.9327199 L101.014871,39.2105628 C109.542641,33.4430934 117.700129,27.9864609 123.036496,28.3088235 C134.597912,27.6439506 144.509667,37.4522547 150.189781,40.7647059 C157.858143,46.2306498 169.33746,40.8989181 169.423358,29.4411765 C169.33746,16.0063493 150.485763,16.0063493 150.189781,15.8529412 C153.010245,14.3852649 172.010879,10.6708995 178.474453,15.8529412 C185.076374,21.0108897 186.558297,33.7862244 167.160584,49.8235294 C149.443204,67.0816618 131.187255,64.8210671 123.036496,57.75 C113.664821,49.3055048 106.098823,49.7888557 101.540146,52.0882353 C95.9934497,54.3174813 28,104.098901 28,56.6176471 C28,9.68416799 86.889183,0.364719661 89.0353732,0.0107151192 Z M23,21 C7.54093885,41.8937471 10.7642458,60 10.952381,60 C-18.1376238,36.1692378 20.312787,21.776084 20.8095238,22.1142857 L23,21 Z" id="Combined-Shape-Copy" fill="#FFFFFE"></path>
                <g id="Product-Name" transform="translate(91.000000, 77.000000)" fill="#FFFFFF" font-family="OpenSans-Semibold, Open Sans" font-size="22" font-weight="500">
                    <text id="Mining">
                        <tspan x="0" y="24">Mining</tspan>
                    </text>
                </g>
            </g>
        </g>
    </g>
</svg>