<svg id="Layer_1" width="16px" height="16px" data-name="Layer 1" xmlns="http://www.w3.org/2000/svg" viewBox="0 0 1024 1024"><path id="arrow-bidirecitional" d="M896.27,275.36h0a36,36,0,0,1-36,36H201.82L315.73,425.27a36,36,0,0,1,0,50.91h0a36,36,0,0,1-50.91,0L114.91,326.27,64,275.36l50.91-50.91L264.82,74.54a36,36,0,0,1,50.91,0h0a36,36,0,0,1,0,50.92L201.82,239.36H860.27A36,36,0,0,1,896.27,275.36ZM127.73,748.64h0a36,36,0,0,0,36,36H822.18L708.27,898.54a36,36,0,0,0,0,50.92h0a36,36,0,0,0,50.91,0L909.09,799.55,960,748.64l-50.91-50.91L759.18,547.82a36,36,0,0,0-50.91,0h0a36,36,0,0,0,0,50.91L822.18,712.64H163.73A36,36,0,0,0,127.73,748.64Z"/></svg>