<svg id="Layer_1" data-name="Layer 1" xmlns="http://www.w3.org/2000/svg" viewBox="0 0 1024 1024"><path d="M555.3,601.77c0-16.93-14.83-27.51-31.77-27.51S496,589.08,496,606v12.7l-88.94-88.89c29.65,0,63.53,4.23,103.77,10.58C709.89,574.26,820,527.7,877.18,483.25c48.71-36,80.47-88.89,82.59-146,2.12-14.81-10.59-31.75-27.53-31.75S900.47,316.06,900.47,333c0,4.23,0,8.46-4.23,12.7L676,125.58c4.24,0,10.59-2.12,14.83-2.12,16.94,0,29.64-16.93,27.53-31.74s-17-29.63-31.77-27.52C582.83,74.78,462.12,174.26,472.71,417.65c0,8.46,2.12,14.81,8.47,21.16s12.7,8.47,21.18,8.47c16.94,0,27.52-14.82,27.52-31.75,0-4.23,0-8.47-2.11-10.58l88.94,88.89c-29.65,0-63.53-4.24-103.77-10.59C313.88,449.39,203.77,496,146.59,540.4c-48.71,36-80.47,88.89-82.59,146,0,8.47,2.12,19.05,8.47,25.4,4.24,4.23,10.59,6.35,16.94,8.46,16.94,0,31.77-10.58,31.77-27.51,0-4.23,0-8.47,4.23-12.7L345.65,900.19c-4.24,0-10.59,2.12-14.83,2.12-16.94,0-29.64,16.93-27.52,31.74,0,8.47,4.23,12.7,8.47,16.93,6.35,6.35,14.82,10.59,25.41,8.47C447.3,942.52,565.88,845.16,555.3,601.77Zm-2.12-353.44,218.12,218c-19.06,6.35-42.36,12.7-69.89,14.82L536.24,316.06C542.59,292.78,546.83,267.38,553.18,248.33ZM873,398.6c-8.48,12.7-19.06,23.28-33.89,33.86-2.12,2.12-6.35,6.35-10.59,6.35L580.71,191.19c12.7-16.93,25.41-33.86,40.23-44.45ZM326.59,529.82,491.77,694.9c-4.24,25.39-10.59,48.67-14.83,69.84L256.71,544.63C275.77,538.28,299.06,531.93,326.59,529.82ZM157.18,614.47c8.47-12.7,19.06-23.28,33.88-33.86,2.12-2.12,6.35-6.35,10.59-6.35L449.41,821.88c-12.7,16.93-25.41,33.86-40.23,44.45Z"/></svg>
 	 	 	 	 
