<svg id="functional_block" data-name="Functional Block" xmlns="http://www.w3.org/2000/svg" viewBox="0 0 1024 1024"><path d="M928,64c17.67,0,32,14.33,32,32v128c0,17.67-14.33,32-32,32h0c-17.67,0-32-14.33-32-32v-96H128v96c0,17.67-14.33,32-32,32h0c-17.67,0-32-14.33-32-32V96c0-17.67,14.33-32,32-32h832ZM128,960h800c17.67,0,32-14.33,32-32v-128c0-17.67-14.33-32-32-32h0c-17.67,0-32,14.33-32,32v96H128v-96c0-17.67-14.33-32-32-32h0c-17.67,0-32,14.33-32,32v128c0,17.67,14.33,32,32,32h32ZM784,256c26.51,0,48,21.49,48,48v96c0,26.51-21.49,48-48,48H240c-26.51,0-48-21.49-48-48v-96c0-26.51,21.49-48,48-48h544ZM768,320H256v64h512v-64ZM784,576c26.51,0,48,21.49,48,48v96c0,26.51-21.49,48-48,48H240c-26.51,0-48-21.49-48-48v-96c0-26.51,21.49-48,48-48h544ZM768,640H256v64h512v-64Z"/></svg>