<?xml version="1.0" encoding="UTF-8"?><svg xmlns="http://www.w3.org/2000/svg" viewBox="0 0 1024 1024"><defs><style>.cls-1{stroke-width:0px;}</style></defs><g id="Layer_1" focusable="false"><path id="artificial_intelligence" class="cls-1" d="m227.36,83.96c10.01-26.61,47.27-26.61,57.29,0l34.35,91.32c3.18,8.44,9.84,15.07,18.26,18.13l90.5,32.94c27.01,9.83,27.01,48.42,0,58.25l-90.5,32.94c-8.41,3.06-15.08,9.68-18.26,18.13l-34.35,91.32c-10.01,26.61-47.27,26.61-57.29,0l-34.35-91.32c-3.18-8.44-9.84-15.07-18.26-18.13l-90.5-32.94c-27.01-9.83-27.01-48.42,0-58.25l90.5-32.94c8.41-3.06,15.08-9.68,18.26-18.13l34.35-91.32Zm363.61,271.21c18.03-46.89,83.03-46.89,101.06,0l57.06,148.36c5.78,15.04,17.71,26.76,32.66,32.08l144.83,51.56c48.56,17.29,48.56,87.39,0,104.68l-144.83,51.56c-14.95,5.32-26.88,17.03-32.66,32.08l-57.06,148.36c-18.04,46.89-83.03,46.89-101.07,0l-57.06-148.36c-5.79-15.05-17.71-26.76-32.66-32.08l-144.83-51.56c-48.55-17.29-48.55-87.39,0-104.68l144.83-51.56c14.95-5.32,26.87-17.04,32.66-32.08l57.06-148.36Z"/></g></svg>