<?xml version="1.0" encoding="UTF-8"?>
<svg width="254px" height="240px" viewBox="0 0 254 240" version="1.1" xmlns="http://www.w3.org/2000/svg" xmlns:xlink="http://www.w3.org/1999/xlink">
    <title>DNA-analysis</title>
    <g id="3.1-DNA" stroke="none" stroke-width="1" fill="none" fill-rule="evenodd">
        <g id="empty-01" transform="translate(-703.000000, -209.000000)" fill-rule="nonzero">
            <g id="Empty" transform="translate(630.000000, 209.000000)">
                <g id="DNA-analysis" transform="translate(73.000000, 0.000000)">
                    <ellipse id="Oval" fill="#E6E6E6" cx="3.36036575" cy="3.35082295" rx="3.36036575" ry="3.35082295"></ellipse>
                    <ellipse id="Oval" fill="#E6E6E6" cx="20.3704942" cy="3.35082295" rx="3.36036575" ry="3.35082295"></ellipse>
                    <ellipse id="Oval" fill="#E6E6E6" cx="37.3806227" cy="3.35082295" rx="3.36036575" ry="3.35082295"></ellipse>
                    <ellipse id="Oval" fill="#E6E6E6" cx="54.3907511" cy="3.35082295" rx="3.36036575" ry="3.35082295"></ellipse>
                    <ellipse id="Oval" fill="#E6E6E6" cx="71.4008796" cy="3.35082295" rx="3.36036575" ry="3.35082295"></ellipse>
                    <ellipse id="Oval" fill="#E6E6E6" cx="88.4110081" cy="3.35082295" rx="3.36036575" ry="3.35082295"></ellipse>
                    <ellipse id="Oval" fill="#E6E6E6" cx="105.421137" cy="3.35082295" rx="3.36036575" ry="3.35082295"></ellipse>
                    <ellipse id="Oval" fill="#E6E6E6" cx="122.431265" cy="3.35082295" rx="3.36036575" ry="3.35082295"></ellipse>
                    <ellipse id="Oval" fill="#E6E6E6" cx="139.441393" cy="3.35082295" rx="3.36036575" ry="3.35082295"></ellipse>
                    <ellipse id="Oval" fill="#E6E6E6" cx="156.451522" cy="3.35082295" rx="3.36036575" ry="3.35082295"></ellipse>
                    <ellipse id="Oval" fill="#E6E6E6" cx="3.36036575" cy="20.5255525" rx="3.36036575" ry="3.35082295"></ellipse>
                    <ellipse id="Oval" fill="#E6E6E6" cx="20.3704942" cy="20.5255525" rx="3.36036575" ry="3.35082295"></ellipse>
                    <ellipse id="Oval" fill="#E6E6E6" cx="37.3806227" cy="20.5255525" rx="3.36036575" ry="3.35082295"></ellipse>
                    <ellipse id="Oval" fill="#1890FF" cx="54.3907511" cy="20.5255525" rx="3.36036575" ry="3.35082295"></ellipse>
                    <ellipse id="Oval" fill="#E6E6E6" cx="71.4008796" cy="20.5255525" rx="3.36036575" ry="3.35082295"></ellipse>
                    <ellipse id="Oval" fill="#E6E6E6" cx="88.4110081" cy="20.5255525" rx="3.36036575" ry="3.35082295"></ellipse>
                    <ellipse id="Oval" fill="#E6E6E6" cx="105.421137" cy="20.5255525" rx="3.36036575" ry="3.35082295"></ellipse>
                    <ellipse id="Oval" fill="#E6E6E6" cx="122.431265" cy="20.5255525" rx="3.36036575" ry="3.35082295"></ellipse>
                    <ellipse id="Oval" fill="#E6E6E6" cx="139.441393" cy="20.5255525" rx="3.36036575" ry="3.35082295"></ellipse>
                    <ellipse id="Oval" fill="#E6E6E6" cx="156.451522" cy="20.5255525" rx="3.36036575" ry="3.35082295"></ellipse>
                    <ellipse id="Oval" fill="#E6E6E6" cx="3.36036575" cy="37.700282" rx="3.36036575" ry="3.35082295"></ellipse>
                    <ellipse id="Oval" fill="#E6E6E6" cx="20.3704942" cy="37.700282" rx="3.36036575" ry="3.35082295"></ellipse>
                    <ellipse id="Oval" fill="#E6E6E6" cx="37.3806227" cy="37.700282" rx="3.36036575" ry="3.35082295"></ellipse>
                    <ellipse id="Oval" fill="#E6E6E6" cx="54.3907511" cy="37.700282" rx="3.36036575" ry="3.35082295"></ellipse>
                    <ellipse id="Oval" fill="#E6E6E6" cx="71.4008796" cy="37.700282" rx="3.36036575" ry="3.35082295"></ellipse>
                    <ellipse id="Oval" fill="#E6E6E6" cx="88.4110081" cy="37.700282" rx="3.36036575" ry="3.35082295"></ellipse>
                    <ellipse id="Oval" fill="#E6E6E6" cx="105.421137" cy="37.700282" rx="3.36036575" ry="3.35082295"></ellipse>
                    <ellipse id="Oval" fill="#E6E6E6" cx="122.431265" cy="37.700282" rx="3.36036575" ry="3.35082295"></ellipse>
                    <ellipse id="Oval" fill="#E6E6E6" cx="139.441393" cy="37.700282" rx="3.36036575" ry="3.35082295"></ellipse>
                    <ellipse id="Oval" fill="#E6E6E6" cx="156.451522" cy="37.700282" rx="3.36036575" ry="3.35082295"></ellipse>
                    <ellipse id="Oval" fill="#E6E6E6" cx="3.36036575" cy="54.8750066" rx="3.36036575" ry="3.35082295"></ellipse>
                    <ellipse id="Oval" fill="#E6E6E6" cx="20.3704942" cy="54.8750066" rx="3.36036575" ry="3.35082295"></ellipse>
                    <ellipse id="Oval" fill="#E6E6E6" cx="37.3806227" cy="54.8750066" rx="3.36036575" ry="3.35082295"></ellipse>
                    <ellipse id="Oval" fill="#E6E6E6" cx="54.3907511" cy="54.8750066" rx="3.36036575" ry="3.35082295"></ellipse>
                    <ellipse id="Oval" fill="#E6E6E6" cx="71.4008796" cy="54.8750066" rx="3.36036575" ry="3.35082295"></ellipse>
                    <ellipse id="Oval" fill="#E6E6E6" cx="88.4110081" cy="54.8750066" rx="3.36036575" ry="3.35082295"></ellipse>
                    <ellipse id="Oval" fill="#E6E6E6" cx="105.421137" cy="54.8750066" rx="3.36036575" ry="3.35082295"></ellipse>
                    <ellipse id="Oval" fill="#E6E6E6" cx="122.431265" cy="54.8750066" rx="3.36036575" ry="3.35082295"></ellipse>
                    <ellipse id="Oval" fill="#E6E6E6" cx="139.441393" cy="54.8750066" rx="3.36036575" ry="3.35082295"></ellipse>
                    <ellipse id="Oval" fill="#E6E6E6" cx="156.451522" cy="54.8750066" rx="3.36036575" ry="3.35082295"></ellipse>
                    <ellipse id="Oval" fill="#E6E6E6" cx="3.36036575" cy="72.0497361" rx="3.36036575" ry="3.35082295"></ellipse>
                    <ellipse id="Oval" fill="#1890FF" cx="20.3704942" cy="72.0497361" rx="3.36036575" ry="3.35082295"></ellipse>
                    <ellipse id="Oval" fill="#E6E6E6" cx="37.3806227" cy="72.0497361" rx="3.36036575" ry="3.35082295"></ellipse>
                    <ellipse id="Oval" fill="#E6E6E6" cx="54.3907511" cy="72.0497361" rx="3.36036575" ry="3.35082295"></ellipse>
                    <ellipse id="Oval" fill="#E6E6E6" cx="71.4008796" cy="72.0497361" rx="3.36036575" ry="3.35082295"></ellipse>
                    <ellipse id="Oval" fill="#E6E6E6" cx="88.4110081" cy="72.0497361" rx="3.36036575" ry="3.35082295"></ellipse>
                    <ellipse id="Oval" fill="#E6E6E6" cx="105.421137" cy="72.0497361" rx="3.36036575" ry="3.35082295"></ellipse>
                    <ellipse id="Oval" fill="#E6E6E6" cx="122.431265" cy="72.0497361" rx="3.36036575" ry="3.35082295"></ellipse>
                    <ellipse id="Oval" fill="#E6E6E6" cx="139.441393" cy="72.0497361" rx="3.36036575" ry="3.35082295"></ellipse>
                    <ellipse id="Oval" fill="#E6E6E6" cx="156.451522" cy="72.0497361" rx="3.36036575" ry="3.35082295"></ellipse>
                    <ellipse id="Oval" fill="#E6E6E6" cx="3.36036575" cy="89.2244656" rx="3.36036575" ry="3.35082295"></ellipse>
                    <ellipse id="Oval" fill="#E6E6E6" cx="20.3704942" cy="89.2244656" rx="3.36036575" ry="3.35082295"></ellipse>
                    <ellipse id="Oval" fill="#E6E6E6" cx="37.3806227" cy="89.2244656" rx="3.36036575" ry="3.35082295"></ellipse>
                    <ellipse id="Oval" fill="#E6E6E6" cx="54.3907511" cy="89.2244656" rx="3.36036575" ry="3.35082295"></ellipse>
                    <ellipse id="Oval" fill="#E6E6E6" cx="71.4008796" cy="89.2244656" rx="3.36036575" ry="3.35082295"></ellipse>
                    <ellipse id="Oval" fill="#E6E6E6" cx="88.4110081" cy="89.2244656" rx="3.36036575" ry="3.35082295"></ellipse>
                    <ellipse id="Oval" fill="#E6E6E6" cx="105.421137" cy="89.2244656" rx="3.36036575" ry="3.35082295"></ellipse>
                    <ellipse id="Oval" fill="#E6E6E6" cx="122.431265" cy="89.2244656" rx="3.36036575" ry="3.35082295"></ellipse>
                    <ellipse id="Oval" fill="#E6E6E6" cx="139.441393" cy="89.2244656" rx="3.36036575" ry="3.35082295"></ellipse>
                    <ellipse id="Oval" fill="#E6E6E6" cx="156.451522" cy="89.2244656" rx="3.36036575" ry="3.35082295"></ellipse>
                    <ellipse id="Oval" fill="#E6E6E6" cx="3.36036575" cy="106.399195" rx="3.36036575" ry="3.35082295"></ellipse>
                    <ellipse id="Oval" fill="#E6E6E6" cx="20.3704942" cy="106.399195" rx="3.36036575" ry="3.35082295"></ellipse>
                    <ellipse id="Oval" fill="#1890FF" cx="37.3806227" cy="106.399195" rx="3.36036575" ry="3.35082295"></ellipse>
                    <ellipse id="Oval" fill="#E6E6E6" cx="54.3907511" cy="106.399195" rx="3.36036575" ry="3.35082295"></ellipse>
                    <ellipse id="Oval" fill="#E6E6E6" cx="71.4008796" cy="106.399195" rx="3.36036575" ry="3.35082295"></ellipse>
                    <ellipse id="Oval" fill="#E6E6E6" cx="88.4110081" cy="106.399195" rx="3.36036575" ry="3.35082295"></ellipse>
                    <ellipse id="Oval" fill="#E6E6E6" cx="105.421137" cy="106.399195" rx="3.36036575" ry="3.35082295"></ellipse>
                    <ellipse id="Oval" fill="#E6E6E6" cx="122.431265" cy="106.399195" rx="3.36036575" ry="3.35082295"></ellipse>
                    <ellipse id="Oval" fill="#E6E6E6" cx="139.441393" cy="106.399195" rx="3.36036575" ry="3.35082295"></ellipse>
                    <ellipse id="Oval" fill="#E6E6E6" cx="156.451522" cy="106.399195" rx="3.36036575" ry="3.35082295"></ellipse>
                    <ellipse id="Oval" fill="#E6E6E6" cx="3.36036575" cy="123.573925" rx="3.36036575" ry="3.35082295"></ellipse>
                    <ellipse id="Oval" fill="#E6E6E6" cx="20.3704942" cy="123.573925" rx="3.36036575" ry="3.35082295"></ellipse>
                    <ellipse id="Oval" fill="#E6E6E6" cx="37.3806227" cy="123.573925" rx="3.36036575" ry="3.35082295"></ellipse>
                    <ellipse id="Oval" fill="#E6E6E6" cx="54.3907511" cy="123.573925" rx="3.36036575" ry="3.35082295"></ellipse>
                    <ellipse id="Oval" fill="#E6E6E6" cx="71.4008796" cy="123.573925" rx="3.36036575" ry="3.35082295"></ellipse>
                    <ellipse id="Oval" fill="#E6E6E6" cx="88.4110081" cy="123.573925" rx="3.36036575" ry="3.35082295"></ellipse>
                    <ellipse id="Oval" fill="#E6E6E6" cx="105.421137" cy="123.573925" rx="3.36036575" ry="3.35082295"></ellipse>
                    <ellipse id="Oval" fill="#E6E6E6" cx="122.431265" cy="123.573925" rx="3.36036575" ry="3.35082295"></ellipse>
                    <ellipse id="Oval" fill="#E6E6E6" cx="139.441393" cy="123.573925" rx="3.36036575" ry="3.35082295"></ellipse>
                    <ellipse id="Oval" fill="#E6E6E6" cx="156.451522" cy="123.573925" rx="3.36036575" ry="3.35082295"></ellipse>
                    <ellipse id="Oval" fill="#E6E6E6" cx="3.36036575" cy="140.748654" rx="3.36036575" ry="3.35082295"></ellipse>
                    <ellipse id="Oval" fill="#E6E6E6" cx="20.3704942" cy="140.748654" rx="3.36036575" ry="3.35082295"></ellipse>
                    <ellipse id="Oval" fill="#E6E6E6" cx="37.3806227" cy="140.748654" rx="3.36036575" ry="3.35082295"></ellipse>
                    <ellipse id="Oval" fill="#E6E6E6" cx="54.3907511" cy="140.748654" rx="3.36036575" ry="3.35082295"></ellipse>
                    <ellipse id="Oval" fill="#E6E6E6" cx="71.4008796" cy="140.748654" rx="3.36036575" ry="3.35082295"></ellipse>
                    <ellipse id="Oval" fill="#E6E6E6" cx="88.4110081" cy="140.748654" rx="3.36036575" ry="3.35082295"></ellipse>
                    <ellipse id="Oval" fill="#E6E6E6" cx="105.421137" cy="140.748654" rx="3.36036575" ry="3.35082295"></ellipse>
                    <ellipse id="Oval" fill="#E6E6E6" cx="122.431265" cy="140.748654" rx="3.36036575" ry="3.35082295"></ellipse>
                    <ellipse id="Oval" fill="#E6E6E6" cx="139.441393" cy="140.748654" rx="3.36036575" ry="3.35082295"></ellipse>
                    <ellipse id="Oval" fill="#E6E6E6" cx="156.451522" cy="140.748654" rx="3.36036575" ry="3.35082295"></ellipse>
                    <ellipse id="Oval" fill="#E6E6E6" cx="3.36036575" cy="157.923379" rx="3.36036575" ry="3.35082295"></ellipse>
                    <ellipse id="Oval" fill="#E6E6E6" cx="20.3704942" cy="157.923379" rx="3.36036575" ry="3.35082295"></ellipse>
                    <ellipse id="Oval" fill="#E6E6E6" cx="37.3806227" cy="157.923379" rx="3.36036575" ry="3.35082295"></ellipse>
                    <ellipse id="Oval" fill="#E6E6E6" cx="54.3907511" cy="157.923379" rx="3.36036575" ry="3.35082295"></ellipse>
                    <ellipse id="Oval" fill="#E6E6E6" cx="71.4008796" cy="157.923379" rx="3.36036575" ry="3.35082295"></ellipse>
                    <ellipse id="Oval" fill="#E6E6E6" cx="88.4110081" cy="157.923379" rx="3.36036575" ry="3.35082295"></ellipse>
                    <ellipse id="Oval" fill="#E6E6E6" cx="105.421137" cy="157.923379" rx="3.36036575" ry="3.35082295"></ellipse>
                    <ellipse id="Oval" fill="#E6E6E6" cx="122.431265" cy="157.923379" rx="3.36036575" ry="3.35082295"></ellipse>
                    <ellipse id="Oval" fill="#E6E6E6" cx="139.441393" cy="157.923379" rx="3.36036575" ry="3.35082295"></ellipse>
                    <ellipse id="Oval" fill="#E6E6E6" cx="156.451522" cy="157.923379" rx="3.36036575" ry="3.35082295"></ellipse>
                    <path d="M197.481291,29.946423 C199.82765,29.946423 201.729749,31.8431258 201.729749,34.1828213 L201.729749,203.638254 C201.729749,204.761815 201.282145,205.839359 200.485405,206.633837 C199.688664,207.428315 198.608052,207.874648 197.481291,207.874648 L75.5507316,207.874648 C74.4239704,207.874648 73.3433584,207.428315 72.546618,206.633837 C71.7498775,205.839359 71.3022734,204.761815 71.3022734,203.638254 L71.3022734,34.1828164 C71.3022734,31.8431209 73.2043729,29.946423 75.5507316,29.946423 L197.481291,29.946423" id="Path" fill="#E6E6E6"></path>
                    <polygon id="Path" fill="#FFFFFF" points="76.0452819 203.145034 196.986642 203.145034 196.986642 34.6759869 76.0452819 34.6759869"></polygon>
                    <path d="M170.078721,61.329541 C170.304072,61.329541 170.520194,61.4188077 170.679542,61.5777035 C170.838889,61.7365992 170.928407,61.9521078 170.928407,62.1768197 L170.928407,63.871377 C170.928407,64.3393134 170.54799,64.7186508 170.078721,64.7186508 L102.953218,64.7186508 C102.727867,64.7186508 102.511745,64.6293865 102.352398,64.4704915 C102.19305,64.3115966 102.103532,64.0960884 102.103532,63.871377 L102.103532,62.1768197 C102.103532,61.9521074 102.193048,61.736598 102.352396,61.577702 C102.511743,61.418806 102.727866,61.329541 102.953218,61.329541 L170.07876,61.329541" id="Path" fill="#E6E6E6"></path>
                    <path d="M170.078721,69.3786738 C170.54799,69.3786738 170.928407,69.7580153 170.928407,70.2259525 L170.928407,71.9205098 C170.928407,72.3884462 170.54799,72.7677836 170.078721,72.7677836 L102.953218,72.7677836 C102.727867,72.7677836 102.511745,72.6785192 102.352398,72.5196243 C102.19305,72.3607294 102.103532,72.1452212 102.103532,71.9205098 L102.103532,70.2259525 C102.103532,70.0012406 102.19305,69.785732 102.352397,69.6268363 C102.511745,69.4679405 102.727867,69.3786738 102.953218,69.3786738 L170.07876,69.3786738" id="Path" fill="#E6E6E6"></path>
                    <path d="M170.078721,77.4278213 C170.547988,77.4278213 170.928407,77.8071598 170.928407,78.2750951 L170.928407,79.9696525 C170.928407,80.4375877 170.547988,80.8169262 170.078721,80.8169262 L102.953218,80.8169262 C102.483949,80.8169262 102.103532,80.4375888 102.103532,79.9696525 L102.103532,78.2750951 C102.103532,77.8071587 102.483949,77.4278213 102.953218,77.4278213 L170.07876,77.4278213" id="Path" fill="#1890FF"></path>
                    <path d="M170.078721,85.6530984 C170.54799,85.6530984 170.928407,86.0324357 170.928407,86.5003721 L170.928407,88.1949295 C170.928407,88.6628659 170.54799,89.0422033 170.078721,89.0422033 L102.953218,89.0422033 C102.727867,89.0422033 102.511745,88.9529389 102.352398,88.794044 C102.19305,88.635149 102.103532,88.4196409 102.103532,88.1949295 L102.103532,86.5003721 C102.103532,86.2756608 102.19305,86.0601526 102.352398,85.9012577 C102.511745,85.7423627 102.727867,85.6530984 102.953218,85.6530984 L170.07876,85.6530984" id="Path" fill="#E6E6E6"></path>
                    <path d="M170.078721,93.7022311 C170.54799,93.7022311 170.928407,94.0815685 170.928407,94.5495049 L170.928407,96.2440623 C170.928407,96.4687741 170.838889,96.6842828 170.679542,96.8431785 C170.520194,97.0020742 170.304072,97.091341 170.078721,97.091341 L102.953218,97.091341 C102.727866,97.091341 102.511743,97.0020759 102.352396,96.8431799 C102.193048,96.6842839 102.103532,96.4687745 102.103532,96.2440623 L102.103532,94.5495049 C102.103532,94.3247935 102.19305,94.1092854 102.352398,93.9503904 C102.511745,93.7914955 102.727867,93.7022311 102.953218,93.7022311 L170.07876,93.7022311" id="Path" fill="#E6E6E6"></path>
                    <path d="M170.078721,101.751364 C170.547988,101.751364 170.928407,102.130702 170.928407,102.598638 L170.928407,104.293195 C170.928407,104.761131 170.547989,105.140474 170.078721,105.140474 L102.953218,105.140474 C102.483948,105.140474 102.103532,104.761132 102.103532,104.293195 L102.103532,102.598638 C102.103532,102.130701 102.483949,101.751364 102.953218,101.751364 L170.07876,101.751364" id="Path" fill="#E6E6E6"></path>
                    <path d="M103.381931,128.828149 C102.837378,128.828691 102.395523,129.26875 102.395523,129.811756 L102.395523,175.507913 C102.395523,176.050886 102.837412,176.490896 103.381931,176.49152 L169.535792,176.49152 C170.080312,176.490899 170.5222,176.050887 170.5222,175.507913 L170.5222,129.811756 C170.5222,129.26875 170.080344,128.828691 169.535792,128.828149 L103.381931,128.828149 Z" id="Path" fill="#1890FF"></path>
                    <polygon id="Path" fill="#3F3D56" points="136.736678 79.2694918 136.042247 79.0855574 151.196923 22.2394918 239.098185 22.2394918 239.098185 22.9560492 151.748818 22.9560492"></polygon>
                    <path d="M246.280531,30.1179 C243.230264,30.1179 240.480344,28.2856849 239.313056,25.4756089 C238.145768,22.665533 238.790989,19.4309946 240.947853,17.2802545 C243.104716,15.1295143 246.348466,14.4861239 249.166546,15.6500952 C251.984625,16.8140666 253.822062,19.5561754 253.822062,22.5977803 C253.817333,26.7490709 250.443644,30.1131815 246.280531,30.1179 L246.280531,30.1179 Z M246.280531,15.7938639 C243.520766,15.7938639 241.032744,17.4515817 239.976626,19.9940308 C238.920508,22.53648 239.504279,25.4629665 241.455727,27.408874 C243.407175,29.3547815 246.341995,29.9368966 248.891686,28.8837799 C251.441376,27.8306632 253.103819,25.3497081 253.103819,22.5977803 C253.099541,18.8418514 250.047156,15.7981326 246.280531,15.7938639 Z" id="Shape" fill="#3F3D56"></path>
                    <ellipse id="Oval" fill="#1890FF" cx="246.280531" cy="22.5977803" rx="2.87296687" ry="2.8648082"></ellipse>
                    <polygon id="Path" fill="#3F3D56" points="134.387055 175.54441 135.080993 175.729328 119.817812 232.546377 31.91655 232.378672 31.9180296 231.662115 119.266903 231.829328"></polygon>
                    <path d="M24.7491682,224.486555 C27.7994298,224.492385 30.5458224,226.329855 31.7077068,229.142157 C32.8695912,231.954459 32.2181541,235.187758 30.0571598,237.334372 C27.8961654,239.480986 24.6511848,240.118175 21.8353478,238.948819 C19.0195109,237.779463 17.1873487,235.033847 17.1931819,231.992248 C17.2059083,227.840976 20.5860556,224.483322 24.7491682,224.486555 L24.7491682,224.486555 Z M24.7216375,238.810577 C27.4813974,238.815838 29.9725995,237.162875 31.0336001,234.622448 C32.0946006,232.082021 31.5164535,229.154424 29.568748,227.204793 C27.6210425,225.255161 24.6873459,224.66744 22.1356367,225.715684 C19.5839275,226.763927 17.9167213,229.241702 17.9114318,231.993625 C17.9084929,235.749556 20.9550259,238.799102 24.7216375,238.810577 L24.7216375,238.810577 Z" id="Shape" fill="#3F3D56"></path>
                    <ellipse id="Oval" fill="#1890FF" cx="24.7347173" cy="232.006662" rx="2.87296687" ry="2.8648082"></ellipse>
                </g>
            </g>
        </g>
    </g>
</svg>