<?xml version="1.0" encoding="UTF-8"?>
<svg width="20px" height="20px" viewBox="0 0 24 24" version="1.1" xmlns="http://www.w3.org/2000/svg" xmlns:xlink="http://www.w3.org/1999/xlink">
    <defs>
        <path d="M5,13 C5.55,13 5.997,13.444 6,13.995 L6,13.995 L6.013,16.573 L9.293,13.293 C9.684,12.902 10.316,12.902 10.707,13.293 C11.098,13.684 11.098,14.316 10.707,14.707 L10.707,14.707 L7.415,17.999 L10,18 C10.553,18 11,18.448 11,19.001 C10.999,19.553 10.552,20 10,20 L10,20 L9.999,20 L5.024,19.997 C4.474,19.997 4.028,19.552 4.025,19.002 L4.025,19.002 L3.99998495,14.005 C3.997,13.453 4.443,13.003 4.995,13 L4.995,13 Z M14.0046,4.0004 L19.0016,4.0254 C19.5516,4.0284 19.9966,4.4744 19.9966,5.0244 L19.9966,5.0244 L19.9996017,9.9994 C20.0006,10.5514 19.5526,11.0004 19.0006,11.0004 L19.0006,11.0004 C18.4476,11.0004 18.0006,10.5524 17.9996,10.0014 L17.9996,10.0014 L17.9976,7.4164 L14.7066,10.7074 C14.5116,10.9024 14.2556,11.0004 13.9996,11.0004 C13.7446,11.0004 13.4886,10.9024 13.2926,10.7074 C12.9026,10.3164 12.9026,9.6834 13.2926,9.2934 L13.2926,9.2934 L16.5726,6.0134 L13.9956,6.0004 C13.4426,5.9974 12.9966,5.5464 12.999585,4.9954 C13.0026,4.4444 13.4506,4.0004 13.9996,4.0004 L13.9996,4.0004 L14.0046,4.0004 Z" id="path-1"></path>
    </defs>
    <g id="27)-Icon/expand" stroke="white" stroke-width="1" fill="white" fill-rule="evenodd">
        <mask id="mask-2" fill="white">
            <use xlink:href="#path-1"></use>
        </mask>
        <use id="🎨-Icon-Сolor" fill="#fff" xlink:href="#path-1"></use>
    </g>
</svg>