<svg width="528" height="78" viewBox="0 0 528 78" fill="none" xmlns="http://www.w3.org/2000/svg">
<path d="M98.9007 55.2708C113.74 54.2963 128.771 54.146 143.666 54.406C147.583 54.4744 151.499 54.5428 155.415 54.6111C156.361 54.6276 157.307 54.6442 158.253 54.6607C160.608 54.7018 156.038 53.1474 155.535 52.9671C153.185 52.1241 151.91 51.0292 150.224 49.4603C150.094 49.3394 154.41 52.8458 156.04 53.799C157.768 54.8096 159.906 54.6848 157.945 56.5757C156.454 58.0134 155.049 58.639 153.223 59.5112" stroke="#262626" stroke-width="2" stroke-linecap="round" stroke-linejoin="round"/>
<path d="M160.076 45.7383C160.047 47.4314 161.158 49.5115 161.503 51.1854C161.937 53.2895 161.544 55.7843 161.507 57.9332C161.495 58.6217 161.521 60.9991 162.616 60.6335C167.137 59.1233 172.838 59.0392 177.616 59.0578C185.311 59.0878 192.963 58.2413 200.694 58.3762C204.903 58.4497 209.111 58.5231 213.319 58.5966C223.239 58.7697 233.126 59.4845 243.063 59.658C244.734 59.6871 246.561 59.9886 245.591 57.7742C244.03 54.2115 244.375 48.9805 244.442 45.1625C244.503 41.6423 237.975 43.5452 235.582 43.6824C226.323 44.2133 216.994 44.5629 207.724 44.4011C192 44.1267 176.38 43.854 160.662 43.5796" stroke="#262626" stroke-width="2" stroke-linecap="round" stroke-linejoin="round"/>
<path d="M243.961 53.0938C246.374 50.8076 249.624 49.2566 252.279 47.2094C257.957 42.8319 263.986 38.9431 269.901 34.8609C275.438 31.0389 281.143 25.9626 287.739 24.0086C294.134 22.1143 301.492 22.6449 307.983 23.556C308.458 23.6228 310.214 24.3395 309.648 24.0328C308.541 23.4332 307.176 22.8465 306.15 22.1808C305.011 21.4414 304.376 19.947 303.157 19.3227C301.34 18.3916 304.01 20.8333 304.526 21.1077C307.089 22.4723 309.32 25.4816 312.103 26.3144C314.074 26.9041 306.615 31.2595 305.134 31.5955" stroke="#262626" stroke-width="2" stroke-linecap="round" stroke-linejoin="round"/>
<path d="M247.925 55.1636C253.749 56.2062 258.964 60.4537 264.849 61.6608C270.97 62.9159 277.547 63.7366 283.773 63.8452C289.101 63.9382 294.39 63.4551 299.747 63.5486C301.217 63.5743 307.984 65.2503 304.935 61.9449C303.719 60.6263 298.823 59.2721 302.483 60.7193C305.495 61.91 311.795 62.832 307.098 65.7229C306.255 66.2416 304.03 67.4347 303.782 68.5102C303.713 68.8111 303.163 70.7372 303.177 69.9382" stroke="#262626" stroke-width="2" stroke-linecap="round" stroke-linejoin="round"/>
<path d="M312.589 17.6888C312.501 22.7278 315.73 27.0301 315.641 32.1502C315.619 33.3668 315.698 32.7692 315.522 31.911C314.984 29.2813 315.34 26.6704 315.11 24.0178C314.825 20.7394 314.048 17.2731 314.306 13.9833C314.408 12.6773 342.558 13.9428 346.121 14.005C357.607 14.2055 368.976 13.1105 380.402 13.0025C383.696 12.9713 386.888 12.582 390.197 12.6398C394.23 12.7102 393.04 14.5188 392.977 18.1433C392.928 20.9436 392.802 23.6776 393.26 26.4492C393.386 27.2097 393.568 28.493 393.212 29.2351C392.763 30.17 393.165 30.4105 393.054 31.2483C392.986 31.7623 388.878 31.8251 388.639 31.8235C380.957 31.7703 373.258 31.3193 365.577 31.5395C360.971 31.6716 356.447 32.8082 351.85 32.7823C346.753 32.7535 341.656 32.5347 336.559 32.5153C331.396 32.4957 325.497 32.4133 320.395 33.1819C319.298 33.3472 316.138 33.7091 315.631 32.6837" stroke="#262626" stroke-width="2" stroke-linecap="round" stroke-linejoin="round"/>
<path d="M312.947 59.6194C312.896 62.5392 313.91 65.4954 314.308 68.3748C314.484 69.639 314.347 71.999 314.952 73.1208C315.269 73.7066 324.229 73.0875 325.006 73.0811C339.256 72.9636 353.365 72.5 367.647 72.7493C370.599 72.8008 373.492 72.2979 376.495 72.3504C379.482 72.4025 382.837 72.8571 385.763 72.2354C388.107 71.7375 390.681 72.0445 393.063 72.0861C394.468 72.1107 393.022 67.6847 392.827 66.5479C392.414 64.1367 391.385 62.389 391.429 59.8825C391.47 57.5684 391.196 57.6648 388.925 57.6251C374.422 57.372 359.892 58.7786 345.366 58.5251C334.043 58.3274 323.112 58.1366 311.886 57.9407" stroke="#262626" stroke-width="2" stroke-linecap="round" stroke-linejoin="round"/>
<path d="M392.49 24.0866C405.697 24.3171 418.875 23.4279 432.087 23.6585C434.192 23.6953 436.297 23.732 438.403 23.7688C441.807 23.8282 436.368 21.7335 435.113 20.9133C434.954 20.8089 431.492 18.8764 431.648 19.4849C432.137 21.3796 437.534 22.7403 439.066 23.656C440.789 24.6853 435.388 29.7591 434.075 30.4085" stroke="#262626" stroke-width="2" stroke-linecap="round" stroke-linejoin="round"/>
<path d="M393.757 66.0757C397.038 64.4707 402.502 65.3147 406.09 65.141C411.129 64.897 416.089 64.7872 421.148 64.8755C424.148 64.9278 427.147 64.9802 430.147 65.0325C432.433 65.0724 434.913 66.3061 437.191 65.6839C437.53 65.5912 435.655 64.5846 435.51 64.4424C434.616 63.567 433.768 62.5145 432.696 61.8447C431.655 61.1937 432.741 61.3048 433.367 61.7321C435.48 63.1735 437.483 64.7841 439.615 66.1924C442.602 68.166 438.835 68.1335 437.599 70.1976C437.111 71.0115 435.775 73.6135 435.806 71.8446" stroke="#262626" stroke-width="2" stroke-linecap="round" stroke-linejoin="round"/>
<path d="M446.919 28.6324L444.163 14.5822L450.697 12.696L487.692 13.3417L524.677 14.4874L524.424 28.9852L446.919 28.6324Z" fill="#62B5E5"/>
<path d="M443.659 14.8265C443.922 17.5331 445.411 20.0743 445.676 22.8105C445.827 24.3653 445.609 26.4783 446.593 27.7135C447.235 28.519 446.667 28.7897 448.158 28.5651C452.686 27.8829 457.385 28.314 461.951 28.3937C468.162 28.5021 474.387 28.4993 480.595 28.7191C493.476 29.1753 506.478 28.641 519.533 28.8689C520.63 28.888 524.865 29.6461 524.892 28.1381C524.949 24.8524 525.551 21.6743 525.609 18.3766C525.654 15.7564 525.814 14.4164 522.646 14.115C520.53 13.9137 518.47 14.5426 516.351 14.5056C512.272 14.4344 508.193 14.3632 504.114 14.292C490.659 14.0571 477.219 13.2926 463.798 13.0584C460.409 12.9992 456.592 12.4971 453.256 13.1393C451.319 13.5124 448.368 13.8489 446.41 13.8147" stroke="#262626" stroke-width="2" stroke-linecap="round" stroke-linejoin="round"/>
<path d="M454.836 24.7699L454.96 17.6323L455.79 17.6468L455.679 24.0326L458.828 24.0875L458.815 24.8394L454.836 24.7699ZM464.573 22.2588C464.558 23.1311 464.327 23.8091 463.879 24.2929C463.431 24.7734 462.82 25.0069 462.045 24.9934C461.566 24.9851 461.144 24.8654 460.777 24.6343C460.409 24.4033 460.129 24.076 459.934 23.6527C459.74 23.2293 459.647 22.7361 459.657 22.173C459.672 21.3007 459.902 20.6259 460.347 20.1486C460.792 19.668 461.401 19.4345 462.176 19.448C462.924 19.461 463.514 19.7204 463.945 20.226C464.379 20.7317 464.588 21.4093 464.573 22.2588ZM460.497 22.1877C460.485 22.8711 460.613 23.3943 460.88 23.7571C461.147 24.1199 461.546 24.3059 462.076 24.3151C462.607 24.3244 463.012 24.154 463.291 23.8041C463.574 23.4509 463.722 22.9309 463.734 22.2442C463.746 21.5639 463.616 21.0456 463.346 20.6893C463.079 20.3298 462.676 20.1453 462.139 20.1359C461.609 20.1267 461.206 20.2938 460.929 20.6373C460.653 20.9809 460.509 21.4977 460.497 22.1877ZM470.322 25.0402L469.395 21.8839C469.337 21.6908 469.229 21.2527 469.071 20.5695L469.032 20.5688C468.892 21.1361 468.771 21.5735 468.668 21.881L467.602 24.9928L466.665 24.9764L465.299 19.6002L466.148 19.615C466.47 20.9652 466.714 21.9934 466.881 22.6995C467.051 23.4057 467.146 23.8811 467.168 24.1257L467.207 24.1263C467.246 23.9415 467.307 23.7032 467.391 23.4117C467.477 23.1169 467.551 22.8838 467.613 22.7123L468.648 19.6586L469.527 19.674L470.43 22.7615C470.602 23.3245 470.718 23.7969 470.776 24.1789L470.815 24.1796C470.83 24.0626 470.868 23.8826 470.927 23.6394C470.99 23.3964 471.353 22.089 472.016 19.7174L472.856 19.7321L471.283 25.057L470.322 25.0402ZM475.993 25.2369C475.202 25.2231 474.581 24.9713 474.131 24.4816C473.684 23.992 473.467 23.3191 473.482 22.4631C473.497 21.6007 473.721 20.9192 474.153 20.4189C474.588 19.9186 475.164 19.6747 475.88 19.6872C476.55 19.6989 477.077 19.9295 477.46 20.3789C477.843 20.8251 478.028 21.4095 478.015 22.1321L478.006 22.6447L474.32 22.5803C474.326 23.2088 474.475 23.6883 474.769 24.019C475.066 24.3498 475.488 24.5199 476.035 24.5295C476.611 24.5395 477.182 24.4291 477.75 24.198L477.737 24.9206C477.448 25.0393 477.175 25.1224 476.917 25.17C476.662 25.2209 476.354 25.2432 475.993 25.2369ZM475.858 20.3656C475.429 20.3581 475.083 20.4921 474.821 20.7675C474.562 21.043 474.406 21.4277 474.351 21.9216L477.149 21.9704C477.158 21.4594 477.051 21.0669 476.828 20.7928C476.604 20.5154 476.281 20.373 475.858 20.3656ZM481.885 19.792C482.122 19.7961 482.335 19.8194 482.523 19.8618L482.398 20.6116C482.177 20.5589 481.983 20.5311 481.813 20.5282C481.38 20.5206 481.006 20.6899 480.691 21.036C480.379 21.3822 480.218 21.8173 480.209 22.3413L480.159 25.2119L479.349 25.1978L479.442 19.847L480.111 19.8587L480.186 20.8514L480.225 20.8521C480.43 20.5073 480.674 20.2429 480.957 20.0591C481.24 19.8752 481.55 19.7862 481.885 19.792ZM486.274 18.1789L488.29 18.2141C489.237 18.2306 489.92 18.3842 490.338 18.6747C490.756 18.9653 490.96 19.4165 490.949 20.0284C490.942 20.4515 490.817 20.7993 490.575 21.0718C490.336 21.3411 489.989 21.5125 489.535 21.586L489.534 21.6348C490.615 21.8392 491.147 22.4182 491.13 23.3719C491.119 24.0098 490.894 24.504 490.455 24.8545C490.019 25.205 489.414 25.3735 488.639 25.3599L486.149 25.3165L486.274 18.1789ZM487.051 21.2496L488.418 21.2734C489.003 21.2837 489.426 21.1999 489.687 21.0221C489.947 20.8411 490.081 20.5325 490.089 20.0964C490.096 19.696 489.958 19.4055 489.674 19.2247C489.391 19.0407 488.937 18.9433 488.312 18.9324L487.091 18.9111L487.051 21.2496ZM487.038 21.9526L486.992 24.6231L488.481 24.6491C489.057 24.6591 489.492 24.556 489.785 24.3398C490.082 24.1203 490.235 23.773 490.243 23.2978C490.251 22.8551 490.107 22.5271 489.811 22.3135C489.518 22.1001 489.068 21.988 488.459 21.9774L487.038 21.9526ZM497.176 22.8279C497.161 23.7001 496.929 24.3782 496.481 24.862C496.033 25.3425 495.422 25.576 494.647 25.5625C494.169 25.5541 493.746 25.4344 493.379 25.2034C493.012 24.9723 492.731 24.6451 492.537 24.2217C492.342 23.7984 492.25 23.3051 492.26 22.7421C492.275 21.8698 492.505 21.195 492.949 20.7177C493.394 20.2371 494.004 20.0035 494.778 20.0171C495.527 20.0301 496.117 20.2895 496.547 20.7951C496.981 21.3008 497.191 21.9784 497.176 22.8279ZM493.099 22.7567C493.087 23.4402 493.215 23.9634 493.482 24.3262C493.749 24.6889 494.148 24.875 494.679 24.8842C495.209 24.8935 495.614 24.7231 495.894 24.3731C496.177 24.0199 496.324 23.5 496.336 22.8132C496.348 22.133 496.219 21.6147 495.948 21.2584C495.681 20.8988 495.279 20.7144 494.742 20.705C494.211 20.6957 493.808 20.8629 493.532 21.2064C493.256 21.55 493.111 22.0667 493.099 22.7567ZM499.41 20.1956L499.349 23.6667C499.342 24.1029 499.435 24.4301 499.63 24.6483C499.825 24.8666 500.134 24.9794 500.557 24.9868C501.117 24.9966 501.528 24.8508 501.79 24.5493C502.056 24.2479 502.195 23.7506 502.207 23.0573L502.256 20.2453L503.066 20.2594L502.973 25.6101L502.304 25.5985L502.2 24.8788L502.156 24.878C501.985 25.1387 501.75 25.3365 501.452 25.4713C501.156 25.6061 500.82 25.6702 500.442 25.6636C499.791 25.6523 499.306 25.4892 498.986 25.1743C498.669 24.8595 498.517 24.3619 498.528 23.6817L498.59 20.1813L499.41 20.1956ZM508.358 25.7041L508.418 22.2428C508.426 21.8066 508.332 21.4794 508.138 21.2611C507.943 21.0429 507.634 20.93 507.211 20.9226C506.651 20.9129 506.238 21.0571 505.973 21.3552C505.707 21.6533 505.568 22.1507 505.556 22.8472L505.507 25.6544L504.696 25.6402L504.79 20.2895L505.449 20.301L505.568 21.0356L505.607 21.0363C505.778 20.7755 506.014 20.5762 506.316 20.4382C506.618 20.297 506.953 20.2296 507.32 20.236C507.965 20.2472 508.447 20.4119 508.767 20.7301C509.087 21.0449 509.241 21.5441 509.229 22.2276L509.168 25.7183L508.358 25.7041ZM514.493 25.0933L514.449 25.0926C514.065 25.6296 513.5 25.8916 512.755 25.8786C512.055 25.8663 511.514 25.6176 511.132 25.1324C510.753 24.6471 510.571 23.9635 510.587 23.0815C510.602 22.1995 510.809 21.5178 511.208 21.0364C511.607 20.555 512.155 20.3204 512.852 20.3325C513.578 20.3452 514.13 20.6185 514.508 21.1526L514.571 21.1537L514.544 20.7674L514.531 20.3911L514.569 18.2137L515.379 18.2279L515.247 25.8244L514.587 25.8129L514.493 25.0933ZM512.869 25.2017C513.423 25.2114 513.826 25.0687 514.078 24.7736C514.334 24.4752 514.468 23.9909 514.48 23.3204L514.483 23.1495C514.496 22.3912 514.378 21.8487 514.13 21.522C513.885 21.1922 513.486 21.0224 512.933 21.0128C512.457 21.0045 512.09 21.1836 511.829 21.5502C511.572 21.9136 511.438 22.4322 511.426 23.1059C511.414 23.7894 511.531 24.3075 511.775 24.6601C512.02 25.0127 512.384 25.1933 512.869 25.2017Z" fill="black" fill-opacity="0.85"/>
<path d="M448.668 71.6692L445.913 57.619L452.429 56.7326L489.423 57.3783L526.409 58.524L526.182 71.522L487.179 71.3413L448.668 71.6692Z" fill="#62B5E5"/>
<path d="M445.958 60.4003C445.93 61.9997 446.732 64.4119 447.229 65.935C447.705 67.3955 447.267 69.4441 448.269 70.7326C450.259 73.291 454.695 72.6921 457.503 72.7411C463.614 72.8478 470.032 72.2917 476.117 71.7465C481.809 71.2366 487.635 71.6837 493.347 71.7834C497.594 71.8575 501.78 71.4028 506.054 71.4774C510.206 71.5499 514.358 71.6223 518.51 71.6948C520.031 71.7213 525.454 72.6727 526.592 71.7186C526.936 71.4309 526.245 67.2192 526.257 66.5521C526.294 64.4164 526.926 61.5346 526.351 59.4579C525.809 57.5028 513.289 57.8811 511.732 57.8539C504.896 57.7346 498.061 57.6153 491.226 57.4959C481.041 57.3182 470.943 57.6697 460.777 57.4923C456.606 57.4195 448.7 55.9957 444.91 57.7431" stroke="#262626" stroke-width="2" stroke-linecap="round" stroke-linejoin="round"/>
<path d="M453.085 67.7455L453.21 60.6079L454.04 60.6224L453.929 67.0081L457.078 67.0631L457.064 67.8149L453.085 67.7455ZM462.823 65.2344C462.808 66.1067 462.576 66.7847 462.128 67.2685C461.68 67.749 461.069 67.9825 460.295 67.969C459.816 67.9606 459.393 67.8409 459.026 67.6099C458.659 67.3788 458.378 67.0516 458.184 66.6282C457.989 66.2049 457.897 65.7116 457.907 65.1486C457.922 64.2763 458.152 63.6015 458.597 63.1242C459.041 62.6436 459.651 62.41 460.426 62.4236C461.174 62.4366 461.764 62.696 462.195 63.2016C462.628 63.7073 462.838 64.3849 462.823 65.2344ZM458.747 65.1632C458.735 65.8467 458.862 66.3699 459.129 66.7327C459.397 67.0954 459.795 67.2815 460.326 67.2907C460.857 67.3 461.262 67.1296 461.541 66.7796C461.824 66.4264 461.971 65.9065 461.983 65.2197C461.995 64.5395 461.866 64.0212 461.596 63.6649C461.328 63.3053 460.926 63.1209 460.389 63.1115C459.859 63.1023 459.455 63.2694 459.179 63.6129C458.903 63.9565 458.759 64.4732 458.747 65.1632ZM468.571 68.0158L467.645 64.8595C467.586 64.6664 467.479 64.2282 467.321 63.5451L467.282 63.5444C467.142 64.1117 467.02 64.5491 466.917 64.8566L465.852 67.9683L464.915 67.952L463.548 62.5757L464.398 62.5906C464.719 63.9408 464.964 64.969 465.13 65.6751C465.3 66.3813 465.396 66.8567 465.418 67.1013L465.457 67.1019C465.496 66.917 465.557 66.6788 465.64 66.3873C465.727 66.0925 465.801 65.8594 465.863 65.6879L466.898 62.6342L467.776 62.6495L468.68 65.7371C468.852 66.3001 468.968 66.7725 469.026 67.1545L469.065 67.1551C469.08 67.0382 469.117 66.8582 469.177 66.615C469.24 66.3719 469.603 65.0646 470.266 62.693L471.106 62.7077L469.533 68.0326L468.571 68.0158ZM474.243 68.2125C473.452 68.1987 472.831 67.9469 472.381 67.4572C471.933 66.9675 471.717 66.2947 471.732 65.4387C471.747 64.5762 471.971 63.8948 472.403 63.3945C472.838 62.8942 473.414 62.6503 474.13 62.6628C474.8 62.6745 475.327 62.9051 475.71 63.3545C476.092 63.8007 476.278 64.3851 476.265 65.1076L476.256 65.6203L472.57 65.5559C472.575 66.1844 472.725 66.6639 473.019 66.9946C473.316 67.3254 473.738 67.4955 474.284 67.5051C474.86 67.5151 475.432 67.4047 475.999 67.1736L475.987 67.8962C475.698 68.0149 475.425 68.098 475.167 68.1456C474.912 68.1965 474.604 68.2188 474.243 68.2125ZM474.108 63.3412C473.678 63.3337 473.333 63.4677 473.071 63.7431C472.812 64.0186 472.655 64.4033 472.601 64.8972L475.398 64.946C475.407 64.435 475.3 64.0425 475.077 63.7683C474.854 63.491 474.531 63.3486 474.108 63.3412ZM480.135 62.7676C480.372 62.7717 480.585 62.795 480.773 62.8373L480.648 63.5872C480.427 63.5345 480.232 63.5067 480.063 63.5038C479.63 63.4962 479.256 63.6655 478.941 64.0116C478.629 64.3578 478.468 64.7928 478.459 65.3169L478.409 68.1875L477.598 68.1734L477.692 62.8226L478.361 62.8343L478.436 63.827L478.475 63.8277C478.68 63.4829 478.924 63.2185 479.207 63.0346C479.49 62.8508 479.799 62.7617 480.135 62.7676ZM484.524 61.1545L486.54 61.1897C487.487 61.2062 488.17 61.3598 488.588 61.6503C489.006 61.9408 489.21 62.3921 489.199 63.0039C489.192 63.4271 489.067 63.7749 488.824 64.0474C488.585 64.3167 488.239 64.4881 487.785 64.5615L487.784 64.6104C488.865 64.8148 489.397 65.3938 489.38 66.3475C489.369 66.9854 489.144 67.4796 488.705 67.83C488.269 68.1806 487.664 68.3491 486.889 68.3355L484.399 68.2921L484.524 61.1545ZM485.3 64.2252L486.667 64.249C487.253 64.2592 487.676 64.1755 487.936 63.9977C488.197 63.8167 488.331 63.5081 488.338 63.0719C488.345 62.6716 488.207 62.3811 487.924 62.2003C487.641 62.0163 487.187 61.9189 486.562 61.9079L485.341 61.8866L485.3 64.2252ZM485.288 64.9282L485.241 67.5987L486.73 67.6247C487.307 67.6347 487.741 67.5316 488.035 67.3153C488.332 67.0959 488.484 66.7486 488.493 66.2734C488.5 65.8307 488.356 65.5026 488.06 65.2891C487.768 65.0756 487.317 64.9636 486.709 64.953L485.288 64.9282ZM495.426 65.8035C495.41 66.6757 495.179 67.3538 494.731 67.8376C494.283 68.3181 493.672 68.5516 492.897 68.5381C492.419 68.5297 491.996 68.41 491.629 68.179C491.262 67.9479 490.981 67.6207 490.786 67.1973C490.592 66.7739 490.5 66.2807 490.509 65.7177C490.525 64.8454 490.755 64.1706 491.199 63.6933C491.644 63.2127 492.253 62.9791 493.028 62.9926C493.777 63.0057 494.366 63.2651 494.797 63.7707C495.231 64.2764 495.44 64.954 495.426 65.8035ZM491.349 65.7323C491.337 66.4158 491.465 66.9389 491.732 67.3017C491.999 67.6645 492.398 67.8506 492.928 67.8598C493.459 67.8691 493.864 67.6987 494.144 67.3487C494.426 66.9955 494.574 66.4756 494.586 65.7888C494.598 65.1086 494.468 64.5903 494.198 64.234C493.931 63.8744 493.529 63.69 492.992 63.6806C492.461 63.6713 492.058 63.8385 491.782 64.182C491.505 64.5255 491.361 65.0423 491.349 65.7323ZM497.659 63.1712L497.599 66.6423C497.591 67.0784 497.685 67.4056 497.88 67.6239C498.074 67.8422 498.383 67.955 498.806 67.9624C499.366 67.9722 499.777 67.8263 500.04 67.5249C500.306 67.2235 500.444 66.7262 500.457 66.0329L500.506 63.2208L501.316 63.235L501.223 68.5857L500.554 68.5741L500.449 67.8543L500.405 67.8536C500.235 68.1143 500 68.3121 499.701 68.4469C499.406 68.5817 499.07 68.6458 498.692 68.6392C498.041 68.6279 497.556 68.4647 497.236 68.1499C496.919 67.835 496.766 67.3375 496.778 66.6573L496.839 63.1568L497.659 63.1712ZM506.608 68.6797L506.668 65.2183C506.676 64.7822 506.582 64.455 506.387 64.2367C506.192 64.0185 505.884 63.9056 505.46 63.8982C504.901 63.8885 504.488 64.0326 504.222 64.3308C503.957 64.6289 503.818 65.1263 503.805 65.8228L503.756 68.63L502.946 68.6158L503.039 63.2651L503.699 63.2766L503.818 64.0112L503.857 64.0119C504.027 63.7511 504.263 63.5518 504.565 63.4138C504.867 63.2726 505.202 63.2051 505.57 63.2116C506.215 63.2228 506.697 63.3875 507.017 63.7056C507.337 64.0205 507.491 64.5197 507.479 65.2032L507.418 68.6939L506.608 68.6797ZM512.742 68.0689L512.698 68.0682C512.315 68.6052 511.75 68.8672 511.005 68.8541C510.305 68.8419 509.764 68.5932 509.382 68.1079C509.003 67.6227 508.821 66.9391 508.836 66.0571C508.852 65.1751 509.059 64.4934 509.458 64.012C509.857 63.5306 510.405 63.296 511.101 63.3081C511.827 63.3208 512.379 63.5941 512.757 64.1282L512.821 64.1293L512.793 63.743L512.78 63.3667L512.818 61.1893L513.629 61.2035L513.496 68.8L512.837 68.7885L512.742 68.0689ZM511.119 68.1773C511.672 68.187 512.075 68.0443 512.328 67.7491C512.584 67.4508 512.718 66.9664 512.729 66.296L512.732 66.1251C512.745 65.3667 512.628 64.8242 512.38 64.4976C512.135 64.1678 511.736 63.998 511.182 63.9883C510.707 63.9801 510.339 64.1592 510.079 64.5258C509.822 64.8892 509.688 65.4078 509.676 66.0815C509.664 66.765 509.78 67.2831 510.025 67.6357C510.269 67.9883 510.634 68.1689 511.119 68.1773Z" fill="black" fill-opacity="0.85"/>
<path d="M13.7951 60.5781L14.0743 44.5806L19.0561 45.6677L56.0505 46.3134L99.5613 46.0727L99.2821 62.0703L13.7951 60.5781Z" fill="#9DD4CF"/>
<path d="M13.8808 60.8317C13.9036 59.5261 13.9807 58.2071 13.9495 56.8991C13.9481 56.9789 13.9466 57.0587 13.9452 57.1385L13.8808 60.8317Z" fill="#9DD4CF"/>
<path d="M13.0669 44.9938C13.2067 48.7544 13.7387 52.5575 13.9289 56.3378C14.004 57.8289 13.9068 59.3391 13.8808 60.8317C13.8593 62.0627 13.9237 58.3696 13.9452 57.1385C13.9964 54.2055 14.0883 51.27 14.0989 48.3366C14.1013 47.6622 13.2915 44.6846 13.9281 44.2392C14.822 43.6136 21.3047 45.1982 22.4504 45.2807C28.8508 45.7414 35.2232 45.9346 41.6381 46.0466C56.0857 46.2988 70.5673 46.5516 84.9937 46.8034C88.57 46.8658 92.0113 46.6702 95.5693 46.4646C98.358 46.3035 100.153 45.5281 99.4011 49.0251C98.7221 52.1841 98.7847 56.539 99.6088 59.6805C100.466 62.9489 98.3658 61.9985 95.3899 61.9466C81.1337 61.6977 66.936 61.4499 52.7003 61.2014C39.7847 60.976 26.883 61.3049 13.8765 61.0779" stroke="#262626" stroke-width="2" stroke-linecap="round" stroke-linejoin="round"/>
<path d="M32.471 49.2633L32.3904 53.8817C32.3762 54.6954 32.1193 55.3307 31.6197 55.7875C31.1201 56.2444 30.4407 56.4653 29.5814 56.4503C28.7222 56.4353 28.0607 56.1893 27.597 55.7124C27.1365 55.2356 26.9134 54.587 26.9277 53.7669L27.008 49.1679L27.8379 49.1824L27.7566 53.8399C27.7462 54.4355 27.901 54.8957 28.2209 55.2203C28.5408 55.545 29.0164 55.7128 29.6478 55.7238C30.25 55.7343 30.7166 55.5829 31.0476 55.2697C31.3787 54.9531 31.5495 54.4954 31.5599 53.8965L31.641 49.2488L32.471 49.2633ZM36.6067 56.5729C36.2585 56.5668 35.9406 56.4978 35.6532 56.3658C35.369 56.2306 35.1317 56.0279 34.941 55.7576L34.8825 55.7566C34.9161 56.0697 34.9304 56.3662 34.9255 56.6461L34.8871 58.8479L34.0767 58.8338L34.212 51.0811L34.8711 51.0926L34.9706 51.8269L35.0096 51.8275C35.223 51.5382 35.4692 51.3309 35.7481 51.2056C36.0271 51.0802 36.3455 51.0206 36.7036 51.0269C37.4131 51.0393 37.9556 51.2913 38.3312 51.783C38.7101 52.2747 38.8919 52.9583 38.8766 53.8338C38.8612 54.7126 38.6524 55.3926 38.2501 55.874C37.851 56.3521 37.3033 56.5851 36.6067 56.5729ZM36.5744 51.7132C36.0276 51.7037 35.6295 51.8481 35.3801 52.1465C35.1307 52.445 34.997 52.9245 34.979 53.5851L34.9758 53.7657C34.9627 54.5176 35.0786 55.0584 35.3235 55.3882C35.5685 55.7148 35.9676 55.883 36.521 55.8926C36.9831 55.9007 37.3477 55.7198 37.6146 55.3501C37.8847 54.9804 38.0256 54.4668 38.037 53.8094C38.0487 53.1422 37.9258 52.6289 37.6683 52.2695C37.4142 51.9069 37.0496 51.7215 36.5744 51.7132ZM42.7386 56.68C42.3904 56.6739 42.0725 56.6048 41.7851 56.4729C41.5009 56.3377 41.2635 56.1349 41.0729 55.8646L41.0143 55.8636C41.0479 56.1767 41.0623 56.4733 41.0574 56.7532L41.019 58.955L40.2085 58.9408L40.3439 51.1881L41.003 51.1996L41.1025 51.9339L41.1415 51.9346C41.3549 51.6453 41.6011 51.438 41.88 51.3126C42.1589 51.1872 42.4774 51.1277 42.8354 51.1339C43.545 51.1463 44.0875 51.3983 44.4631 51.89C44.842 52.3817 45.0237 53.0653 45.0085 53.9408C44.9931 54.8196 44.7843 55.4997 44.3819 55.981C43.9829 56.4591 43.4351 56.6921 42.7386 56.68ZM42.7062 51.8203C42.1595 51.8107 41.7614 51.9552 41.512 52.2536C41.2626 52.552 41.1289 53.0315 41.1108 53.6921L41.1077 53.8727C41.0946 54.6246 41.2105 55.1654 41.4554 55.4953C41.7004 55.8219 42.0995 55.99 42.6528 55.9996C43.115 56.0077 43.4795 55.8269 43.7464 55.4571C44.0166 55.0874 44.1574 54.5739 44.1689 53.9164C44.1806 53.2492 44.0577 52.7359 43.8002 52.3765C43.5461 52.014 43.1814 51.8285 42.7062 51.8203ZM48.641 56.783C47.8502 56.7692 47.2295 56.5174 46.7789 56.0277C46.3317 55.5381 46.1155 54.8652 46.1305 54.0093C46.1455 53.1468 46.369 52.4653 46.801 51.965C47.2363 51.4647 47.8119 51.2208 48.5279 51.2333C49.1984 51.245 49.725 51.4756 50.1079 51.925C50.4908 52.3712 50.6759 52.9556 50.6633 53.6782L50.6544 54.1908L46.9684 54.1264C46.9737 54.7549 47.1232 55.2345 47.417 55.5651C47.714 55.8959 48.1359 56.0661 48.6827 56.0756C49.2588 56.0857 49.8305 55.9752 50.3977 55.7441L50.3851 56.4667C50.0965 56.5854 49.8232 56.6685 49.5652 56.7161C49.3104 56.767 49.0023 56.7893 48.641 56.783ZM48.5063 51.9117C48.0767 51.9042 47.7309 52.0382 47.4689 52.3136C47.2101 52.5891 47.0536 52.9738 46.9994 53.4677L49.7969 53.5165C49.8058 53.0055 49.6987 52.613 49.4756 52.3389C49.2525 52.0615 48.9294 51.9191 48.5063 51.9117ZM54.5329 51.3381C54.7705 51.3423 54.9833 51.3655 55.1714 51.4079L55.046 52.1577C54.8255 52.1051 54.6307 52.0772 54.4614 52.0743C54.0285 52.0667 53.6544 52.236 53.3391 52.5821C53.027 52.9283 52.8664 53.3634 52.8573 53.8874L52.8072 56.758L51.9967 56.7439L52.0901 51.3931L52.759 51.4048L52.8344 52.3975L52.8735 52.3982C53.0781 52.0534 53.322 51.789 53.6052 51.6052C53.8884 51.4213 54.1976 51.3323 54.5329 51.3381ZM58.922 49.725L60.9383 49.7602C61.8855 49.7767 62.5681 49.9303 62.9863 50.2208C63.4044 50.5114 63.6082 50.9626 63.5975 51.5745C63.5901 51.9976 63.4652 52.3454 63.2228 52.6179C62.9837 52.8872 62.6372 53.0586 62.1834 53.1321L62.1825 53.1809C63.2631 53.3853 63.7951 53.9643 63.7784 54.918C63.7673 55.5559 63.5422 56.0501 63.103 56.4006C62.6672 56.7511 62.0619 56.9196 61.2873 56.9061L58.7975 56.8626L58.922 49.725ZM59.6986 52.7957L61.0656 52.8195C61.6515 52.8298 62.0746 52.746 62.3349 52.5682C62.5952 52.3872 62.7292 52.0786 62.7368 51.6425C62.7438 51.2421 62.6056 50.9516 62.3223 50.7708C62.039 50.5868 61.5849 50.4894 60.96 50.4785L59.7395 50.4572L59.6986 52.7957ZM59.6864 53.4987L59.6398 56.1692L61.1288 56.1952C61.7049 56.2052 62.1397 56.1021 62.4332 55.8859C62.7301 55.6664 62.8826 55.3191 62.8909 54.8439C62.8987 54.4012 62.7546 54.0732 62.4588 53.8596C62.1663 53.6462 61.7157 53.5341 61.1071 53.5235L59.6864 53.4987ZM69.824 54.374C69.8088 55.2463 69.5772 55.9243 69.1292 56.4081C68.6813 56.8886 68.0701 57.1221 67.2954 57.1086C66.817 57.1002 66.3942 56.9805 66.0271 56.7495C65.66 56.5184 65.3792 56.1912 65.1847 55.7678C64.9903 55.3445 64.8979 54.8512 64.9078 54.2882C64.923 53.4159 65.1529 52.7411 65.5975 52.2638C66.0422 51.7832 66.6518 51.5496 67.4264 51.5632C68.175 51.5762 68.7646 51.8356 69.1953 52.3412C69.6293 52.8469 69.8388 53.5245 69.824 54.374ZM65.7475 54.3028C65.7356 54.9863 65.8632 55.5095 66.1303 55.8723C66.3975 56.235 66.7963 56.4211 67.3268 56.4303C67.8573 56.4396 68.2624 56.2692 68.542 55.9192C68.8249 55.566 68.9723 55.0461 68.9843 54.3593C68.9962 53.6791 68.8668 53.1608 68.5963 52.8045C68.3291 52.4449 67.927 52.2605 67.39 52.2511C66.8595 52.2419 66.4561 52.409 66.1799 52.7525C65.9037 53.0961 65.7595 53.6128 65.7475 54.3028ZM72.0578 51.7417L71.9972 55.2128C71.9896 55.649 72.0832 55.9762 72.278 56.1944C72.4728 56.4127 72.7817 56.5255 73.2048 56.5329C73.7646 56.5427 74.1758 56.3969 74.4382 56.0954C74.7039 55.794 74.8429 55.2967 74.855 54.6034L74.904 51.7914L75.7145 51.8055L75.6211 57.1563L74.9522 57.1446L74.8476 56.4249L74.8036 56.4241C74.633 56.6848 74.3984 56.8826 74.0998 57.0174C73.8045 57.1522 73.468 57.2163 73.0904 57.2098C72.4395 57.1984 71.954 57.0353 71.6339 56.7204C71.3171 56.4056 71.1646 55.908 71.1765 55.2278L71.2376 51.7274L72.0578 51.7417ZM81.006 57.2502L81.0664 53.7889C81.074 53.3527 80.9804 53.0255 80.7856 52.8072C80.5909 52.589 80.2819 52.4761 79.8588 52.4688C79.299 52.459 78.8862 52.6032 78.6206 52.9013C78.3549 53.1995 78.216 53.6968 78.2039 54.3933L78.1549 57.2005L77.3444 57.1863L77.4378 51.8356L78.0969 51.8471L78.2159 52.5817L78.255 52.5824C78.4256 52.3216 78.6619 52.1223 78.9638 51.9843C79.2658 51.8431 79.6007 51.7757 79.9684 51.7821C80.6129 51.7933 81.0951 51.958 81.4151 52.2762C81.7352 52.591 81.8893 53.0902 81.8773 53.7737L81.8164 57.2644L81.006 57.2502ZM87.1406 56.6394L87.0967 56.6387C86.7129 57.1757 86.1484 57.4377 85.403 57.4247C84.7033 57.4125 84.1623 57.1637 83.7801 56.6785C83.4011 56.1933 83.2193 55.5096 83.2347 54.6276C83.2501 53.7456 83.4574 53.0639 83.8564 52.5825C84.2555 52.1011 84.8033 51.8665 85.4998 51.8786C86.2256 51.8913 86.7776 52.1647 87.1557 52.6987L87.2192 52.6998L87.1917 52.3135L87.1788 51.9372L87.2168 49.7598L88.0272 49.774L87.8946 57.3705L87.2355 57.359L87.1406 56.6394ZM85.5174 56.7478C86.0707 56.7575 86.4736 56.6148 86.7262 56.3197C86.9821 56.0213 87.1159 55.537 87.1276 54.8665L87.1306 54.6956C87.1438 53.9373 87.0263 53.3948 86.7781 53.0681C86.5332 52.7383 86.134 52.5685 85.5807 52.5589C85.1056 52.5506 84.7378 52.7297 84.4774 53.0963C84.2204 53.4597 84.086 53.9783 84.0743 54.652C84.0623 55.3355 84.1786 55.8536 84.4232 56.2062C84.6677 56.5588 85.0324 56.7394 85.5174 56.7478Z" fill="black" fill-opacity="0.85"/>
<path d="M121.427 49.1048C120.653 49.0913 120.056 48.8432 119.638 48.3606C119.223 47.8747 119.024 47.1957 119.039 46.3234C119.055 45.4284 119.281 44.7405 119.72 44.2598C120.161 43.7791 120.78 43.5458 121.578 43.5597C121.835 43.5642 122.091 43.5963 122.348 43.6562C122.604 43.716 122.804 43.7846 122.95 43.862L122.689 44.546C122.511 44.4713 122.317 44.4093 122.106 44.36C121.895 44.3075 121.708 44.2799 121.546 44.277C120.459 44.258 119.903 44.9418 119.879 46.3283C119.867 46.9858 119.99 47.4925 120.248 47.8487C120.509 48.2048 120.899 48.3875 121.42 48.3965C121.866 48.4043 122.325 48.3163 122.797 48.1324L122.784 48.8501C122.423 49.0294 121.971 49.1143 121.427 49.1048ZM127.346 49.1104L127.198 48.346L127.159 48.3453C126.886 48.6759 126.616 48.8991 126.347 49.0148C126.081 49.1274 125.749 49.1802 125.352 49.1733C124.822 49.164 124.408 49.0201 124.11 48.7414C123.815 48.4628 123.672 48.0712 123.681 47.5667C123.7 46.4862 124.574 45.9349 126.303 45.913L127.212 45.8996L127.217 45.5676C127.225 45.1477 127.139 44.837 126.96 44.6352C126.785 44.4303 126.498 44.3244 126.101 44.3175C125.655 44.3097 125.149 44.4376 124.581 44.7011L124.343 44.0768C124.609 43.9382 124.899 43.8309 125.213 43.755C125.53 43.6791 125.846 43.644 126.162 43.6495C126.8 43.6606 127.269 43.8104 127.57 44.0989C127.874 44.3875 128.021 44.8442 128.01 45.4691L127.946 49.1209L127.346 49.1104ZM125.525 48.5073C126.03 48.5161 126.428 48.3847 126.719 48.113C127.013 47.8414 127.165 47.4566 127.174 46.9587L127.182 46.4753L126.371 46.4954C125.726 46.5069 125.259 46.5997 124.969 46.7737C124.683 46.9445 124.537 47.217 124.53 47.5913C124.525 47.8843 124.609 48.1087 124.782 48.2648C124.959 48.4209 125.206 48.5017 125.525 48.5073ZM130.431 49.1643L129.621 49.1501L129.754 41.5536L130.564 41.5678L130.431 49.1643ZM132.96 49.2084L132.15 49.1943L132.283 41.5978L133.093 41.6119L132.96 49.2084ZM138.156 47.8389C138.147 48.3369 137.955 48.7177 137.579 48.9814C137.204 49.2451 136.68 49.371 136.01 49.3593C135.3 49.3469 134.749 49.225 134.356 48.9935L134.369 48.2417C134.624 48.3763 134.897 48.4837 135.189 48.5636C135.484 48.6437 135.768 48.6861 136.041 48.6908C136.464 48.6982 136.791 48.6372 137.021 48.5077C137.251 48.375 137.369 48.1703 137.374 47.8936C137.377 47.6853 137.289 47.5064 137.11 47.3567C136.933 47.2039 136.585 47.022 136.064 46.8111C135.569 46.6168 135.218 46.4495 135.008 46.3092C134.803 46.1656 134.649 46.005 134.548 45.8274C134.45 45.6499 134.403 45.4391 134.408 45.195C134.415 44.7589 134.599 44.4186 134.958 44.1742C135.317 43.9265 135.806 43.808 136.424 43.8188C137 43.8289 137.561 43.9559 138.107 44.1998L137.808 44.8539C137.274 44.6232 136.79 44.504 136.354 44.4964C135.97 44.4897 135.679 44.5449 135.482 44.6619C135.284 44.7789 135.184 44.9432 135.18 45.1547C135.177 45.298 135.211 45.4206 135.281 45.5228C135.354 45.625 135.471 45.7231 135.632 45.817C135.793 45.911 136.104 46.0483 136.563 46.2289C137.193 46.471 137.617 46.7112 137.835 46.9494C138.055 47.1877 138.162 47.4842 138.156 47.8389Z" fill="black" fill-opacity="0.85"/>
<path d="M267.946 20.6053C267.172 20.5918 266.575 20.3437 266.157 19.861C265.743 19.3752 265.543 18.6962 265.558 17.8239C265.574 16.9289 265.801 16.241 266.239 15.7603C266.68 15.2796 267.3 15.0463 268.097 15.0602C268.354 15.0647 268.611 15.0968 268.867 15.1566C269.123 15.2165 269.324 15.2851 269.469 15.3625L269.208 16.0465C269.03 15.9718 268.836 15.9098 268.625 15.8605C268.414 15.808 268.228 15.7803 268.065 15.7775C266.978 15.7585 266.422 16.4423 266.398 17.8288C266.386 18.4863 266.509 18.993 266.767 19.3491C267.028 19.7053 267.418 19.8879 267.939 19.897C268.385 19.9048 268.844 19.8168 269.316 19.6329L269.304 20.3506C268.942 20.5299 268.49 20.6148 267.946 20.6053ZM273.865 20.6109L273.717 19.8465L273.678 19.8458C273.406 20.1764 273.135 20.3996 272.866 20.5153C272.6 20.6279 272.269 20.6807 271.872 20.6738C271.341 20.6645 270.927 20.5206 270.629 20.2419C270.334 19.9633 270.191 19.5717 270.2 19.0672C270.219 17.9867 271.093 17.4354 272.822 17.4135L273.731 17.4001L273.737 17.0681C273.744 16.6482 273.658 16.3374 273.479 16.1357C273.304 15.9308 273.018 15.8249 272.621 15.818C272.175 15.8102 271.668 15.9381 271.1 16.2016L270.862 15.5773C271.128 15.4387 271.418 15.3314 271.732 15.2555C272.049 15.1796 272.365 15.1445 272.681 15.15C273.319 15.1611 273.788 15.3109 274.089 15.5994C274.394 15.888 274.54 16.3447 274.529 16.9696L274.466 20.6214L273.865 20.6109ZM272.044 20.0078C272.549 20.0166 272.947 19.8851 273.238 19.6135C273.532 19.3419 273.684 18.9571 273.693 18.4591L273.701 17.9758L272.89 17.9958C272.245 18.0074 271.778 18.1002 271.489 18.2742C271.202 18.445 271.056 18.7175 271.049 19.0918C271.044 19.3847 271.128 19.6092 271.301 19.7653C271.478 19.9214 271.725 20.0022 272.044 20.0078ZM276.951 20.6648L276.14 20.6506L276.273 13.0541L277.083 13.0683L276.951 20.6648ZM279.48 20.7089L278.669 20.6948L278.802 13.0983L279.612 13.1124L279.48 20.7089ZM284.675 19.3394C284.666 19.8374 284.474 20.2182 284.098 20.4819C283.723 20.7455 283.2 20.8715 282.529 20.8598C281.82 20.8474 281.268 20.7255 280.875 20.494L280.888 19.7421C281.143 19.8768 281.416 19.9841 281.708 20.0641C282.003 20.1441 282.287 20.1865 282.56 20.1913C282.983 20.1987 283.31 20.1377 283.54 20.0082C283.77 19.8755 283.888 19.6708 283.893 19.3941C283.896 19.1858 283.808 19.0069 283.629 18.8572C283.452 18.7044 283.104 18.5225 282.583 18.3115C282.089 18.1173 281.737 17.95 281.528 17.8096C281.322 17.6661 281.168 17.5055 281.067 17.3279C280.969 17.1504 280.923 16.9396 280.927 16.6955C280.934 16.2593 281.118 15.9191 281.477 15.6746C281.836 15.427 282.325 15.3085 282.943 15.3193C283.519 15.3294 284.08 15.4564 284.626 15.7003L284.327 16.3544C283.794 16.1237 283.309 16.0045 282.873 15.9969C282.489 15.9902 282.198 16.0454 282.001 16.1624C281.803 16.2794 281.703 16.4437 281.699 16.6552C281.697 16.7984 281.73 16.9211 281.8 17.0233C281.873 17.1255 281.99 17.2236 282.151 17.3175C282.313 17.4115 282.623 17.5488 283.082 17.7293C283.713 17.9715 284.136 18.2117 284.354 18.4499C284.574 18.6881 284.681 18.9847 284.675 19.3394Z" fill="black" fill-opacity="0.85"/>
<path d="M406.169 17.9193L405.242 14.763C405.184 14.5698 405.076 14.1317 404.918 13.4485L404.879 13.4478C404.739 14.0151 404.618 14.4525 404.515 14.76L403.449 17.8718L402.512 17.8554L401.146 12.4792L401.995 12.494C402.317 13.8442 402.561 14.8724 402.728 15.5786C402.898 16.2848 402.993 16.7601 403.015 17.0047L403.054 17.0054C403.093 16.8205 403.154 16.5823 403.238 16.2907C403.324 15.9959 403.398 15.7628 403.46 15.5914L404.495 12.5377L405.374 12.553L406.277 15.6405C406.449 16.2035 406.565 16.676 406.623 17.0579L406.662 17.0586C406.677 16.9417 406.715 16.7616 406.774 16.5185C406.837 16.2754 407.2 14.9681 407.863 12.5965L408.703 12.6111L407.13 17.936L406.169 17.9193ZM412.117 12.573C412.355 12.5772 412.568 12.6004 412.756 12.6428L412.63 13.3927C412.41 13.34 412.215 13.3122 412.046 13.3092C411.613 13.3017 411.239 13.4709 410.924 13.817C410.612 14.1632 410.451 14.5983 410.442 15.1223L410.392 17.993L409.581 17.9788L409.675 12.6281L410.343 12.6397L410.419 13.6324L410.458 13.6331C410.663 13.2883 410.907 13.024 411.19 12.8401C411.473 12.6562 411.782 12.5672 412.117 12.573ZM414.473 18.0642L413.663 18.0501L413.756 12.6993L414.566 12.7135L414.473 18.0642ZM413.713 11.2481C413.716 11.0626 413.764 10.9284 413.857 10.8453C413.949 10.759 414.064 10.7171 414.201 10.7195C414.331 10.7217 414.443 10.7676 414.535 10.8572C414.628 10.9467 414.673 11.0826 414.67 11.2648C414.667 11.4471 414.617 11.583 414.521 11.6725C414.425 11.7587 414.312 11.8007 414.182 11.7984C414.045 11.796 413.932 11.7501 413.843 11.6606C413.753 11.5679 413.71 11.4304 413.713 11.2481ZM417.93 17.5532C418.073 17.5557 418.211 17.5483 418.345 17.5311C418.479 17.5107 418.585 17.4897 418.664 17.4683L418.653 18.0883C418.564 18.1291 418.434 18.161 418.261 18.184C418.091 18.2104 417.938 18.2224 417.801 18.22C416.766 18.2019 416.258 17.6477 416.277 16.5574L416.333 13.3743L415.566 13.3609L415.573 12.9703L416.345 12.6468L416.707 11.5104L417.176 11.5186L417.154 12.7586L418.706 12.7857L418.695 13.4155L417.143 13.3884L417.088 16.5373C417.082 16.8596 417.155 17.1083 417.304 17.2834C417.454 17.4586 417.663 17.5485 417.93 17.5532ZM421.985 18.293C421.194 18.2792 420.573 18.0274 420.123 17.5377C419.676 17.0481 419.459 16.3753 419.474 15.5193C419.489 14.6568 419.713 13.9753 420.145 13.475C420.58 12.9747 421.156 12.7308 421.872 12.7433C422.542 12.755 423.069 12.9856 423.452 13.435C423.835 13.8812 424.02 14.4656 424.007 15.1882L423.998 15.7008L420.312 15.6364C420.318 16.2649 420.467 16.7445 420.761 17.0752C421.058 17.4059 421.48 17.5761 422.027 17.5856C422.603 17.5957 423.174 17.4852 423.742 17.2542L423.729 17.9767C423.44 18.0954 423.167 18.1785 422.909 18.2261C422.654 18.277 422.346 18.2993 421.985 18.293ZM421.85 13.4217C421.421 13.4142 421.075 13.5482 420.813 13.8236C420.554 14.0991 420.397 14.4838 420.343 14.9777L423.141 15.0265C423.15 14.5155 423.042 14.123 422.819 13.8489C422.596 13.5715 422.273 13.4291 421.85 13.4217ZM428.818 16.8544C428.809 17.3524 428.617 17.7332 428.241 17.9969C427.865 18.2605 427.342 18.3865 426.672 18.3748C425.962 18.3624 425.411 18.2405 425.018 18.009L425.031 17.2571C425.286 17.3918 425.559 17.4991 425.85 17.5791C426.145 17.6591 426.429 17.7015 426.703 17.7063C427.126 17.7137 427.453 17.6526 427.683 17.5232C427.913 17.3905 428.03 17.1858 428.035 16.9091C428.039 16.7008 427.951 16.5218 427.771 16.3722C427.595 16.2194 427.246 16.0375 426.726 15.8265C426.231 15.6323 425.879 15.465 425.67 15.3246C425.464 15.181 425.311 15.0205 425.21 14.8429C425.112 14.6654 425.065 14.4546 425.069 14.2105C425.077 13.7743 425.26 13.4341 425.619 13.1896C425.979 12.942 426.467 12.8235 427.086 12.8343C427.662 12.8444 428.223 12.9714 428.769 13.2153L428.469 13.8694C427.936 13.6387 427.451 13.5195 427.015 13.5119C426.631 13.5052 426.341 13.5604 426.143 13.6774C425.946 13.7944 425.845 13.9587 425.842 14.1702C425.839 14.3134 425.873 14.4361 425.943 14.5383C426.016 14.6405 426.133 14.7385 426.294 14.8325C426.455 14.9265 426.765 15.0638 427.224 15.2443C427.855 15.4865 428.279 15.7267 428.496 15.9649C428.717 16.2031 428.824 16.4996 428.818 16.8544Z" fill="black" fill-opacity="0.85"/>
<path d="M404.694 53.4497C404.931 53.4539 405.144 53.4771 405.332 53.5195L405.207 54.2694C404.986 54.2167 404.792 54.1889 404.622 54.1859C404.19 54.1783 403.815 54.3476 403.5 54.6937C403.188 55.0399 403.027 55.475 403.018 55.999L402.968 58.8697L402.158 58.8555L402.251 53.5048L402.92 53.5164L402.995 54.5091L403.034 54.5098C403.239 54.165 403.483 53.9007 403.766 53.7168C404.049 53.5329 404.359 53.4439 404.694 53.4497ZM408.498 59.0638C407.707 59.05 407.086 58.7983 406.636 58.3086C406.188 57.8189 405.972 57.1461 405.987 56.2901C406.002 55.4276 406.226 54.7462 406.658 54.2458C407.093 53.7456 407.669 53.5017 408.385 53.5142C409.055 53.5259 409.582 53.7564 409.965 54.2059C410.348 54.6521 410.533 55.2365 410.52 55.959L410.511 56.4716L406.825 56.4073C406.83 57.0357 406.98 57.5153 407.274 57.846C407.571 58.1768 407.993 58.3469 408.539 58.3565C409.116 58.3665 409.687 58.256 410.254 58.025L410.242 58.7476C409.953 58.8662 409.68 58.9494 409.422 58.997C409.167 59.0479 408.859 59.0702 408.498 59.0638ZM408.363 54.1926C407.933 54.1851 407.588 54.3191 407.326 54.5945C407.067 54.8699 406.91 55.2546 406.856 55.7486L409.654 55.7974C409.663 55.2864 409.555 54.8938 409.332 54.6197C409.109 54.3424 408.786 54.2 408.363 54.1926ZM415.144 59.0822L414.996 58.3178L414.957 58.3171C414.684 58.6477 414.414 58.8708 414.145 58.9866C413.879 59.0992 413.547 59.152 413.15 59.1451C412.62 59.1358 412.206 58.9918 411.908 58.7132C411.613 58.4345 411.47 58.043 411.479 57.5385C411.498 56.4579 412.372 55.9067 414.101 55.8848L415.01 55.8713L415.015 55.5394C415.023 55.1195 414.937 54.8087 414.758 54.607C414.583 54.4021 414.296 54.2962 413.899 54.2892C413.453 54.2814 412.947 54.4093 412.379 54.6729L412.141 54.0485C412.407 53.9099 412.697 53.8027 413.011 53.7268C413.328 53.6509 413.644 53.6157 413.96 53.6212C414.598 53.6324 415.067 53.7822 415.368 54.0707C415.672 54.3592 415.819 54.816 415.808 55.4409L415.744 59.0927L415.144 59.0822ZM413.323 58.479C413.828 58.4878 414.226 58.3564 414.517 58.0848C414.811 57.8132 414.963 57.4284 414.972 56.9304L414.98 56.4471L414.169 56.4671C413.524 56.4787 413.057 56.5714 412.767 56.7454C412.481 56.9162 412.335 57.1888 412.328 57.5631C412.323 57.856 412.407 58.0805 412.58 58.2365C412.757 58.3926 413.004 58.4735 413.323 58.479ZM421.074 58.4678L421.03 58.467C420.646 59.004 420.081 59.266 419.336 59.253C418.636 59.2408 418.095 58.9921 417.713 58.5068C417.334 58.0216 417.152 57.338 417.168 56.456C417.183 55.5739 417.39 54.8922 417.789 54.4108C418.188 53.9295 418.736 53.6948 419.433 53.707C420.159 53.7197 420.711 53.993 421.089 54.527L421.152 54.5281L421.125 54.1419L421.112 53.7656L421.15 51.5882L421.96 51.6023L421.828 59.1988L421.168 59.1873L421.074 58.4678ZM419.45 58.5762C420.004 58.5859 420.407 58.4431 420.659 58.148C420.915 57.8497 421.049 57.3653 421.061 56.6948L421.064 56.524C421.077 55.7656 420.959 55.2231 420.711 54.8965C420.466 54.5666 420.067 54.3969 419.514 54.3872C419.039 54.3789 418.671 54.5581 418.41 54.9247C418.153 55.2881 418.019 55.8067 418.007 56.4804C417.995 57.1639 418.112 57.6819 418.356 58.0346C418.601 58.3872 418.965 58.5677 419.45 58.5762ZM427.028 57.8294C427.019 58.3274 426.827 58.7082 426.451 58.9719C426.076 59.2356 425.552 59.3615 424.882 59.3498C424.172 59.3375 423.621 59.2155 423.228 58.984L423.241 58.2322C423.496 58.3668 423.769 58.4742 424.061 58.5541C424.356 58.6342 424.64 58.6766 424.913 58.6813C425.336 58.6887 425.663 58.6277 425.893 58.4982C426.123 58.3655 426.241 58.1608 426.246 57.8842C426.249 57.6759 426.161 57.4969 425.982 57.3472C425.805 57.1944 425.457 57.0125 424.936 56.8016C424.442 56.6074 424.09 56.4401 423.88 56.2997C423.675 56.1561 423.521 55.9955 423.42 55.8179C423.322 55.6404 423.275 55.4296 423.28 55.1855C423.287 54.7494 423.471 54.4091 423.83 54.1647C424.189 53.917 424.678 53.7986 425.296 53.8093C425.872 53.8194 426.433 53.9464 426.979 54.1903L426.68 54.8444C426.147 54.6137 425.662 54.4945 425.226 54.4869C424.842 54.4802 424.551 54.5354 424.354 54.6524C424.156 54.7694 424.056 54.9337 424.052 55.1453C424.049 55.2885 424.083 55.4111 424.153 55.5133C424.226 55.6155 424.343 55.7136 424.504 55.8075C424.665 55.9015 424.976 56.0388 425.435 56.2194C426.065 56.4615 426.489 56.7017 426.707 56.9399C426.927 57.1782 427.034 57.4747 427.028 57.8294Z" fill="black" fill-opacity="0.85"/>
<path d="M268.318 56.617C267.543 56.6035 266.947 56.3554 266.529 55.8728C266.114 55.3869 265.914 54.7079 265.93 53.8356C265.945 52.9406 266.172 52.2527 266.61 51.772C267.052 51.2913 267.671 51.058 268.468 51.0719C268.726 51.0764 268.982 51.1085 269.238 51.1684C269.495 51.2282 269.695 51.2968 269.84 51.3742L269.579 52.0582C269.402 51.9835 269.207 51.9215 268.997 51.8723C268.786 51.8197 268.599 51.7921 268.436 51.7892C267.349 51.7702 266.794 52.454 266.77 53.8405C266.758 54.498 266.881 55.0048 267.139 55.3609C267.399 55.717 267.79 55.8997 268.311 55.9088C268.757 55.9165 269.216 55.8285 269.688 55.6447L269.675 56.3623C269.314 56.5416 268.862 56.6265 268.318 56.617ZM274.237 56.6226L274.089 55.8582L274.05 55.8575C273.777 56.1881 273.506 56.4113 273.237 56.5271C272.972 56.6396 272.64 56.6924 272.243 56.6855C271.713 56.6762 271.298 56.5323 271.001 56.2536C270.706 55.975 270.563 55.5834 270.572 55.0789C270.591 53.9984 271.465 53.4471 273.194 53.4252L274.102 53.4118L274.108 53.0798C274.115 52.66 274.03 52.3492 273.851 52.1474C273.675 51.9425 273.389 51.8366 272.992 51.8297C272.546 51.8219 272.039 51.9498 271.471 52.2134L271.233 51.589C271.499 51.4504 271.789 51.3431 272.103 51.2672C272.42 51.1913 272.737 51.1562 273.053 51.1617C273.691 51.1728 274.16 51.3226 274.461 51.6111C274.765 51.8997 274.912 52.3564 274.901 52.9813L274.837 56.6331L274.237 56.6226ZM272.416 56.0195C272.92 56.0283 273.318 55.8969 273.61 55.6252C273.904 55.3536 274.056 54.9688 274.064 54.4709L274.073 53.9875L273.262 54.0076C272.617 54.0191 272.15 54.1119 271.86 54.2859C271.574 54.4567 271.428 54.7292 271.421 55.1035C271.416 55.3965 271.5 55.6209 271.673 55.777C271.849 55.9331 272.097 56.0139 272.416 56.0195ZM277.322 56.6765L276.512 56.6623L276.644 49.0658L277.455 49.08L277.322 56.6765ZM279.851 56.7206L279.041 56.7065L279.173 49.11L279.984 49.1241L279.851 56.7206ZM285.047 55.3511C285.038 55.8491 284.846 56.2299 284.47 56.4936C284.094 56.7573 283.571 56.8832 282.901 56.8715C282.191 56.8592 281.64 56.7372 281.247 56.5057L281.26 55.7539C281.515 55.8885 281.788 55.9959 282.08 56.0758C282.374 56.1559 282.659 56.1983 282.932 56.203C283.355 56.2104 283.682 56.1494 283.912 56.0199C284.142 55.8872 284.26 55.6825 284.264 55.4059C284.268 55.1976 284.18 55.0186 284 54.8689C283.824 54.7161 283.475 54.5342 282.955 54.3233C282.46 54.1291 282.108 53.9618 281.899 53.8214C281.693 53.6778 281.54 53.5172 281.439 53.3396C281.341 53.1621 281.294 52.9513 281.298 52.7072C281.306 52.2711 281.489 51.9308 281.848 51.6864C282.208 51.4387 282.696 51.3202 283.315 51.331C283.891 51.3411 284.452 51.4681 284.998 51.712L284.698 52.3661C284.165 52.1354 283.681 52.0162 283.244 52.0086C282.86 52.0019 282.57 52.0571 282.372 52.1741C282.175 52.2911 282.074 52.4554 282.071 52.667C282.068 52.8102 282.102 52.9328 282.172 53.035C282.245 53.1372 282.362 53.2353 282.523 53.3292C282.684 53.4232 282.994 53.5605 283.453 53.7411C284.084 53.9832 284.508 54.2234 284.725 54.4616C284.946 54.6999 285.053 54.9964 285.047 55.3511Z" fill="black" fill-opacity="0.85"/>
<path opacity="0.8" d="M65.0246 42.8246C51.6617 40.9707 37.4591 38.6796 23.961 40.841C19.5146 41.553 12.1591 41.9808 10.1052 46.952C8.60746 50.5773 8.06925 55.6877 11.4672 58.5824C15.9888 62.4344 21.9853 63.7737 27.7004 64.6225C36.5408 65.9354 45.7441 67.0629 54.6905 67.0498C66.2755 67.0328 77.6907 65.1993 89.2076 64.1126C93.0587 63.7492 96.9549 63.3812 100.394 61.476C102.909 60.0834 102.599 59.4649 103.192 57.035C104.369 52.2142 99.0284 49.389 95.4842 47.1382C89.4584 43.3115 82.9384 40.4029 75.832 39.5108C72.3271 39.0708 69.0247 38.9197 65.5173 39.1444C63.1493 39.2962 60.5695 39.1267 58.3666 40.0257" stroke="#1890FF" stroke-width="4" stroke-linecap="round"/>
<path d="M6.62958 28.6284C6.62958 29.5854 6.29917 30.3351 5.63837 30.8774C4.98212 31.4198 4.07522 31.6909 2.91766 31.6909C1.96063 31.6909 1.16766 31.52 0.538757 31.1782V29.647C1.32717 30.089 2.12469 30.3101 2.93134 30.3101C3.55568 30.3101 4.04787 30.1779 4.4079 29.9136C4.76792 29.6447 4.94794 29.2733 4.94794 28.7993C4.94794 28.4849 4.85451 28.2069 4.66766 27.9653C4.48081 27.7192 4.08889 27.4071 3.49188 27.0288C3.01337 26.7235 2.66018 26.4455 2.43231 26.1948C2.20445 25.9442 2.02899 25.6707 1.90594 25.3745C1.78746 25.0737 1.72821 24.7433 1.72821 24.3833C1.72821 23.8 1.86721 23.2827 2.1452 22.8315C2.42775 22.3804 2.82424 22.0317 3.33466 21.7856C3.84963 21.5396 4.42841 21.4165 5.07098 21.4165C6.00523 21.4165 6.87339 21.6261 7.67548 22.0454L7.08759 23.3511C6.35386 22.9956 5.68166 22.8179 5.07098 22.8179C4.57424 22.8179 4.17548 22.9523 3.87469 23.2212C3.57391 23.4855 3.42352 23.8319 3.42352 24.2603C3.42352 24.4744 3.4577 24.6636 3.52606 24.8276C3.59442 24.9871 3.69924 25.1375 3.84052 25.2788C3.98635 25.4155 4.29397 25.632 4.76337 25.9282C5.46975 26.3703 5.95738 26.7987 6.22626 27.2134C6.49514 27.6235 6.62958 28.0952 6.62958 28.6284ZM10.6149 30.3921C10.9248 30.3921 11.2689 30.3215 11.6472 30.1802V31.397C11.4877 31.4744 11.2712 31.5428 10.9977 31.6021C10.7243 31.6613 10.4509 31.6909 10.1774 31.6909C8.92873 31.6909 8.30438 31.1281 8.30438 30.0024C8.30438 29.7427 8.34084 29.4442 8.41376 29.1069L9.24091 25.2104H8.13348L8.27704 24.4585L9.57587 23.8979L10.4577 22.312H11.4557L11.1003 23.9937H13.0075L12.7409 25.2104H10.8474L10.0134 29.1206C9.95412 29.3713 9.9245 29.5809 9.9245 29.7495C9.9245 29.9455 9.98147 30.1027 10.0954 30.2212C10.2093 30.3351 10.3825 30.3921 10.6149 30.3921ZM15.3727 31.6909C14.7302 31.6909 14.222 31.4608 13.8483 31.0005C13.4746 30.5356 13.2878 29.884 13.2878 29.0454C13.2878 28.1248 13.445 27.2635 13.7595 26.4614C14.0785 25.6593 14.516 25.0259 15.072 24.561C15.628 24.0916 16.2386 23.8569 16.904 23.8569C17.346 23.8569 17.7266 23.9618 18.0456 24.1714C18.3646 24.3765 18.613 24.6772 18.7907 25.0737H18.8591L19.2829 23.9937H20.5134L18.9001 31.5542H17.6559L17.7995 30.3511H17.7585C17.0384 31.2443 16.2432 31.6909 15.3727 31.6909ZM15.9606 30.3921C16.3343 30.3921 16.7012 30.2166 17.0612 29.8657C17.4212 29.5103 17.7175 29.0363 17.9499 28.4438C18.1823 27.8514 18.2985 27.2043 18.2985 26.5024C18.2985 26.1014 18.1914 25.7801 17.9772 25.5386C17.763 25.2925 17.4828 25.1694 17.1364 25.1694C16.749 25.1694 16.3845 25.3449 16.0427 25.6958C15.7009 26.0467 15.4274 26.5252 15.2224 27.1313C15.0173 27.7329 14.9147 28.3573 14.9147 29.0044C14.9147 29.4692 15.0059 29.8179 15.1882 30.0503C15.375 30.2782 15.6325 30.3921 15.9606 30.3921ZM26.2009 23.8569C26.4834 23.8569 26.7295 23.8843 26.9391 23.939L26.5905 25.436C26.3444 25.3722 26.112 25.3403 25.8932 25.3403C25.319 25.3403 24.8063 25.5978 24.3552 26.1128C23.904 26.6278 23.5895 27.3022 23.4118 28.1362L22.6872 31.5542H21.0739L22.6872 23.9937H23.945L23.8015 25.395H23.863C24.2412 24.8481 24.6195 24.4562 24.9977 24.2192C25.376 23.9777 25.777 23.8569 26.2009 23.8569ZM29.5778 30.3921C29.8877 30.3921 30.2318 30.3215 30.61 30.1802V31.397C30.4505 31.4744 30.2341 31.5428 29.9606 31.6021C29.6872 31.6613 29.4138 31.6909 29.1403 31.6909C27.8916 31.6909 27.2673 31.1281 27.2673 30.0024C27.2673 29.7427 27.3037 29.4442 27.3766 29.1069L28.2038 25.2104H27.0964L27.2399 24.4585L28.5388 23.8979L29.4206 22.312H30.4186L30.0632 23.9937H31.9704L31.7038 25.2104H29.8102L28.9763 29.1206C28.917 29.3713 28.8874 29.5809 28.8874 29.7495C28.8874 29.9455 28.9444 30.1027 29.0583 30.2212C29.1722 30.3351 29.3454 30.3921 29.5778 30.3921ZM34.7253 34.9175C34.3151 34.9175 33.9756 34.8651 33.7067 34.7603V33.4614C33.9984 33.5526 34.2582 33.5981 34.486 33.5981C35.0967 33.5981 35.5 33.131 35.696 32.1968L37.1794 25.2104H35.9557L36.0993 24.4858L37.4255 23.9663L37.569 23.3374C37.7696 22.4351 38.0749 21.7948 38.485 21.4165C38.8998 21.0337 39.4854 20.8423 40.2419 20.8423C40.766 20.8423 41.2468 20.9403 41.6843 21.1362L41.2673 22.3394C40.93 22.2118 40.6201 22.1479 40.3376 22.1479C40.0231 22.1479 39.7702 22.2459 39.5788 22.4419C39.3919 22.6379 39.2484 22.9591 39.1481 23.4058L39.0251 23.9937H40.5905L40.3376 25.2104H38.7722L37.2477 32.4087C37.0655 33.27 36.7669 33.9035 36.3522 34.3091C35.9375 34.7147 35.3952 34.9175 34.7253 34.9175ZM45.4919 23.8569C45.7744 23.8569 46.0205 23.8843 46.2302 23.939L45.8815 25.436C45.6354 25.3722 45.403 25.3403 45.1843 25.3403C44.61 25.3403 44.0974 25.5978 43.6462 26.1128C43.195 26.6278 42.8806 27.3022 42.7028 28.1362L41.9782 31.5542H40.3649L41.9782 23.9937H43.236L43.0925 25.395H43.154C43.5322 24.8481 43.9105 24.4562 44.2888 24.2192C44.667 23.9777 45.0681 23.8569 45.4919 23.8569ZM51.5143 26.7554C51.5143 26.2677 51.4027 25.8872 51.1794 25.6138C50.9561 25.3358 50.6371 25.1968 50.2224 25.1968C49.7985 25.1968 49.418 25.3608 49.0807 25.689C48.7481 26.0125 48.4883 26.4546 48.3015 27.0151C48.1192 27.5711 48.028 28.1659 48.028 28.7993C48.028 29.3052 48.1397 29.6925 48.363 29.9614C48.5908 30.2303 48.9258 30.3647 49.3679 30.3647C49.778 30.3647 50.1472 30.2098 50.4753 29.8999C50.8034 29.59 51.0586 29.1571 51.2409 28.6011C51.4232 28.0405 51.5143 27.4253 51.5143 26.7554ZM53.1345 26.8237C53.1345 27.7443 52.9681 28.5828 52.6354 29.3394C52.3028 30.0913 51.8447 30.6701 51.2614 31.0757C50.6826 31.4767 50.015 31.6772 49.2585 31.6772C48.3835 31.6772 47.6885 31.4175 47.1735 30.8979C46.6585 30.3739 46.4011 29.6629 46.4011 28.7651C46.4011 27.8582 46.5628 27.0265 46.8864 26.27C47.2145 25.5135 47.6725 24.9256 48.2604 24.5063C48.8483 24.0825 49.5274 23.8706 50.2975 23.8706C51.1862 23.8706 51.8812 24.1349 52.3825 24.6636C52.8838 25.1922 53.1345 25.9123 53.1345 26.8237ZM59.3005 23.8569C60.3031 23.8569 60.8819 24.3924 61.0368 25.4634H61.0915C61.4333 24.9347 61.8207 24.536 62.2536 24.2671C62.6911 23.9937 63.1446 23.8569 63.614 23.8569C64.2201 23.8569 64.6804 24.0324 64.9948 24.3833C65.3138 24.7297 65.4733 25.2196 65.4733 25.853C65.4733 26.1447 65.4232 26.5571 65.3229 27.0903L64.3659 31.5542H62.7595L63.737 26.9604C63.8236 26.5275 63.8669 26.2244 63.8669 26.0513C63.8669 25.4634 63.5912 25.1694 63.0397 25.1694C62.5475 25.1694 62.0873 25.452 61.6589 26.0171C61.235 26.5822 60.9252 27.3319 60.7292 28.2661L60.0388 31.5542H58.4323L59.4099 26.9604C59.4873 26.5868 59.5261 26.2974 59.5261 26.0923C59.5261 25.4771 59.2595 25.1694 58.7263 25.1694C58.225 25.1694 57.7601 25.4588 57.3317 26.0376C56.9079 26.6164 56.5934 27.3866 56.3884 28.3481L55.7184 31.5542H54.1052L55.7184 23.9937H56.9763L56.8327 25.395H56.8942C57.5687 24.3696 58.3708 23.8569 59.3005 23.8569ZM74.6608 31.5542L75.6315 26.9604C75.7136 26.5503 75.7546 26.2609 75.7546 26.0923C75.7546 25.4771 75.4606 25.1694 74.8727 25.1694C74.3623 25.1694 73.8838 25.4543 73.4372 26.0239C72.9951 26.5936 72.6716 27.3729 72.4665 28.3618L71.7966 31.5542H70.1833L72.4391 20.9175H74.0456L73.6559 22.7085C73.5329 23.2827 73.3666 23.9504 73.1569 24.7114L73.027 25.2241H73.0817C73.4645 24.741 73.8474 24.3924 74.2302 24.1782C74.6175 23.964 75.0231 23.8569 75.447 23.8569C76.0668 23.8569 76.5407 24.0347 76.8688 24.3901C77.2015 24.741 77.3679 25.2446 77.3679 25.9009C77.3679 26.2472 77.3155 26.6437 77.2106 27.0903L76.2604 31.5542H74.6608ZM82.6589 25.0874C82.2214 25.0874 81.8089 25.2834 81.4216 25.6753C81.0388 26.0672 80.763 26.5845 80.5944 27.2271H80.7927C81.6494 27.2271 82.3194 27.1063 82.8024 26.8647C83.2855 26.6187 83.527 26.2723 83.527 25.8257C83.527 25.5933 83.4541 25.4132 83.3083 25.2856C83.1625 25.1535 82.946 25.0874 82.6589 25.0874ZM81.6198 31.6909C80.722 31.6909 80.0202 31.438 79.5143 30.9321C79.013 30.4263 78.7624 29.7199 78.7624 28.813C78.7624 27.9106 78.9378 27.0721 79.2888 26.2974C79.6442 25.5181 80.1227 24.9165 80.7243 24.4927C81.3304 24.0688 82.0072 23.8569 82.7546 23.8569C83.4883 23.8569 84.058 24.0233 84.4636 24.356C84.8737 24.6841 85.0788 25.1512 85.0788 25.7573C85.0788 26.5868 84.6983 27.2362 83.9372 27.7056C83.1807 28.1704 82.1006 28.4028 80.697 28.4028H80.403L80.3893 28.6147V28.813C80.3893 29.3188 80.5169 29.7153 80.7722 30.0024C81.0319 30.2896 81.417 30.4331 81.9274 30.4331C82.2556 30.4331 82.5814 30.3898 82.905 30.3032C83.2285 30.2166 83.6113 30.0685 84.0534 29.8589V31.1372C83.6159 31.3377 83.2126 31.479 82.8434 31.561C82.4789 31.6476 82.071 31.6909 81.6198 31.6909ZM90.9235 23.8569C91.2061 23.8569 91.4522 23.8843 91.6618 23.939L91.3132 25.436C91.0671 25.3722 90.8347 25.3403 90.6159 25.3403C90.0417 25.3403 89.529 25.5978 89.0778 26.1128C88.6266 26.6278 88.3122 27.3022 88.1345 28.1362L87.4099 31.5542H85.7966L87.4099 23.9937H88.6677L88.5241 25.395H88.5856C88.9639 24.8481 89.3421 24.4562 89.7204 24.2192C90.0987 23.9777 90.4997 23.8569 90.9235 23.8569ZM95.7292 25.0874C95.2917 25.0874 94.8793 25.2834 94.4919 25.6753C94.1091 26.0672 93.8334 26.5845 93.6647 27.2271H93.863C94.7197 27.2271 95.3897 27.1063 95.8727 26.8647C96.3558 26.6187 96.5974 26.2723 96.5974 25.8257C96.5974 25.5933 96.5244 25.4132 96.3786 25.2856C96.2328 25.1535 96.0163 25.0874 95.7292 25.0874ZM94.6901 31.6909C93.7923 31.6909 93.0905 31.438 92.5847 30.9321C92.0834 30.4263 91.8327 29.7199 91.8327 28.813C91.8327 27.9106 92.0082 27.0721 92.3591 26.2974C92.7145 25.5181 93.1931 24.9165 93.7946 24.4927C94.4007 24.0688 95.0775 23.8569 95.8249 23.8569C96.5586 23.8569 97.1283 24.0233 97.5339 24.356C97.944 24.6841 98.1491 25.1512 98.1491 25.7573C98.1491 26.5868 97.7686 27.2362 97.0075 27.7056C96.251 28.1704 95.1709 28.4028 93.7673 28.4028H93.4733L93.4597 28.6147V28.813C93.4597 29.3188 93.5873 29.7153 93.8425 30.0024C94.1022 30.2896 94.4873 30.4331 94.9977 30.4331C95.3259 30.4331 95.6517 30.3898 95.9753 30.3032C96.2988 30.2166 96.6817 30.0685 97.1237 29.8589V31.1372C96.6862 31.3377 96.2829 31.479 95.9138 31.561C95.5492 31.6476 95.1413 31.6909 94.6901 31.6909ZM111.1 28.6142C111.194 28.3715 111.296 28.1475 111.408 27.9422C111.52 27.7275 111.646 27.5269 111.786 27.3402H104.282V26.1922H111.786C111.656 26.0055 111.534 25.8095 111.422 25.6042C111.31 25.3895 111.208 25.1609 111.114 24.9182H112.178C112.757 25.5995 113.392 26.1175 114.082 26.4722V27.0742C113.392 27.4102 112.757 27.9235 112.178 28.6142H111.1Z" fill="#1890FF"/>
</svg>
