<svg width="517" height="77" viewBox="0 0 517 77" fill="none" xmlns="http://www.w3.org/2000/svg">
<path d="M87.8217 55.2019C102.662 54.2274 117.692 54.0772 132.587 54.3372C136.504 54.4056 140.42 54.4739 144.336 54.5423C145.282 54.5588 146.228 54.5753 147.174 54.5918C149.529 54.6329 144.959 53.0785 144.456 52.8983C142.106 52.0552 140.831 50.9603 139.145 49.3914C139.015 49.2706 143.331 52.7769 144.961 53.7301C146.689 54.7408 148.827 54.6159 146.866 56.5069C145.375 57.9446 143.97 58.5701 142.144 59.4423" stroke="#262626" stroke-width="2" stroke-linecap="round" stroke-linejoin="round"/>
<path d="M148.997 45.6695C148.968 47.3625 150.079 49.4427 150.424 51.1166C150.858 53.2206 150.465 55.7155 150.428 57.8643C150.416 58.5528 150.443 60.9303 151.537 60.5647C156.058 59.0545 161.759 58.9704 166.537 58.989C174.232 59.0189 181.884 58.1724 189.615 58.3074C193.824 58.3808 198.032 58.4543 202.241 58.5277C212.16 58.7009 222.047 59.4157 231.984 59.5891C233.655 59.6183 235.482 59.9198 234.512 57.7054C232.951 54.1427 233.296 48.9116 233.363 45.0937C233.424 41.5734 226.896 43.4764 224.503 43.6136C215.244 44.1444 205.915 44.4941 196.646 44.3323C180.921 44.0578 165.301 43.7852 149.583 43.5108" stroke="#262626" stroke-width="2" stroke-linecap="round" stroke-linejoin="round"/>
<path d="M232.882 53.0249C235.295 50.7388 238.545 49.1878 241.2 47.1406C246.878 42.7631 252.907 38.8742 258.822 34.792C264.359 30.9701 270.064 25.8937 276.66 23.9397C283.055 22.0455 290.413 22.5761 296.904 23.4872C297.379 23.5539 299.135 24.2707 298.569 23.964C297.462 23.3643 296.097 22.7776 295.071 22.112C293.932 21.3726 293.297 19.8782 292.078 19.2539C290.261 18.3228 292.931 20.7644 293.447 21.0389C296.01 22.4034 298.241 25.4127 301.024 26.2455C302.995 26.8352 295.536 31.1907 294.055 31.5266" stroke="#262626" stroke-width="2" stroke-linecap="round" stroke-linejoin="round"/>
<path d="M236.846 55.0947C242.67 56.1373 247.885 60.3848 253.771 61.5919C259.891 62.8471 266.468 63.6677 272.694 63.7764C278.022 63.8694 283.311 63.3863 288.668 63.4798C290.138 63.5054 296.905 65.1815 293.856 61.876C292.64 60.5574 287.744 59.2033 291.404 60.6504C294.416 61.8412 300.716 62.7631 296.019 65.654C295.176 66.1727 292.951 67.3659 292.703 68.4413C292.634 68.7423 292.084 70.6683 292.098 69.8693" stroke="#262626" stroke-width="2" stroke-linecap="round" stroke-linejoin="round"/>
<path d="M301.51 17.6199C301.422 22.659 304.651 26.9612 304.562 32.0814C304.54 33.298 304.619 32.7004 304.443 31.8421C303.905 29.2125 304.261 26.6016 304.031 23.949C303.746 20.6706 302.969 17.2043 303.227 13.9145C303.329 12.6085 331.479 13.874 335.042 13.9362C346.529 14.1367 357.897 13.0417 369.323 12.9336C372.617 12.9025 375.809 12.5132 379.118 12.571C383.151 12.6414 381.961 14.4499 381.898 18.0744C381.849 20.8748 381.723 23.6088 382.181 26.3804C382.307 27.1409 382.489 28.4242 382.133 29.1663C381.684 30.1011 382.086 30.3417 381.975 31.1795C381.907 31.6935 377.799 31.7563 377.56 31.7546C369.878 31.7015 362.18 31.2505 354.498 31.4707C349.892 31.6027 345.368 32.7393 340.772 32.7134C335.674 32.6847 330.578 32.4659 325.48 32.4465C320.317 32.4268 314.418 32.3445 309.316 33.113C308.219 33.2783 305.059 33.6403 304.552 32.6148" stroke="#262626" stroke-width="2" stroke-linecap="round" stroke-linejoin="round"/>
<path d="M301.868 59.5506C301.817 62.4704 302.831 65.4266 303.23 68.306C303.405 69.5701 303.268 71.9302 303.873 73.052C304.19 73.6377 313.151 73.0187 313.927 73.0123C328.177 72.8947 342.286 72.4312 356.568 72.6805C359.52 72.732 362.413 72.2291 365.416 72.2815C368.403 72.3336 371.758 72.7882 374.684 72.1666C377.028 71.6686 379.602 71.9757 381.984 72.0173C383.389 72.0418 381.943 67.6158 381.748 66.479C381.335 64.0679 380.306 62.3202 380.35 59.8137C380.391 57.4996 380.117 57.5959 377.846 57.5563C363.343 57.3031 348.813 58.7098 334.287 58.4562C322.964 58.2585 312.033 58.0678 300.808 57.8718" stroke="#262626" stroke-width="2" stroke-linecap="round" stroke-linejoin="round"/>
<path d="M381.411 24.0177C394.618 24.2482 407.796 23.3591 421.008 23.5897C423.113 23.6264 425.219 23.6632 427.324 23.6999C430.728 23.7593 425.289 21.6647 424.034 20.8444C423.875 20.74 420.413 18.8075 420.57 19.416C421.058 21.3108 426.455 22.6715 427.988 23.5871C429.71 24.6165 424.309 29.6902 422.996 30.3397" stroke="#262626" stroke-width="2" stroke-linecap="round" stroke-linejoin="round"/>
<path d="M382.678 66.0068C385.959 64.4019 391.423 65.2459 395.011 65.0721C400.05 64.8281 405.01 64.7183 410.069 64.8066C413.069 64.859 416.068 64.9113 419.068 64.9637C421.354 65.0036 423.834 66.2373 426.112 65.615C426.451 65.5224 424.576 64.5158 424.431 64.3735C423.537 63.4982 422.689 62.4456 421.617 61.7759C420.576 61.1248 421.662 61.2359 422.288 61.6633C424.401 63.1046 426.404 64.7152 428.536 66.1235C431.523 68.0972 427.756 68.0647 426.52 70.1288C426.032 70.9426 424.696 73.5447 424.727 71.7758" stroke="#262626" stroke-width="2" stroke-linecap="round" stroke-linejoin="round"/>
<path d="M435.84 28.5636L433.084 14.5134L439.618 12.6271L476.613 13.2729L513.598 14.4185L513.345 28.9163L435.84 28.5636Z" fill="#62B5E5"/>
<path d="M432.58 14.7577C432.843 17.4642 434.332 20.0055 434.597 22.7416C434.748 24.2964 434.53 26.4094 435.514 27.6446C436.156 28.4501 435.588 28.7209 437.079 28.4962C441.607 27.8141 446.307 28.2451 450.872 28.3248C457.083 28.4332 463.308 28.4304 469.516 28.6503C482.397 29.1064 495.399 28.5722 508.454 28.8C509.551 28.8192 513.786 29.5773 513.813 28.0692C513.87 24.7836 514.472 21.6055 514.53 18.3078C514.576 15.6875 514.735 14.3475 511.567 14.0462C509.451 13.8449 507.391 14.4737 505.272 14.4368C501.193 14.3656 497.114 14.2944 493.035 14.2232C479.58 13.9883 466.14 13.2238 452.719 12.9895C449.33 12.9304 445.513 12.4282 442.178 13.0705C440.24 13.4435 437.289 13.78 435.331 13.7459" stroke="#262626" stroke-width="2" stroke-linecap="round" stroke-linejoin="round"/>
<path d="M443.757 24.7011L443.881 17.5635L444.711 17.578L444.6 23.9637L447.749 24.0187L447.736 24.7705L443.757 24.7011ZM453.495 22.19C453.479 23.0622 453.248 23.7403 452.8 24.224C452.352 24.7046 451.741 24.9381 450.966 24.9246C450.488 24.9162 450.065 24.7965 449.698 24.5655C449.331 24.3344 449.05 24.0072 448.855 23.5838C448.661 23.1604 448.569 22.6672 448.578 22.1041C448.594 21.2319 448.823 20.5571 449.268 20.0797C449.713 19.5991 450.322 19.3656 451.097 19.3791C451.846 19.3922 452.435 19.6516 452.866 20.1572C453.3 20.6629 453.509 21.3405 453.495 22.19ZM449.418 22.1188C449.406 22.8023 449.534 23.3254 449.801 23.6882C450.068 24.051 450.467 24.237 450.997 24.2463C451.528 24.2556 451.933 24.0852 452.213 23.7352C452.495 23.382 452.643 22.862 452.655 22.1753C452.667 21.4951 452.537 20.9768 452.267 20.6204C452 20.2609 451.598 20.0765 451.061 20.0671C450.53 20.0578 450.127 20.225 449.85 20.5685C449.574 20.912 449.43 21.4288 449.418 22.1188ZM459.243 24.9714L458.316 21.8151C458.258 21.622 458.15 21.1838 457.993 20.5006L457.953 20.4999C457.813 21.0672 457.692 21.5046 457.589 21.8121L456.523 24.9239L455.586 24.9075L454.22 19.5313L455.069 19.5461C455.391 20.8964 455.635 21.9245 455.802 22.6307C455.972 23.3369 456.068 23.8123 456.089 24.0568L456.128 24.0575C456.167 23.8726 456.229 23.6344 456.312 23.3428C456.398 23.0481 456.472 22.8149 456.534 22.6435L457.569 19.5898L458.448 19.6051L459.351 22.6926C459.523 23.2556 459.639 23.7281 459.697 24.11L459.736 24.1107C459.751 23.9938 459.789 23.8137 459.848 23.5706C459.911 23.3275 460.274 22.0202 460.938 19.6486L461.777 19.6632L460.205 24.9882L459.243 24.9714ZM464.914 25.168C464.123 25.1542 463.502 24.9025 463.052 24.4128C462.605 23.9231 462.389 23.2503 462.403 22.3943C462.419 21.5318 462.642 20.8504 463.074 20.35C463.509 19.8497 464.085 19.6058 464.801 19.6183C465.471 19.63 465.998 19.8606 466.381 20.3101C466.764 20.7563 466.949 21.3407 466.936 22.0632L466.927 22.5758L463.241 22.5115C463.247 23.1399 463.396 23.6195 463.69 23.9502C463.987 24.2809 464.409 24.4511 464.956 24.4606C465.532 24.4707 466.103 24.3602 466.671 24.1292L466.658 24.8517C466.37 24.9704 466.096 25.0536 465.838 25.1011C465.583 25.152 465.275 25.1743 464.914 25.168ZM464.779 20.2968C464.35 20.2893 464.004 20.4232 463.742 20.6987C463.483 20.9741 463.327 21.3588 463.272 21.8527L466.07 21.9016C466.079 21.3906 465.972 20.998 465.749 20.7239C465.526 20.4465 465.202 20.3042 464.779 20.2968ZM470.806 19.7232C471.043 19.7273 471.256 19.7506 471.444 19.7929L471.319 20.5428C471.099 20.4901 470.904 20.4623 470.734 20.4593C470.302 20.4518 469.927 20.621 469.612 20.9672C469.3 21.3133 469.139 21.7484 469.13 22.2724L469.08 25.1431L468.27 25.1289L468.363 19.7782L469.032 19.7899L469.107 20.7825L469.147 20.7832C469.351 20.4384 469.595 20.1741 469.878 19.9902C470.161 19.8063 470.471 19.7173 470.806 19.7232ZM475.195 18.1101L477.211 18.1453C478.158 18.1618 478.841 18.3153 479.259 18.6059C479.677 18.8964 479.881 19.3476 479.871 19.9595C479.863 20.3826 479.738 20.7304 479.496 21.0029C479.257 21.2722 478.91 21.4436 478.456 21.5171L478.456 21.5659C479.536 21.7704 480.068 22.3494 480.051 23.303C480.04 23.9409 479.815 24.4351 479.376 24.7856C478.94 25.1361 478.335 25.3046 477.56 25.2911L475.07 25.2476L475.195 18.1101ZM475.972 21.1807L477.339 21.2046C477.924 21.2148 478.348 21.131 478.608 20.9533C478.868 20.7722 479.002 20.4636 479.01 20.0275C479.017 19.6272 478.879 19.3366 478.595 19.1559C478.312 18.9719 477.858 18.8744 477.233 18.8635L476.012 18.8422L475.972 21.1807ZM475.959 21.8837L475.913 24.5542L477.402 24.5802C477.978 24.5903 478.413 24.4872 478.706 24.2709C479.003 24.0514 479.156 23.7041 479.164 23.2289C479.172 22.7863 479.028 22.4582 478.732 22.2447C478.439 22.0312 477.989 21.9192 477.38 21.9085L475.959 21.8837ZM486.097 22.759C486.082 23.6313 485.85 24.3093 485.402 24.7931C484.954 25.2737 484.343 25.5072 483.568 25.4936C483.09 25.4853 482.667 25.3656 482.3 25.1345C481.933 24.9035 481.652 24.5763 481.458 24.1529C481.263 23.7295 481.171 23.2363 481.181 22.6732C481.196 21.801 481.426 21.1262 481.871 20.6488C482.315 20.1682 482.925 19.9347 483.699 19.9482C484.448 19.9613 485.038 20.2206 485.468 20.7263C485.902 21.232 486.112 21.9096 486.097 22.759ZM482.021 22.6879C482.009 23.3714 482.136 23.8945 482.403 24.2573C482.67 24.6201 483.069 24.8061 483.6 24.8154C484.13 24.8246 484.535 24.6543 484.815 24.3043C485.098 23.9511 485.245 23.4311 485.257 22.7444C485.269 22.0641 485.14 21.5459 484.869 21.1895C484.602 20.83 484.2 20.6455 483.663 20.6362C483.132 20.6269 482.729 20.794 482.453 21.1376C482.177 21.4811 482.033 21.9979 482.021 22.6879ZM488.331 20.1267L488.27 23.5979C488.263 24.034 488.356 24.3612 488.551 24.5795C488.746 24.7978 489.055 24.9106 489.478 24.918C490.038 24.9278 490.449 24.7819 490.711 24.4805C490.977 24.1791 491.116 23.6817 491.128 22.9885L491.177 20.1764L491.987 20.1906L491.894 25.5413L491.225 25.5296L491.121 24.8099L491.077 24.8091C490.906 25.0699 490.671 25.2676 490.373 25.4024C490.077 25.5373 489.741 25.6014 489.363 25.5948C488.713 25.5834 488.227 25.4203 487.907 25.1054C487.59 24.7906 487.438 24.2931 487.45 23.6129L487.511 20.1124L488.331 20.1267ZM497.279 25.6353L497.339 22.1739C497.347 21.7378 497.253 21.4106 497.059 21.1923C496.864 20.974 496.555 20.8612 496.132 20.8538C495.572 20.844 495.159 20.9882 494.894 21.2864C494.628 21.5845 494.489 22.0818 494.477 22.7783L494.428 25.5855L493.617 25.5714L493.711 20.2206L494.37 20.2321L494.489 20.9667L494.528 20.9674C494.699 20.7067 494.935 20.5073 495.237 20.3694C495.539 20.2281 495.874 20.1607 496.241 20.1671C496.886 20.1784 497.368 20.3431 497.688 20.6612C498.008 20.9761 498.162 21.4753 498.15 22.1588L498.089 25.6494L497.279 25.6353ZM503.414 25.0245L503.37 25.0237C502.986 25.5607 502.421 25.8227 501.676 25.8097C500.976 25.7975 500.435 25.5488 500.053 25.0635C499.674 24.5783 499.492 23.8947 499.508 23.0127C499.523 22.1306 499.73 21.4489 500.129 20.9675C500.529 20.4861 501.076 20.2515 501.773 20.2637C502.499 20.2764 503.051 20.5497 503.429 21.0837L503.492 21.0848L503.465 20.6986L503.452 20.3223L503.49 18.1449L504.3 18.159L504.168 25.7555L503.509 25.744L503.414 25.0245ZM501.79 25.1329C502.344 25.1426 502.747 24.9998 502.999 24.7047C503.255 24.4064 503.389 23.922 503.401 23.2515L503.404 23.0807C503.417 22.3223 503.299 21.7798 503.051 21.4532C502.806 21.1233 502.407 20.9536 501.854 20.9439C501.379 20.9356 501.011 21.1148 500.75 21.4814C500.493 21.8448 500.359 22.3634 500.347 23.0371C500.335 23.7206 500.452 24.2386 500.696 24.5913C500.941 24.9439 501.305 25.1244 501.79 25.1329Z" fill="black" fill-opacity="0.85"/>
<path d="M437.589 71.6004L434.834 57.5501L441.35 56.6637L478.344 57.3095L515.33 58.4551L515.103 71.4532L476.1 71.2724L437.589 71.6004Z" fill="#62B5E5"/>
<path d="M434.879 60.3315C434.851 61.9309 435.653 64.3431 436.15 65.8662C436.626 67.3266 436.188 69.3752 437.19 70.6638C439.18 73.2222 443.616 72.6232 446.424 72.6722C452.535 72.7789 458.953 72.2228 465.038 71.6777C470.73 71.1678 476.556 71.6148 482.268 71.7145C486.515 71.7887 490.701 71.3339 494.975 71.4085C499.127 71.481 503.279 71.5535 507.431 71.6259C508.952 71.6525 514.375 72.6039 515.513 71.6497C515.857 71.3621 515.167 67.1503 515.178 66.4833C515.215 64.3476 515.847 61.4657 515.272 59.389C514.73 57.4339 502.21 57.8122 500.653 57.785C493.817 57.6657 486.982 57.5464 480.147 57.4271C469.962 57.2493 459.864 57.6009 449.698 57.4234C445.527 57.3506 437.621 55.9268 433.831 57.6742" stroke="#262626" stroke-width="2" stroke-linecap="round" stroke-linejoin="round"/>
<path d="M442.007 67.6766L442.131 60.5391L442.961 60.5535L442.85 66.9393L445.999 66.9943L445.985 67.7461L442.007 67.6766ZM451.744 65.1655C451.729 66.0378 451.497 66.7158 451.049 67.1996C450.602 67.6802 449.99 67.9137 449.216 67.9002C448.737 67.8918 448.314 67.7721 447.947 67.541C447.58 67.31 447.299 66.9828 447.105 66.5594C446.911 66.136 446.818 65.6428 446.828 65.0797C446.843 64.2075 447.073 63.5327 447.518 63.0553C447.962 62.5747 448.572 62.3412 449.347 62.3547C450.095 62.3678 450.685 62.6271 451.116 63.1328C451.55 63.6385 451.759 64.3161 451.744 65.1655ZM447.668 65.0944C447.656 65.7779 447.783 66.301 448.051 66.6638C448.318 67.0266 448.717 67.2126 449.247 67.2219C449.778 67.2311 450.183 67.0608 450.462 66.7108C450.745 66.3576 450.893 65.8376 450.905 65.1509C450.916 64.4707 450.787 63.9524 450.517 63.596C450.249 63.2365 449.847 63.052 449.31 63.0427C448.78 63.0334 448.376 63.2005 448.1 63.5441C447.824 63.8876 447.68 64.4044 447.668 65.0944ZM457.493 67.947L456.566 64.7907C456.508 64.5975 456.4 64.1594 456.242 63.4762L456.203 63.4755C456.063 64.0428 455.941 64.4802 455.838 64.7877L454.773 67.8995L453.836 67.8831L452.469 62.5069L453.319 62.5217C453.641 63.8719 453.885 64.9001 454.051 65.6063C454.221 66.3125 454.317 66.7878 454.339 67.0324L454.378 67.0331C454.417 66.8482 454.478 66.61 454.561 66.3184C454.648 66.0236 454.722 65.7905 454.784 65.6191L455.819 62.5654L456.697 62.5807L457.601 65.6682C457.773 66.2312 457.889 66.7037 457.947 67.0856L457.986 67.0863C458.001 66.9694 458.039 66.7893 458.098 66.5462C458.161 66.3031 458.524 64.9958 459.187 62.6242L460.027 62.6388L458.454 67.9637L457.493 67.947ZM463.164 68.1436C462.373 68.1298 461.752 67.8781 461.302 67.3883C460.854 66.8987 460.638 66.2259 460.653 65.3699C460.668 64.5074 460.892 63.826 461.324 63.3256C461.759 62.8253 462.335 62.5814 463.051 62.5939C463.721 62.6056 464.248 62.8362 464.631 63.2857C465.013 63.7319 465.199 64.3162 465.186 65.0388L465.177 65.5514L461.491 65.4871C461.496 66.1155 461.646 66.5951 461.94 66.9258C462.237 67.2565 462.659 67.4267 463.205 67.4362C463.781 67.4463 464.353 67.3358 464.92 67.1048L464.908 67.8273C464.619 67.946 464.346 68.0291 464.088 68.0767C463.833 68.1276 463.525 68.1499 463.164 68.1436ZM463.029 63.2724C462.599 63.2649 462.254 63.3988 461.992 63.6742C461.733 63.9497 461.576 64.3344 461.522 64.8283L464.32 64.8772C464.328 64.3662 464.221 63.9736 463.998 63.6995C463.775 63.4221 463.452 63.2797 463.029 63.2724ZM469.056 62.6987C469.293 62.7029 469.506 62.7261 469.694 62.7685L469.569 63.5184C469.348 63.4657 469.153 63.4379 468.984 63.4349C468.551 63.4274 468.177 63.5966 467.862 63.9427C467.55 64.2889 467.389 64.724 467.38 65.248L467.33 68.1187L466.519 68.1045L466.613 62.7538L467.282 62.7654L467.357 63.7581L467.396 63.7588C467.601 63.414 467.845 63.1497 468.128 62.9658C468.411 62.7819 468.72 62.6929 469.056 62.6987ZM473.445 61.0856L475.461 61.1208C476.408 61.1374 477.091 61.2909 477.509 61.5815C477.927 61.872 478.131 62.3232 478.12 62.9351C478.113 63.3582 477.988 63.706 477.746 63.9785C477.506 64.2478 477.16 64.4192 476.706 64.4927L476.705 64.5415C477.786 64.7459 478.318 65.325 478.301 66.2786C478.29 66.9165 478.065 67.4107 477.626 67.7612C477.19 68.1117 476.585 68.2802 475.81 68.2667L473.32 68.2232L473.445 61.0856ZM474.221 64.1563L475.588 64.1802C476.174 64.1904 476.597 64.1066 476.858 63.9288C477.118 63.7478 477.252 63.4392 477.26 63.0031C477.267 62.6028 477.128 62.3122 476.845 62.1315C476.562 61.9475 476.108 61.85 475.483 61.8391L474.262 61.8178L474.221 64.1563ZM474.209 64.8593L474.162 67.5298L475.652 67.5558C476.228 67.5659 476.662 67.4628 476.956 67.2465C477.253 67.027 477.405 66.6797 477.414 66.2045C477.421 65.7619 477.277 65.4338 476.982 65.2203C476.689 65.0068 476.238 64.8947 475.63 64.8841L474.209 64.8593ZM484.347 65.7346C484.332 66.6069 484.1 67.2849 483.652 67.7687C483.204 68.2492 482.593 68.4828 481.818 68.4692C481.34 68.4609 480.917 68.3412 480.55 68.1101C480.183 67.8791 479.902 67.5519 479.707 67.1285C479.513 66.7051 479.421 66.2119 479.43 65.6488C479.446 64.7765 479.676 64.1017 480.12 63.6244C480.565 63.1438 481.175 62.9103 481.949 62.9238C482.698 62.9369 483.287 63.1962 483.718 63.7019C484.152 64.2076 484.362 64.8851 484.347 65.7346ZM480.27 65.6635C480.258 66.347 480.386 66.8701 480.653 67.2329C480.92 67.5957 481.319 67.7817 481.85 67.791C482.38 67.8002 482.785 67.6299 483.065 67.2799C483.348 66.9267 483.495 66.4067 483.507 65.72C483.519 65.0397 483.39 64.5214 483.119 64.1651C482.852 63.8056 482.45 63.6211 481.913 63.6117C481.382 63.6025 480.979 63.7696 480.703 64.1132C480.426 64.4567 480.282 64.9735 480.27 65.6635ZM486.581 63.1023L486.52 66.5735C486.512 67.0096 486.606 67.3368 486.801 67.5551C486.995 67.7733 487.304 67.8862 487.728 67.8936C488.287 67.9033 488.698 67.7575 488.961 67.456C489.227 67.1546 489.366 66.6573 489.378 65.9641L489.427 63.152L490.237 63.1661L490.144 68.5169L489.475 68.5052L489.37 67.7855L489.326 67.7847C489.156 68.0455 488.921 68.2432 488.623 68.378C488.327 68.5128 487.991 68.577 487.613 68.5704C486.962 68.559 486.477 68.3959 486.157 68.081C485.84 67.7662 485.687 67.2687 485.699 66.5884L485.76 63.088L486.581 63.1023ZM495.529 68.6109L495.589 65.1495C495.597 64.7134 495.503 64.3862 495.308 64.1679C495.114 63.9496 494.805 63.8368 494.382 63.8294C493.822 63.8196 493.409 63.9638 493.143 64.2619C492.878 64.5601 492.739 65.0574 492.727 65.7539L492.678 68.5611L491.867 68.547L491.961 63.1962L492.62 63.2077L492.739 63.9423L492.778 63.943C492.948 63.6823 493.185 63.4829 493.487 63.3449C493.788 63.2037 494.123 63.1363 494.491 63.1427C495.136 63.154 495.618 63.3187 495.938 63.6368C496.258 63.9517 496.412 64.4509 496.4 65.1343L496.339 68.625L495.529 68.6109ZM501.663 68.0001L501.619 67.9993C501.236 68.5363 500.671 68.7983 499.926 68.7853C499.226 68.7731 498.685 68.5243 498.303 68.0391C497.924 67.5539 497.742 66.8703 497.757 65.9882C497.773 65.1062 497.98 64.4245 498.379 63.9431C498.778 63.4617 499.326 63.2271 500.023 63.2393C500.748 63.2519 501.3 63.5253 501.678 64.0593L501.742 64.0604L501.714 63.6741L501.701 63.2979L501.739 61.1205L502.55 61.1346L502.417 68.7311L501.758 68.7196L501.663 68.0001ZM500.04 68.1085C500.593 68.1181 500.996 67.9754 501.249 67.6803C501.505 67.382 501.639 66.8976 501.65 66.2271L501.653 66.0562C501.667 65.2979 501.549 64.7554 501.301 64.4288C501.056 64.0989 500.657 63.9292 500.103 63.9195C499.628 63.9112 499.261 64.0904 499 64.457C498.743 64.8204 498.609 65.3389 498.597 66.0127C498.585 66.6962 498.701 67.2142 498.946 67.5668C499.19 67.9195 499.555 68.1 500.04 68.1085Z" fill="black" fill-opacity="0.85"/>
<path d="M2.71614 60.5093L2.99538 44.5117L7.97716 45.5988L44.9715 46.2446L88.4824 46.0039L88.2031 62.0015L2.71614 60.5093Z" fill="#9DD4CF"/>
<path d="M2.80184 60.7628C2.82463 59.4573 2.90181 58.1382 2.87057 56.8302C2.86912 56.9101 2.86769 56.9899 2.8663 57.0697L2.80184 60.7628Z" fill="#9DD4CF"/>
<path d="M1.98801 44.9249C2.12777 48.6855 2.65972 52.4887 2.84999 56.269C2.92504 57.7601 2.82789 59.2703 2.80184 60.7628C2.78035 61.9939 2.84481 58.3007 2.8663 57.0697C2.9175 54.1367 3.00938 51.2011 3.01994 48.2677C3.02237 47.5933 2.2126 44.6158 2.84918 44.1703C3.74309 43.5448 10.2257 45.1294 11.3715 45.2118C17.7719 45.6725 24.1443 45.8658 30.5591 45.9778C45.0067 46.2299 59.4884 46.4827 73.9148 46.7345C77.4911 46.797 80.9324 46.6013 84.4903 46.3958C87.279 46.2347 89.0738 45.4593 88.3222 48.9563C87.6432 52.1152 87.7058 56.4701 88.5299 59.6117C89.3873 62.88 87.2868 61.9296 84.3109 61.8777C70.0548 61.6289 55.8571 61.381 41.6214 61.1326C28.7058 60.9071 15.8041 61.236 2.79754 61.009" stroke="#262626" stroke-width="2" stroke-linecap="round" stroke-linejoin="round"/>
<path d="M21.392 49.1945L21.3114 53.8129C21.2972 54.6266 21.0403 55.2618 20.5407 55.7187C20.0411 56.1755 19.3617 56.3964 18.5025 56.3815C17.6432 56.3665 16.9817 56.1205 16.518 55.6436C16.0575 55.1667 15.8344 54.5182 15.8487 53.698L15.929 49.0991L16.7589 49.1136L16.6776 53.7711C16.6673 54.3667 16.822 54.8268 17.1419 55.1515C17.4618 55.4761 17.9375 55.6439 18.5689 55.655C19.171 55.6655 19.6376 55.5141 19.9686 55.2008C20.2997 54.8843 20.4705 54.4266 20.4809 53.8277L20.5621 49.18L21.392 49.1945ZM25.5278 56.5041C25.1795 56.498 24.8617 56.429 24.5742 56.297C24.2901 56.1618 24.0527 55.959 23.8621 55.6888L23.8035 55.6877C23.8371 56.0009 23.8514 56.2974 23.8466 56.5773L23.8081 58.7791L22.9977 58.765L23.133 51.0122L23.7921 51.0237L23.8916 51.758L23.9307 51.7587C24.1441 51.4694 24.3903 51.2621 24.6692 51.1367C24.9481 51.0114 25.2666 50.9518 25.6246 50.958C26.3341 50.9704 26.8767 51.2225 27.2523 51.7141C27.6311 52.2058 27.8129 52.8894 27.7976 53.765C27.7823 54.6437 27.5734 55.3238 27.1711 55.8051C26.7721 56.2832 26.2243 56.5162 25.5278 56.5041ZM25.4954 51.6444C24.9486 51.6348 24.5505 51.7793 24.3011 52.0777C24.0517 52.3761 23.918 52.8556 23.9 53.5162L23.8968 53.6969C23.8837 54.4487 23.9996 54.9895 24.2446 55.3194C24.4895 55.646 24.8887 55.8141 25.442 55.8238C25.9042 55.8318 26.2687 55.651 26.5356 55.2812C26.8058 54.9116 26.9466 54.398 26.9581 53.7405C26.9697 53.0733 26.8468 52.56 26.5894 52.2007C26.3352 51.8381 25.9706 51.6527 25.4954 51.6444ZM31.6597 56.6111C31.3114 56.605 30.9936 56.536 30.7061 56.404C30.422 56.2688 30.1846 56.0661 29.9939 55.7958L29.9354 55.7948C29.969 56.1079 29.9833 56.4044 29.9784 56.6843L29.94 58.8861L29.1296 58.872L29.2649 51.1193L29.924 51.1308L30.0235 51.865L30.0625 51.8657C30.276 51.5764 30.5221 51.3691 30.8011 51.2437C31.08 51.1184 31.3984 51.0588 31.7565 51.0651C32.466 51.0775 33.0086 51.3295 33.3841 51.8211C33.763 52.3129 33.9448 52.9965 33.9295 53.872C33.9142 54.7508 33.7053 55.4308 33.303 55.9121C32.9039 56.3903 32.3562 56.6233 31.6597 56.6111ZM31.6273 51.7514C31.0805 51.7419 30.6824 51.8863 30.433 52.1847C30.1836 52.4832 30.0499 52.9627 30.0319 53.6233L30.0287 53.8039C30.0156 54.5557 30.1315 55.0966 30.3764 55.4264C30.6214 55.753 31.0206 55.9211 31.5739 55.9308C32.036 55.9389 32.4006 55.758 32.6675 55.3883C32.9376 55.0186 33.0785 54.505 33.0899 53.8476C33.1016 53.1803 32.9787 52.6671 32.7213 52.3077C32.4671 51.9451 32.1025 51.7597 31.6273 51.7514ZM37.5621 56.7141C36.7712 56.7003 36.1505 56.4486 35.7 55.9589C35.2527 55.4692 35.0366 54.7964 35.0515 53.9404C35.0666 53.0779 35.2901 52.3965 35.7221 51.8961C36.1573 51.3958 36.7329 51.1519 37.449 51.1644C38.1194 51.1761 38.6461 51.4067 39.0289 51.8562C39.4118 52.3024 39.597 52.8868 39.5844 53.6093L39.5754 54.1219L35.8894 54.0576C35.8947 54.686 36.0443 55.1656 36.338 55.4963C36.635 55.8271 37.0569 55.9972 37.6037 56.0067C38.1798 56.0168 38.7515 55.9063 39.3188 55.6753L39.3061 56.3978C39.0176 56.5165 38.7443 56.5997 38.4862 56.6472C38.2314 56.6981 37.9234 56.7204 37.5621 56.7141ZM37.4274 51.8429C36.9977 51.8354 36.6519 51.9693 36.3899 52.2448C36.1312 52.5202 35.9747 52.9049 35.9205 53.3988L38.7179 53.4477C38.7268 52.9367 38.6197 52.5441 38.3966 52.27C38.1735 51.9926 37.8505 51.8503 37.4274 51.8429ZM43.4539 51.2693C43.6915 51.2734 43.9043 51.2967 44.0924 51.339L43.967 52.0889C43.7466 52.0362 43.5517 52.0084 43.3825 52.0054C42.9496 51.9979 42.5755 52.1672 42.2601 52.5133C41.9481 52.8594 41.7874 53.2945 41.7783 53.8185L41.7282 56.6892L40.9178 56.675L41.0112 51.3243L41.68 51.336L41.7555 52.3286L41.7945 52.3293C41.9991 51.9845 42.2431 51.7202 42.5263 51.5363C42.8095 51.3524 43.1187 51.2634 43.4539 51.2693ZM47.8431 49.6562L49.8594 49.6914C50.8065 49.7079 51.4891 49.8614 51.9073 50.152C52.3255 50.4425 52.5292 50.8937 52.5185 51.5056C52.5112 51.9287 52.3863 52.2765 52.1438 52.549C51.9047 52.8183 51.5583 52.9897 51.1044 53.0632L51.1036 53.112C52.1842 53.3165 52.7161 53.8955 52.6995 54.8491C52.6883 55.4871 52.4632 55.9812 52.0241 56.3317C51.5882 56.6822 50.983 56.8507 50.2083 56.8372L47.7185 56.7937L47.8431 49.6562ZM48.6197 52.7268L49.9867 52.7507C50.5725 52.7609 50.9956 52.6771 51.2559 52.4994C51.5163 52.3183 51.6502 52.0097 51.6579 51.5736C51.6648 51.1733 51.5267 50.8827 51.2433 50.702C50.96 50.518 50.5059 50.4205 49.881 50.4096L48.6605 50.3883L48.6197 52.7268ZM48.6074 53.4298L48.5608 56.1003L50.0498 56.1263C50.6259 56.1364 51.0607 56.0333 51.3543 55.817C51.6511 55.5976 51.8037 55.2502 51.812 54.775C51.8197 54.3324 51.6757 54.0043 51.3799 53.7908C51.0873 53.5773 50.6367 53.4653 50.0281 53.4546L48.6074 53.4298ZM58.745 54.3051C58.7298 55.1774 58.4982 55.8554 58.0503 56.3392C57.6024 56.8198 56.9911 57.0533 56.2165 57.0398C55.738 57.0314 55.3152 56.9117 54.9481 56.6806C54.581 56.4496 54.3002 56.1224 54.1058 55.699C53.9113 55.2756 53.819 54.7824 53.8288 54.2193C53.844 53.3471 54.0739 52.6723 54.5185 52.1949C54.9632 51.7143 55.5728 51.4808 56.3474 51.4943C57.096 51.5074 57.6857 51.7667 58.1164 52.2724C58.5503 52.7781 58.7599 53.4557 58.745 54.3051ZM54.6685 54.234C54.6566 54.9175 54.7842 55.4406 55.0513 55.8034C55.3185 56.1662 55.7173 56.3522 56.2478 56.3615C56.7784 56.3707 57.1834 56.2004 57.463 55.8504C57.7459 55.4972 57.8933 54.9772 57.9053 54.2905C57.9172 53.6103 57.7879 53.092 57.5174 52.7356C57.2502 52.3761 56.8481 52.1916 56.311 52.1823C55.7805 52.173 55.3771 52.3401 55.1009 52.6837C54.8247 53.0272 54.6806 53.544 54.6685 54.234ZM60.9788 51.6728L60.9182 55.144C60.9106 55.5801 61.0042 55.9073 61.199 56.1256C61.3938 56.3439 61.7027 56.4567 62.1259 56.4641C62.6857 56.4739 63.0968 56.328 63.3593 56.0266C63.625 55.7252 63.7639 55.2278 63.776 54.5346L63.8251 51.7225L64.6355 51.7367L64.5421 57.0874L63.8733 57.0757L63.7686 56.356L63.7247 56.3553C63.5541 56.616 63.3195 56.8137 63.0209 56.9485C62.7255 57.0834 62.389 57.1475 62.0115 57.1409C61.3605 57.1295 60.875 56.9664 60.555 56.6515C60.2381 56.3367 60.0857 55.8392 60.0975 55.159L60.1586 51.6585L60.9788 51.6728ZM69.927 57.1814L69.9874 53.72C69.9951 53.2839 69.9015 52.9567 69.7067 52.7384C69.5119 52.5201 69.2029 52.4073 68.7798 52.3999C68.22 52.3901 67.8073 52.5343 67.5416 52.8325C67.276 53.1306 67.1371 53.6279 67.1249 54.3244L67.0759 57.1316L66.2655 57.1175L66.3589 51.7667L67.0179 51.7782L67.137 52.5129L67.176 52.5135C67.3466 52.2528 67.5829 52.0534 67.8848 51.9155C68.1868 51.7742 68.5217 51.7068 68.8895 51.7132C69.5339 51.7245 70.0161 51.8892 70.3362 52.2073C70.6562 52.5222 70.8103 53.0214 70.7984 53.7049L70.7374 57.1955L69.927 57.1814ZM76.0617 56.5706L76.0177 56.5698C75.6339 57.1068 75.0694 57.3688 74.3241 57.3558C73.6243 57.3436 73.0833 57.0949 72.7011 56.6096C72.3221 56.1244 72.1404 55.4408 72.1557 54.5588C72.1711 53.6767 72.3784 52.995 72.7775 52.5136C73.1766 52.0322 73.7244 51.7976 74.4209 51.8098C75.1467 51.8225 75.6986 52.0958 76.0767 52.6298L76.1402 52.6309L76.1128 52.2447L76.0998 51.8684L76.1378 49.691L76.9482 49.7051L76.8156 57.3016L76.1565 57.2901L76.0617 56.5706ZM74.4384 56.679C74.9917 56.6887 75.3947 56.5459 75.6473 56.2508C75.9032 55.9525 76.037 55.4681 76.0487 54.7976L76.0516 54.6268C76.0649 53.8684 75.9474 53.3259 75.6991 52.9993C75.4542 52.6694 75.0551 52.4997 74.5018 52.49C74.0266 52.4817 73.6588 52.6609 73.3985 53.0275C73.1415 53.3909 73.0071 53.9095 72.9953 54.5832C72.9834 55.2667 73.0997 55.7847 73.3442 56.1374C73.5887 56.49 73.9535 56.6705 74.4384 56.679Z" fill="black" fill-opacity="0.85"/>
<path d="M110.348 49.0359C109.574 49.0224 108.977 48.7743 108.559 48.2917C108.145 47.8059 107.945 47.1268 107.96 46.2546C107.976 45.3595 108.202 44.6717 108.641 44.1909C109.082 43.7103 109.701 43.4769 110.499 43.4908C110.756 43.4953 111.013 43.5275 111.269 43.5873C111.525 43.6471 111.726 43.7157 111.871 43.7932L111.61 44.4772C111.432 44.4025 111.238 44.3405 111.027 44.2912C110.816 44.2387 110.63 44.211 110.467 44.2082C109.38 44.1892 108.824 44.873 108.8 46.2595C108.788 46.9169 108.911 47.4237 109.169 47.7798C109.43 48.136 109.82 48.3186 110.341 48.3277C110.787 48.3355 111.246 48.2474 111.718 48.0636L111.706 48.7813C111.344 48.9605 110.892 49.0454 110.348 49.0359ZM116.267 49.0416L116.119 48.2772L116.08 48.2765C115.807 48.6071 115.537 48.8302 115.268 48.946C115.002 49.0586 114.671 49.1114 114.273 49.1045C113.743 49.0952 113.329 48.9512 113.031 48.6725C112.736 48.3939 112.593 48.0024 112.602 47.4979C112.621 46.4173 113.495 45.8661 115.224 45.8442L116.133 45.8307L116.138 45.4988C116.146 45.0789 116.06 44.7681 115.881 44.5664C115.706 44.3615 115.419 44.2556 115.022 44.2486C114.577 44.2408 114.07 44.3687 113.502 44.6323L113.264 44.0079C113.53 43.8693 113.82 43.7621 114.134 43.6861C114.451 43.6103 114.767 43.5751 115.083 43.5806C115.721 43.5918 116.19 43.7416 116.491 44.0301C116.796 44.3186 116.942 44.7754 116.931 45.4003L116.868 49.0521L116.267 49.0416ZM114.446 48.4384C114.951 48.4472 115.349 48.3158 115.64 48.0442C115.934 47.7726 116.086 47.3878 116.095 46.8898L116.103 46.4065L115.292 46.4265C114.647 46.438 114.18 46.5308 113.891 46.7048C113.604 46.8756 113.458 47.1482 113.451 47.5225C113.446 47.8154 113.53 48.0399 113.703 48.1959C113.88 48.352 114.127 48.4329 114.446 48.4384ZM119.353 49.0954L118.542 49.0813L118.675 41.4848L119.485 41.4989L119.353 49.0954ZM121.881 49.1396L121.071 49.1254L121.204 41.5289L122.014 41.5431L121.881 49.1396ZM127.077 47.7701C127.068 48.2681 126.876 48.6489 126.5 48.9125C126.125 49.1762 125.602 49.3022 124.931 49.2905C124.222 49.2781 123.67 49.1562 123.277 48.9246L123.29 48.1728C123.545 48.3075 123.818 48.4148 124.11 48.4948C124.405 48.5748 124.689 48.6172 124.962 48.622C125.385 48.6294 125.712 48.5683 125.942 48.4389C126.172 48.3061 126.29 48.1014 126.295 47.8248C126.298 47.6165 126.21 47.4375 126.031 47.2879C125.854 47.135 125.506 46.9531 124.985 46.7422C124.491 46.548 124.139 46.3807 123.929 46.2403C123.724 46.0967 123.57 45.9361 123.469 45.7586C123.371 45.5811 123.324 45.3702 123.329 45.1261C123.336 44.69 123.52 44.3497 123.879 44.1053C124.238 43.8576 124.727 43.7392 125.345 43.75C125.921 43.76 126.482 43.887 127.028 44.131L126.729 44.785C126.196 44.5543 125.711 44.4352 125.275 44.4276C124.891 44.4209 124.6 44.476 124.403 44.593C124.205 44.7101 124.105 44.8743 124.101 45.0859C124.098 45.2291 124.132 45.3518 124.202 45.4539C124.275 45.5561 124.392 45.6542 124.553 45.7482C124.715 45.8422 125.025 45.9794 125.484 46.16C126.114 46.4022 126.538 46.6423 126.756 46.8806C126.976 47.1188 127.083 47.4153 127.077 47.7701Z" fill="black" fill-opacity="0.85"/>
<path d="M256.868 20.5364C256.093 20.5229 255.497 20.2748 255.078 19.7922C254.664 19.3064 254.464 18.6273 254.479 17.7551C254.495 16.86 254.722 16.1721 255.16 15.6914C255.601 15.2108 256.221 14.9774 257.018 14.9913C257.275 14.9958 257.532 15.028 257.788 15.0878C258.044 15.1476 258.245 15.2162 258.39 15.2936L258.129 15.9777C257.951 15.9029 257.757 15.8409 257.546 15.7917C257.335 15.7392 257.149 15.7115 256.986 15.7087C255.899 15.6897 255.343 16.3734 255.319 17.76C255.308 18.4174 255.431 18.9242 255.688 19.2803C255.949 19.6365 256.34 19.8191 256.86 19.8282C257.306 19.836 257.765 19.7479 258.237 19.5641L258.225 20.2818C257.863 20.461 257.411 20.5459 256.868 20.5364ZM262.786 20.5421L262.638 19.7777L262.599 19.777C262.327 20.1075 262.056 20.3307 261.787 20.4465C261.521 20.5591 261.19 20.6119 260.793 20.6049C260.262 20.5957 259.848 20.4517 259.55 20.173C259.255 19.8944 259.112 19.5029 259.121 18.9984C259.14 17.9178 260.014 17.3666 261.743 17.3447L262.652 17.3312L262.658 16.9992C262.665 16.5794 262.579 16.2686 262.4 16.0669C262.225 15.862 261.939 15.756 261.542 15.7491C261.096 15.7413 260.589 15.8692 260.021 16.1328L259.783 15.5084C260.049 15.3698 260.339 15.2625 260.653 15.1866C260.97 15.1108 261.286 15.0756 261.602 15.0811C262.24 15.0923 262.709 15.2421 263.01 15.5306C263.315 15.8191 263.461 16.2759 263.451 16.9008L263.387 20.5525L262.786 20.5421ZM260.965 19.9389C261.47 19.9477 261.868 19.8163 262.159 19.5446C262.454 19.273 262.605 18.8883 262.614 18.3903L262.622 17.907L261.811 17.927C261.166 17.9385 260.699 18.0313 260.41 18.2053C260.123 18.3761 259.977 18.6487 259.971 19.023C259.965 19.3159 260.049 19.5404 260.223 19.6964C260.399 19.8525 260.647 19.9333 260.965 19.9389ZM265.872 20.5959L265.061 20.5818L265.194 12.9853L266.004 12.9994L265.872 20.5959ZM268.401 20.6401L267.59 20.6259L267.723 13.0294L268.533 13.0436L268.401 20.6401ZM273.596 19.2706C273.588 19.7685 273.395 20.1494 273.02 20.413C272.644 20.6767 272.121 20.8027 271.45 20.791C270.741 20.7786 270.189 20.6566 269.796 20.4251L269.809 19.6733C270.064 19.808 270.337 19.9153 270.629 19.9953C270.924 20.0753 271.208 20.1177 271.481 20.1225C271.905 20.1299 272.231 20.0688 272.461 19.9393C272.692 19.8066 272.809 19.6019 272.814 19.3253C272.818 19.117 272.73 18.938 272.55 18.7884C272.373 18.6355 272.025 18.4536 271.504 18.2427C271.01 18.0485 270.658 17.8812 270.449 17.7408C270.243 17.5972 270.089 17.4366 269.988 17.2591C269.89 17.0815 269.844 16.8707 269.848 16.6266C269.855 16.1905 270.039 15.8502 270.398 15.6058C270.757 15.3581 271.246 15.2397 271.864 15.2505C272.44 15.2605 273.001 15.3875 273.547 15.6315L273.248 16.2855C272.715 16.0548 272.23 15.9357 271.794 15.9281C271.41 15.9214 271.119 15.9765 270.922 16.0935C270.724 16.2105 270.624 16.3748 270.62 16.5864C270.618 16.7296 270.651 16.8523 270.721 16.9544C270.794 17.0566 270.911 17.1547 271.073 17.2487C271.234 17.3427 271.544 17.4799 272.003 17.6605C272.634 17.9027 273.058 18.1428 273.275 18.381C273.495 18.6193 273.602 18.9158 273.596 19.2706Z" fill="black" fill-opacity="0.85"/>
<path d="M395.09 17.8504L394.163 14.6941C394.105 14.501 393.997 14.0629 393.839 13.3797L393.8 13.379C393.66 13.9463 393.539 14.3837 393.436 14.6912L392.37 17.8029L391.433 17.7866L390.067 12.4104L390.916 12.4252C391.238 13.7754 391.482 14.8036 391.649 15.5097C391.819 16.2159 391.914 16.6913 391.936 16.9359L391.975 16.9365C392.014 16.7516 392.076 16.5134 392.159 16.2219C392.245 15.9271 392.319 15.694 392.381 15.5225L393.416 12.4688L394.295 12.4841L395.198 15.5717C395.37 16.1347 395.486 16.6071 395.544 16.9891L395.583 16.9897C395.598 16.8728 395.636 16.6928 395.695 16.4496C395.758 16.2065 396.121 14.8992 396.784 12.5276L397.624 12.5423L396.052 17.8672L395.09 17.8504ZM401.038 12.5042C401.276 12.5083 401.489 12.5316 401.677 12.5739L401.552 13.3238C401.331 13.2711 401.136 13.2433 400.967 13.2404C400.534 13.2328 400.16 13.4021 399.845 13.7482C399.533 14.0944 399.372 14.5295 399.363 15.0535L399.313 17.9241L398.502 17.91L398.596 12.5592L399.265 12.5709L399.34 13.5636L399.379 13.5643C399.584 13.2195 399.828 12.9551 400.111 12.7712C400.394 12.5874 400.703 12.4983 401.038 12.5042ZM403.394 17.9954L402.584 17.9812L402.677 12.6305L403.488 12.6446L403.394 17.9954ZM402.634 11.1793C402.637 10.9938 402.685 10.8595 402.778 10.7765C402.871 10.6902 402.985 10.6482 403.122 10.6506C403.252 10.6529 403.364 10.6988 403.456 10.7883C403.549 10.8778 403.594 11.0137 403.591 11.196C403.588 11.3783 403.538 11.5141 403.442 11.6036C403.346 11.6899 403.233 11.7318 403.103 11.7296C402.966 11.7272 402.853 11.6812 402.764 11.5918C402.674 11.4991 402.631 11.3616 402.634 11.1793ZM406.851 17.4843C406.994 17.4868 407.133 17.4795 407.266 17.4623C407.4 17.4418 407.506 17.4209 407.585 17.3995L407.574 18.0195C407.485 18.0603 407.355 18.0922 407.182 18.1152C407.012 18.1415 406.859 18.1535 406.722 18.1511C405.687 18.1331 405.179 17.5789 405.198 16.4885L405.254 13.3054L404.487 13.292L404.494 12.9015L405.266 12.578L405.628 11.4416L406.097 11.4497L406.075 12.6898L407.628 12.7169L407.617 13.3467L406.064 13.3196L406.009 16.4685C406.003 16.7907 406.076 17.0394 406.226 17.2146C406.376 17.3897 406.584 17.4797 406.851 17.4843ZM410.906 18.2241C410.115 18.2103 409.494 17.9586 409.044 17.4689C408.597 16.9792 408.38 16.3064 408.395 15.4504C408.41 14.5879 408.634 13.9065 409.066 13.4061C409.501 12.9059 410.077 12.662 410.793 12.6745C411.463 12.6862 411.99 12.9167 412.373 13.3662C412.756 13.8124 412.941 14.3968 412.928 15.1193L412.919 15.6319L409.233 15.5676C409.239 16.196 409.388 16.6756 409.682 17.0063C409.979 17.3371 410.401 17.5072 410.948 17.5168C411.524 17.5268 412.095 17.4163 412.663 17.1853L412.65 17.9079C412.361 18.0265 412.088 18.1097 411.83 18.1573C411.575 18.2082 411.267 18.2305 410.906 18.2241ZM410.771 13.3529C410.342 13.3454 409.996 13.4794 409.734 13.7548C409.475 14.0302 409.319 14.4149 409.264 14.9089L412.062 14.9577C412.071 14.4467 411.964 14.0541 411.74 13.78C411.517 13.5027 411.194 13.3603 410.771 13.3529ZM417.739 16.7856C417.73 17.2835 417.538 17.6644 417.162 17.928C416.786 18.1917 416.263 18.3177 415.593 18.306C414.883 18.2936 414.332 18.1716 413.939 17.9401L413.952 17.1883C414.207 17.323 414.48 17.4303 414.772 17.5103C415.066 17.5903 415.351 17.6327 415.624 17.6375C416.047 17.6448 416.374 17.5838 416.604 17.4543C416.834 17.3216 416.952 17.1169 416.956 16.8403C416.96 16.632 416.872 16.453 416.692 16.3034C416.516 16.1505 416.167 15.9686 415.647 15.7577C415.152 15.5635 414.8 15.3962 414.591 15.2558C414.385 15.1122 414.232 14.9516 414.131 14.774C414.033 14.5965 413.986 14.3857 413.99 14.1416C413.998 13.7055 414.181 13.3652 414.54 13.1208C414.9 12.8731 415.388 12.7547 416.007 12.7655C416.583 12.7755 417.144 12.9025 417.69 13.1465L417.39 13.8005C416.857 13.5698 416.373 13.4507 415.936 13.4431C415.552 13.4363 415.262 13.4915 415.064 13.6085C414.867 13.7255 414.766 13.8898 414.763 14.1014C414.76 14.2446 414.794 14.3673 414.864 14.4694C414.937 14.5716 415.054 14.6697 415.215 14.7637C415.376 14.8576 415.686 14.9949 416.145 15.1755C416.776 15.4176 417.2 15.6578 417.417 15.896C417.638 16.1343 417.745 16.4308 417.739 16.7856Z" fill="black" fill-opacity="0.85"/>
<path d="M393.615 53.3809C393.853 53.385 394.065 53.4083 394.253 53.4506L394.128 54.2005C393.908 54.1478 393.713 54.12 393.543 54.1171C393.111 54.1095 392.736 54.2788 392.421 54.6249C392.109 54.9711 391.948 55.4061 391.939 55.9302L391.889 58.8008L391.079 58.7867L391.172 53.4359L391.841 53.4476L391.916 54.4403L391.956 54.441C392.16 54.0962 392.404 53.8318 392.687 53.6479C392.97 53.464 393.28 53.375 393.615 53.3809ZM397.419 58.995C396.628 58.9812 396.007 58.7294 395.557 58.2397C395.11 57.7501 394.893 57.0773 394.908 56.2213C394.923 55.3588 395.147 54.6773 395.579 54.177C396.014 53.6767 396.59 53.4328 397.306 53.4453C397.976 53.457 398.503 53.6876 398.886 54.137C399.269 54.5833 399.454 55.1676 399.441 55.8902L399.432 56.4028L395.746 56.3385C395.752 56.9669 395.901 57.4465 396.195 57.7772C396.492 58.1079 396.914 58.2781 397.461 58.2876C398.037 58.2977 398.608 58.1872 399.176 57.9562L399.163 58.6787C398.874 58.7974 398.601 58.8805 398.343 58.9281C398.088 58.979 397.78 59.0013 397.419 58.995ZM397.284 54.1237C396.855 54.1162 396.509 54.2502 396.247 54.5256C395.988 54.8011 395.831 55.1858 395.777 55.6797L398.575 55.7285C398.584 55.2176 398.477 54.825 398.253 54.5509C398.03 54.2735 397.707 54.1311 397.284 54.1237ZM404.065 59.0133L403.917 58.2489L403.878 58.2482C403.605 58.5788 403.335 58.802 403.066 58.9178C402.8 59.0303 402.469 59.0831 402.071 59.0762C401.541 59.067 401.127 58.923 400.829 58.6443C400.534 58.3657 400.391 57.9741 400.4 57.4696C400.419 56.3891 401.293 55.8378 403.022 55.8159L403.931 55.8025L403.936 55.4705C403.944 55.0507 403.858 54.7399 403.679 54.5382C403.504 54.3332 403.217 54.2273 402.82 54.2204C402.375 54.2126 401.868 54.3405 401.3 54.6041L401.062 53.9797C401.328 53.8411 401.618 53.7338 401.932 53.6579C402.249 53.5821 402.565 53.5469 402.881 53.5524C403.519 53.5635 403.988 53.7133 404.289 54.0018C404.594 54.2904 404.74 54.7471 404.729 55.372L404.666 59.0238L404.065 59.0133ZM402.244 58.4102C402.749 58.419 403.147 58.2876 403.438 58.0159C403.732 57.7443 403.884 57.3595 403.893 56.8616L403.901 56.3782L403.09 56.3983C402.445 56.4098 401.978 56.5026 401.689 56.6766C401.402 56.8474 401.256 57.1199 401.249 57.4942C401.244 57.7872 401.328 58.0116 401.501 58.1677C401.678 58.3238 401.925 58.4046 402.244 58.4102ZM409.995 58.399L409.951 58.3982C409.567 58.9352 409.002 59.1972 408.257 59.1842C407.557 59.172 407.016 58.9232 406.634 58.438C406.255 57.9528 406.073 57.2692 406.089 56.3871C406.104 55.5051 406.311 54.8234 406.71 54.342C407.11 53.8606 407.657 53.626 408.354 53.6382C409.08 53.6508 409.632 53.9242 410.01 54.4582L410.073 54.4593L410.046 54.073L410.033 53.6968L410.071 51.5194L410.881 51.5335L410.749 59.13L410.09 59.1185L409.995 58.399ZM408.371 58.5074C408.925 58.517 409.328 58.3743 409.58 58.0792C409.836 57.7809 409.97 57.2965 409.982 56.626L409.985 56.4551C409.998 55.6968 409.88 55.1543 409.632 54.8276C409.387 54.4978 408.988 54.328 408.435 54.3184C407.96 54.3101 407.592 54.4892 407.331 54.8558C407.074 55.2193 406.94 55.7378 406.928 56.4115C406.916 57.095 407.033 57.6131 407.277 57.9657C407.522 58.3184 407.886 58.4989 408.371 58.5074ZM415.949 57.7606C415.94 58.2586 415.748 58.6394 415.372 58.903C414.997 59.1667 414.474 59.2927 413.803 59.281C413.094 59.2686 412.542 59.1467 412.149 58.9152L412.162 58.1633C412.417 58.298 412.69 58.4053 412.982 58.4853C413.277 58.5653 413.561 58.6077 413.834 58.6125C414.257 58.6199 414.584 58.5588 414.814 58.4294C415.044 58.2966 415.162 58.092 415.167 57.8153C415.17 57.607 415.082 57.428 414.903 57.2784C414.726 57.1255 414.378 56.9437 413.857 56.7327C413.363 56.5385 413.011 56.3712 412.801 56.2308C412.596 56.0872 412.442 55.9266 412.341 55.7491C412.243 55.5716 412.196 55.3608 412.201 55.1166C412.208 54.6805 412.392 54.3402 412.751 54.0958C413.11 53.8481 413.599 53.7297 414.217 53.7405C414.793 53.7506 415.354 53.8776 415.9 54.1215L415.601 54.7755C415.068 54.5448 414.583 54.4257 414.147 54.4181C413.763 54.4114 413.472 54.4665 413.275 54.5836C413.077 54.7006 412.977 54.8649 412.973 55.0764C412.971 55.2196 413.004 55.3423 413.074 55.4444C413.147 55.5466 413.264 55.6447 413.425 55.7387C413.587 55.8327 413.897 55.9699 414.356 56.1505C414.987 56.3927 415.41 56.6329 415.628 56.8711C415.848 57.1093 415.955 57.4058 415.949 57.7606Z" fill="black" fill-opacity="0.85"/>
<path d="M257.239 56.5481C256.464 56.5346 255.868 56.2865 255.45 55.8039C255.035 55.3181 254.835 54.639 254.851 53.7668C254.866 52.8717 255.093 52.1839 255.531 51.7032C255.973 51.2225 256.592 50.9891 257.39 51.0031C257.647 51.0075 257.903 51.0397 258.159 51.0995C258.416 51.1593 258.616 51.2279 258.761 51.3054L258.5 51.9894C258.323 51.9147 258.128 51.8527 257.918 51.8034C257.707 51.7509 257.52 51.7232 257.358 51.7204C256.27 51.7014 255.715 52.3852 255.691 53.7717C255.679 54.4291 255.802 54.9359 256.06 55.292C256.32 55.6482 256.711 55.8308 257.232 55.8399C257.678 55.8477 258.137 55.7597 258.609 55.5758L258.596 56.2935C258.235 56.4727 257.783 56.5576 257.239 56.5481ZM263.158 56.5538L263.01 55.7894L262.971 55.7887C262.698 56.1193 262.427 56.3424 262.158 56.4582C261.893 56.5708 261.561 56.6236 261.164 56.6167C260.634 56.6074 260.22 56.4634 259.922 56.1847C259.627 55.9061 259.484 55.5146 259.493 55.0101C259.512 53.9295 260.386 53.3783 262.115 53.3564L263.023 53.3429L263.029 53.011C263.037 52.5911 262.951 52.2803 262.772 52.0786C262.597 51.8737 262.31 51.7678 261.913 51.7608C261.467 51.753 260.96 51.8809 260.393 52.1445L260.154 51.5201C260.421 51.3815 260.711 51.2743 261.024 51.1984C261.342 51.1225 261.658 51.0873 261.974 51.0928C262.612 51.104 263.081 51.2538 263.382 51.5423C263.686 51.8308 263.833 52.2876 263.822 52.9125L263.758 56.5643L263.158 56.5538ZM261.337 55.9506C261.842 55.9594 262.239 55.828 262.531 55.5564C262.825 55.2848 262.977 54.9 262.985 54.402L262.994 53.9187L262.183 53.9387C261.538 53.9502 261.071 54.043 260.781 54.217C260.495 54.3878 260.349 54.6604 260.342 55.0347C260.337 55.3276 260.421 55.5521 260.594 55.7081C260.77 55.8642 261.018 55.9451 261.337 55.9506ZM266.243 56.6076L265.433 56.5935L265.565 48.997L266.376 49.0111L266.243 56.6076ZM268.772 56.6518L267.962 56.6376L268.094 49.0411L268.905 49.0553L268.772 56.6518ZM273.968 55.2823C273.959 55.7803 273.767 56.1611 273.391 56.4247C273.015 56.6884 272.492 56.8144 271.822 56.8027C271.112 56.7903 270.561 56.6684 270.168 56.4369L270.181 55.685C270.436 55.8197 270.709 55.927 271.001 56.007C271.295 56.087 271.58 56.1294 271.853 56.1342C272.276 56.1416 272.603 56.0805 272.833 55.9511C273.063 55.8183 273.181 55.6137 273.185 55.337C273.189 55.1287 273.101 54.9497 272.921 54.8001C272.745 54.6472 272.397 54.4654 271.876 54.2544C271.381 54.0602 271.029 53.8929 270.82 53.7525C270.614 53.6089 270.461 53.4483 270.36 53.2708C270.262 53.0933 270.215 52.8824 270.219 52.6383C270.227 52.2022 270.41 51.8619 270.77 51.6175C271.129 51.3698 271.618 51.2514 272.236 51.2622C272.812 51.2723 273.373 51.3993 273.919 51.6432L273.619 52.2972C273.086 52.0665 272.602 51.9474 272.166 51.9398C271.781 51.9331 271.491 51.9882 271.293 52.1052C271.096 52.2223 270.995 52.3866 270.992 52.5981C270.989 52.7413 271.023 52.864 271.093 52.9661C271.166 53.0683 271.283 53.1664 271.444 53.2604C271.605 53.3544 271.915 53.4916 272.375 53.6722C273.005 53.9144 273.429 54.1546 273.646 54.3928C273.867 54.631 273.974 54.9275 273.968 55.2823Z" fill="black" fill-opacity="0.85"/>
<path d="M3.22711 17.4198C3.22418 17.5877 3.14684 17.7404 2.99508 17.8778C2.84349 18.0058 2.67904 18.0683 2.50174 18.0652C2.33376 18.0623 2.21907 17.9482 2.15766 17.7231C2.15116 16.4908 2.15858 15.2634 2.17992 14.041L2.1995 10.5128C2.21188 9.80354 2.53297 9.32374 3.16277 9.07336C3.67076 8.84886 4.27004 8.74264 4.9606 8.75469C5.31522 8.76088 5.69161 8.85613 6.08979 9.04044C6.49746 9.21558 6.85701 9.4739 7.16843 9.81538C7.48934 10.1477 7.64638 10.5098 7.63954 10.9018C7.63286 11.2844 7.44831 11.6966 7.08588 12.1383C6.72361 12.5707 6.27817 12.955 5.74955 13.2911C5.2211 13.618 4.70811 13.8611 4.21059 14.0204C5.06787 14.6421 5.81235 15.3086 6.44404 16.0197C7.07589 16.7215 7.38847 17.2637 7.38179 17.6463C7.37967 17.7676 7.31698 17.8832 7.19371 17.9931C7.07061 18.0936 6.9204 18.1423 6.74309 18.1392C6.57512 18.1363 6.43178 18.0591 6.31307 17.9077C6.1164 17.4095 5.7335 16.8848 5.16437 16.3334C4.60473 15.7729 3.94662 15.2386 3.19004 14.7307L3.22711 17.4198ZM3.24442 13.2194C3.87015 13.2023 4.5746 12.9533 5.35778 12.4722C6.1503 11.9913 6.54998 11.5549 6.55682 11.1629C6.56382 10.7616 6.37323 10.4503 5.98503 10.2288C5.59684 10.0073 5.13212 9.89186 4.59087 9.88241C4.05895 9.87312 3.6332 9.93104 3.31364 10.0561C3.296 10.5319 3.27293 11.5863 3.24442 13.2194ZM10.5681 11.667C11.0626 11.6756 11.5314 11.8285 11.9743 12.1256C12.4171 12.4227 12.6348 12.7859 12.6273 13.2152C12.62 13.6351 12.4309 14.0425 12.0599 14.4375C11.6891 14.823 11.1997 15.0525 10.5917 15.1259C10.3297 15.1587 9.93748 15.1705 9.41489 15.1614C9.5037 15.9564 9.69521 16.4825 9.98943 16.7397C10.081 16.844 10.206 16.8975 10.3647 16.9002C10.9433 16.9103 11.4317 16.7368 11.83 16.3797C12.2285 16.0133 12.5117 15.8316 12.6796 15.8345C12.7543 15.8358 12.8651 15.9077 13.0119 16.0503C13.1588 16.1929 13.2312 16.3249 13.2291 16.4462C13.2248 16.6888 12.9248 17.0336 12.3289 17.4806C12.0638 17.6907 11.7434 17.8671 11.3675 18.0099C11.0011 18.1435 10.6593 18.2076 10.342 18.202C9.53009 18.1879 8.94197 17.6549 8.5776 16.603C8.34621 15.9549 8.23728 15.2435 8.2508 14.469C8.26432 13.6944 8.45794 13.0304 8.83165 12.4768C9.20537 11.9233 9.78417 11.6533 10.5681 11.667ZM10.6212 12.6341C10.2666 12.6279 9.95978 12.8232 9.70082 13.2201C9.60505 13.3584 9.51086 13.6742 9.41824 14.1673C10.7247 14.1901 11.3836 13.8796 11.3948 13.2357C11.4016 12.8437 11.1438 12.6432 10.6212 12.6341ZM18.036 11.7413C18.4466 11.7485 18.6458 12.102 18.6336 12.8019C18.6323 12.8766 18.6309 12.9559 18.6294 13.0399L18.5843 14.0193C18.5696 14.327 18.5597 14.6303 18.5545 14.9289L18.7092 18.0961C18.7051 18.3294 18.4651 18.4419 17.9892 18.4335C17.9612 18.4331 17.8912 18.4318 17.7792 18.4299C17.6766 18.4281 17.6027 18.3848 17.5575 18.3C17.5216 18.2154 17.5187 18.1126 17.5489 17.9918C17.5883 17.8711 17.5813 17.7357 17.5279 17.5854C17.0907 18.0351 16.5175 18.2538 15.8082 18.2415C14.4924 18.2185 13.8523 17.1898 13.8878 15.1555C13.9075 14.0263 14.1324 13.1761 14.5624 12.6049C15.0018 12.0338 15.6181 11.7551 16.4113 11.769C16.7846 11.7755 17.1567 11.8473 17.5277 11.9845C17.6519 11.8187 17.8214 11.7376 18.036 11.7413ZM16.558 12.9897C16.0261 12.9805 15.6268 13.1275 15.3601 13.4309C15.0935 13.7343 14.953 14.2966 14.9386 15.1178C14.9145 16.4989 15.2757 17.196 16.0223 17.209C16.2183 17.2125 16.4344 17.1275 16.6708 16.9543C16.9166 16.7812 17.088 16.5835 17.1853 16.3612C17.3714 15.8604 17.4696 15.3113 17.4801 14.7141C17.4905 14.1168 17.4234 13.6816 17.2788 13.4084C17.1436 13.1353 16.9033 12.9958 16.558 12.9897ZM19.3593 15.0269C19.3702 14.4017 19.5435 13.8353 19.879 13.3277C20.2239 12.8204 20.6552 12.4452 21.1729 12.2022C21.6907 11.9498 22.1922 11.8279 22.6775 11.8364C23.1627 11.8448 23.549 11.9122 23.8361 12.0386C24.1328 12.1558 24.2794 12.3124 24.276 12.5084C24.2727 12.695 24.2134 12.8853 24.098 13.0793C23.9921 13.2642 23.8505 13.3551 23.6732 13.352C23.6079 13.3508 23.4268 13.2963 23.13 13.1885C22.8426 13.0714 22.657 13.0122 22.573 13.0107C22.0317 13.0013 21.5663 13.1938 21.1767 13.5884C20.7872 13.9737 20.5868 14.4929 20.5754 15.1462C20.564 15.7994 20.6581 16.2911 20.8577 16.6213C21.0668 16.9424 21.428 17.1074 21.9412 17.1163C22.1465 17.1199 22.4985 17.0094 22.9972 16.7847C23.5053 16.5509 23.8201 16.435 23.9414 16.4371C24.0627 16.4392 24.16 16.4783 24.2334 16.5542C24.3067 16.6302 24.3424 16.7242 24.3405 16.8361C24.3366 17.0601 24.1878 17.2956 23.8941 17.5425C23.6099 17.7802 23.2564 17.9794 22.8335 18.14C22.4108 18.2914 22.0315 18.3641 21.6955 18.3582C20.949 18.3452 20.3662 18.041 19.9472 17.4456C19.5375 16.8503 19.3415 16.0441 19.3593 15.0269ZM26.5019 13.8914L26.5563 17.1969C26.5491 17.6075 26.5263 17.8451 26.4878 17.9098C26.4662 18.0774 26.4079 18.2071 26.313 18.2988C26.2274 18.3906 26.0586 18.4344 25.8066 18.43C25.6853 18.4279 25.5886 18.3515 25.5166 18.2009C25.4447 18.0409 25.4058 17.8629 25.3999 17.6668C25.3632 16.0232 25.3015 14.4819 25.2146 13.0428C25.1372 11.5946 25.1093 10.2499 25.1309 9.00875C25.1344 8.81278 25.2024 8.65994 25.335 8.55024C25.4676 8.44054 25.6225 8.38723 25.7998 8.39033C26.0611 8.39489 26.2112 8.62154 26.25 9.07029C26.2982 9.5192 26.3211 10.0797 26.3187 10.7517C26.3256 11.424 26.3358 11.9142 26.349 12.2225C26.8199 11.988 27.2886 11.8748 27.7552 11.883C28.8377 11.9019 29.5153 12.3898 29.7879 13.3467C29.9465 13.8909 30.0183 14.5876 30.0035 15.4368C29.9986 15.7167 29.9629 16.1595 29.8963 16.7651C29.8392 17.3615 29.8045 17.7483 29.792 17.9255C29.7796 18.1026 29.6978 18.2412 29.5467 18.3412C29.4051 18.4321 29.2503 18.4761 29.0824 18.4732C28.8211 18.4686 28.6929 18.3263 28.6978 18.0464L28.8383 15.6125C28.8418 15.4072 28.8385 15.0664 28.8281 14.5901C28.8177 14.1139 28.7264 13.7342 28.5539 13.4512C28.3908 13.1683 28.0947 13.0231 27.6654 13.0156C26.9002 13.0022 26.5124 13.2942 26.5019 13.8914ZM34.8225 12.0344C35.2331 12.0415 35.4323 12.395 35.4201 13.0949C35.4188 13.1696 35.4174 13.2489 35.416 13.3329L35.3709 14.3123C35.3561 14.6201 35.3462 14.9233 35.341 15.2219L35.4957 18.3891C35.4916 18.6224 35.2516 18.7349 34.7757 18.7266C34.7477 18.7261 34.6777 18.7248 34.5658 18.7229C34.4631 18.7211 34.3892 18.6778 34.344 18.593C34.3081 18.5084 34.3053 18.4056 34.3354 18.2848C34.3748 18.1641 34.3678 18.0287 34.3145 17.8784C33.8772 18.3281 33.304 18.5468 32.5947 18.5345C31.2789 18.5115 30.6388 17.4828 30.6743 15.4485C30.694 14.3193 30.9189 13.4691 31.3489 12.8979C31.7883 12.3268 32.4046 12.0482 33.1978 12.062C33.5711 12.0685 33.9432 12.1404 34.3142 12.2775C34.4384 12.1117 34.6079 12.0306 34.8225 12.0344ZM33.3445 13.2827C32.8126 13.2735 32.4133 13.4205 32.1466 13.7239C31.88 14.0273 31.7395 14.5896 31.7251 15.4108C31.701 16.7919 32.0622 17.489 32.8088 17.502C33.0048 17.5055 33.2209 17.4206 33.4573 17.2473C33.7031 17.0742 33.8745 16.8765 33.9718 16.6542C34.1579 16.1534 34.2561 15.6043 34.2666 15.0071C34.277 14.4099 34.2099 13.9746 34.0653 13.7014C33.9301 13.4283 33.6898 13.2888 33.3445 13.2827ZM36.4778 9.1368C36.4843 8.76352 36.7208 8.58096 37.1874 8.5891C37.4021 8.59285 37.5258 8.72569 37.5585 8.98764L37.5219 11.0873C37.515 11.4793 37.5129 11.8713 37.5154 12.2634C37.703 12.2106 37.9414 12.1868 38.2307 12.1919C39.1359 12.2077 39.8305 12.5232 40.3145 13.1384C40.7985 13.7536 41.0325 14.5184 41.0166 15.433C41.0006 16.3475 40.6931 17.1169 40.0941 17.7412C39.5047 18.3564 38.7526 18.656 37.8381 18.64C36.9236 18.624 36.4708 18.3594 36.4798 17.8462C36.4889 17.3236 36.4839 16.0073 36.4647 13.8973C36.455 11.7781 36.4594 10.1913 36.4778 9.1368ZM39.2267 13.6935C38.8953 13.4263 38.5429 13.2895 38.1697 13.283C37.9644 13.2794 37.7537 13.313 37.5378 13.3839C37.5804 14.1501 37.5847 15.5084 37.5507 17.4588C37.7084 17.5176 37.8712 17.5484 38.0392 17.5513C38.4031 17.5577 38.7694 17.4287 39.1381 17.1644C39.6858 16.8006 39.9664 16.2361 39.9798 15.4709C39.9933 14.6963 39.7422 14.1039 39.2267 13.6935ZM43.1315 9.86903C43.2995 9.87197 43.4568 9.95406 43.6033 10.1153C43.7498 10.2766 43.8216 10.4458 43.8185 10.6231C43.8155 10.7911 43.7285 10.9623 43.5575 11.1367C43.3957 11.3112 43.2262 11.3969 43.0489 11.3938C42.8716 11.3907 42.7096 11.3132 42.5629 11.1613C42.4255 11.0096 42.3589 10.817 42.3629 10.5837C42.3708 10.1358 42.6176 9.8974 43.1035 9.86854C43.1129 9.86871 43.1222 9.86887 43.1315 9.86903ZM43.5914 17.2142L43.5883 18.1943C43.5852 18.3716 43.5126 18.5197 43.3705 18.6385C43.2286 18.7481 43.0783 18.8015 42.9197 18.7987C42.6864 18.7946 42.5671 18.6759 42.5618 18.4424C42.4925 15.4634 42.4606 13.8153 42.4661 13.498C42.4716 13.1807 42.4924 12.7937 42.5284 12.3369C42.55 12.1692 42.6587 12.0871 42.8547 12.0905C43.3493 12.0992 43.6258 12.3047 43.6841 12.7071C43.7085 12.9129 43.7196 13.0765 43.7175 13.1978L43.6461 14.0787L43.5914 17.2142ZM45.2997 9.69685C45.3339 9.34272 45.3939 9.11507 45.4797 9.01388C45.5749 8.90353 45.7206 8.85006 45.9165 8.85348C46.3178 8.86049 46.5156 9.0273 46.5099 9.35392C46.5055 9.60588 46.4707 10.2634 46.4055 11.3264C46.3496 12.3896 46.3143 13.3411 46.2996 14.181C46.285 15.0209 46.3058 15.698 46.3622 16.2124C46.4585 17.1102 46.6093 17.5609 46.8146 17.5645C47.02 17.5681 47.1765 17.4261 47.2842 17.1386C47.3328 17.0274 47.4091 16.9308 47.5132 16.8486C47.6175 16.757 47.749 16.7127 47.9076 16.7154C48.2342 16.7211 48.3928 16.9993 48.3831 17.5499C48.3779 17.8485 48.2094 18.1442 47.8776 18.4372C47.5552 18.7209 47.2354 18.86 46.9182 18.8545C46.6009 18.849 46.3451 18.7931 46.151 18.6871C45.9663 18.5718 45.8151 18.4058 45.6976 18.1891C45.5893 17.9725 45.4996 17.7656 45.4284 17.5683C45.3666 17.3618 45.3243 17.1137 45.3013 16.824C45.2535 16.3564 45.2245 15.6091 45.2145 14.5821C45.2139 13.5459 45.2217 12.5613 45.238 11.6281C45.2545 10.6855 45.275 10.0418 45.2997 9.69685ZM49.9801 9.98858C50.1481 9.99151 50.3053 10.0736 50.4519 10.2348C50.5984 10.3961 50.6701 10.5654 50.667 10.7427C50.6641 10.9107 50.5771 11.0818 50.406 11.2562C50.2443 11.4307 50.0748 11.5165 49.8975 11.5134C49.7202 11.5103 49.5582 11.4328 49.4115 11.2808C49.2741 11.1291 49.2074 10.9366 49.2115 10.7033C49.2193 10.2553 49.4662 10.0169 49.9521 9.98809C49.9614 9.98825 49.9708 9.98841 49.9801 9.98858ZM50.44 17.3337L50.4369 18.3138C50.4338 18.4911 50.3612 18.6392 50.2191 18.7581C50.0772 18.8676 49.9269 18.921 49.7682 18.9182C49.5349 18.9142 49.4156 18.7954 49.4104 18.5619C49.341 15.5829 49.3091 13.9348 49.3147 13.6175C49.3202 13.3002 49.341 12.9132 49.3769 12.4564C49.3985 12.2888 49.5073 12.2067 49.7033 12.2101C50.1979 12.2187 50.4743 12.4242 50.5327 12.8267C50.5571 13.0324 50.5682 13.196 50.5661 13.3173L50.4947 14.1982L50.44 17.3337ZM52.4963 12.3428L53.1959 12.3691C53.3545 12.3718 53.4433 12.3687 53.4621 12.3597L53.5122 9.49014C53.5243 9.33166 53.606 9.19774 53.7572 9.08836C53.9085 8.97898 54.0495 8.92543 54.1801 8.92771C54.3108 8.92999 54.4127 8.97378 54.4859 9.05907C54.5684 9.14452 54.6034 9.27582 54.591 9.45297C54.5786 9.63011 54.557 10.6005 54.5262 12.3643L56.1649 12.3369C56.4449 12.3418 56.582 12.5075 56.5763 12.8341C56.5721 13.0768 56.4942 13.2574 56.3428 13.3761C56.2007 13.495 56.0456 13.5576 55.8775 13.564C55.7187 13.5706 55.5599 13.5725 55.4013 13.5697L54.5477 13.5408C54.541 13.9234 54.5651 14.68 54.6201 15.8104C54.6843 16.9411 54.7369 17.6748 54.7777 18.0115C54.8186 18.339 54.8242 18.5538 54.7944 18.6559C54.7648 18.7487 54.7123 18.8132 54.637 18.8492C54.5147 18.9031 54.3509 18.9282 54.1456 18.9246C53.9403 18.9211 53.821 18.807 53.7876 18.5823C53.6223 17.3566 53.5256 15.6747 53.4976 13.5365C53.4134 13.5444 53.0914 13.5434 52.5315 13.5336C51.9716 13.5239 51.6945 13.3557 51.7002 13.0291C51.7083 12.5625 51.9737 12.3337 52.4963 12.3428ZM61.4222 12.5687C61.5435 12.5708 61.6594 12.6148 61.7699 12.7007C61.8898 12.7869 61.9488 12.8812 61.947 12.9839C61.9423 13.2545 61.5201 14.7127 60.6805 17.3584C59.8408 20.0042 59.2203 21.8603 58.819 22.9268C58.7306 23.1773 58.5978 23.301 58.4205 23.2979C58.2432 23.2948 58.1043 23.227 58.0039 23.0946C57.9034 22.9715 57.8553 22.7886 57.8595 22.546C57.8637 22.3034 58.0279 21.7228 58.352 20.8043C58.6852 19.8953 58.8867 19.3154 58.9564 19.0646C58.73 18.6686 57.9756 16.6951 56.6934 13.1442C56.6756 13.0972 56.6673 13.0364 56.6686 12.9618C56.6699 12.8871 56.7276 12.7901 56.8417 12.6707C56.9558 12.5514 57.1108 12.4934 57.3068 12.4968C57.5028 12.5002 57.6597 12.601 57.7776 12.7991C57.9024 13.1373 58.1068 13.729 58.3907 14.5741C58.6748 15.4098 58.893 16.0157 59.0451 16.3918C59.2065 16.768 59.3584 17.158 59.5007 17.5619C59.639 17.1256 59.8778 16.2803 60.2171 15.026C60.5565 13.7624 60.7511 13.0424 60.8009 12.8659C60.8418 12.6612 61.0489 12.5621 61.4222 12.5687ZM68.2292 19.1285L66.4242 19.0549C66.3284 18.6612 66.2985 16.8964 66.3346 13.7606L66.352 12.7667C66.3658 11.9735 66.451 11.3729 66.6074 10.9649C66.7641 10.5476 67.0826 10.2171 67.5629 9.97344C67.8076 9.85636 68.1446 9.80156 68.5739 9.80905C69.0125 9.81671 69.348 9.85057 69.5803 9.91063C70.2032 10.0522 70.6236 10.3022 70.8414 10.6608C71.0685 11.0194 71.1768 11.4974 71.1664 12.0946C71.1519 12.9252 70.9219 13.5326 70.4765 13.9169C70.7 13.9488 70.922 14.0647 71.1425 14.2646C71.3631 14.4644 71.5416 14.6683 71.6779 14.876C71.9141 15.2535 72.0265 15.7642 72.0153 16.4081C71.9977 17.416 71.6772 18.1291 71.0538 18.5477C70.4399 18.957 69.4983 19.1506 68.2292 19.1285ZM67.4803 12.2963L67.4805 13.8926C67.4991 13.8929 67.6581 13.877 67.9574 13.8449C68.2568 13.8035 68.5096 13.7612 68.7157 13.7181C69.6621 13.5106 70.1428 12.9823 70.1576 12.133C70.1649 11.7131 70.0443 11.403 69.7958 11.2026C69.5566 11.0024 69.2363 10.8988 68.8351 10.8918C68.3311 10.883 67.989 10.9657 67.8086 11.1399C67.7326 11.2133 67.6708 11.2775 67.6232 11.3327C67.5757 11.3785 67.5417 11.4573 67.521 11.5689C67.5004 11.6806 67.485 11.7597 67.4749 11.8062C67.4741 11.8528 67.4725 11.9415 67.4702 12.0721C67.4773 12.2029 67.4807 12.2777 67.4803 12.2963ZM70.5778 15.3329C70.4863 15.2286 70.3433 15.1327 70.1488 15.0453C69.9543 14.9579 69.6704 14.911 69.2971 14.9045C68.9331 14.8981 68.3068 14.9478 67.4182 15.0537C67.3928 16.5095 67.3989 17.4944 67.4366 18.0085C68.5285 18.0275 69.2949 17.9709 69.736 17.8386C70.1772 17.6969 70.4742 17.5247 70.6271 17.322C70.7895 17.1102 70.8727 16.8876 70.8768 16.6543C70.881 16.4117 70.8793 16.2436 70.8716 16.1501C70.8734 16.0475 70.8477 15.9117 70.7947 15.7427C70.7511 15.5646 70.6788 15.428 70.5778 15.3329ZM73.1998 10.1838C73.234 9.82972 73.2939 9.60207 73.3797 9.50088C73.475 9.39053 73.6206 9.33706 73.8166 9.34048C74.2179 9.34749 74.4156 9.5143 74.4099 9.84091C74.4055 10.0929 74.3707 10.7504 74.3055 11.8134C74.2496 12.8766 74.2143 13.8281 74.1997 14.668C74.185 15.5079 74.2059 16.185 74.2622 16.6994C74.3586 17.5972 74.5094 18.0479 74.7147 18.0515C74.92 18.0551 75.0765 17.9131 75.1842 17.6256C75.2328 17.5144 75.3092 17.4178 75.4133 17.3356C75.5176 17.244 75.649 17.1997 75.8077 17.2024C76.1343 17.2081 76.2928 17.4863 76.2832 18.0369C76.278 18.3355 76.1095 18.6312 75.7776 18.9242C75.4553 19.2079 75.1355 19.347 74.8182 19.3415C74.5009 19.3359 74.2452 19.2801 74.051 19.1741C73.8663 19.0588 73.7152 18.8928 73.5976 18.6761C73.4894 18.4595 73.3997 18.2526 73.3284 18.0553C73.2667 17.8488 73.2243 17.6007 73.2014 17.311C73.1535 16.8434 73.1246 16.0961 73.1145 15.0691C73.1139 14.0329 73.1218 13.0483 73.1381 12.1151C73.1545 11.1725 73.1751 10.5288 73.1998 10.1838ZM79.3933 12.8263C80.0652 12.8381 80.6102 13.1696 81.0282 13.821C81.4556 14.4726 81.6614 15.251 81.6456 16.1562C81.6299 17.052 81.3926 17.8133 80.9336 18.4401C80.4839 19.067 79.8905 19.374 79.1533 19.3611C78.4254 19.3484 77.8431 19.0162 77.4064 18.3645C76.9699 17.7035 76.7585 16.9763 76.7724 16.1831C76.7901 15.1659 77.0096 14.3576 77.4308 13.7582C77.8806 13.122 78.5348 12.8114 79.3933 12.8263ZM79.2053 13.9712C78.8134 13.9644 78.4879 14.1641 78.2287 14.5703C77.9696 14.9765 77.8361 15.4082 77.8281 15.8655C77.8157 16.5747 77.9462 17.1184 78.2197 17.4966C78.4931 17.8747 78.8071 18.0669 79.1617 18.0731C79.7963 18.0842 80.2071 17.816 80.394 17.2685C80.4732 17.0085 80.5162 16.6825 80.5231 16.2906C80.5498 14.7602 80.1105 13.987 79.2053 13.9712ZM82.3087 16.1257C82.3196 15.5005 82.4929 14.9341 82.8284 14.4265C83.1733 13.9191 83.6046 13.5439 84.1223 13.3009C84.6401 13.0486 85.1416 12.9267 85.6269 12.9351C86.1121 12.9436 86.4984 13.011 86.7855 13.1374C87.0822 13.2546 87.2288 13.4112 87.2254 13.6071C87.2221 13.7938 87.1628 13.9841 87.0474 14.1781C86.9415 14.363 86.7999 14.4538 86.6226 14.4508C86.5573 14.4496 86.3762 14.3951 86.0794 14.2872C85.792 14.1702 85.6064 14.111 85.5224 14.1095C84.9811 14.1001 84.5157 14.2926 84.1261 14.6872C83.7366 15.0725 83.5362 15.5917 83.5248 16.245C83.5134 16.8982 83.6075 17.3899 83.8071 17.7201C84.0162 18.0411 84.3774 18.2061 84.8906 18.2151C85.0959 18.2187 85.4479 18.1081 85.9466 17.8835C86.4547 17.6496 86.7695 17.5338 86.8908 17.5359C87.0121 17.538 87.1094 17.5771 87.1828 17.653C87.2561 17.729 87.2918 17.8229 87.2899 17.9349C87.286 18.1589 87.1372 18.3943 86.8435 18.6412C86.5593 18.879 86.2058 19.0782 85.7829 19.2388C85.3602 19.3901 84.9809 19.4629 84.6449 19.457C83.8984 19.444 83.3156 19.1398 82.8966 18.5444C82.4869 17.9491 82.2909 17.1429 82.3087 16.1257ZM92.8826 18.9567C92.875 19.3953 92.6705 19.6111 92.2692 19.6041C92.1013 19.6012 91.8798 19.1866 91.6048 18.3603C91.3301 17.5247 90.9539 16.8787 90.4765 16.4223C90.4287 16.4868 90.2248 16.67 89.8648 16.9717C89.5143 17.2643 89.3058 17.4427 89.2394 17.5069L89.2149 18.9067C89.1938 19.0463 89.1686 19.1532 89.1393 19.2274C89.11 19.3016 89.0435 19.3704 88.9397 19.434C88.8452 19.4976 88.714 19.528 88.5461 19.5251C88.2941 19.5207 88.1708 19.3645 88.1762 19.0566C88.1913 18.1887 88.1775 16.8443 88.1346 15.0232C88.0918 13.1929 88.0831 11.5545 88.1083 10.108C88.1114 9.93072 88.1839 9.79196 88.3256 9.69175C88.4767 9.59171 88.6316 9.54307 88.7903 9.54584C89.0049 9.54959 89.1332 9.68718 89.1751 9.95862L89.1319 12.4362C89.1266 12.7349 89.1274 12.9589 89.1341 13.1084C89.1409 13.2579 89.1463 13.482 89.1504 13.7808C89.1583 14.397 89.1788 15.0928 89.212 15.8682C89.4862 15.6676 89.8371 15.3517 90.2647 14.9204C90.7018 14.48 91.0304 14.103 91.2506 13.7894C91.5958 13.2634 91.9084 13.0028 92.1884 13.0077C92.263 13.009 92.3373 13.0289 92.4113 13.0676C92.6054 13.183 92.7011 13.3153 92.6985 13.4646C92.6958 13.614 92.6271 13.8088 92.4922 14.0491C92.1462 14.6218 91.7497 15.1423 91.3028 15.6106C91.7146 16.0845 92.1229 16.7591 92.5277 17.6343C92.7698 18.1986 92.8882 18.6394 92.8826 18.9567Z" fill="black" fill-opacity="0.85"/>
</svg>
