<?xml version="1.0" encoding="UTF-8"?>

<!DOCTYPE svg PUBLIC "-//W3C//DTD SVG 1.1//EN" "http://www.w3.org/Graphics/SVG/1.1/DTD/svg11.dtd">

<svg xmlns="http://www.w3.org/2000/svg" version="1.1" viewBox="0 0 1024 1024" style="shape-rendering:geometricPrecision; text-rendering:geometricPrecision; image-rendering:optimizeQuality; fill-rule:evenodd; clip-rule:evenodd" xmlns:xlink="http://www.w3.org/1999/xlink">

<g><path style="opacity:0.643" d="M 498.5,63.5 C 536.19,60.2648 565.356,74.2648 586,105.5C 605.718,145.016 600.551,180.85 570.5,213C 564.024,219.076 556.69,223.909 548.5,227.5C 547.5,275.829 547.167,324.162 547.5,372.5C 573.033,378.598 595.033,390.931 613.5,409.5C 654.5,386 695.5,362.5 736.5,339C 736.483,300.336 753.15,271.669 786.5,253C 827.171,236.599 862.338,244.432 892,276.5C 913.981,308.019 916.315,341.019 899,375.5C 873.133,412.902 838.3,425.069 794.5,412C 787.391,409.28 780.725,405.78 774.5,401.5C 733.5,425 692.5,448.5 651.5,472C 650.941,472.725 650.608,473.558 650.5,474.5C 657.166,499.511 657.166,524.511 650.5,549.5C 691.47,573.99 732.804,597.99 774.5,621.5C 809.994,600.509 844.66,601.676 878.5,625C 905.73,649.023 915.563,678.856 908,714.5C 890.587,764.134 855.754,784.967 803.5,777C 772.08,767.717 751.247,747.551 741,716.5C 738.717,706.063 737.217,695.563 736.5,685C 695.585,661.293 654.751,637.46 614,613.5C 595.275,631.947 573.109,644.281 547.5,650.5C 547.167,698.838 547.5,747.171 548.5,795.5C 584.264,814.682 600.431,844.682 597,885.5C 589.289,926.211 565.122,950.711 524.5,959C 486.993,963.159 457.826,949.659 437,918.5C 424.019,893.38 422.019,867.38 431,840.5C 439.913,820.087 454.413,805.087 474.5,795.5C 475.5,747.171 475.833,698.838 475.5,650.5C 449.544,644.69 427.211,632.356 408.5,613.5C 367.5,637 326.5,660.5 285.5,684C 285.851,722.984 269.184,751.984 235.5,771C 201.187,785.42 169.521,781.087 140.5,758C 108.762,725.737 102.929,689.237 123,648.5C 148.176,611.882 182.343,599.382 225.5,611C 232.779,613.973 239.779,617.473 246.5,621.5C 287.962,597.866 329.296,574.033 370.5,550C 371.022,549.439 371.355,548.772 371.5,548C 368.113,536.073 366.78,523.906 367.5,511.5C 366.78,499.094 368.113,486.927 371.5,475C 371.355,474.228 371.022,473.561 370.5,473C 329.5,449.5 288.5,426 247.5,402.5C 212.012,423.447 177.345,422.28 143.5,399C 110.415,368.246 102.915,332.079 121,290.5C 145.456,251.036 180.289,237.202 225.5,249C 253.592,259.316 272.092,278.816 281,307.5C 283.283,317.937 284.783,328.437 285.5,339C 326.415,362.707 367.249,386.54 408,410.5C 426.608,390.945 449.108,378.279 475.5,372.5C 475.833,324.162 475.5,275.829 474.5,227.5C 437.887,208.284 421.721,177.951 426,136.5C 432.09,102.074 451.59,78.9074 484.5,67C 489.295,65.8011 493.962,64.6345 498.5,63.5 Z M 500.5,440.5 C 536.747,437.865 562.58,452.865 578,485.5C 589.078,521.264 579.578,550.098 549.5,572C 514.376,590.307 483.209,585.14 456,556.5C 438.433,532.134 435.766,506.134 448,478.5C 459.82,457.828 477.32,445.161 500.5,440.5 Z"/></g>

</svg>