<?xml version="1.0" encoding="UTF-8" standalone="no"?>
<svg
   viewBox="0 0 16 16"
   version="1.1"
   id="svg224"
   width="16"
   height="16"
   xmlns="http://www.w3.org/2000/svg"
   xmlns:svg="http://www.w3.org/2000/svg">
  <g
     id="Layer_1"
     focusable="false"
     transform="matrix(0.01593862,0,0,0.01593862,-0.16057344,-0.16057344)">
    <path
       d="m 709,383.19 h 130.5 v 64 H 709 v 128 h -64 v -128 H 514.5 v -64 H 645 v -128 h 64 z M 960,176 v 672 c 0,26.51 -21.49,48 -48,48 H 112 C 85.49,896 64,874.51 64,848 V 176 c 0,-26.51 21.49,-48 48,-48 h 800 c 26.51,0 48,21.49 48,48 z m -54,64 c 0,-26.51 -21.49,-48 -48,-48 H 496 c -26.51,0 -48,21.49 -48,48 v 350.38 c 0,26.51 21.49,48 48,48 h 362 c 26.51,0 48,-21.49 48,-48 z" />
  </g>
</svg>
