<svg width="24" height="24" viewBox="0 0 24 24" fill="none" xmlns="http://www.w3.org/2000/svg">
<rect width="24" height="24" rx="12" fill="#7B7D80"/>
<g clip-path="url(#clip0_497_4)">
<path d="M12 2C6.47768 2 2 6.47768 2 12C2 17.5223 6.47768 22 12 22C17.5223 22 22 17.5223 22 12C22 6.47768 17.5223 2 12 2ZM12 20.3036C7.41518 20.3036 3.69643 16.5848 3.69643 12C3.69643 7.41518 7.41518 3.69643 12 3.69643C16.5848 3.69643 20.3036 7.41518 20.3036 12C20.3036 16.5848 16.5848 20.3036 12 20.3036Z" fill="white"/>
<path d="M15.8997 14.8238L12.7167 12.5225V6.99791C12.7167 6.89969 12.6363 6.81934 12.5381 6.81934H11.4645C11.3662 6.81934 11.2859 6.89969 11.2859 6.99791V13.1452C11.2859 13.2033 11.3127 13.2568 11.3595 13.2903L15.0515 15.9823C15.1319 16.0403 15.2435 16.0225 15.3015 15.9443L15.9399 15.0738C15.9979 14.9912 15.9801 14.8796 15.8997 14.8238Z" fill="white"/>
</g>
<defs>
<clipPath id="clip0_497_4">
<rect width="20" height="20" fill="white" transform="translate(2 2)"/>
</clipPath>
</defs>
</svg>
