<?xml version="1.0" encoding="UTF-8"?>
<svg width="165px" height="29px" viewBox="0 0 165 29" version="1.1" xmlns="http://www.w3.org/2000/svg" xmlns:xlink="http://www.w3.org/1999/xlink">
    <title>App Mod Logo</title>
    <g id="Client-Screens" stroke="none" stroke-width="1" fill="none" fill-rule="evenodd">
        <g id="1.1-Login" transform="translate(-515.000000, -33.000000)" fill="#FFFFFE">
            <g id="Wordmark" transform="translate(515.000000, 33.000000)">
                <path d="M5.46685637,5.97181109 C4.87129839,3.985895 4.53603879,2.86148008 4.46048733,2.60162345 C4.38552611,2.34176681 4.33181375,2.13510436 4.29935023,1.9840818 C4.16595469,2.52152646 3.78229493,3.85076956 3.15014171,5.97181109 L5.46685637,5.97181109 Z M6.56176229,9.80179211 L5.9172139,7.60982501 L2.6755841,7.60982501 L2.03103571,9.80179211 L0,9.80179211 L3.13774654,0.553953194 L5.4426563,0.553953194 L8.592798,9.80179211 L6.56176229,9.80179211 L6.56176229,9.80179211 Z" id="Fill-174"></path>
                <path d="M12.7528502,4.16382037 C12.2942293,4.16382037 11.9601502,4.30934008 11.7494324,4.60221379 C11.5387147,4.89325322 11.428929,5.37505798 11.4206655,6.04762808 L11.4206655,6.25551339 C11.4206655,7.01123761 11.5292707,7.55296226 11.7458909,7.88068733 C11.9631014,8.2084124 12.3066244,8.37227493 12.7770503,8.37227493 C13.6081164,8.37227493 14.0236494,7.66179633 14.0236494,6.24267341 C14.0236494,5.54992621 13.9215369,5.03082437 13.7167216,4.6829222 C13.5119063,4.33746574 13.1908126,4.16382037 12.7528502,4.16382037 Z M13.3000081,9.92774615 C12.5014055,9.92774615 11.8745645,9.62753532 11.4206655,9.02711364 L11.3238652,9.02711364 C11.388202,9.61469534 11.4206655,9.95464896 11.4206655,10.0475859 L11.4206655,12.9017289 L9.56611329,12.9017289 L9.56611329,2.75876028 L11.0741912,2.75876028 L11.3356701,3.67223276 L11.4206655,3.67223276 C11.8550864,2.97520557 12.4972738,2.62669197 13.3484082,2.62669197 C14.1511425,2.62669197 14.7797542,2.94769133 15.2336532,3.59091292 C15.6875522,4.23352309 15.9147969,5.12559561 15.9147969,6.26774194 C15.9147969,7.01918617 15.8085526,7.67280202 15.5954739,8.22736665 C15.3829854,8.78131984 15.0795991,9.20320472 14.6864954,9.49363272 C14.2933917,9.78344929 13.8312293,9.92774615 13.3000081,9.92774615 L13.3000081,9.92774615 Z" id="Fill-175"></path>
                <path d="M20.6344021,4.16382037 C20.1757811,4.16382037 19.8411118,4.30934008 19.630394,4.60221379 C19.4196763,4.89325322 19.3104808,5.37505798 19.3022174,6.04762808 L19.3022174,6.25551339 C19.3022174,7.01123761 19.4108226,7.55296226 19.6274428,7.88068733 C19.8446532,8.2084124 20.1881763,8.37227493 20.6586022,8.37227493 C21.4896682,8.37227493 21.9052012,7.66179633 21.9052012,6.24267341 C21.9052012,5.54992621 21.8024985,5.03082437 21.5982734,4.6829222 C21.3934581,4.33746574 21.0717742,4.16382037 20.6344021,4.16382037 Z M21.1815599,9.92774615 C20.3823671,9.92774615 19.7561164,9.62753532 19.3022174,9.02711364 L19.2048268,9.02711364 C19.2697538,9.61469534 19.3022174,9.95464896 19.3022174,10.0475859 L19.3022174,12.9017289 L17.4476651,12.9017289 L17.4476651,2.75876028 L18.9557431,2.75876028 L19.217222,3.67223276 L19.3022174,3.67223276 C19.7366382,2.97520557 20.3788257,2.62669197 21.2299601,2.62669197 C22.0326943,2.62669197 22.6613061,2.94769133 23.1152051,3.59091292 C23.5691041,4.23352309 23.7963487,5.12559561 23.7963487,6.26774194 C23.7963487,7.01918617 23.6901045,7.67280202 23.4770257,8.22736665 C23.2645373,8.78131984 22.9611509,9.20320472 22.5680472,9.49363272 C22.1749435,9.78344929 21.7127811,9.92774615 21.1815599,9.92774615 L21.1815599,9.92774615 Z" id="Fill-176"></path>
                <polygon id="Fill-177" points="25.329217 9.80240354 27.1837692 9.80240354 27.1837692 0 25.329217 0"></polygon>
                <path d="M29.1298095,9.80179211 L30.984952,9.80179211 L30.984952,2.75876028 L29.1298095,2.75876028 L29.1298095,9.80179211 Z M29.0507166,0.938541008 C29.0507166,0.313050812 29.3877469,0 30.0600369,0 C30.7329171,0 31.0699474,0.313050812 31.0699474,0.938541008 C31.0699474,1.23630614 30.9855422,1.46864853 30.8173222,1.63373392 C30.6491022,1.80065359 30.3970672,1.88319629 30.0600369,1.88319629 C29.3877469,1.88319629 29.0507166,1.5683112 29.0507166,0.938541008 L29.0507166,0.938541008 Z" id="Fill-178"></path>
                <path d="M35.6915718,9.92774615 C33.5755407,9.92774615 32.51723,8.72506852 32.51723,6.31849041 C32.51723,5.12131562 32.80527,4.20662028 33.3807596,3.57440439 C33.9562492,2.94279992 34.7814128,2.62669197 35.8562504,2.62669197 C36.6424578,2.62669197 37.3478015,2.78627451 37.9722815,3.1054396 L37.4251237,4.59243095 C37.132952,4.4707569 36.8614389,4.37048282 36.6099942,4.29283154 C36.3585495,4.21518027 36.1071048,4.17666034 35.8562504,4.17666034 C34.8911985,4.17666034 34.4083775,4.88652751 34.4083775,6.30565043 C34.4083775,7.68380772 34.8911985,8.37227493 35.8562504,8.37227493 C36.2127588,8.37227493 36.5432965,8.32213789 36.847273,8.22369808 C37.1512496,8.12525828 37.4552262,7.97056715 37.7592028,7.76084756 L37.7592028,9.40497575 C37.4593579,9.60246679 37.1565618,9.7388151 36.8502243,9.81463209 C36.5438867,9.88983766 36.157866,9.92774615 35.6915718,9.92774615" id="Fill-179"></path>
                <path d="M43.1050588,6.53860426 L42.3873199,6.56367278 C41.8478353,6.58079275 41.4470584,6.68167826 41.1832185,6.86632933 C40.9193786,7.05098039 40.7877538,7.33223698 40.7877538,7.71071052 C40.7877538,8.25243517 41.0881889,8.52329749 41.6878786,8.52329749 C42.1175776,8.52329749 42.4611006,8.39550917 42.719038,8.13870968 C42.9763852,7.88252161 43.1050588,7.54256799 43.1050588,7.1182374 L43.1050588,6.53860426 Z M43.6522166,9.80179211 L43.2933472,8.84429686 L43.244947,8.84429686 C42.9321167,9.25211891 42.6116133,9.53398693 42.2810757,9.69234662 C41.950538,9.84887202 41.5196586,9.92774615 40.9884374,9.92774615 C40.3356256,9.92774615 39.8215215,9.7345351 39.4473057,9.34872444 C39.0719094,8.96230234 38.8842112,8.41140628 38.8842112,7.69787055 C38.8842112,6.95009488 39.1368364,6.39919882 39.6414965,6.04395952 C40.1461567,5.68933165 40.9075737,5.49306346 41.9251575,5.45515497 L43.1050588,5.41724647 L43.1050588,5.10908708 C43.1050588,4.39493991 42.7520918,4.03786633 42.0467481,4.03786633 C41.503722,4.03786633 40.8644858,4.20784314 40.1308103,4.54840818 L39.5169547,3.25034788 C40.2990303,2.82662872 41.1672819,2.61446342 42.1193483,2.61446342 C43.0318683,2.61446342 43.7313095,2.81990301 44.217672,3.23139363 C44.7040346,3.64288425 44.9472158,4.26898587 44.9472158,5.10908708 L44.9472158,9.80179211 L43.6522166,9.80179211 L43.6522166,9.80179211 Z" id="Fill-180"></path>
                <path d="M49.7217139,8.39734345 C50.0457588,8.39734345 50.435321,8.32336074 50.88922,8.17661817 L50.88922,9.60674678 C50.4270576,9.82074636 49.8592412,9.92774615 49.186361,9.92774615 C48.444422,9.92774615 47.9037569,9.73331225 47.5655461,9.34505587 C47.2273353,8.95679949 47.0579347,8.37349779 47.0579347,7.59698503 L47.0579347,4.20172886 L46.1702051,4.20172886 L46.1702051,3.38914189 L47.1919205,2.74653173 L47.7266832,1.25954038 L48.9124869,1.25954038 L48.9124869,2.75876028 L50.8160296,2.75876028 L50.8160296,4.20172886 L48.9124869,4.20172886 L48.9124869,7.59698503 C48.9124869,7.86968164 48.9862677,8.07145267 49.1344194,8.2016867 C49.282571,8.33253215 49.4779424,8.39734345 49.7217139,8.39734345" id="Fill-181"></path>
                <path d="M52.2633122,9.80179211 L54.1184547,9.80179211 L54.1184547,2.75876028 L52.2633122,2.75876028 L52.2633122,9.80179211 Z M52.1842193,0.938541008 C52.1842193,0.313050812 52.5212496,0 53.1941298,0 C53.86701,0 54.2034501,0.313050812 54.2034501,0.938541008 C54.2034501,1.23630614 54.1190449,1.46864853 53.9508249,1.63373392 C53.7831951,1.80065359 53.5305699,1.88319629 53.1941298,1.88319629 C52.5212496,1.88319629 52.1842193,1.5683112 52.1842193,0.938541008 L52.1842193,0.938541008 Z" id="Fill-182"></path>
                <path d="M57.5418802,6.26774194 C57.5418802,6.96538056 57.6522561,7.49181952 57.8735983,7.84889311 C58.0943502,8.20596669 58.4544002,8.38450348 58.9531578,8.38450348 C59.4477838,8.38450348 59.803702,8.20718954 60.0203222,7.85256167 C60.2369424,7.49732237 60.3455476,6.96904913 60.3455476,6.26774194 C60.3455476,5.57010331 60.2357619,5.04794434 60.017371,4.69943074 C59.7983898,4.35091714 59.4395204,4.17666034 58.9407627,4.17666034 C58.4461367,4.17666034 58.0896283,4.35030571 57.8706471,4.69576218 C57.6516659,5.04305292 57.5418802,5.56704617 57.5418802,6.26774194 Z M62.2431878,6.26774194 C62.2431878,7.41477968 61.9516064,8.31052077 61.3672631,8.95802235 C60.78351,9.6049125 59.9707416,9.92774615 58.9283675,9.92774615 C58.2761459,9.92774615 57.7000661,9.78039216 57.2018986,9.48323846 C56.7025507,9.18791904 56.3200714,8.76236559 56.0520998,8.2084124 C55.7847185,7.65384778 55.6507327,7.00695762 55.6507327,6.26774194 C55.6507327,5.11703563 55.9405434,4.22251739 56.5201647,3.58418722 C57.1003763,2.94646848 57.9155058,2.62669197 58.9649627,2.62669197 C59.6177746,2.62669197 60.1938545,2.77343454 60.6926121,3.0675311 C61.1913698,3.36223909 61.5744393,3.78412397 61.8418207,4.33379717 C62.109202,4.88347038 62.2431878,5.52913768 62.2431878,6.26774194 L62.2431878,6.26774194 Z" id="Fill-183"></path>
                <path d="M70.0515492,9.80179211 L68.1969969,9.80179211 L68.1969969,5.68810879 C68.1969969,5.18001265 68.1096406,4.7990934 67.9349278,4.54473962 C67.7608053,4.29099726 67.4833898,4.16382037 67.102091,4.16382037 C66.5826747,4.16382037 66.2084589,4.34296859 65.9770826,4.70248788 C65.7457062,5.06078431 65.6306083,5.656926 65.6306083,6.48846721 L65.6306083,9.80179211 L63.7754658,9.80179211 L63.7754658,2.75876028 L65.1926459,2.75876028 L65.4423199,3.66000422 L65.5450227,3.66000422 C65.7521989,3.31943917 66.0366974,3.06202825 66.3996985,2.88838288 C66.7626997,2.71412608 67.1752815,2.62669197 67.6368537,2.62669197 C68.427783,2.62669197 69.028063,2.84802867 69.4371033,3.29192494 C69.8473241,3.73459836 70.0515492,4.37353995 70.0515492,5.20936116 L70.0515492,9.80179211" id="Fill-184"></path>
                <path d="M79.1065096,9.80179211 L76.9662784,2.5759435 L76.9113856,2.5759435 C76.9881175,4.04581489 77.0270737,5.02715581 77.0270737,5.51813198 L77.0270737,9.80179211 L75.3425123,9.80179211 L75.3425123,0.591861691 L77.9089009,0.591861691 L80.0125369,7.63489353 L80.0497224,7.63489353 L82.2814416,0.591861691 L84.8478303,0.591861691 L84.8478303,9.80179211 L83.0900783,9.80179211 L83.0900783,5.44292642 C83.0900783,5.2368754 83.0930296,4.99964158 83.0995223,4.73061354 C83.1048345,4.46158549 83.132576,3.74804976 83.1809762,2.5893949 L83.1266736,2.5893949 L80.834159,9.80179211 L79.1065096,9.80179211" id="Fill-185"></path>
                <path d="M88.4170465,6.26774194 C88.4170465,6.96538056 88.5280127,7.49181952 88.7487646,7.84889311 C88.9701068,8.20596669 89.3295664,8.38450348 89.8283241,8.38450348 C90.3229501,8.38450348 90.6788683,8.20718954 90.8960787,7.85256167 C91.1126989,7.49732237 91.2207139,6.96904913 91.2207139,6.26774194 C91.2207139,5.57010331 91.1115184,5.04794434 90.8925373,4.69943074 C90.6735561,4.35091714 90.3146866,4.17666034 89.8165192,4.17666034 C89.321303,4.17666034 88.9647945,4.35030571 88.7458134,4.69576218 C88.5268322,5.04305292 88.4170465,5.56704617 88.4170465,6.26774194 Z M93.1183541,6.26774194 C93.1183541,7.41477968 92.8261824,8.31052077 92.2424293,8.95802235 C91.6592665,9.6049125 90.8464981,9.92774615 89.804124,9.92774615 C89.1513122,9.92774615 88.5758226,9.78039216 88.0764747,9.48323846 C87.5783072,9.18791904 87.1952377,8.76236559 86.9272661,8.2084124 C86.6598848,7.65384778 86.525899,7.00695762 86.525899,6.26774194 C86.525899,5.11703563 86.8162999,4.22251739 87.3959213,3.58418722 C87.9755426,2.94646848 88.790672,2.62669197 89.8407193,2.62669197 C90.4935311,2.62669197 91.0690207,2.77343454 91.5671882,3.0675311 C92.0659459,3.36223909 92.4496056,3.78412397 92.7169869,4.33379717 C92.9849585,4.88347038 93.1183541,5.52913768 93.1183541,6.26774194 L93.1183541,6.26774194 Z" id="Fill-186"></path>
                <path d="M97.4542995,8.39734345 C97.9288571,8.39734345 98.2765119,8.25426945 98.4978541,7.96873287 C98.718606,7.68380772 98.8390161,7.19833439 98.8590845,6.51353574 L98.8590845,6.30565043 C98.8590845,5.54992621 98.7463475,5.00820156 98.5220541,4.68047649 C98.2965803,4.35275142 97.9312181,4.18888889 97.4236068,4.18888889 C97.0104347,4.18888889 96.6887508,4.37048282 96.4597354,4.73367067 C96.2313103,5.09685853 96.1162124,5.62513177 96.1162124,6.31849041 C96.1162124,7.01123761 96.2324908,7.53033945 96.4626866,7.87763019 C96.694063,8.22369808 97.0246006,8.39734345 97.4542995,8.39734345 Z M96.8032584,9.92774615 C96.0046559,9.92774615 95.3772247,9.60674678 94.9215549,8.96413662 C94.4658852,8.32152646 94.2374601,7.43128821 94.2374601,6.29342188 C94.2374601,5.13843559 94.4688364,4.23841451 94.9333598,3.59397006 C95.3984735,2.94891419 96.0377097,2.62669197 96.8522488,2.62669197 C97.7081052,2.62669197 98.3603268,2.971537 98.8106843,3.66000422 L98.8708894,3.66000422 C98.7776306,3.13539954 98.7315914,2.66643475 98.7315914,2.25494413 L98.7315914,0 L100.592046,0 L100.592046,9.80179211 L99.1689635,9.80179211 L98.8106843,8.88831963 L98.7315914,8.88831963 C98.3095657,9.58106684 97.666788,9.92774615 96.8032584,9.92774615 L96.8032584,9.92774615 Z" id="Fill-187"></path>
                <path d="M105.348247,3.99384356 C104.955143,3.99384356 104.647035,4.12346616 104.423922,4.38087708 C104.200809,4.63951086 104.073316,5.00636728 104.040262,5.48022349 L106.643246,5.48022349 C106.635573,5.00636728 106.515753,4.63951086 106.284376,4.38087708 C106.053,4.12346616 105.74135,3.99384356 105.348247,3.99384356 Z M105.609135,9.92774615 C104.51482,9.92774615 103.659553,9.61469534 103.043337,8.98920514 C102.42712,8.36371495 102.118422,7.47775669 102.118422,6.33071895 C102.118422,5.15127556 102.404101,4.23841451 102.973688,3.59397006 C103.542685,2.94891419 104.330073,2.62669197 105.336442,2.62669197 C106.296181,2.62669197 107.044613,2.91039427 107.579966,3.47718743 C108.115319,4.0439806 108.3827,4.82721906 108.3827,5.8269028 L108.3827,6.75932954 L103.997764,6.75932954 C104.018423,7.30533418 104.174248,7.73149905 104.466419,8.03843559 C104.758001,8.34537213 105.167631,8.49822897 105.694721,8.49822897 C106.104351,8.49822897 106.491553,8.45359477 106.856325,8.36554923 C107.221096,8.27750369 107.601805,8.1368754 107.999631,7.94366435 L107.999631,9.43004428 C107.674995,9.59879823 107.328521,9.72291798 106.959618,9.80546068 C106.590714,9.88616909 106.140947,9.92774615 105.609135,9.92774615 L105.609135,9.92774615 Z" id="Fill-188"></path>
                <path d="M113.685468,2.62669197 C113.937503,2.62669197 114.14527,2.64564622 114.312309,2.68355471 L114.171831,4.48543116 C114.021908,4.44263125 113.840113,4.42184272 113.624673,4.42184272 C113.033247,4.42184272 112.571674,4.57959098 112.241727,4.89447607 C111.910599,5.20936116 111.745921,5.65081172 111.745921,6.21760489 L111.745921,9.80179211 L109.890778,9.80179211 L109.890778,2.75876028 L111.295563,2.75876028 L111.569437,3.94309509 L111.660335,3.94309509 C111.871053,3.54811301 112.156141,3.23078221 112.515011,2.9892684 C112.87388,2.74714316 113.264033,2.62669197 113.685468,2.62669197" id="Fill-189"></path>
                <path d="M121.822596,9.80179211 L119.968044,9.80179211 L119.968044,5.68810879 C119.968044,5.18001265 119.880098,4.7990934 119.705975,4.54473962 C119.531853,4.29099726 119.254437,4.16382037 118.873138,4.16382037 C118.353722,4.16382037 117.978916,4.34296859 117.74813,4.70248788 C117.516753,5.06078431 117.401656,5.656926 117.401656,6.48846721 L117.401656,9.80179211 L115.546513,9.80179211 L115.546513,2.75876028 L116.963693,2.75876028 L117.213367,3.66000422 L117.31607,3.66000422 C117.523246,3.31943917 117.807745,3.06202825 118.170746,2.88838288 C118.533157,2.71412608 118.945738,2.62669197 119.407901,2.62669197 C120.19883,2.62669197 120.79911,2.84802867 121.208151,3.29192494 C121.617781,3.73459836 121.822596,4.37353995 121.822596,5.20936116 L121.822596,9.80179211" id="Fill-190"></path>
                <path d="M123.732632,9.80179211 L125.586594,9.80179211 L125.586594,2.75876028 L123.732632,2.75876028 L123.732632,9.80179211 Z M123.652949,0.938541008 C123.652949,0.313050812 123.989389,0 124.662859,0 C125.335149,0 125.672179,0.313050812 125.672179,0.938541008 C125.672179,1.23630614 125.587774,1.46864853 125.419554,1.63373392 C125.251924,1.80065359 124.999299,1.88319629 124.662859,1.88319629 C123.989389,1.88319629 123.652949,1.5683112 123.652949,0.938541008 L123.652949,0.938541008 Z" id="Fill-191"></path>
                <polyline id="Fill-192" points="132.264634 9.80179211 126.894578 9.80179211 126.894578 8.66820578 130.04472 4.22679739 127.082867 4.22679739 127.082867 2.75876028 132.154849 2.75876028 132.154849 4.00607211 129.090293 8.33436643 132.264634 8.33436643 132.264634 9.80179211"></polyline>
                <path d="M137.379114,6.53860426 L136.661375,6.56367278 C136.122481,6.58079275 135.720523,6.68167826 135.457274,6.86632933 C135.193434,7.05098039 135.061809,7.33223698 135.061809,7.71071052 C135.061809,8.25243517 135.362244,8.52329749 135.961934,8.52329749 C136.391633,8.52329749 136.735156,8.39550917 136.992503,8.13870968 C137.25044,7.88252161 137.379114,7.54256799 137.379114,7.1182374 L137.379114,6.53860426 Z M137.925682,9.80179211 L137.567402,8.84429686 L137.518412,8.84429686 C137.206762,9.25211891 136.885669,9.53398693 136.554541,9.69234662 C136.224593,9.84887202 135.793714,9.92774615 135.262493,9.92774615 C134.609681,9.92774615 134.095577,9.7345351 133.720771,9.34872444 C133.345965,8.96230234 133.158267,8.41140628 133.158267,7.69787055 C133.158267,6.95009488 133.410892,6.39919882 133.914962,6.04395952 C134.420212,5.68933165 135.181039,5.49306346 136.199213,5.45515497 L137.379114,5.41724647 L137.379114,5.10908708 C137.379114,4.39493991 137.026147,4.03786633 136.320803,4.03786633 C135.777187,4.03786633 135.138541,4.20784314 134.405456,4.54840818 L133.79101,3.25034788 C134.573086,2.82662872 135.440747,2.61446342 136.393994,2.61446342 C137.305924,2.61446342 138.004775,2.81990301 138.491727,3.23139363 C138.97868,3.64288425 139.221861,4.26898587 139.221861,5.10908708 L139.221861,9.80179211 L137.925682,9.80179211 L137.925682,9.80179211 Z" id="Fill-193"></path>
                <path d="M143.995769,8.39734345 C144.319814,8.39734345 144.709376,8.32336074 145.163275,8.17661817 L145.163275,9.60674678 C144.701113,9.82074636 144.133296,9.92774615 143.460416,9.92774615 C142.719068,9.92774615 142.177812,9.73331225 141.839601,9.34505587 C141.501391,8.95679949 141.33199,8.37349779 141.33199,7.59698503 L141.33199,4.20172886 L140.44426,4.20172886 L140.44426,3.38914189 L141.465386,2.74653173 L142.001329,1.25954038 L143.186542,1.25954038 L143.186542,2.75876028 L145.090675,2.75876028 L145.090675,4.20172886 L143.186542,4.20172886 L143.186542,7.59698503 C143.186542,7.86968164 143.260323,8.07145267 143.408475,8.2016867 C143.556626,8.33253215 143.751998,8.39734345 143.995769,8.39734345" id="Fill-194"></path>
                <path d="M146.537958,9.80179211 L148.39251,9.80179211 L148.39251,2.75876028 L146.537958,2.75876028 L146.537958,9.80179211 Z M146.458275,0.938541008 C146.458275,0.313050812 146.795305,0 147.468185,0 C148.140475,0 148.477505,0.313050812 148.477505,0.938541008 C148.477505,1.23630614 148.39369,1.46864853 148.22547,1.63373392 C148.05725,1.80065359 147.804625,1.88319629 147.468185,1.88319629 C146.795305,1.88319629 146.458275,1.5683112 146.458275,0.938541008 L146.458275,0.938541008 Z" id="Fill-195"></path>
                <path d="M151.816526,6.26774194 C151.816526,6.96538056 151.926902,7.49181952 152.147654,7.84889311 C152.368996,8.20596669 152.728455,8.38450348 153.227213,8.38450348 C153.721839,8.38450348 154.078348,8.20718954 154.294377,7.85256167 C154.511588,7.49732237 154.620193,6.96904913 154.620193,6.26774194 C154.620193,5.57010331 154.510407,5.04794434 154.291426,4.69943074 C154.073035,4.35091714 153.713576,4.17666034 153.215408,4.17666034 C152.720192,4.17666034 152.363684,4.35030571 152.144702,4.69576218 C151.925721,5.04305292 151.816526,5.56704617 151.816526,6.26774194 Z M156.517243,6.26774194 C156.517243,7.41477968 156.225071,8.31052077 155.641909,8.95802235 C155.058156,9.6049125 154.244797,9.92774615 153.203013,9.92774615 C152.549611,9.92774615 151.974712,9.78039216 151.475364,9.48323846 C150.977196,9.18791904 150.594127,8.76236559 150.326155,8.2084124 C150.058774,7.65384778 149.924788,7.00695762 149.924788,6.26774194 C149.924788,5.11703563 150.214599,4.22251739 150.79481,3.58418722 C151.374432,2.94646848 152.188971,2.62669197 153.239608,2.62669197 C153.89183,2.62669197 154.46791,2.77343454 154.966667,3.0675311 C155.465425,3.36223909 155.848495,3.78412397 156.115876,4.33379717 C156.383848,4.88347038 156.517243,5.52913768 156.517243,6.26774194 L156.517243,6.26774194 Z" id="Fill-196"></path>
                <path d="M164.326195,9.80179211 L162.471052,9.80179211 L162.471052,5.68810879 C162.471052,5.18001265 162.383106,4.7990934 162.209573,4.54473962 C162.034861,4.29099726 161.756855,4.16382037 161.376737,4.16382037 C160.85673,4.16382037 160.482514,4.34296859 160.251728,4.70248788 C160.020352,5.06078431 159.904664,5.656926 159.904664,6.48846721 L159.904664,9.80179211 L158.049521,9.80179211 L158.049521,2.75876028 L159.467291,2.75876028 L159.715785,3.66000422 L159.819668,3.66000422 C160.026254,3.31943917 160.311343,3.06202825 160.673164,2.88838288 C161.036755,2.71412608 161.449337,2.62669197 161.911499,2.62669197 C162.702429,2.62669197 163.302118,2.84802867 163.711749,3.29192494 C164.120789,3.73459836 164.326195,4.37353995 164.326195,5.20936116 L164.326195,9.80179211" id="Fill-197"></path>
                <path d="M4.02606644,19.1419566 C3.34492281,19.1419566 2.85206759,19.3370019 2.54809101,19.727704 C2.24411444,20.1177946 2.08828955,20.7396163 2.08002611,21.5925575 L2.08002611,21.8255113 C2.08002611,22.7952351 2.235851,23.4892051 2.54809101,23.90681 C2.86033103,24.3256378 3.36085945,24.5341345 4.05026651,24.5341345 C4.62575614,24.5341345 5.07729416,24.2932321 5.40310983,23.8095931 C5.72951575,23.3265655 5.89242358,22.6613325 5.89242358,21.8126713 C5.89242358,20.9517816 5.72951575,20.2908286 5.40310983,19.8322581 C5.07729416,19.3712418 4.61808295,19.1419566 4.02606644,19.1419566 Z M4.17185714,25.4096985 C3.7380265,25.4096985 3.34197158,25.3271558 2.98310215,25.161459 C2.62423272,24.9945393 2.32320737,24.7401855 2.08002611,24.3959519 L2.00683564,24.3959519 C2.05582604,24.7988826 2.08002611,25.1810247 2.08002611,25.5423782 L2.08002611,28.3830698 L1.07011559,28.3830698 L1.07011559,18.3795066 L1.89114747,18.3795066 L2.03103571,19.3247734 L2.08002611,19.3247734 C2.33914401,18.9462998 2.64134985,18.6736032 2.98605338,18.5054607 C3.33016667,18.3373182 3.72563134,18.2535526 4.17185714,18.2535526 C5.05604531,18.2535526 5.73777919,18.5666034 6.21823925,19.1920936 C6.69869931,19.8175838 6.93892934,20.6955935 6.93892934,21.8255113 C6.93892934,22.9590976 6.69456759,23.8401645 6.20584409,24.4687118 C5.71771083,25.0954248 5.03951843,25.4096985 4.17185714,25.4096985 L4.17185714,25.4096985 Z" id="Fill-198"></path>
                <path d="M9.37723464,21.8255113 C9.37723464,22.7071895 9.54781567,23.3791482 9.88838748,23.8413873 C10.2289593,24.303015 10.7294877,24.5341345 11.390563,24.5341345 C12.051048,24.5341345 12.5527569,24.3048493 12.8956897,23.843833 C13.2380323,23.3852625 13.4092035,22.712081 13.4092035,21.8255113 C13.4092035,20.948113 13.2380323,20.2810458 12.8956897,19.8249209 C12.5527569,19.3694075 12.0475065,19.1419566 11.3781678,19.1419566 C10.7176828,19.1419566 10.2189251,19.3663504 9.88248502,19.8157495 C9.54545469,20.2651486 9.37723464,20.935273 9.37723464,21.8255113 Z M14.4557093,21.8255113 C14.4557093,22.9511491 14.1818353,23.8297702 13.6346774,24.4613747 C13.0869293,25.094202 12.3308245,25.4096985 11.3657727,25.4096985 C10.7702147,25.4096985 10.2413545,25.2647902 9.77860177,24.9749736 C9.31643932,24.6851571 8.95993088,24.2699979 8.70848618,23.7276618 C8.45704147,23.1859372 8.33131912,22.5512756 8.33131912,21.8255113 C8.33131912,20.6998735 8.60283218,19.8224752 9.14644854,19.1945393 C9.6900649,18.5672148 10.4438088,18.2535526 11.4088606,18.2535526 C12.3414489,18.2535526 13.0822074,18.574552 13.6311359,19.2171621 C14.1806548,19.8597723 14.4557093,20.729222 14.4557093,21.8255113 L14.4557093,21.8255113 Z" id="Fill-199"></path>
                <path d="M21.6679224,25.2837445 L20.4455234,21.2330382 C20.3687915,20.9854101 20.2247715,20.4222855 20.0140538,19.5448872 L19.9650634,19.5448872 C19.803336,20.2804343 19.6610868,20.8472275 19.5394962,21.2458781 L18.2805019,25.2837445 L17.1129958,25.2837445 L15.2944485,18.3795066 L16.3527592,18.3795066 C16.7824581,20.1135147 17.1100445,21.4348092 17.3349282,22.3421674 C17.5604021,23.2489142 17.6884854,23.8603416 17.7215392,24.1752266 L17.7699393,24.1752266 C17.814798,23.9355471 17.8862177,23.6261649 17.9859693,23.2464685 C18.0851306,22.8655492 18.1713065,22.5641155 18.2439067,22.3421674 L19.4668959,18.3795066 L20.5612116,18.3795066 L21.7535081,22.3421674 C21.9801624,23.0642631 22.1342166,23.6707991 22.2150803,24.1623867 L22.2640707,24.1623867 C22.2800073,24.0113641 22.3236855,23.7784103 22.394515,23.4635252 C22.4653445,23.1486401 22.8879604,21.4537634 23.6623629,18.3795066 L24.7088687,18.3795066 L22.8661214,25.2837445 L21.6679224,25.2837445" id="Fill-200"></path>
                <path d="M28.4551586,19.1291166 C27.9198057,19.1291166 27.493058,19.3100991 27.1749155,19.6708412 C26.8561828,20.0315834 26.6690749,20.5323424 26.6124113,21.1700611 L30.0966321,21.1700611 C30.0966321,20.510331 29.9549731,20.005292 29.6710649,19.6555556 C29.3877469,19.3045962 28.9816578,19.1291166 28.4551586,19.1291166 Z M28.7284424,25.4096985 C27.7433222,25.4096985 26.9659685,25.0990934 26.3963813,24.4772718 C25.8267942,23.8554501 25.5417055,22.9927261 25.5417055,21.8884883 C25.5417055,20.7750791 25.8061356,19.8915665 26.335586,19.2361164 C26.8644462,18.5812777 27.5751022,18.2535526 28.4669635,18.2535526 C29.3021613,18.2535526 29.9632366,18.5378663 30.4495991,19.1064938 C30.9359616,19.6763441 31.1791429,20.4265655 31.1791429,21.3589922 L31.1791429,22.0205566 L26.587621,22.0205566 C26.6082796,22.8313093 26.8060119,23.4464052 27.180818,23.8664558 C27.555624,24.2865064 28.083894,24.496226 28.7650376,24.496226 C29.4827765,24.496226 30.1916617,24.3409235 30.8934639,24.0303184 L30.8934639,24.9627451 C30.5369555,25.1217162 30.1993349,25.237276 29.8811924,25.3051444 C29.5624597,25.3754586 29.1787999,25.4096985 28.7284424,25.4096985 L28.7284424,25.4096985 Z" id="Fill-201"></path>
                <path d="M35.9412458,18.2535526 C36.2369589,18.2535526 36.5025695,18.2786211 36.7374873,18.3293696 L36.5975991,19.2990934 C36.3219543,19.2361164 36.078773,19.2049336 35.8680553,19.2049336 C35.3291609,19.2049336 34.8675887,19.4311617 34.4845192,19.8848408 C34.1014497,20.3385199 33.9096198,20.9040902 33.9096198,21.5797175 L33.9096198,25.2837445 L32.9002995,25.2837445 L32.9002995,18.3795066 L33.7331363,18.3795066 L33.8488245,19.6586127 L33.8978149,19.6586127 C34.1451279,19.2092136 34.443202,18.8625343 34.791447,18.6185747 C35.1402823,18.3746152 35.523942,18.2535526 35.9412458,18.2535526" id="Fill-202"></path>
                <path d="M40.526275,19.1291166 C39.990922,19.1291166 39.5647646,19.3100991 39.2460319,19.6708412 C38.9278894,20.0315834 38.7407815,20.5323424 38.6835276,21.1700611 L42.1683387,21.1700611 C42.1683387,20.510331 42.0260895,20.005292 41.7427715,19.6555556 C41.4588633,19.3045962 41.0533644,19.1291166 40.526275,19.1291166 Z M40.800149,25.4096985 C39.8150288,25.4096985 39.0370849,25.0990934 38.4674977,24.4772718 C37.8985008,23.8554501 37.6134121,22.9927261 37.6134121,21.8884883 C37.6134121,20.7750791 37.8778422,19.8915665 38.4067024,19.2361164 C38.9361528,18.5812777 39.6468088,18.2535526 40.5386701,18.2535526 C41.3738679,18.2535526 42.0343529,18.5378663 42.5213057,19.1064938 C43.0076682,19.6763441 43.2508495,20.4265655 43.2508495,21.3589922 L43.2508495,22.0205566 L38.6593276,22.0205566 C38.6799862,22.8313093 38.8777185,23.4464052 39.2525246,23.8664558 C39.6273306,24.2865064 40.1556006,24.496226 40.8367442,24.496226 C41.5538929,24.496226 42.2633683,24.3409235 42.9651705,24.0303184 L42.9651705,24.9627451 C42.6086621,25.1217162 42.2710415,25.237276 41.9523088,25.3051444 C41.6341663,25.3754586 41.2499163,25.4096985 40.800149,25.4096985 L40.800149,25.4096985 Z" id="Fill-203"></path>
                <path d="M47.4894044,24.5341345 C48.1788114,24.5341345 48.6787496,24.3397006 48.9886286,23.9520557 C49.2990979,23.5631879 49.4537423,22.9358634 49.4537423,22.0706937 L49.4537423,21.8505798 C49.4537423,20.872296 49.2967369,20.174046 48.9827262,19.7564411 C48.6687154,19.3382248 48.1670065,19.1291166 47.4775995,19.1291166 C46.8855829,19.1291166 46.4322742,19.3675733 46.1182634,19.8444866 C45.8042527,20.3201771 45.6472473,20.9939701 45.6472473,21.8628083 C45.6472473,22.745098 45.8030722,23.4109424 46.1153122,23.8603416 C46.4275522,24.3091292 46.8855829,24.5341345 47.4894044,24.5341345 Z M49.5086352,24.357432 L49.4537423,24.357432 C48.9880384,25.0587392 48.2903679,25.4096985 47.3619113,25.4096985 C46.4901183,25.4096985 45.8119259,25.1009277 45.3279243,24.4839975 C44.8433326,23.8664558 44.6013318,22.9890576 44.6013318,21.8505798 C44.6013318,20.712102 44.8445131,19.8285895 45.3308756,19.1982079 C45.8172381,18.5684377 46.49425,18.2535526 47.3619113,18.2535526 C48.2661678,18.2535526 48.9591164,18.5935062 49.4419374,19.2740249 L49.5210303,19.2740249 L49.4779424,18.776323 L49.4537423,18.2914611 L49.4537423,15.4813409 L50.4636528,15.4813409 L50.4636528,25.2837445 L49.642621,25.2837445 L49.5086352,24.357432 L49.5086352,24.357432 Z" id="Fill-204"></path>
                <path d="M58.794972,19.1419566 C58.1055649,19.1419566 57.6091682,19.3461733 57.3051916,19.7564411 C57.0006248,20.1648746 56.8489316,20.855176 56.8489316,21.8255113 C56.8489316,22.7952351 57.0047565,23.4892051 57.3175868,23.90681 C57.6292366,24.3256378 58.129765,24.5341345 58.819172,24.5341345 C59.4395204,24.5341345 59.9016828,24.2999578 60.2062496,23.8316045 C60.5096359,23.3632511 60.6619194,22.6900696 60.6619194,21.8126713 C60.6619194,20.9138731 60.5096359,20.2443601 60.2062496,19.8029096 C59.9016828,19.3620704 59.4312569,19.1419566 58.794972,19.1419566 Z M58.9407627,18.2663926 C59.8166874,18.2663926 60.4972408,18.5757748 60.9812423,19.1945393 C61.4652439,19.8145267 61.7078349,20.6913135 61.7078349,21.8255113 C61.7078349,22.9590976 61.4634731,23.8401645 60.9747496,24.4687118 C60.4866164,25.0954248 59.808424,25.4096985 58.9407627,25.4096985 C58.506932,25.4096985 58.1108771,25.3271558 57.7520077,25.161459 C57.3931382,24.9945393 57.0921129,24.7401855 56.8489316,24.3959519 L56.7763314,24.3959519 L56.5632527,25.2837445 L55.8396114,25.2837445 L55.8396114,15.4813409 L56.8489316,15.4813409 L56.8489316,17.8628505 C56.8489316,18.3966266 56.832995,18.8753742 56.8005315,19.2990934 L56.8489316,19.2990934 C57.3193575,18.6106262 58.0164378,18.2663926 58.9407627,18.2663926 L58.9407627,18.2663926 Z" id="Fill-205"></path>
                <path d="M62.4137688,18.3795066 L63.4962796,18.3795066 L64.9553671,22.3164875 C65.2752803,23.2158971 65.4741932,23.8646215 65.5515154,24.2632722 L65.5999155,24.2632722 C65.6524474,24.0492726 65.7634136,23.6830276 65.9316336,23.1633144 C66.0998537,22.6454354 66.6499627,21.0502214 67.5825511,18.3795066 L68.6650618,18.3795066 L65.8005991,26.2412397 C65.5172811,27.0183639 65.185563,27.5698714 64.8066252,27.8957622 C64.4270972,28.2204301 63.9619835,28.3830698 63.4106939,28.3830698 C63.1025856,28.3830698 62.7986091,28.3469956 62.498174,28.27607 L62.498174,27.4384145 C62.7212869,27.4885515 62.9703706,27.5142315 63.2466056,27.5142315 C63.9401444,27.5142315 64.4347704,27.1106894 64.7304835,26.3042167 L65.1017481,25.321653 L62.4137688,18.3795066" id="Fill-206"></path>
                <path d="M72.9827097,25.2843559 L73.9926202,25.2843559 L73.9926202,18.3795066 L72.9827097,18.3795066 L72.9827097,25.2843559 Z M72.8977143,16.5085389 C72.8977143,16.2694708 72.9543779,16.0933797 73.0682953,15.9820999 C73.1816225,15.8714316 73.3232815,15.8151803 73.4932723,15.8151803 C73.6561801,15.8151803 73.7954781,15.872043 73.912937,15.9857685 C74.0309862,16.0988826 74.0894205,16.2737508 74.0894205,16.5085389 C74.0894205,16.743327 74.0309862,16.9188067 73.912937,17.0349779 C73.7954781,17.1499262 73.6561801,17.2080118 73.4932723,17.2080118 C73.3232815,17.2080118 73.1816225,17.1499262 73.0682953,17.0349779 C72.9543779,16.9188067 72.8977143,16.743327 72.8977143,16.5085389 L72.8977143,16.5085389 Z" id="Fill-207"></path>
                <path d="M80.6936805,25.2837445 L80.6936805,20.8172676 C80.6936805,20.2547544 80.5703191,19.8347038 80.3235964,19.5571157 C80.0762834,19.2801392 79.6884919,19.1419566 79.1614025,19.1419566 C78.4643222,19.1419566 77.9537596,19.3370019 77.6291244,19.727704 C77.3044892,20.1177946 77.1427619,20.7628505 77.1427619,21.6616487 L77.1427619,25.2837445 L76.1328514,25.2837445 L76.1328514,18.3795066 L76.9544735,18.3795066 L77.1179716,19.3247734 L77.166962,19.3247734 C77.373548,18.9842083 77.6633587,18.7206831 78.0369843,18.5341978 C78.4094293,18.347101 78.8249624,18.2535526 79.2829931,18.2535526 C80.0857273,18.2535526 80.690139,18.4541008 81.0950476,18.8545857 C81.5011367,19.2556821 81.703591,19.8976808 81.703591,20.7793591 L81.703591,25.2837445 L80.6936805,25.2837445" id="Fill-208"></path>
                <path d="M88.3385438,25.2837445 L88.3385438,20.8172676 C88.3385438,20.2547544 88.2145922,19.8347038 87.9672792,19.5571157 C87.7205565,19.2801392 87.332765,19.1419566 86.8056755,19.1419566 C86.1085952,19.1419566 85.5980326,19.3370019 85.2733975,19.727704 C84.9487623,20.1177946 84.7870349,20.7628505 84.7870349,21.6616487 L84.7870349,25.2837445 L83.7771244,25.2837445 L83.7771244,18.3795066 L84.5987465,18.3795066 L84.7622446,19.3247734 L84.811235,19.3247734 C85.0184113,18.9842083 85.3076317,18.7206831 85.6812573,18.5341978 C86.0542926,18.347101 86.4692354,18.2535526 86.9272661,18.2535526 C87.7300004,18.2535526 88.3344121,18.4541008 88.7393207,18.8545857 C89.1448195,19.2556821 89.3478641,19.8976808 89.3478641,20.7793591 L89.3478641,25.2837445 L88.3385438,25.2837445" id="Fill-209"></path>
                <path d="M92.0966386,21.8255113 C92.0966386,22.7071895 92.2672197,23.3791482 92.6072012,23.8413873 C92.947773,24.303015 93.4488917,24.5341345 94.1093767,24.5341345 C94.770452,24.5341345 95.2721609,24.3048493 95.6150937,23.843833 C95.9574363,23.3852625 96.1286075,22.712081 96.1286075,21.8255113 C96.1286075,20.948113 95.9574363,20.2810458 95.6150937,19.8249209 C95.2721609,19.3694075 94.7663203,19.1419566 94.0975718,19.1419566 C93.4364965,19.1419566 92.9383291,19.3663504 92.6012988,19.8157495 C92.2648587,20.2651486 92.0966386,20.935273 92.0966386,21.8255113 Z M97.174523,21.8255113 C97.174523,22.9511491 96.9012392,23.8297702 96.3540814,24.4613747 C95.8063333,25.094202 95.0502285,25.4096985 94.0851767,25.4096985 C93.4890284,25.4096985 92.9601682,25.2647902 92.498596,24.9749736 C92.0358433,24.6851571 91.6793349,24.2699979 91.4278902,23.7276618 C91.1758552,23.1859372 91.0507231,22.5512756 91.0507231,21.8255113 C91.0507231,20.6998735 91.3222362,19.8224752 91.8652623,19.1945393 C92.4088786,18.5672148 93.1626225,18.2535526 94.1276743,18.2535526 C95.0602627,18.2535526 95.8010211,18.574552 96.3505399,19.2171621 C96.900649,19.8597723 97.174523,20.729222 97.174523,21.8255113 L97.174523,21.8255113 Z" id="Fill-210"></path>
                <path d="M106.856325,25.2837445 L105.834609,25.2837445 L104.040262,19.1162766 C103.955857,18.84358 103.860827,18.498735 103.754583,18.0835758 C103.648929,17.6678052 103.594036,17.41712 103.590495,17.3339658 C103.501368,17.887919 103.359709,18.494455 103.164927,19.1541851 L101.426063,25.2837445 L100.403758,25.2837445 L98.0380526,16.073814 L99.1329585,16.073814 L100.537743,21.7625343 C100.732525,22.560447 100.874184,23.2825427 100.963311,23.9294328 C101.073096,23.1608686 101.234824,22.4094244 101.450263,21.6738773 L103.043337,16.073814 L104.137652,16.073814 L105.809819,21.7246258 C106.0046,22.3751845 106.169278,23.1101202 106.302674,23.9294328 C106.379406,23.3326797 106.525787,22.606304 106.740636,21.7496943 L108.139519,16.073814 L109.233834,16.073814 L106.856325,25.2837445" id="Fill-211"></path>
                <path d="M112.293078,24.5469745 C112.92169,24.5469745 113.415136,24.3684377 113.773415,24.0113641 C114.132874,23.6542905 114.312309,23.1547544 114.312309,22.5121442 L114.312309,21.8884883 L113.302989,21.9325111 C112.499664,21.9618596 111.921224,22.0908708 111.565896,22.3189332 C111.211748,22.5488299 111.034084,22.9046806 111.034084,23.3877082 C111.034084,23.7655703 111.14446,24.0535526 111.365212,24.2504322 C111.586554,24.4479233 111.895843,24.5469745 112.293078,24.5469745 Z M114.573788,25.2837445 L114.372514,24.3011807 L114.324114,24.3011807 C113.992396,24.7340713 113.660678,25.0263335 113.32955,25.1791904 C112.999603,25.3332701 112.587021,25.4096985 112.092395,25.4096985 C111.43191,25.4096985 110.913674,25.2336074 110.538278,24.8808138 C110.163472,24.5280202 109.976364,24.0254269 109.976364,23.3748682 C109.976364,21.9808138 111.052382,21.2501581 113.205598,21.1829011 L114.336509,21.1449926 L114.336509,20.716382 C114.336509,20.1746574 114.223772,19.7741725 113.998889,19.5167615 C113.773415,19.2575163 113.413955,19.1291166 112.919329,19.1291166 C112.363908,19.1291166 111.735296,19.3052077 111.034084,19.6586127 L110.723615,18.8582543 C111.052382,18.6736032 111.411841,18.5286949 111.803765,18.4235294 C112.195098,18.3183639 112.587021,18.2663926 112.980124,18.2663926 C113.774595,18.2663926 114.363661,18.4485979 114.74673,18.8142315 C115.1298,19.1792536 115.321629,19.7656125 115.321629,20.5714738 L115.321629,25.2837445 L114.573788,25.2837445 L114.573788,25.2837445 Z" id="Fill-212"></path>
                <path d="M118.398581,21.7496943 C118.572703,21.4928948 118.838314,21.1578326 119.195412,20.7414506 L121.348039,18.3795066 L122.546238,18.3795066 L119.846454,21.3210837 L122.734526,25.2837445 L121.512717,25.2837445 L119.158817,22.0205566 L118.398581,22.7010753 L118.398581,25.2837445 L117.401656,25.2837445 L117.401656,15.4813409 L118.398581,15.4813409 L118.398581,20.6784735 C118.398581,20.9102045 118.382644,21.2666667 118.34959,21.7496943 L118.398581,21.7496943" id="Fill-213"></path>
                <path d="M126.480816,19.1291166 C125.946053,19.1291166 125.519306,19.3100991 125.201163,19.6708412 C124.88243,20.0315834 124.694732,20.5323424 124.638659,21.1700611 L128.12288,21.1700611 C128.12288,20.510331 127.981221,20.005292 127.696722,19.6555556 C127.413404,19.3045962 127.007906,19.1291166 126.480816,19.1291166 Z M126.75469,25.4096985 C125.76957,25.4096985 124.991626,25.0990934 124.422039,24.4772718 C123.853042,23.8554501 123.567953,22.9927261 123.567953,21.8884883 C123.567953,20.7750791 123.832383,19.8915665 124.361834,19.2361164 C124.890104,18.5812777 125.60135,18.2535526 126.493211,18.2535526 C127.328409,18.2535526 127.988894,18.5378663 128.475847,19.1064938 C128.962209,19.6763441 129.205391,20.4265655 129.205391,21.3589922 L129.205391,22.0205566 L124.613869,22.0205566 C124.634527,22.8313093 124.83226,23.4464052 125.207066,23.8664558 C125.581281,24.2865064 126.110142,24.496226 126.790695,24.496226 C127.508434,24.496226 128.217909,24.3409235 128.919712,24.0303184 L128.919712,24.9627451 C128.562613,25.1217162 128.225583,25.237276 127.90685,25.3051444 C127.588707,25.3754586 127.204457,25.4096985 126.75469,25.4096985 L126.75469,25.4096985 Z" id="Fill-214"></path>
                <polyline id="Fill-215" points="132.164293 20.9884672 131.561652 20.9884672 131.561652 16.1734767 129.920178 16.1734767 129.920178 15.6189121 133.805766 15.6189121 133.805766 16.1734767 132.164293 16.1734767 132.164293 20.9884672"></polyline>
                <path d="M136.879766,20.9884672 L135.120834,16.2285052 L135.093092,16.2285052 C135.126146,16.6057559 135.142673,17.0539321 135.142673,17.5730339 L135.142673,20.9884672 L134.586071,20.9884672 L134.586071,15.6189121 L135.493279,15.6189121 L137.135343,20.0480919 L137.163084,20.0480919 L138.819314,15.6189121 L139.719439,15.6189121 L139.719439,20.9884672 L139.117388,20.9884672 L139.117388,17.5290112 C139.117388,17.1321948 139.133325,16.7011385 139.166969,16.2358423 L139.138637,16.2358423 L137.365538,20.9884672 L136.879766,20.9884672" id="Fill-216"></path>
            </g>
        </g>
    </g>
</svg>