<?xml version="1.0" encoding="UTF-8"?>
<svg width="21px" height="20px" viewBox="0 0 21 20" version="1.1" xmlns="http://www.w3.org/2000/svg" xmlns:xlink="http://www.w3.org/1999/xlink">
    <title>Eclipse Icon/Offline</title>
    <defs>
        <linearGradient x1="49.9989479%" y1="710.614566%" x2="49.9989479%" y2="0.367489824%" id="linearGradient-1">
            <stop stop-color="#454545" offset="0%"></stop>
            <stop stop-color="#3D3D3D" offset="100%"></stop>
        </linearGradient>
        <linearGradient x1="49.9995491%" y1="517.755001%" x2="49.9995491%" y2="-192.492076%" id="linearGradient-2">
            <stop stop-color="#454545" offset="0%"></stop>
            <stop stop-color="#2B2B2B" offset="100%"></stop>
        </linearGradient>
        <linearGradient x1="49.9995043%" y1="99.3442905%" x2="49.9995043%" y2="-114.429861%" id="linearGradient-3">
            <stop stop-color="#454545" offset="0.0300480769%"></stop>
            <stop stop-color="#3D3D3D" offset="100%"></stop>
        </linearGradient>
        <radialGradient cx="50%" cy="0%" fx="50%" fy="0%" r="100%" gradientTransform="translate(0.500000,0.000000),scale(1.000000,0.997500),translate(-0.500000,-0.000000)" id="radialGradient-4">
            <stop stop-color="#B3B3B3" offset="0%"></stop>
            <stop stop-color="#999999" offset="100%"></stop>
        </radialGradient>
    </defs>
    <g id="Module-Path" stroke="none" stroke-width="1" fill="none" fill-rule="evenodd">
        <g id="Solution-–-Module-Details" transform="translate(-430.000000, -161.000000)">
            <g id="Group" transform="translate(430.000000, 161.000000)">
                <path d="M12.6,16.8421053 C12.6,17.5451191 12.7374897,18.21594 12.986983,18.8290182 C12.5103804,18.8989984 12.0201579,18.9356347 11.5144909,18.9356347 C8.93683636,18.9356347 6.7326,18.0283503 4.89949091,16.2107534 C3.8380951,15.1585586 3.08723271,13.9783249 2.64510185,12.6709455 L2.541,12.3414523 L15.128479,12.3404282 C13.6126321,13.2634189 12.6,14.9342093 12.6,16.8421053 Z" id="Path" fill="#2B2B2B" fill-rule="nonzero"></path>
                <path d="M3.97491818,8.03743447 L2.30503636,8.03743447 C2.24394545,8.40118095 2.20232727,8.77249759 2.18342727,9.15327694 L4.16811818,9.15327694 L5.16370909,9.15327694 L19.5343909,9.15327694 L20.8461273,9.15327694 C20.8270364,8.77249759 20.7854182,8.40118095 20.7237545,8.03743447" id="Path" fill="#2B2B2B" fill-rule="nonzero"></path>
                <path d="M2.18342727,10.1894434 C2.20232727,10.570412 2.24375455,10.9417286 2.30503636,11.3052859 L4.04116364,11.3052859 L5.3571,11.3052859 L19.4171727,11.3052859 L20.7241364,11.3052859 C20.7856091,10.9417286 20.8276091,10.570412 20.8467,10.1894434" id="Path" fill="#2B2B2B" fill-rule="nonzero"></path>
                <path d="M20.4868364,7.00107875 C20.0607273,5.55782661 19.2696,4.26181419 18.1117364,3.11379852 C16.6591091,1.67395295 14.9640273,0.809818505 13.0287818,0.519124132 C12.5392909,0.445504268 12.0351,0.406896421 11.5144909,0.406896421 C8.93683636,0.406896421 6.73240909,1.30944946 4.89949091,3.11379852 C3.74926364,4.26181419 2.96348182,5.55782661 2.54042727,7.00107875" id="Path" fill="#2B2B2B" fill-rule="nonzero"></path>
                <path d="M1.62845455,9.67164405 C1.62845455,4.7843449 5.33113636,0.723518613 10.1479636,0.00927345332 C10.0284545,0.00492060788 9.90837273,9.34924652e-15 9.78771818,9.34924652e-15 C4.38231818,9.34924652e-15 -1.95843342e-14,4.33032419 -1.95843342e-14,9.67164405 C-1.95843342e-14,15.0131532 4.38212727,19.3430988 9.78771818,19.3430988 C9.90875455,19.3430988 10.0288364,19.338746 10.1487273,19.3342039 C5.33113636,18.6199587 1.62845455,14.5591325 1.62845455,9.67164405 Z" id="Path" fill="#A5A5A5" fill-rule="nonzero"></path>
                <path d="M17.8658455,9.15308768 C17.8345364,8.77060505 17.7696273,8.39758512 17.6726455,8.03724522 L5.3571,8.03724522 C5.26011818,8.39720661 5.19501818,8.77041579 5.16370909,9.15308768 L17.8658455,9.15308768 Z" id="Path" fill="url(#linearGradient-1)" fill-rule="nonzero"></path>
                <path d="M17.8658455,10.1894434 L5.1639,10.1894434 C5.19520909,10.571926 5.25992727,10.9447567 5.3571,11.3052859 L17.6728364,11.3052859 C17.7698182,10.944946 17.8345364,10.571926 17.8658455,10.1894434 Z" id="Path" fill="url(#linearGradient-2)" fill-rule="nonzero"></path>
                <path d="M12.687137,15.8820558 L12.5869408,15.9014321 C12.2384143,15.9599762 11.8802455,15.9904616 11.5148727,15.9904616 C9.04860682,15.9904616 6.91056843,14.601472 5.85068122,12.5698005 L5.73739091,12.3414523 L15.128417,12.340466 C13.8731095,13.1048395 12.9629114,14.3820492 12.687137,15.8820558 Z" id="Path" fill="url(#linearGradient-3)" fill-rule="nonzero"></path>
                <path d="M4.22252727,10.1894434 L5.15492727,10.1894434 L17.8897091,10.1894434 L19.5626455,10.1894434 L20.8335273,10.1894434 C20.8423091,10.024603 20.8472727,9.85862715 20.8472727,9.69132648 C20.8472727,9.51058877 20.8405909,9.33155434 20.8302818,9.15289843 L19.5624545,9.15289843 L17.8895182,9.15289843 L5.15473636,9.15289843 L4.15647273,9.15289843 L2.18342727,9.15289843 C2.17311818,9.33117584 2.16643636,9.51058877 2.16643636,9.69132648 C2.16643636,9.85862715 2.1714,10.024603 2.18018182,10.1894434 L4.22252727,10.1894434 Z" id="Path" fill="#FFFFFF" fill-rule="nonzero"></path>
                <path d="M5.70016364,7.00107875 L2.54023636,7.00107875 C2.43638182,7.3385189 2.36937273,7.68466474 2.30503636,8.03762372 L3.93253636,8.03762372 L5.31834545,8.03762372 L17.6661545,8.03762372 L19.4148818,8.03762372 L20.6647636,8.03762372 C20.6002364,7.68504324 20.5171909,7.33889741 20.4135273,7.00107875" id="Path" fill="#FFFFFF" fill-rule="nonzero"></path>
                <path d="M20.7216545,11.3050966 C20.6797818,11.5404026 20.6292545,11.7725964 20.5700162,12.0012295 L20.4889519,12.2911839 C19.7136022,11.8383476 18.8120184,11.5789474 17.85,11.5789474 C16.8531877,11.5789474 15.9212607,11.8574507 15.1274191,12.3410738 L2.54080909,12.3414523 C2.47271818,12.1162399 2.41837273,11.8874106 2.37115455,11.6554131 L2.30484545,11.3050966 L20.7216545,11.3050966 Z" id="Path" fill="#FFFFFF" fill-rule="nonzero"></path>
                <ellipse id="Oval-Copy" fill="url(#radialGradient-4)" cx="17.85" cy="16.8421053" rx="3.15" ry="3.15789474"></ellipse>
            </g>
        </g>
    </g>
</svg>