<?xml version="1.0" encoding="UTF-8"?>
<svg width="20px" height="19px" viewBox="0 0 20 19" version="1.1" xmlns="http://www.w3.org/2000/svg" xmlns:xlink="http://www.w3.org/1999/xlink">
    <title>Eclipse Icon/Online</title>
    <defs>
        <linearGradient x1="49.9989479%" y1="1089.40468%" x2="49.9989479%" y2="-159.49118%" id="linearGradient-1">
            <stop stop-color="#473788" offset="30.33%"></stop>
            <stop stop-color="#2C2255" offset="87.2%"></stop>
        </linearGradient>
        <linearGradient x1="49.9995491%" y1="896.545115%" x2="49.9995491%" y2="-352.350746%" id="linearGradient-2">
            <stop stop-color="#473788" offset="30.33%"></stop>
            <stop stop-color="#2C2255" offset="87.2%"></stop>
        </linearGradient>
        <linearGradient x1="49.9995043%" y1="215.167263%" x2="49.9995043%" y2="-166.708677%" id="linearGradient-3">
            <stop stop-color="#473788" offset="30.33%"></stop>
            <stop stop-color="#2C2255" offset="86.31%"></stop>
        </linearGradient>
        <radialGradient cx="50%" cy="0%" fx="50%" fy="0%" r="100%" id="radialGradient-4">
            <stop stop-color="#00B383" offset="0%"></stop>
            <stop stop-color="#008F72" offset="100%"></stop>
        </radialGradient>
    </defs>
    <g id="Module-Path" stroke="none" stroke-width="1" fill="none" fill-rule="evenodd">
        <g id="Solution-–-Module-Details" transform="translate(-404.000000, -161.000000)">
            <g id="Group" transform="translate(404.000000, 161.000000)">
                <path d="M12,16 C12,16.6678631 12.1309425,17.305143 12.3685552,17.8875673 C11.914648,17.9540484 11.4477695,17.9888529 10.9661818,17.9888529 C8.51127273,17.9888529 6.412,17.1269328 4.66618182,15.4002157 C3.65532867,14.4006307 2.94022162,13.2794087 2.51914462,12.0373983 L2.42,11.7243797 L14.4080752,11.7234068 C12.9644115,12.600248 12,14.1874988 12,16 Z" id="Path" fill="#2C2255" fill-rule="nonzero"></path>
                <path d="M3.78563636,7.63556275 L2.19527273,7.63556275 C2.13709091,7.9811219 2.09745455,8.33387271 2.07945455,8.69561309 L3.96963636,8.69561309 L4.91781818,8.69561309 L18.6041818,8.69561309 L19.8534545,8.69561309 C19.8352727,8.33387271 19.7956364,7.9811219 19.7369091,7.63556275" id="Path" fill="#2C2255" fill-rule="nonzero"></path>
                <path d="M2.07945455,9.67997123 C2.09745455,10.0418914 2.13690909,10.3946422 2.19527273,10.7400216 L3.84872727,10.7400216 L5.102,10.7400216 L18.4925455,10.7400216 L19.7372727,10.7400216 C19.7958182,10.3946422 19.8358182,10.0418914 19.854,9.67997123" id="Path" fill="#2C2255" fill-rule="nonzero"></path>
                <path d="M19.5112727,6.65102481 C19.1054545,5.27993528 18.352,4.04872348 17.2492727,2.95810859 C15.8658182,1.5902553 14.2514545,0.76932758 12.4083636,0.493167925 C11.9421818,0.423229054 11.462,0.3865516 10.9661818,0.3865516 C8.51127273,0.3865516 6.41181818,1.24397699 4.66618182,2.95810859 C3.57072727,4.04872348 2.82236364,5.27993528 2.41945455,6.65102481" id="Path" fill="#2C2255" fill-rule="nonzero"></path>
                <path d="M1.55090909,9.18806185 C1.55090909,4.54512765 5.07727273,0.687342682 9.66472727,0.00880978065 C9.55090909,0.00467457749 9.43654545,-4.79616347e-14 9.32163636,-4.79616347e-14 C4.17363636,-4.79616347e-14 -1.86517468e-14,4.11380798 -1.86517468e-14,9.18806185 C-1.86517468e-14,14.2624955 4.17345455,18.3759439 9.32163636,18.3759439 C9.43690909,18.3759439 9.55127273,18.3718087 9.66545455,18.3674937 C5.07727273,17.6889608 1.55090909,13.8311758 1.55090909,9.18806185 Z" id="Path" fill="#F7941E" fill-rule="nonzero"></path>
                <path d="M17.0150909,8.6954333 C16.9852727,8.33207479 16.9234545,7.97770586 16.8310909,7.63538296 L5.102,7.63538296 C5.00963636,7.97734628 4.94763636,8.331895 4.91781818,8.6954333 L17.0150909,8.6954333 Z" id="Path" fill="url(#linearGradient-1)" fill-rule="nonzero"></path>
                <path d="M17.0150909,9.67997123 L4.918,9.67997123 C4.94781818,10.0433297 5.00945455,10.3975189 5.102,10.7400216 L16.8312727,10.7400216 C16.9236364,10.3976987 16.9852727,10.0433297 17.0150909,9.67997123 Z" id="Path" fill="url(#linearGradient-2)" fill-rule="nonzero"></path>
                <path d="M12.0829877,15.087953 L11.9875627,15.1063605 C11.6556327,15.1619774 11.3145195,15.1909385 10.9665455,15.1909385 C8.61772078,15.1909385 6.58149374,13.8713984 5.57207735,11.9413105 L5.46418182,11.7243797 L14.4080162,11.7234427 C13.2124852,12.4495975 12.3456299,13.6629467 12.0829877,15.087953 Z" id="Path" fill="url(#linearGradient-3)" fill-rule="nonzero"></path>
                <path d="M4.02145455,9.67997123 L4.90945455,9.67997123 L17.0378182,9.67997123 L18.6310909,9.67997123 L19.8414545,9.67997123 C19.8498182,9.52337289 19.8545455,9.36569579 19.8545455,9.20676016 C19.8545455,9.03505933 19.8481818,8.86497663 19.8383636,8.69525351 L18.6309091,8.69525351 L17.0376364,8.69525351 L4.90927273,8.69525351 L3.95854545,8.69525351 L2.07945455,8.69525351 C2.06963636,8.86461704 2.06327273,9.03505933 2.06327273,9.20676016 C2.06327273,9.36569579 2.068,9.52337289 2.07636364,9.67997123 L4.02145455,9.67997123 Z" id="Path" fill="#FFFFFF" fill-rule="nonzero"></path>
                <path d="M5.42872727,6.65102481 L2.41927273,6.65102481 C2.32036364,6.97159295 2.25654545,7.3004315 2.19527273,7.63574254 L3.74527273,7.63574254 L5.06509091,7.63574254 L16.8249091,7.63574254 L18.4903636,7.63574254 L19.6807273,7.63574254 C19.6192727,7.30079108 19.5401818,6.97195254 19.4414545,6.65102481" id="Path" fill="#FFFFFF" fill-rule="nonzero"></path>
                <path d="M19.7349091,10.7398418 C19.6950303,10.9633825 19.6469091,11.1839666 19.5904916,11.401168 L19.5132875,11.6766247 C18.7748592,11.2464302 17.916208,11 17,11 C16.050655,11 15.1631055,11.2645781 14.4070658,11.7240201 L2.41981818,11.7243797 C2.3549697,11.5104279 2.30321212,11.2930401 2.25824242,11.0726424 L2.19509091,10.7398418 L19.7349091,10.7398418 Z" id="Path" fill="#FFFFFF" fill-rule="nonzero"></path>
                <circle id="Oval-Copy" fill="url(#radialGradient-4)" cx="17" cy="16" r="3"></circle>
            </g>
        </g>
    </g>
</svg>