<?xml version="1.0" encoding="UTF-8"?>
<svg width="24px" height="24px" viewBox="0 0 24 24" version="1.1" xmlns="http://www.w3.org/2000/svg" xmlns:xlink="http://www.w3.org/1999/xlink">
    <g id="Dependency-Graph" stroke="none" stroke-width="1" fill="none" fill-rule="evenodd">
        <g id="Artboard">
            <g id="Icon/Graph">
                <polygon id="Rectangle" points="0 0 24 0 24 24 0 24"></polygon>
                <path d="M18.9081362,14.1097046 C18.4228747,14.1097046 18.0009083,14.2995781 17.6633351,14.5738397 L14.7728647,12.907173 C14.857258,12.6329114 14.920553,12.3375527 14.920553,12.021097 C14.920553,11.7046414 14.857258,11.4092827 14.7728647,11.1350211 L17.6633351,9.46835443 C18.0009083,9.76371308 18.4439731,9.93248945 18.9081362,9.93248945 C19.9841507,9.93248945 20.849182,9.06751055 20.849182,7.99156118 C20.849182,6.91561181 19.9841507,6.05063291 18.9081362,6.05063291 C17.8321217,6.05063291 16.9670904,6.91561181 16.9670904,7.99156118 C16.9670904,8.11814346 16.9881887,8.22362869 17.009287,8.32911392 L14.1188167,9.99578059 C13.7179485,9.55274262 13.1904904,9.23628692 12.578639,9.08860759 L12.578639,5.75527426 C13.3170804,5.48101266 13.8656368,4.78481013 13.8656368,3.94092827 C13.8656368,2.8649789 13.0006055,2 11.924591,2 C10.8485765,2 9.98354519,2.8649789 9.98354519,3.94092827 C9.98354519,4.78481013 10.5321016,5.48101266 11.2705429,5.75527426 L11.2705429,9.08860759 C10.6586916,9.21518987 10.1312335,9.55274262 9.73036531,9.97468354 L6.83989494,8.30801688 C6.86099326,8.20253165 6.88209159,8.07594937 6.88209159,7.97046414 C6.88209159,6.89451477 6.01706031,6.02953586 4.94104579,6.02953586 C3.86503128,6.02953586 3,6.89451477 3,7.97046414 C3,9.0464135 3.86503128,9.91139241 4.94104579,9.91139241 C5.42630724,9.91139241 5.84827372,9.72151899 6.1858469,9.44725738 L9.07631727,11.1139241 C8.99192397,11.3881857 8.928629,11.6835443 8.928629,12 C8.928629,12.3164557 8.99192397,12.6118143 9.07631727,12.8860759 L6.1858469,14.5527426 C5.84827372,14.257384 5.40520892,14.0886076 4.94104579,14.0886076 C3.86503128,14.0886076 3,14.9535865 3,16.0295359 C3,17.1054852 3.86503128,17.9704641 4.94104579,17.9704641 C6.01706031,17.9704641 6.88209159,17.1054852 6.88209159,16.0295359 C6.88209159,15.9029536 6.86099326,15.7974684 6.83989494,15.6919831 L9.73036531,14.0253165 C10.1312335,14.4683544 10.6586916,14.7848101 11.2705429,14.9113924 L11.2705429,18.2447257 C10.5321016,18.5189873 9.98354519,19.2151899 9.98354519,20.0590717 C9.98354519,21.1350211 10.8485765,22 11.924591,22 C13.0006055,22 13.8656368,21.1350211 13.8656368,20.0590717 C13.8656368,19.2151899 13.3170804,18.5189873 12.578639,18.2447257 L12.578639,14.9535865 C13.1904904,14.8270042 13.7179485,14.4894515 14.1188167,14.0464135 L17.009287,15.7130802 C16.9881887,15.8185654 16.9670904,15.9451477 16.9670904,16.0506329 C16.9670904,17.1265823 17.8321217,17.9915612 18.9081362,17.9915612 C19.9841507,17.9915612 20.849182,17.1265823 20.849182,16.0506329 C20.849182,14.9957806 19.9630524,14.1097046 18.9081362,14.1097046 Z M11.9034927,13.7088608 C10.9751664,13.7088608 10.2156268,12.9493671 10.2156268,12.021097 C10.2156268,11.092827 10.9751664,10.3333333 11.9034927,10.3333333 C12.8318189,10.3333333 13.5913586,11.092827 13.5913586,12.021097 C13.5913586,12.9493671 12.8318189,13.7088608 11.9034927,13.7088608 Z" id="Graph-Icon" fill="#000000" fill-rule="evenodd"></path>
            </g>
        </g>
    </g>
</svg>