<?xml version="1.0" encoding="UTF-8"?>
<svg width="24px" height="24px" viewBox="0 0 24 24" version="1.1" xmlns="http://www.w3.org/2000/svg" xmlns:xlink="http://www.w3.org/1999/xlink">
    <g id="Dependency-Graph" stroke="none" stroke-width="1" fill="none" fill-rule="evenodd">
        <g id="Artboard" fill="#000000">
            <g id="Icon/Outgoing">
                <g id="Outgoing-Icon" transform="translate(12.000000, 12.000000) scale(-1, 1) translate(-12.000000, -12.000000) translate(4.000000, 4.000000)">
                    <circle id="Oval" cx="12" cy="12" r="4"></circle>
                    <path d="M6.52138943,0.252901741 L1.73345085,5.04084088 L1.73345085,1.73253439 C1.73345085,1.2538551 1.34540466,0.865808863 0.866725424,0.865808863 C0.38804619,0.865808863 0,1.2538551 0,1.73253439 L0,7.13327448 C0,7.61194435 0.388055608,8 0.866725424,8 L6.26746489,8 C6.74614412,8 7.13419031,7.61195376 7.13419031,7.13327448 C7.13419031,6.65459519 6.74614412,6.26654895 6.26746489,6.26654895 L2.95915877,6.26654895 L7.74699335,1.47871598 C8.08464518,1.14012967 8.08429,0.592053905 7.74619962,0.253905501 C7.40810923,-0.084242903 6.8600336,-0.0846920634 6.52138943,0.252901741 Z" id="Path" transform="translate(4.000000, 4.000000) scale(1, -1) rotate(-360.000000) translate(-4.000000, -4.000000) "></path>
                </g>
            </g>
        </g>
    </g>
</svg>