<svg id="Layer_1" width="24px" height="24px" data-name="Layer 1" xmlns="http://www.w3.org/2000/svg" viewBox="0 0 1024 1024"><path d="M455.86,668.9A286.83,286.83,0,0,1,467.39,632H409.25V420h205.5v54.63a286.88,286.88,0,0,1,54.31-18.89q7.73-1.84,15.56-3.25V420h242.5c18.19,0,32.88-15.16,32.88-33.91V97.91C960,79.15,945.31,64,927.12,64H372.26c-18.19,0-32.88,15.15-32.88,33.91V348H96.88C78.69,348,64,363.13,64,381.88V670.09C64,688.85,78.69,704,96.88,704H449.77A288.37,288.37,0,0,1,455.86,668.9ZM684.62,136.05H890.13V348H684.62Zm-275.37,0h205.5V348H409.25ZM339.38,632H133.87V420H339.38ZM736,511.93a224.22,224.22,0,0,0-51.38,5.94h0a219.31,219.31,0,0,0-24.76,7.36l-.11,0q-2.81,1-5.58,2.12l-.46.17q-2.57,1-5.1,2.1l-.85.35c-1.58.68-3.15,1.39-4.72,2.1-.37.18-.75.34-1.12.51q-2.79,1.29-5.54,2.66l-.2.1-.37.18c-1.32.66-2.63,1.33-3.93,2l-.46.24c-1.3.69-2.6,1.39-3.89,2.11l-.34.19h0c-2,1.13-4.06,2.31-6.06,3.51l-.31.18c-2,1.22-4,2.48-6,3.76h0q-7.83,5.05-15.2,10.71l-.37.29c-1.14.87-2.26,1.76-3.38,2.66l-.49.4c-1.11.89-2.2,1.79-3.29,2.71l-.44.36c-1.12.95-2.22,1.9-3.32,2.86l-.17.15a226.84,226.84,0,0,0-19.94,19.89l-.39.44c-.91,1-1.82,2.1-2.72,3.16l-.51.6c-.88,1.05-1.75,2.1-2.62,3.17l-.47.59q-1.32,1.63-2.61,3.3l-.3.39a225.2,225.2,0,0,0-15.71,23.23l-.31.54c-.7,1.19-1.38,2.39-2.06,3.6l-.42.74c-.66,1.19-1.3,2.38-1.94,3.58l-.4.76-1,1.89c-.31.6-.62,1.2-.92,1.8l-.29.57c-.83,1.67-1.64,3.36-2.43,5l-.66,1.42q-1,2.09-1.88,4.19c-.15.36-.31.72-.47,1.07q-1.06,2.49-2.07,5l-.65,1.67c-.48,1.21-.94,2.43-1.4,3.66-.23.61-.45,1.22-.68,1.84q-.87,2.42-1.69,4.85c-.23.69-.45,1.38-.67,2.07-.34,1.05-.68,2.11-1,3.18-.26.82-.51,1.65-.76,2.48-.3,1-.6,2.09-.89,3.14-.38,1.37-.75,2.74-1.11,4.12-.23.88-.46,1.77-.67,2.66s-.49,2-.72,3l-.51,2.28q-.62,2.82-1.16,5.67c-.12.62-.25,1.24-.37,1.87-.2,1.12-.39,2.24-.58,3.36l-.33,2c-.18,1.14-.36,2.28-.52,3.43h0A224.2,224.2,0,0,0,512,735.93c0,123.71,100.29,224,224,224s224-100.29,224-224S859.71,511.93,736,511.93ZM768,864a32,32,0,0,1-32,32h0a32,32,0,0,1-32-32V736a32,32,0,0,1,32-32h0a32,32,0,0,1,32,32ZM736,647.93a36,36,0,1,1,36-36A36,36,0,0,1,736,647.93Z"/></svg>