<?xml version="1.0" encoding="UTF-8"?>
<svg width="24px" height="24px" viewBox="0 0 24 24" version="1.1" xmlns="http://www.w3.org/2000/svg" xmlns:xlink="http://www.w3.org/1999/xlink">
    <defs>
        <path d="M3.293,3.293 C3.684,2.902 4.316,2.902 4.707,3.293 L4.707,3.293 L11.917,10.50375 L12,10.5 C12.7783529,10.5 13.4202907,11.0961522 13.4931195,11.8557631 L13.5,12 C13.5,12.0280396 13.4992263,12.0559022 13.4976993,12.0835675 L20.707,19.293 C21.098,19.684 21.098,20.316 20.707,20.707 C20.512,20.902 20.256,21 20,21 C19.744,21 19.488,20.902 19.293,20.707 L19.293,20.707 L12.081,13.49575 L12,13.5 C11.2216471,13.5 10.5797093,12.9038478 10.5068805,12.1442369 L10.5,12 C10.5,11.9722982 10.5007551,11.9447692 10.5022459,11.9174325 L3.293,4.707 C2.902,4.316 2.902,3.684 3.293,3.293 Z M5.045,7.8731 L6.576,9.4051 L8.562,11.3901 C8.526,11.5891 8.5,11.7911 8.5,12.0001 C8.5,13.9301 10.07,15.5001 12,15.5001 C12.209,15.5001 12.411,15.4741 12.61,15.4381 L12.61,15.4381 L13.879,16.7071 L13.948,16.7771 L15.293,18.1211 L15.498,18.3261 C14.526,18.7111 13.455,18.9661 12.271,18.9961 C12.189,18.9991 12.106,19.0001 12.025,19.0001 C6.162,19.0001 2.762,13.5951 2.132,12.4971 C1.956,12.1891 1.956,11.8101 2.132,11.5021 C2.547,10.7801 3.523,9.2611 5.045,7.8731 L5.045,7.8731 Z M11.7298,5.0032 C17.7058,4.8162 21.2298,10.3902 21.8678,11.5022 C22.0438,11.8102 22.0438,12.1892 21.8678,12.4972 C21.4528,13.2202 20.4768,14.7392 18.9548,16.1272 L18.9548,16.1272 L18.1208,15.2932 L15.4388,12.6102 C15.4738,12.4112 15.4998,12.2092 15.4998,12.0002 C15.4998,10.0702 13.9298,8.5002 11.9998,8.5002 C11.7908,8.5002 11.5888,8.5262 11.3898,8.5612 L11.3898,8.5612 L8.5928,5.7642 L8.5018,5.6742 C9.4738,5.2892 10.5458,5.0342 11.7298,5.0032 Z" id="path-hide"></path>
    </defs>
    <g id="Dependency-Graph" stroke="none" stroke-width="1" fill="none" fill-rule="evenodd">
        <g id="Artboard">
            <g id="Icon/Hide">
                <g id="27)-Icon/eye-off-fill">
                    <mask id="mask-2" fill="white">
                        <use xlink:href="#path-hide"></use>
                    </mask>
                    <use id="🎨-Icon-Сolor" fill="#101426" fill-rule="evenodd" xlink:href="#path-hide"></use>
                </g>
            </g>
        </g>
    </g>
</svg>